G04 #@! TF.GenerationSoftware,KiCad,Pcbnew,(5.1.0-1390-gee00ff9b5)*
G04 #@! TF.CreationDate,2019-07-31T14:47:23-07:00*
G04 #@! TF.ProjectId,attiny1614,61747469-6e79-4313-9631-342e6b696361,rev?*
G04 #@! TF.SameCoordinates,Original*
G04 #@! TF.FileFunction,Legend,Top*
G04 #@! TF.FilePolarity,Positive*
%FSLAX46Y46*%
G04 Gerber Fmt 4.6, Leading zero omitted, Abs format (unit mm)*
G04 Created by KiCad (PCBNEW (5.1.0-1390-gee00ff9b5)) date 2019-07-31 14:47:23*
%MOMM*%
%LPD*%
G04 APERTURE LIST*
%ADD10C,0.152400*%
%ADD11C,0.120000*%
G04 APERTURE END LIST*
D10*
X133248400Y-81422723D02*
X133287104Y-81345314D01*
X133287104Y-81229200D01*
X133248400Y-81113085D01*
X133170990Y-81035676D01*
X133093580Y-80996971D01*
X132938761Y-80958266D01*
X132822647Y-80958266D01*
X132667828Y-80996971D01*
X132590419Y-81035676D01*
X132513009Y-81113085D01*
X132474304Y-81229200D01*
X132474304Y-81306609D01*
X132513009Y-81422723D01*
X132551714Y-81461428D01*
X132822647Y-81461428D01*
X132822647Y-81306609D01*
X132474304Y-81809771D02*
X133287104Y-81809771D01*
X132474304Y-82274228D01*
X133287104Y-82274228D01*
X132474304Y-82661276D02*
X133287104Y-82661276D01*
X133287104Y-82854800D01*
X133248400Y-82970914D01*
X133170990Y-83048323D01*
X133093580Y-83087028D01*
X132938761Y-83125733D01*
X132822647Y-83125733D01*
X132667828Y-83087028D01*
X132590419Y-83048323D01*
X132513009Y-82970914D01*
X132474304Y-82854800D01*
X132474304Y-82661276D01*
X127824895Y-83125733D02*
X128637695Y-82854800D01*
X127824895Y-82583866D01*
X128560285Y-81848476D02*
X128598990Y-81887180D01*
X128637695Y-82003295D01*
X128637695Y-82080704D01*
X128598990Y-82196819D01*
X128521580Y-82274228D01*
X128444171Y-82312933D01*
X128289352Y-82351638D01*
X128173238Y-82351638D01*
X128018419Y-82312933D01*
X127941009Y-82274228D01*
X127863600Y-82196819D01*
X127824895Y-82080704D01*
X127824895Y-82003295D01*
X127863600Y-81887180D01*
X127902304Y-81848476D01*
X128560285Y-81035676D02*
X128598990Y-81074380D01*
X128637695Y-81190495D01*
X128637695Y-81267904D01*
X128598990Y-81384019D01*
X128521580Y-81461428D01*
X128444171Y-81500133D01*
X128289352Y-81538838D01*
X128173238Y-81538838D01*
X128018419Y-81500133D01*
X127941009Y-81461428D01*
X127863600Y-81384019D01*
X127824895Y-81267904D01*
X127824895Y-81190495D01*
X127863600Y-81074380D01*
X127902304Y-81035676D01*
X133238723Y-95859600D02*
X133161314Y-95820895D01*
X133045200Y-95820895D01*
X132929085Y-95859600D01*
X132851676Y-95937009D01*
X132812971Y-96014419D01*
X132774266Y-96169238D01*
X132774266Y-96285352D01*
X132812971Y-96440171D01*
X132851676Y-96517580D01*
X132929085Y-96594990D01*
X133045200Y-96633695D01*
X133122609Y-96633695D01*
X133238723Y-96594990D01*
X133277428Y-96556285D01*
X133277428Y-96285352D01*
X133122609Y-96285352D01*
X133625771Y-96633695D02*
X133625771Y-95820895D01*
X134090228Y-96633695D01*
X134090228Y-95820895D01*
X134477276Y-96633695D02*
X134477276Y-95820895D01*
X134670800Y-95820895D01*
X134786914Y-95859600D01*
X134864323Y-95937009D01*
X134903028Y-96014419D01*
X134941733Y-96169238D01*
X134941733Y-96285352D01*
X134903028Y-96440171D01*
X134864323Y-96517580D01*
X134786914Y-96594990D01*
X134670800Y-96633695D01*
X134477276Y-96633695D01*
X126170266Y-95820895D02*
X126441200Y-96633695D01*
X126712133Y-95820895D01*
X127447523Y-96556285D02*
X127408819Y-96594990D01*
X127292704Y-96633695D01*
X127215295Y-96633695D01*
X127099180Y-96594990D01*
X127021771Y-96517580D01*
X126983066Y-96440171D01*
X126944361Y-96285352D01*
X126944361Y-96169238D01*
X126983066Y-96014419D01*
X127021771Y-95937009D01*
X127099180Y-95859600D01*
X127215295Y-95820895D01*
X127292704Y-95820895D01*
X127408819Y-95859600D01*
X127447523Y-95898304D01*
X128260323Y-96556285D02*
X128221619Y-96594990D01*
X128105504Y-96633695D01*
X128028095Y-96633695D01*
X127911980Y-96594990D01*
X127834571Y-96517580D01*
X127795866Y-96440171D01*
X127757161Y-96285352D01*
X127757161Y-96169238D01*
X127795866Y-96014419D01*
X127834571Y-95937009D01*
X127911980Y-95859600D01*
X128028095Y-95820895D01*
X128105504Y-95820895D01*
X128221619Y-95859600D01*
X128260323Y-95898304D01*
X127142723Y-97090895D02*
X127607180Y-97090895D01*
X127374952Y-97903695D02*
X127374952Y-97090895D01*
X127800704Y-97090895D02*
X128342571Y-97903695D01*
X128342571Y-97090895D02*
X127800704Y-97903695D01*
X137566400Y-81676723D02*
X137605104Y-81599314D01*
X137605104Y-81483200D01*
X137566400Y-81367085D01*
X137488990Y-81289676D01*
X137411580Y-81250971D01*
X137256761Y-81212266D01*
X137140647Y-81212266D01*
X136985828Y-81250971D01*
X136908419Y-81289676D01*
X136831009Y-81367085D01*
X136792304Y-81483200D01*
X136792304Y-81560609D01*
X136831009Y-81676723D01*
X136869714Y-81715428D01*
X137140647Y-81715428D01*
X137140647Y-81560609D01*
X136792304Y-82063771D02*
X137605104Y-82063771D01*
X136792304Y-82528228D01*
X137605104Y-82528228D01*
X136792304Y-82915276D02*
X137605104Y-82915276D01*
X137605104Y-83108800D01*
X137566400Y-83224914D01*
X137488990Y-83302323D01*
X137411580Y-83341028D01*
X137256761Y-83379733D01*
X137140647Y-83379733D01*
X136985828Y-83341028D01*
X136908419Y-83302323D01*
X136831009Y-83224914D01*
X136792304Y-83108800D01*
X136792304Y-82915276D01*
X123506895Y-83379733D02*
X124319695Y-83108800D01*
X123506895Y-82837866D01*
X124242285Y-82102476D02*
X124280990Y-82141180D01*
X124319695Y-82257295D01*
X124319695Y-82334704D01*
X124280990Y-82450819D01*
X124203580Y-82528228D01*
X124126171Y-82566933D01*
X123971352Y-82605638D01*
X123855238Y-82605638D01*
X123700419Y-82566933D01*
X123623009Y-82528228D01*
X123545600Y-82450819D01*
X123506895Y-82334704D01*
X123506895Y-82257295D01*
X123545600Y-82141180D01*
X123584304Y-82102476D01*
X124242285Y-81289676D02*
X124280990Y-81328380D01*
X124319695Y-81444495D01*
X124319695Y-81521904D01*
X124280990Y-81638019D01*
X124203580Y-81715428D01*
X124126171Y-81754133D01*
X123971352Y-81792838D01*
X123855238Y-81792838D01*
X123700419Y-81754133D01*
X123623009Y-81715428D01*
X123545600Y-81638019D01*
X123506895Y-81521904D01*
X123506895Y-81444495D01*
X123545600Y-81328380D01*
X123584304Y-81289676D01*
X123893942Y-97864990D02*
X123932647Y-97748876D01*
X123971352Y-97710171D01*
X124048761Y-97671466D01*
X124164876Y-97671466D01*
X124242285Y-97710171D01*
X124280990Y-97748876D01*
X124319695Y-97826285D01*
X124319695Y-98135923D01*
X123506895Y-98135923D01*
X123506895Y-97864990D01*
X123545600Y-97787580D01*
X123584304Y-97748876D01*
X123661714Y-97710171D01*
X123739123Y-97710171D01*
X123816533Y-97748876D01*
X123855238Y-97787580D01*
X123893942Y-97864990D01*
X123893942Y-98135923D01*
X123584304Y-97361828D02*
X123545600Y-97323123D01*
X123506895Y-97245714D01*
X123506895Y-97052190D01*
X123545600Y-96974780D01*
X123584304Y-96936076D01*
X123661714Y-96897371D01*
X123739123Y-96897371D01*
X123855238Y-96936076D01*
X124319695Y-97400533D01*
X124319695Y-96897371D01*
X123893942Y-95324990D02*
X123932647Y-95208876D01*
X123971352Y-95170171D01*
X124048761Y-95131466D01*
X124164876Y-95131466D01*
X124242285Y-95170171D01*
X124280990Y-95208876D01*
X124319695Y-95286285D01*
X124319695Y-95595923D01*
X123506895Y-95595923D01*
X123506895Y-95324990D01*
X123545600Y-95247580D01*
X123584304Y-95208876D01*
X123661714Y-95170171D01*
X123739123Y-95170171D01*
X123816533Y-95208876D01*
X123855238Y-95247580D01*
X123893942Y-95324990D01*
X123893942Y-95595923D01*
X123506895Y-94860533D02*
X123506895Y-94357371D01*
X123816533Y-94628304D01*
X123816533Y-94512190D01*
X123855238Y-94434780D01*
X123893942Y-94396076D01*
X123971352Y-94357371D01*
X124164876Y-94357371D01*
X124242285Y-94396076D01*
X124280990Y-94434780D01*
X124319695Y-94512190D01*
X124319695Y-94744419D01*
X124280990Y-94821828D01*
X124242285Y-94860533D01*
X124087466Y-93036571D02*
X124087466Y-92649523D01*
X124319695Y-93113980D02*
X123506895Y-92843047D01*
X124319695Y-92572114D01*
X123506895Y-92378590D02*
X123506895Y-91836723D01*
X124319695Y-92185066D01*
X124087466Y-90496571D02*
X124087466Y-90109523D01*
X124319695Y-90573980D02*
X123506895Y-90303047D01*
X124319695Y-90032114D01*
X123506895Y-89412838D02*
X123506895Y-89567657D01*
X123545600Y-89645066D01*
X123584304Y-89683771D01*
X123700419Y-89761180D01*
X123855238Y-89799885D01*
X124164876Y-89799885D01*
X124242285Y-89761180D01*
X124280990Y-89722476D01*
X124319695Y-89645066D01*
X124319695Y-89490247D01*
X124280990Y-89412838D01*
X124242285Y-89374133D01*
X124164876Y-89335428D01*
X123971352Y-89335428D01*
X123893942Y-89374133D01*
X123855238Y-89412838D01*
X123816533Y-89490247D01*
X123816533Y-89645066D01*
X123855238Y-89722476D01*
X123893942Y-89761180D01*
X123971352Y-89799885D01*
X124087466Y-87956571D02*
X124087466Y-87569523D01*
X124319695Y-88033980D02*
X123506895Y-87763047D01*
X124319695Y-87492114D01*
X123506895Y-86834133D02*
X123506895Y-87221180D01*
X123893942Y-87259885D01*
X123855238Y-87221180D01*
X123816533Y-87143771D01*
X123816533Y-86950247D01*
X123855238Y-86872838D01*
X123893942Y-86834133D01*
X123971352Y-86795428D01*
X124164876Y-86795428D01*
X124242285Y-86834133D01*
X124280990Y-86872838D01*
X124319695Y-86950247D01*
X124319695Y-87143771D01*
X124280990Y-87221180D01*
X124242285Y-87259885D01*
X124087466Y-85416571D02*
X124087466Y-85029523D01*
X124319695Y-85493980D02*
X123506895Y-85223047D01*
X124319695Y-84952114D01*
X123777828Y-84332838D02*
X124319695Y-84332838D01*
X123468190Y-84526361D02*
X124048761Y-84719885D01*
X124048761Y-84216723D01*
X137024533Y-84255428D02*
X137024533Y-84642476D01*
X136792304Y-84178019D02*
X137605104Y-84448952D01*
X136792304Y-84719885D01*
X137605104Y-84913409D02*
X137605104Y-85416571D01*
X137295466Y-85145638D01*
X137295466Y-85261752D01*
X137256761Y-85339161D01*
X137218057Y-85377866D01*
X137140647Y-85416571D01*
X136947123Y-85416571D01*
X136869714Y-85377866D01*
X136831009Y-85339161D01*
X136792304Y-85261752D01*
X136792304Y-85029523D01*
X136831009Y-84952114D01*
X136869714Y-84913409D01*
X137024533Y-86795428D02*
X137024533Y-87182476D01*
X136792304Y-86718019D02*
X137605104Y-86988952D01*
X136792304Y-87259885D01*
X137527695Y-87492114D02*
X137566400Y-87530819D01*
X137605104Y-87608228D01*
X137605104Y-87801752D01*
X137566400Y-87879161D01*
X137527695Y-87917866D01*
X137450285Y-87956571D01*
X137372876Y-87956571D01*
X137256761Y-87917866D01*
X136792304Y-87453409D01*
X136792304Y-87956571D01*
X137024533Y-89335428D02*
X137024533Y-89722476D01*
X136792304Y-89258019D02*
X137605104Y-89528952D01*
X136792304Y-89799885D01*
X136792304Y-90496571D02*
X136792304Y-90032114D01*
X136792304Y-90264342D02*
X137605104Y-90264342D01*
X137488990Y-90186933D01*
X137411580Y-90109523D01*
X137372876Y-90032114D01*
X137218057Y-97207009D02*
X137179352Y-97323123D01*
X137140647Y-97361828D01*
X137063238Y-97400533D01*
X136947123Y-97400533D01*
X136869714Y-97361828D01*
X136831009Y-97323123D01*
X136792304Y-97245714D01*
X136792304Y-96936076D01*
X137605104Y-96936076D01*
X137605104Y-97207009D01*
X137566400Y-97284419D01*
X137527695Y-97323123D01*
X137450285Y-97361828D01*
X137372876Y-97361828D01*
X137295466Y-97323123D01*
X137256761Y-97284419D01*
X137218057Y-97207009D01*
X137218057Y-96936076D01*
X136792304Y-98174628D02*
X136792304Y-97710171D01*
X136792304Y-97942400D02*
X137605104Y-97942400D01*
X137488990Y-97864990D01*
X137411580Y-97787580D01*
X137372876Y-97710171D01*
X137218057Y-94667009D02*
X137179352Y-94783123D01*
X137140647Y-94821828D01*
X137063238Y-94860533D01*
X136947123Y-94860533D01*
X136869714Y-94821828D01*
X136831009Y-94783123D01*
X136792304Y-94705714D01*
X136792304Y-94396076D01*
X137605104Y-94396076D01*
X137605104Y-94667009D01*
X137566400Y-94744419D01*
X137527695Y-94783123D01*
X137450285Y-94821828D01*
X137372876Y-94821828D01*
X137295466Y-94783123D01*
X137256761Y-94744419D01*
X137218057Y-94667009D01*
X137218057Y-94396076D01*
X137605104Y-95363695D02*
X137605104Y-95441104D01*
X137566400Y-95518514D01*
X137527695Y-95557219D01*
X137450285Y-95595923D01*
X137295466Y-95634628D01*
X137101942Y-95634628D01*
X136947123Y-95595923D01*
X136869714Y-95557219D01*
X136831009Y-95518514D01*
X136792304Y-95441104D01*
X136792304Y-95363695D01*
X136831009Y-95286285D01*
X136869714Y-95247580D01*
X136947123Y-95208876D01*
X137101942Y-95170171D01*
X137295466Y-95170171D01*
X137450285Y-95208876D01*
X137527695Y-95247580D01*
X137566400Y-95286285D01*
X137605104Y-95363695D01*
X137024533Y-91875428D02*
X137024533Y-92262476D01*
X136792304Y-91798019D02*
X137605104Y-92068952D01*
X136792304Y-92339885D01*
X137605104Y-92765638D02*
X137605104Y-92843047D01*
X137566400Y-92920457D01*
X137527695Y-92959161D01*
X137450285Y-92997866D01*
X137295466Y-93036571D01*
X137101942Y-93036571D01*
X136947123Y-92997866D01*
X136869714Y-92959161D01*
X136831009Y-92920457D01*
X136792304Y-92843047D01*
X136792304Y-92765638D01*
X136831009Y-92688228D01*
X136869714Y-92649523D01*
X136947123Y-92610819D01*
X137101942Y-92572114D01*
X137295466Y-92572114D01*
X137450285Y-92610819D01*
X137527695Y-92649523D01*
X137566400Y-92688228D01*
X137605104Y-92765638D01*
D11*
X131356000Y-83720000D02*
X128896000Y-83720000D01*
X128896000Y-83720000D02*
X128896000Y-85190000D01*
X128896000Y-85190000D02*
X131356000Y-85190000D01*
X130561000Y-94351000D02*
X132511000Y-94351000D01*
X130561000Y-94351000D02*
X128611000Y-94351000D01*
X130561000Y-85481000D02*
X132511000Y-85481000D01*
X130561000Y-85481000D02*
X127111000Y-85481000D01*
X132521000Y-98666000D02*
X132521000Y-97843530D01*
X132521000Y-95958470D02*
X132521000Y-95136000D01*
X132521000Y-97228470D02*
X132521000Y-96573530D01*
X130046000Y-98666000D02*
X132521000Y-98666000D01*
X128591000Y-95136000D02*
X132521000Y-95136000D01*
X130046000Y-98666000D02*
X130046000Y-98099471D01*
X130046000Y-96972529D02*
X130046000Y-96829471D01*
X129992529Y-96776000D02*
X129849471Y-96776000D01*
X128722529Y-96776000D02*
X128591000Y-96776000D01*
X128591000Y-96776000D02*
X128591000Y-96573530D01*
X128591000Y-95958470D02*
X128591000Y-95136000D01*
X129286000Y-98666000D02*
X128526000Y-98666000D01*
X128526000Y-98666000D02*
X128526000Y-97536000D01*
X131871000Y-83152000D02*
X131871000Y-82349530D01*
X131871000Y-81734470D02*
X131871000Y-80932000D01*
X130666000Y-83152000D02*
X131871000Y-83152000D01*
X130666000Y-80932000D02*
X131871000Y-80932000D01*
X130666000Y-83152000D02*
X130666000Y-82605471D01*
X130666000Y-81478529D02*
X130666000Y-80932000D01*
X129906000Y-83152000D02*
X129146000Y-83152000D01*
X129146000Y-83152000D02*
X129146000Y-82042000D01*
M02*
