G04 #@! TF.GenerationSoftware,KiCad,Pcbnew,(5.1.0-1419-g57928c41b)*
G04 #@! TF.CreationDate,2019-08-03T20:03:29-07:00*
G04 #@! TF.ProjectId,attiny1614,61747469-6e79-4313-9631-342e6b696361,1.2*
G04 #@! TF.SameCoordinates,Original*
G04 #@! TF.FileFunction,Soldermask,Bot*
G04 #@! TF.FilePolarity,Negative*
%FSLAX46Y46*%
G04 Gerber Fmt 4.6, Leading zero omitted, Abs format (unit mm)*
G04 Created by KiCad (PCBNEW (5.1.0-1419-g57928c41b)) date 2019-08-03 20:03:29*
%MOMM*%
%LPD*%
G04 APERTURE LIST*
%ADD10C,0.100000*%
G04 APERTURE END LIST*
D10*
G36*
X134598980Y-97580117D02*
G01*
X134599386Y-97580117D01*
X134601637Y-97580538D01*
X134690801Y-97594660D01*
X134698691Y-97598680D01*
X134705409Y-97599936D01*
X134725176Y-97612175D01*
X134772229Y-97636150D01*
X134785776Y-97649697D01*
X134797114Y-97656717D01*
X134810432Y-97674353D01*
X134836850Y-97700771D01*
X134850267Y-97727103D01*
X134862114Y-97742791D01*
X134865418Y-97756838D01*
X134878340Y-97782199D01*
X134892686Y-97872777D01*
X134892883Y-97873614D01*
X134892883Y-97874020D01*
X134894194Y-97882297D01*
X134894194Y-98431703D01*
X134892883Y-98439980D01*
X134892883Y-98440386D01*
X134892462Y-98442637D01*
X134878340Y-98531801D01*
X134874320Y-98539691D01*
X134873064Y-98546409D01*
X134860825Y-98566176D01*
X134836850Y-98613229D01*
X134823303Y-98626776D01*
X134816283Y-98638114D01*
X134798647Y-98651432D01*
X134772229Y-98677850D01*
X134745897Y-98691267D01*
X134730209Y-98703114D01*
X134716162Y-98706418D01*
X134690801Y-98719340D01*
X134600223Y-98733686D01*
X134599386Y-98733883D01*
X134598980Y-98733883D01*
X134590703Y-98735194D01*
X134141297Y-98735194D01*
X134133020Y-98733883D01*
X134132614Y-98733883D01*
X134130363Y-98733462D01*
X134041199Y-98719340D01*
X134033309Y-98715320D01*
X134026591Y-98714064D01*
X134006824Y-98701825D01*
X133959771Y-98677850D01*
X133946224Y-98664303D01*
X133934886Y-98657283D01*
X133921568Y-98639647D01*
X133895150Y-98613229D01*
X133881733Y-98586897D01*
X133869886Y-98571209D01*
X133866582Y-98557162D01*
X133853660Y-98531801D01*
X133839314Y-98441223D01*
X133839117Y-98440386D01*
X133839117Y-98439980D01*
X133837806Y-98431703D01*
X133837806Y-97882297D01*
X133839117Y-97874020D01*
X133839117Y-97873614D01*
X133839538Y-97871363D01*
X133853660Y-97782199D01*
X133857680Y-97774309D01*
X133858936Y-97767591D01*
X133871175Y-97747824D01*
X133895150Y-97700771D01*
X133908697Y-97687224D01*
X133915717Y-97675886D01*
X133933353Y-97662568D01*
X133959771Y-97636150D01*
X133986103Y-97622733D01*
X134001791Y-97610886D01*
X134015838Y-97607582D01*
X134041199Y-97594660D01*
X134131777Y-97580314D01*
X134132614Y-97580117D01*
X134133020Y-97580117D01*
X134141297Y-97578806D01*
X134590703Y-97578806D01*
X134598980Y-97580117D01*
X134598980Y-97580117D01*
G37*
G36*
X129805899Y-97495959D02*
G01*
X129822769Y-97507231D01*
X129834041Y-97524101D01*
X129840448Y-97556312D01*
X129840448Y-97714633D01*
X129860291Y-97782213D01*
X129913521Y-97828336D01*
X129983236Y-97838360D01*
X130047304Y-97809101D01*
X130061202Y-97791626D01*
X130063111Y-97786324D01*
X130085927Y-97754219D01*
X130100221Y-97727223D01*
X130124392Y-97700094D01*
X130150562Y-97663269D01*
X130174399Y-97643966D01*
X130188937Y-97627649D01*
X130226033Y-97602154D01*
X130267884Y-97568264D01*
X130288029Y-97559547D01*
X130298849Y-97552110D01*
X130349044Y-97533142D01*
X130406432Y-97508308D01*
X130419503Y-97506518D01*
X130423598Y-97504970D01*
X130485366Y-97497496D01*
X130518185Y-97493000D01*
X130587432Y-97493000D01*
X130694343Y-97506506D01*
X130754792Y-97530074D01*
X130782219Y-97535904D01*
X130803352Y-97549007D01*
X130818292Y-97554832D01*
X130859828Y-97584024D01*
X130910522Y-97615456D01*
X130921431Y-97627320D01*
X130927402Y-97631516D01*
X130966442Y-97676269D01*
X131012707Y-97726581D01*
X131046495Y-97792893D01*
X131079466Y-97856774D01*
X131128094Y-97907725D01*
X131196549Y-97924298D01*
X131263097Y-97901230D01*
X131301012Y-97857934D01*
X131320753Y-97820651D01*
X131333111Y-97786324D01*
X131355928Y-97754218D01*
X131370221Y-97727223D01*
X131394392Y-97700094D01*
X131420562Y-97663269D01*
X131444399Y-97643966D01*
X131458937Y-97627649D01*
X131496033Y-97602154D01*
X131537884Y-97568264D01*
X131558029Y-97559547D01*
X131568849Y-97552110D01*
X131619044Y-97533142D01*
X131676432Y-97508308D01*
X131689503Y-97506518D01*
X131693598Y-97504970D01*
X131755366Y-97497496D01*
X131788185Y-97493000D01*
X131857432Y-97493000D01*
X131964343Y-97506506D01*
X132024792Y-97530074D01*
X132052219Y-97535904D01*
X132073352Y-97549007D01*
X132088292Y-97554832D01*
X132129828Y-97584024D01*
X132180522Y-97615456D01*
X132191431Y-97627320D01*
X132197402Y-97631516D01*
X132236442Y-97676269D01*
X132282707Y-97726581D01*
X132316500Y-97792903D01*
X132346240Y-97850524D01*
X132346580Y-97851939D01*
X132351243Y-97861091D01*
X132364178Y-97925240D01*
X132377374Y-97980204D01*
X132377320Y-97990417D01*
X132381083Y-98009077D01*
X132376926Y-98065682D01*
X132376675Y-98113566D01*
X132372060Y-98131940D01*
X132370026Y-98159636D01*
X132353744Y-98204861D01*
X132344187Y-98242911D01*
X132331247Y-98267350D01*
X132318889Y-98301676D01*
X132296072Y-98333782D01*
X132281779Y-98360777D01*
X132257608Y-98387906D01*
X132231438Y-98424731D01*
X132207601Y-98444034D01*
X132193063Y-98460351D01*
X132155967Y-98485846D01*
X132114116Y-98519736D01*
X132093971Y-98528453D01*
X132083151Y-98535890D01*
X132032956Y-98554858D01*
X131975568Y-98579692D01*
X131962497Y-98581482D01*
X131958402Y-98583030D01*
X131896634Y-98590504D01*
X131863815Y-98595000D01*
X131794568Y-98595000D01*
X131687657Y-98581494D01*
X131627208Y-98557926D01*
X131599781Y-98552096D01*
X131578648Y-98538993D01*
X131563708Y-98533168D01*
X131522172Y-98503976D01*
X131471478Y-98472544D01*
X131460569Y-98460680D01*
X131454598Y-98456484D01*
X131415558Y-98411731D01*
X131369293Y-98361419D01*
X131335505Y-98295107D01*
X131302534Y-98231226D01*
X131253906Y-98180275D01*
X131185451Y-98163702D01*
X131118903Y-98186770D01*
X131080988Y-98230066D01*
X131061247Y-98267349D01*
X131048889Y-98301676D01*
X131026072Y-98333782D01*
X131011779Y-98360777D01*
X130987608Y-98387906D01*
X130961438Y-98424731D01*
X130937601Y-98444034D01*
X130923063Y-98460351D01*
X130885967Y-98485846D01*
X130844116Y-98519736D01*
X130823971Y-98528453D01*
X130813151Y-98535890D01*
X130762956Y-98554858D01*
X130705568Y-98579692D01*
X130692497Y-98581482D01*
X130688402Y-98583030D01*
X130626634Y-98590504D01*
X130593815Y-98595000D01*
X130524568Y-98595000D01*
X130417657Y-98581494D01*
X130357208Y-98557926D01*
X130329781Y-98552096D01*
X130308648Y-98538993D01*
X130293708Y-98533168D01*
X130252172Y-98503976D01*
X130201478Y-98472544D01*
X130190569Y-98460680D01*
X130184598Y-98456484D01*
X130145558Y-98411731D01*
X130099293Y-98361419D01*
X130076220Y-98316136D01*
X130027895Y-98265502D01*
X129959440Y-98248929D01*
X129892892Y-98271997D01*
X129849380Y-98327382D01*
X129840448Y-98373784D01*
X129840448Y-98531688D01*
X129837999Y-98544000D01*
X129834041Y-98563899D01*
X129822769Y-98580769D01*
X129805899Y-98592041D01*
X129786000Y-98595999D01*
X129773688Y-98598448D01*
X128798312Y-98598448D01*
X128766101Y-98592041D01*
X128749231Y-98580769D01*
X128737959Y-98563899D01*
X128731552Y-98531688D01*
X128731552Y-97556312D01*
X128737959Y-97524101D01*
X128749231Y-97507231D01*
X128766101Y-97495959D01*
X128798312Y-97489552D01*
X129773688Y-97489552D01*
X129805899Y-97495959D01*
X129805899Y-97495959D01*
G37*
G36*
X137094360Y-96649835D02*
G01*
X137175397Y-96676166D01*
X137262663Y-96703848D01*
X137265655Y-96705493D01*
X137274488Y-96708363D01*
X137346466Y-96749919D01*
X137417499Y-96788970D01*
X137424986Y-96795253D01*
X137438511Y-96803061D01*
X137496259Y-96855057D01*
X137552857Y-96902549D01*
X137562962Y-96915118D01*
X137579261Y-96929793D01*
X137621454Y-96987867D01*
X137663579Y-97040260D01*
X137673994Y-97060182D01*
X137690586Y-97083019D01*
X137717297Y-97143012D01*
X137745439Y-97196843D01*
X137753582Y-97224510D01*
X137767621Y-97256042D01*
X137779992Y-97314241D01*
X137795328Y-97366349D01*
X137798518Y-97401401D01*
X137806999Y-97441301D01*
X137806999Y-97494592D01*
X137811343Y-97542324D01*
X137806999Y-97583653D01*
X137806999Y-97630699D01*
X137797217Y-97676721D01*
X137792873Y-97718047D01*
X137778702Y-97763827D01*
X137767621Y-97815958D01*
X137751028Y-97853226D01*
X137740622Y-97886843D01*
X137714789Y-97934620D01*
X137690586Y-97988981D01*
X137670298Y-98016905D01*
X137656580Y-98042276D01*
X137617859Y-98089082D01*
X137579261Y-98142207D01*
X137558284Y-98161095D01*
X137543952Y-98178419D01*
X137491845Y-98220917D01*
X137438511Y-98268939D01*
X137419524Y-98279901D01*
X137407025Y-98290095D01*
X137341780Y-98324786D01*
X137274488Y-98363637D01*
X137259636Y-98368463D01*
X137251003Y-98373053D01*
X137173430Y-98396473D01*
X137094360Y-98422165D01*
X137085114Y-98423137D01*
X137081851Y-98424122D01*
X136990710Y-98433059D01*
X136953211Y-98437000D01*
X136858789Y-98437000D01*
X136717640Y-98422165D01*
X136636603Y-98395834D01*
X136549337Y-98368152D01*
X136546345Y-98366507D01*
X136537512Y-98363637D01*
X136465534Y-98322081D01*
X136394501Y-98283030D01*
X136387014Y-98276747D01*
X136373489Y-98268939D01*
X136315741Y-98216943D01*
X136259143Y-98169451D01*
X136249038Y-98156882D01*
X136232739Y-98142207D01*
X136190546Y-98084133D01*
X136148421Y-98031740D01*
X136138006Y-98011818D01*
X136121414Y-97988981D01*
X136094703Y-97928988D01*
X136066561Y-97875157D01*
X136058418Y-97847490D01*
X136044379Y-97815958D01*
X136032008Y-97757759D01*
X136016672Y-97705651D01*
X136013482Y-97670599D01*
X136005001Y-97630699D01*
X136005001Y-97577408D01*
X136000657Y-97529676D01*
X136005001Y-97488347D01*
X136005001Y-97441301D01*
X136014783Y-97395279D01*
X136019127Y-97353953D01*
X136033298Y-97308173D01*
X136044379Y-97256042D01*
X136060972Y-97218774D01*
X136071378Y-97185157D01*
X136097211Y-97137380D01*
X136121414Y-97083019D01*
X136141702Y-97055095D01*
X136155420Y-97029724D01*
X136194141Y-96982918D01*
X136232739Y-96929793D01*
X136253716Y-96910905D01*
X136268048Y-96893581D01*
X136320155Y-96851083D01*
X136373489Y-96803061D01*
X136392476Y-96792099D01*
X136404975Y-96781905D01*
X136470220Y-96747214D01*
X136537512Y-96708363D01*
X136552364Y-96703537D01*
X136560997Y-96698947D01*
X136638570Y-96675527D01*
X136717640Y-96649835D01*
X136726886Y-96648863D01*
X136730149Y-96647878D01*
X136821290Y-96638941D01*
X136858789Y-96635000D01*
X136953211Y-96635000D01*
X137094360Y-96649835D01*
X137094360Y-96649835D01*
G37*
G36*
X124394360Y-96649835D02*
G01*
X124475397Y-96676166D01*
X124562663Y-96703848D01*
X124565655Y-96705493D01*
X124574488Y-96708363D01*
X124646466Y-96749919D01*
X124717499Y-96788970D01*
X124724986Y-96795253D01*
X124738511Y-96803061D01*
X124796259Y-96855057D01*
X124852857Y-96902549D01*
X124862962Y-96915118D01*
X124879261Y-96929793D01*
X124921454Y-96987867D01*
X124963579Y-97040260D01*
X124973994Y-97060182D01*
X124990586Y-97083019D01*
X125017297Y-97143012D01*
X125045439Y-97196843D01*
X125053582Y-97224510D01*
X125067621Y-97256042D01*
X125079992Y-97314241D01*
X125095328Y-97366349D01*
X125098518Y-97401401D01*
X125106999Y-97441301D01*
X125106999Y-97494592D01*
X125111343Y-97542324D01*
X125106999Y-97583653D01*
X125106999Y-97630699D01*
X125097217Y-97676721D01*
X125092873Y-97718047D01*
X125078702Y-97763827D01*
X125067621Y-97815958D01*
X125051028Y-97853226D01*
X125040622Y-97886843D01*
X125014789Y-97934620D01*
X124990586Y-97988981D01*
X124970298Y-98016905D01*
X124956580Y-98042276D01*
X124917859Y-98089082D01*
X124879261Y-98142207D01*
X124858284Y-98161095D01*
X124843952Y-98178419D01*
X124791845Y-98220917D01*
X124738511Y-98268939D01*
X124719524Y-98279901D01*
X124707025Y-98290095D01*
X124641780Y-98324786D01*
X124574488Y-98363637D01*
X124559636Y-98368463D01*
X124551003Y-98373053D01*
X124473430Y-98396473D01*
X124394360Y-98422165D01*
X124385114Y-98423137D01*
X124381851Y-98424122D01*
X124290710Y-98433059D01*
X124253211Y-98437000D01*
X124158789Y-98437000D01*
X124017640Y-98422165D01*
X123936603Y-98395834D01*
X123849337Y-98368152D01*
X123846345Y-98366507D01*
X123837512Y-98363637D01*
X123765534Y-98322081D01*
X123694501Y-98283030D01*
X123687014Y-98276747D01*
X123673489Y-98268939D01*
X123615741Y-98216943D01*
X123559143Y-98169451D01*
X123549038Y-98156882D01*
X123532739Y-98142207D01*
X123490546Y-98084133D01*
X123448421Y-98031740D01*
X123438006Y-98011818D01*
X123421414Y-97988981D01*
X123394703Y-97928988D01*
X123366561Y-97875157D01*
X123358418Y-97847490D01*
X123344379Y-97815958D01*
X123332008Y-97757759D01*
X123316672Y-97705651D01*
X123313482Y-97670599D01*
X123305001Y-97630699D01*
X123305001Y-97577408D01*
X123300657Y-97529676D01*
X123305001Y-97488347D01*
X123305001Y-97441301D01*
X123314783Y-97395279D01*
X123319127Y-97353953D01*
X123333298Y-97308173D01*
X123344379Y-97256042D01*
X123360972Y-97218774D01*
X123371378Y-97185157D01*
X123397211Y-97137380D01*
X123421414Y-97083019D01*
X123441702Y-97055095D01*
X123455420Y-97029724D01*
X123494141Y-96982918D01*
X123532739Y-96929793D01*
X123553716Y-96910905D01*
X123568048Y-96893581D01*
X123620155Y-96851083D01*
X123673489Y-96803061D01*
X123692476Y-96792099D01*
X123704975Y-96781905D01*
X123770220Y-96747214D01*
X123837512Y-96708363D01*
X123852364Y-96703537D01*
X123860997Y-96698947D01*
X123938570Y-96675527D01*
X124017640Y-96649835D01*
X124026886Y-96648863D01*
X124030149Y-96647878D01*
X124121290Y-96638941D01*
X124158789Y-96635000D01*
X124253211Y-96635000D01*
X124394360Y-96649835D01*
X124394360Y-96649835D01*
G37*
G36*
X134598980Y-95830117D02*
G01*
X134599386Y-95830117D01*
X134601637Y-95830538D01*
X134690801Y-95844660D01*
X134698691Y-95848680D01*
X134705409Y-95849936D01*
X134725176Y-95862175D01*
X134772229Y-95886150D01*
X134785776Y-95899697D01*
X134797114Y-95906717D01*
X134810432Y-95924353D01*
X134836850Y-95950771D01*
X134850267Y-95977103D01*
X134862114Y-95992791D01*
X134865418Y-96006838D01*
X134878340Y-96032199D01*
X134892686Y-96122777D01*
X134892883Y-96123614D01*
X134892883Y-96124020D01*
X134894194Y-96132297D01*
X134894194Y-96681703D01*
X134892883Y-96689980D01*
X134892883Y-96690386D01*
X134892462Y-96692637D01*
X134878340Y-96781801D01*
X134874320Y-96789691D01*
X134873064Y-96796409D01*
X134860825Y-96816176D01*
X134836850Y-96863229D01*
X134823303Y-96876776D01*
X134816283Y-96888114D01*
X134798647Y-96901432D01*
X134772229Y-96927850D01*
X134745897Y-96941267D01*
X134730209Y-96953114D01*
X134716162Y-96956418D01*
X134690801Y-96969340D01*
X134600223Y-96983686D01*
X134599386Y-96983883D01*
X134598980Y-96983883D01*
X134590703Y-96985194D01*
X134141297Y-96985194D01*
X134133020Y-96983883D01*
X134132614Y-96983883D01*
X134130363Y-96983462D01*
X134041199Y-96969340D01*
X134033309Y-96965320D01*
X134026591Y-96964064D01*
X134006824Y-96951825D01*
X133959771Y-96927850D01*
X133946224Y-96914303D01*
X133934886Y-96907283D01*
X133921568Y-96889647D01*
X133895150Y-96863229D01*
X133881733Y-96836897D01*
X133869886Y-96821209D01*
X133866582Y-96807162D01*
X133853660Y-96781801D01*
X133839314Y-96691223D01*
X133839117Y-96690386D01*
X133839117Y-96689980D01*
X133837806Y-96681703D01*
X133837806Y-96132297D01*
X133839117Y-96124020D01*
X133839117Y-96123614D01*
X133839538Y-96121363D01*
X133853660Y-96032199D01*
X133857680Y-96024309D01*
X133858936Y-96017591D01*
X133871175Y-95997824D01*
X133895150Y-95950771D01*
X133908697Y-95937224D01*
X133915717Y-95925886D01*
X133933353Y-95912568D01*
X133959771Y-95886150D01*
X133986103Y-95872733D01*
X134001791Y-95860886D01*
X134015838Y-95857582D01*
X134041199Y-95844660D01*
X134131777Y-95830314D01*
X134132614Y-95830117D01*
X134133020Y-95830117D01*
X134141297Y-95828806D01*
X134590703Y-95828806D01*
X134598980Y-95830117D01*
X134598980Y-95830117D01*
G37*
G36*
X137094360Y-94109835D02*
G01*
X137175397Y-94136166D01*
X137262663Y-94163848D01*
X137265655Y-94165493D01*
X137274488Y-94168363D01*
X137346466Y-94209919D01*
X137417499Y-94248970D01*
X137424986Y-94255253D01*
X137438511Y-94263061D01*
X137496259Y-94315057D01*
X137552857Y-94362549D01*
X137562962Y-94375118D01*
X137579261Y-94389793D01*
X137621454Y-94447867D01*
X137663579Y-94500260D01*
X137673994Y-94520182D01*
X137690586Y-94543019D01*
X137717297Y-94603012D01*
X137745439Y-94656843D01*
X137753582Y-94684510D01*
X137767621Y-94716042D01*
X137779992Y-94774241D01*
X137795328Y-94826349D01*
X137798518Y-94861401D01*
X137806999Y-94901301D01*
X137806999Y-94954592D01*
X137811343Y-95002324D01*
X137806999Y-95043653D01*
X137806999Y-95090699D01*
X137797217Y-95136721D01*
X137792873Y-95178047D01*
X137778702Y-95223827D01*
X137767621Y-95275958D01*
X137751028Y-95313226D01*
X137740622Y-95346843D01*
X137714789Y-95394620D01*
X137690586Y-95448981D01*
X137670298Y-95476905D01*
X137656580Y-95502276D01*
X137617859Y-95549082D01*
X137579261Y-95602207D01*
X137558284Y-95621095D01*
X137543952Y-95638419D01*
X137491845Y-95680917D01*
X137438511Y-95728939D01*
X137419524Y-95739901D01*
X137407025Y-95750095D01*
X137341780Y-95784786D01*
X137274488Y-95823637D01*
X137259636Y-95828463D01*
X137251003Y-95833053D01*
X137173430Y-95856473D01*
X137094360Y-95882165D01*
X137085114Y-95883137D01*
X137081851Y-95884122D01*
X136990710Y-95893059D01*
X136953211Y-95897000D01*
X136858789Y-95897000D01*
X136717640Y-95882165D01*
X136636603Y-95855834D01*
X136549337Y-95828152D01*
X136546345Y-95826507D01*
X136537512Y-95823637D01*
X136465534Y-95782081D01*
X136394501Y-95743030D01*
X136387014Y-95736747D01*
X136373489Y-95728939D01*
X136315741Y-95676943D01*
X136259143Y-95629451D01*
X136249038Y-95616882D01*
X136232739Y-95602207D01*
X136190546Y-95544133D01*
X136148421Y-95491740D01*
X136138006Y-95471818D01*
X136121414Y-95448981D01*
X136094703Y-95388988D01*
X136066561Y-95335157D01*
X136058418Y-95307490D01*
X136044379Y-95275958D01*
X136032008Y-95217759D01*
X136016672Y-95165651D01*
X136013482Y-95130599D01*
X136005001Y-95090699D01*
X136005001Y-95037408D01*
X136000657Y-94989676D01*
X136005001Y-94948347D01*
X136005001Y-94901301D01*
X136014783Y-94855279D01*
X136019127Y-94813953D01*
X136033298Y-94768173D01*
X136044379Y-94716042D01*
X136060972Y-94678774D01*
X136071378Y-94645157D01*
X136097211Y-94597380D01*
X136121414Y-94543019D01*
X136141702Y-94515095D01*
X136155420Y-94489724D01*
X136194141Y-94442918D01*
X136232739Y-94389793D01*
X136253716Y-94370905D01*
X136268048Y-94353581D01*
X136320155Y-94311083D01*
X136373489Y-94263061D01*
X136392476Y-94252099D01*
X136404975Y-94241905D01*
X136470220Y-94207214D01*
X136537512Y-94168363D01*
X136552364Y-94163537D01*
X136560997Y-94158947D01*
X136638570Y-94135527D01*
X136717640Y-94109835D01*
X136726886Y-94108863D01*
X136730149Y-94107878D01*
X136821290Y-94098941D01*
X136858789Y-94095000D01*
X136953211Y-94095000D01*
X137094360Y-94109835D01*
X137094360Y-94109835D01*
G37*
G36*
X124394360Y-94109835D02*
G01*
X124475397Y-94136166D01*
X124562663Y-94163848D01*
X124565655Y-94165493D01*
X124574488Y-94168363D01*
X124646466Y-94209919D01*
X124717499Y-94248970D01*
X124724986Y-94255253D01*
X124738511Y-94263061D01*
X124796259Y-94315057D01*
X124852857Y-94362549D01*
X124862962Y-94375118D01*
X124879261Y-94389793D01*
X124921454Y-94447867D01*
X124963579Y-94500260D01*
X124973994Y-94520182D01*
X124990586Y-94543019D01*
X125017297Y-94603012D01*
X125045439Y-94656843D01*
X125053582Y-94684510D01*
X125067621Y-94716042D01*
X125079992Y-94774241D01*
X125095328Y-94826349D01*
X125098518Y-94861401D01*
X125106999Y-94901301D01*
X125106999Y-94954592D01*
X125111343Y-95002324D01*
X125106999Y-95043653D01*
X125106999Y-95090699D01*
X125097217Y-95136721D01*
X125092873Y-95178047D01*
X125078702Y-95223827D01*
X125067621Y-95275958D01*
X125051028Y-95313226D01*
X125040622Y-95346843D01*
X125014789Y-95394620D01*
X124990586Y-95448981D01*
X124970298Y-95476905D01*
X124956580Y-95502276D01*
X124917859Y-95549082D01*
X124879261Y-95602207D01*
X124858284Y-95621095D01*
X124843952Y-95638419D01*
X124791845Y-95680917D01*
X124738511Y-95728939D01*
X124719524Y-95739901D01*
X124707025Y-95750095D01*
X124641780Y-95784786D01*
X124574488Y-95823637D01*
X124559636Y-95828463D01*
X124551003Y-95833053D01*
X124473430Y-95856473D01*
X124394360Y-95882165D01*
X124385114Y-95883137D01*
X124381851Y-95884122D01*
X124290710Y-95893059D01*
X124253211Y-95897000D01*
X124158789Y-95897000D01*
X124017640Y-95882165D01*
X123936603Y-95855834D01*
X123849337Y-95828152D01*
X123846345Y-95826507D01*
X123837512Y-95823637D01*
X123765534Y-95782081D01*
X123694501Y-95743030D01*
X123687014Y-95736747D01*
X123673489Y-95728939D01*
X123615741Y-95676943D01*
X123559143Y-95629451D01*
X123549038Y-95616882D01*
X123532739Y-95602207D01*
X123490546Y-95544133D01*
X123448421Y-95491740D01*
X123438006Y-95471818D01*
X123421414Y-95448981D01*
X123394703Y-95388988D01*
X123366561Y-95335157D01*
X123358418Y-95307490D01*
X123344379Y-95275958D01*
X123332008Y-95217759D01*
X123316672Y-95165651D01*
X123313482Y-95130599D01*
X123305001Y-95090699D01*
X123305001Y-95037408D01*
X123300657Y-94989676D01*
X123305001Y-94948347D01*
X123305001Y-94901301D01*
X123314783Y-94855279D01*
X123319127Y-94813953D01*
X123333298Y-94768173D01*
X123344379Y-94716042D01*
X123360972Y-94678774D01*
X123371378Y-94645157D01*
X123397211Y-94597380D01*
X123421414Y-94543019D01*
X123441702Y-94515095D01*
X123455420Y-94489724D01*
X123494141Y-94442918D01*
X123532739Y-94389793D01*
X123553716Y-94370905D01*
X123568048Y-94353581D01*
X123620155Y-94311083D01*
X123673489Y-94263061D01*
X123692476Y-94252099D01*
X123704975Y-94241905D01*
X123770220Y-94207214D01*
X123837512Y-94168363D01*
X123852364Y-94163537D01*
X123860997Y-94158947D01*
X123938570Y-94135527D01*
X124017640Y-94109835D01*
X124026886Y-94108863D01*
X124030149Y-94107878D01*
X124121290Y-94098941D01*
X124158789Y-94095000D01*
X124253211Y-94095000D01*
X124394360Y-94109835D01*
X124394360Y-94109835D01*
G37*
G36*
X134598980Y-93008117D02*
G01*
X134599386Y-93008117D01*
X134601637Y-93008538D01*
X134690801Y-93022660D01*
X134698691Y-93026680D01*
X134705409Y-93027936D01*
X134725176Y-93040175D01*
X134772229Y-93064150D01*
X134785776Y-93077697D01*
X134797114Y-93084717D01*
X134810432Y-93102353D01*
X134836850Y-93128771D01*
X134850267Y-93155103D01*
X134862114Y-93170791D01*
X134865418Y-93184838D01*
X134878340Y-93210199D01*
X134892686Y-93300777D01*
X134892883Y-93301614D01*
X134892883Y-93302020D01*
X134894194Y-93310297D01*
X134894194Y-93859703D01*
X134892883Y-93867980D01*
X134892883Y-93868386D01*
X134892462Y-93870637D01*
X134878340Y-93959801D01*
X134874320Y-93967691D01*
X134873064Y-93974409D01*
X134860825Y-93994176D01*
X134836850Y-94041229D01*
X134823303Y-94054776D01*
X134816283Y-94066114D01*
X134798647Y-94079432D01*
X134772229Y-94105850D01*
X134745897Y-94119267D01*
X134730209Y-94131114D01*
X134716162Y-94134418D01*
X134690801Y-94147340D01*
X134600223Y-94161686D01*
X134599386Y-94161883D01*
X134598980Y-94161883D01*
X134590703Y-94163194D01*
X134141297Y-94163194D01*
X134133020Y-94161883D01*
X134132614Y-94161883D01*
X134130363Y-94161462D01*
X134041199Y-94147340D01*
X134033309Y-94143320D01*
X134026591Y-94142064D01*
X134006824Y-94129825D01*
X133959771Y-94105850D01*
X133946224Y-94092303D01*
X133934886Y-94085283D01*
X133921568Y-94067647D01*
X133895150Y-94041229D01*
X133881733Y-94014897D01*
X133869886Y-93999209D01*
X133866582Y-93985162D01*
X133853660Y-93959801D01*
X133839314Y-93869223D01*
X133839117Y-93868386D01*
X133839117Y-93867980D01*
X133837806Y-93859703D01*
X133837806Y-93310297D01*
X133839117Y-93302020D01*
X133839117Y-93301614D01*
X133839538Y-93299363D01*
X133853660Y-93210199D01*
X133857680Y-93202309D01*
X133858936Y-93195591D01*
X133871175Y-93175824D01*
X133895150Y-93128771D01*
X133908697Y-93115224D01*
X133915717Y-93103886D01*
X133933353Y-93090568D01*
X133959771Y-93064150D01*
X133986103Y-93050733D01*
X134001791Y-93038886D01*
X134015838Y-93035582D01*
X134041199Y-93022660D01*
X134131777Y-93008314D01*
X134132614Y-93008117D01*
X134133020Y-93008117D01*
X134141297Y-93006806D01*
X134590703Y-93006806D01*
X134598980Y-93008117D01*
X134598980Y-93008117D01*
G37*
G36*
X132312980Y-93008117D02*
G01*
X132313386Y-93008117D01*
X132315637Y-93008538D01*
X132404801Y-93022660D01*
X132412691Y-93026680D01*
X132419409Y-93027936D01*
X132439176Y-93040175D01*
X132486229Y-93064150D01*
X132499776Y-93077697D01*
X132511114Y-93084717D01*
X132524432Y-93102353D01*
X132550850Y-93128771D01*
X132564267Y-93155103D01*
X132576114Y-93170791D01*
X132579418Y-93184838D01*
X132592340Y-93210199D01*
X132606686Y-93300777D01*
X132606883Y-93301614D01*
X132606883Y-93302020D01*
X132608194Y-93310297D01*
X132608194Y-93859703D01*
X132606883Y-93867980D01*
X132606883Y-93868386D01*
X132606462Y-93870637D01*
X132592340Y-93959801D01*
X132588320Y-93967691D01*
X132587064Y-93974409D01*
X132574825Y-93994176D01*
X132550850Y-94041229D01*
X132537303Y-94054776D01*
X132530283Y-94066114D01*
X132512647Y-94079432D01*
X132486229Y-94105850D01*
X132459897Y-94119267D01*
X132444209Y-94131114D01*
X132430162Y-94134418D01*
X132404801Y-94147340D01*
X132314223Y-94161686D01*
X132313386Y-94161883D01*
X132312980Y-94161883D01*
X132304703Y-94163194D01*
X131855297Y-94163194D01*
X131847020Y-94161883D01*
X131846614Y-94161883D01*
X131844363Y-94161462D01*
X131755199Y-94147340D01*
X131747309Y-94143320D01*
X131740591Y-94142064D01*
X131720824Y-94129825D01*
X131673771Y-94105850D01*
X131660224Y-94092303D01*
X131648886Y-94085283D01*
X131635568Y-94067647D01*
X131609150Y-94041229D01*
X131595733Y-94014897D01*
X131583886Y-93999209D01*
X131580582Y-93985162D01*
X131567660Y-93959801D01*
X131553314Y-93869223D01*
X131553117Y-93868386D01*
X131553117Y-93867980D01*
X131551806Y-93859703D01*
X131551806Y-93310297D01*
X131553117Y-93302020D01*
X131553117Y-93301614D01*
X131553538Y-93299363D01*
X131567660Y-93210199D01*
X131571680Y-93202309D01*
X131572936Y-93195591D01*
X131585175Y-93175824D01*
X131609150Y-93128771D01*
X131622697Y-93115224D01*
X131629717Y-93103886D01*
X131647353Y-93090568D01*
X131673771Y-93064150D01*
X131700103Y-93050733D01*
X131715791Y-93038886D01*
X131729838Y-93035582D01*
X131755199Y-93022660D01*
X131845777Y-93008314D01*
X131846614Y-93008117D01*
X131847020Y-93008117D01*
X131855297Y-93006806D01*
X132304703Y-93006806D01*
X132312980Y-93008117D01*
X132312980Y-93008117D01*
G37*
G36*
X129772980Y-93008117D02*
G01*
X129773386Y-93008117D01*
X129775637Y-93008538D01*
X129864801Y-93022660D01*
X129872691Y-93026680D01*
X129879409Y-93027936D01*
X129899176Y-93040175D01*
X129946229Y-93064150D01*
X129959776Y-93077697D01*
X129971114Y-93084717D01*
X129984432Y-93102353D01*
X130010850Y-93128771D01*
X130024267Y-93155103D01*
X130036114Y-93170791D01*
X130039418Y-93184838D01*
X130052340Y-93210199D01*
X130066686Y-93300777D01*
X130066883Y-93301614D01*
X130066883Y-93302020D01*
X130068194Y-93310297D01*
X130068194Y-93859703D01*
X130066883Y-93867980D01*
X130066883Y-93868386D01*
X130066462Y-93870637D01*
X130052340Y-93959801D01*
X130048320Y-93967691D01*
X130047064Y-93974409D01*
X130034825Y-93994176D01*
X130010850Y-94041229D01*
X129997303Y-94054776D01*
X129990283Y-94066114D01*
X129972647Y-94079432D01*
X129946229Y-94105850D01*
X129919897Y-94119267D01*
X129904209Y-94131114D01*
X129890162Y-94134418D01*
X129864801Y-94147340D01*
X129774223Y-94161686D01*
X129773386Y-94161883D01*
X129772980Y-94161883D01*
X129764703Y-94163194D01*
X129315297Y-94163194D01*
X129307020Y-94161883D01*
X129306614Y-94161883D01*
X129304363Y-94161462D01*
X129215199Y-94147340D01*
X129207309Y-94143320D01*
X129200591Y-94142064D01*
X129180824Y-94129825D01*
X129133771Y-94105850D01*
X129120224Y-94092303D01*
X129108886Y-94085283D01*
X129095568Y-94067647D01*
X129069150Y-94041229D01*
X129055733Y-94014897D01*
X129043886Y-93999209D01*
X129040582Y-93985162D01*
X129027660Y-93959801D01*
X129013314Y-93869223D01*
X129013117Y-93868386D01*
X129013117Y-93867980D01*
X129011806Y-93859703D01*
X129011806Y-93310297D01*
X129013117Y-93302020D01*
X129013117Y-93301614D01*
X129013538Y-93299363D01*
X129027660Y-93210199D01*
X129031680Y-93202309D01*
X129032936Y-93195591D01*
X129045175Y-93175824D01*
X129069150Y-93128771D01*
X129082697Y-93115224D01*
X129089717Y-93103886D01*
X129107353Y-93090568D01*
X129133771Y-93064150D01*
X129160103Y-93050733D01*
X129175791Y-93038886D01*
X129189838Y-93035582D01*
X129215199Y-93022660D01*
X129305777Y-93008314D01*
X129306614Y-93008117D01*
X129307020Y-93008117D01*
X129315297Y-93006806D01*
X129764703Y-93006806D01*
X129772980Y-93008117D01*
X129772980Y-93008117D01*
G37*
G36*
X124394360Y-91569835D02*
G01*
X124475397Y-91596166D01*
X124562663Y-91623848D01*
X124565655Y-91625493D01*
X124574488Y-91628363D01*
X124646466Y-91669919D01*
X124717499Y-91708970D01*
X124724986Y-91715253D01*
X124738511Y-91723061D01*
X124796259Y-91775057D01*
X124852857Y-91822549D01*
X124862962Y-91835118D01*
X124879261Y-91849793D01*
X124921454Y-91907867D01*
X124963579Y-91960260D01*
X124973994Y-91980182D01*
X124990586Y-92003019D01*
X125017297Y-92063012D01*
X125045439Y-92116843D01*
X125053582Y-92144510D01*
X125067621Y-92176042D01*
X125079992Y-92234241D01*
X125095328Y-92286349D01*
X125098518Y-92321401D01*
X125106999Y-92361301D01*
X125106999Y-92414592D01*
X125111343Y-92462324D01*
X125106999Y-92503653D01*
X125106999Y-92550699D01*
X125097217Y-92596721D01*
X125092873Y-92638047D01*
X125078702Y-92683827D01*
X125067621Y-92735958D01*
X125051028Y-92773226D01*
X125040622Y-92806843D01*
X125014789Y-92854620D01*
X124990586Y-92908981D01*
X124970298Y-92936905D01*
X124956580Y-92962276D01*
X124917859Y-93009082D01*
X124879261Y-93062207D01*
X124858284Y-93081095D01*
X124843952Y-93098419D01*
X124791845Y-93140917D01*
X124738511Y-93188939D01*
X124719524Y-93199901D01*
X124707025Y-93210095D01*
X124641780Y-93244786D01*
X124574488Y-93283637D01*
X124559636Y-93288463D01*
X124551003Y-93293053D01*
X124473430Y-93316473D01*
X124394360Y-93342165D01*
X124385114Y-93343137D01*
X124381851Y-93344122D01*
X124290710Y-93353059D01*
X124253211Y-93357000D01*
X124158789Y-93357000D01*
X124017640Y-93342165D01*
X123936603Y-93315834D01*
X123849337Y-93288152D01*
X123846345Y-93286507D01*
X123837512Y-93283637D01*
X123765534Y-93242081D01*
X123694501Y-93203030D01*
X123687014Y-93196747D01*
X123673489Y-93188939D01*
X123615741Y-93136943D01*
X123559143Y-93089451D01*
X123549038Y-93076882D01*
X123532739Y-93062207D01*
X123490546Y-93004133D01*
X123448421Y-92951740D01*
X123438006Y-92931818D01*
X123421414Y-92908981D01*
X123394703Y-92848988D01*
X123366561Y-92795157D01*
X123358418Y-92767490D01*
X123344379Y-92735958D01*
X123332008Y-92677759D01*
X123316672Y-92625651D01*
X123313482Y-92590599D01*
X123305001Y-92550699D01*
X123305001Y-92497408D01*
X123300657Y-92449676D01*
X123305001Y-92408347D01*
X123305001Y-92361301D01*
X123314783Y-92315279D01*
X123319127Y-92273953D01*
X123333298Y-92228173D01*
X123344379Y-92176042D01*
X123360972Y-92138774D01*
X123371378Y-92105157D01*
X123397211Y-92057380D01*
X123421414Y-92003019D01*
X123441702Y-91975095D01*
X123455420Y-91949724D01*
X123494141Y-91902918D01*
X123532739Y-91849793D01*
X123553716Y-91830905D01*
X123568048Y-91813581D01*
X123620155Y-91771083D01*
X123673489Y-91723061D01*
X123692476Y-91712099D01*
X123704975Y-91701905D01*
X123770220Y-91667214D01*
X123837512Y-91628363D01*
X123852364Y-91623537D01*
X123860997Y-91618947D01*
X123938570Y-91595527D01*
X124017640Y-91569835D01*
X124026886Y-91568863D01*
X124030149Y-91567878D01*
X124121290Y-91558941D01*
X124158789Y-91555000D01*
X124253211Y-91555000D01*
X124394360Y-91569835D01*
X124394360Y-91569835D01*
G37*
G36*
X137094360Y-91569835D02*
G01*
X137175397Y-91596166D01*
X137262663Y-91623848D01*
X137265655Y-91625493D01*
X137274488Y-91628363D01*
X137346466Y-91669919D01*
X137417499Y-91708970D01*
X137424986Y-91715253D01*
X137438511Y-91723061D01*
X137496259Y-91775057D01*
X137552857Y-91822549D01*
X137562962Y-91835118D01*
X137579261Y-91849793D01*
X137621454Y-91907867D01*
X137663579Y-91960260D01*
X137673994Y-91980182D01*
X137690586Y-92003019D01*
X137717297Y-92063012D01*
X137745439Y-92116843D01*
X137753582Y-92144510D01*
X137767621Y-92176042D01*
X137779992Y-92234241D01*
X137795328Y-92286349D01*
X137798518Y-92321401D01*
X137806999Y-92361301D01*
X137806999Y-92414592D01*
X137811343Y-92462324D01*
X137806999Y-92503653D01*
X137806999Y-92550699D01*
X137797217Y-92596721D01*
X137792873Y-92638047D01*
X137778702Y-92683827D01*
X137767621Y-92735958D01*
X137751028Y-92773226D01*
X137740622Y-92806843D01*
X137714789Y-92854620D01*
X137690586Y-92908981D01*
X137670298Y-92936905D01*
X137656580Y-92962276D01*
X137617859Y-93009082D01*
X137579261Y-93062207D01*
X137558284Y-93081095D01*
X137543952Y-93098419D01*
X137491845Y-93140917D01*
X137438511Y-93188939D01*
X137419524Y-93199901D01*
X137407025Y-93210095D01*
X137341780Y-93244786D01*
X137274488Y-93283637D01*
X137259636Y-93288463D01*
X137251003Y-93293053D01*
X137173430Y-93316473D01*
X137094360Y-93342165D01*
X137085114Y-93343137D01*
X137081851Y-93344122D01*
X136990710Y-93353059D01*
X136953211Y-93357000D01*
X136858789Y-93357000D01*
X136717640Y-93342165D01*
X136636603Y-93315834D01*
X136549337Y-93288152D01*
X136546345Y-93286507D01*
X136537512Y-93283637D01*
X136465534Y-93242081D01*
X136394501Y-93203030D01*
X136387014Y-93196747D01*
X136373489Y-93188939D01*
X136315741Y-93136943D01*
X136259143Y-93089451D01*
X136249038Y-93076882D01*
X136232739Y-93062207D01*
X136190546Y-93004133D01*
X136148421Y-92951740D01*
X136138006Y-92931818D01*
X136121414Y-92908981D01*
X136094703Y-92848988D01*
X136066561Y-92795157D01*
X136058418Y-92767490D01*
X136044379Y-92735958D01*
X136032008Y-92677759D01*
X136016672Y-92625651D01*
X136013482Y-92590599D01*
X136005001Y-92550699D01*
X136005001Y-92497408D01*
X136000657Y-92449676D01*
X136005001Y-92408347D01*
X136005001Y-92361301D01*
X136014783Y-92315279D01*
X136019127Y-92273953D01*
X136033298Y-92228173D01*
X136044379Y-92176042D01*
X136060972Y-92138774D01*
X136071378Y-92105157D01*
X136097211Y-92057380D01*
X136121414Y-92003019D01*
X136141702Y-91975095D01*
X136155420Y-91949724D01*
X136194141Y-91902918D01*
X136232739Y-91849793D01*
X136253716Y-91830905D01*
X136268048Y-91813581D01*
X136320155Y-91771083D01*
X136373489Y-91723061D01*
X136392476Y-91712099D01*
X136404975Y-91701905D01*
X136470220Y-91667214D01*
X136537512Y-91628363D01*
X136552364Y-91623537D01*
X136560997Y-91618947D01*
X136638570Y-91595527D01*
X136717640Y-91569835D01*
X136726886Y-91568863D01*
X136730149Y-91567878D01*
X136821290Y-91558941D01*
X136858789Y-91555000D01*
X136953211Y-91555000D01*
X137094360Y-91569835D01*
X137094360Y-91569835D01*
G37*
G36*
X129772980Y-91258117D02*
G01*
X129773386Y-91258117D01*
X129775637Y-91258538D01*
X129864801Y-91272660D01*
X129872691Y-91276680D01*
X129879409Y-91277936D01*
X129899176Y-91290175D01*
X129946229Y-91314150D01*
X129959776Y-91327697D01*
X129971114Y-91334717D01*
X129984432Y-91352353D01*
X130010850Y-91378771D01*
X130024267Y-91405103D01*
X130036114Y-91420791D01*
X130039418Y-91434838D01*
X130052340Y-91460199D01*
X130066686Y-91550777D01*
X130066883Y-91551614D01*
X130066883Y-91552020D01*
X130068194Y-91560297D01*
X130068194Y-92109703D01*
X130066883Y-92117980D01*
X130066883Y-92118386D01*
X130066462Y-92120637D01*
X130052340Y-92209801D01*
X130048320Y-92217691D01*
X130047064Y-92224409D01*
X130034825Y-92244176D01*
X130010850Y-92291229D01*
X129997303Y-92304776D01*
X129990283Y-92316114D01*
X129972647Y-92329432D01*
X129946229Y-92355850D01*
X129919897Y-92369267D01*
X129904209Y-92381114D01*
X129890162Y-92384418D01*
X129864801Y-92397340D01*
X129774223Y-92411686D01*
X129773386Y-92411883D01*
X129772980Y-92411883D01*
X129764703Y-92413194D01*
X129315297Y-92413194D01*
X129307020Y-92411883D01*
X129306614Y-92411883D01*
X129304363Y-92411462D01*
X129215199Y-92397340D01*
X129207309Y-92393320D01*
X129200591Y-92392064D01*
X129180824Y-92379825D01*
X129133771Y-92355850D01*
X129120224Y-92342303D01*
X129108886Y-92335283D01*
X129095568Y-92317647D01*
X129069150Y-92291229D01*
X129055733Y-92264897D01*
X129043886Y-92249209D01*
X129040582Y-92235162D01*
X129027660Y-92209801D01*
X129013314Y-92119223D01*
X129013117Y-92118386D01*
X129013117Y-92117980D01*
X129011806Y-92109703D01*
X129011806Y-91560297D01*
X129013117Y-91552020D01*
X129013117Y-91551614D01*
X129013538Y-91549363D01*
X129027660Y-91460199D01*
X129031680Y-91452309D01*
X129032936Y-91445591D01*
X129045175Y-91425824D01*
X129069150Y-91378771D01*
X129082697Y-91365224D01*
X129089717Y-91353886D01*
X129107353Y-91340568D01*
X129133771Y-91314150D01*
X129160103Y-91300733D01*
X129175791Y-91288886D01*
X129189838Y-91285582D01*
X129215199Y-91272660D01*
X129305777Y-91258314D01*
X129306614Y-91258117D01*
X129307020Y-91258117D01*
X129315297Y-91256806D01*
X129764703Y-91256806D01*
X129772980Y-91258117D01*
X129772980Y-91258117D01*
G37*
G36*
X132312980Y-91258117D02*
G01*
X132313386Y-91258117D01*
X132315637Y-91258538D01*
X132404801Y-91272660D01*
X132412691Y-91276680D01*
X132419409Y-91277936D01*
X132439176Y-91290175D01*
X132486229Y-91314150D01*
X132499776Y-91327697D01*
X132511114Y-91334717D01*
X132524432Y-91352353D01*
X132550850Y-91378771D01*
X132564267Y-91405103D01*
X132576114Y-91420791D01*
X132579418Y-91434838D01*
X132592340Y-91460199D01*
X132606686Y-91550777D01*
X132606883Y-91551614D01*
X132606883Y-91552020D01*
X132608194Y-91560297D01*
X132608194Y-92109703D01*
X132606883Y-92117980D01*
X132606883Y-92118386D01*
X132606462Y-92120637D01*
X132592340Y-92209801D01*
X132588320Y-92217691D01*
X132587064Y-92224409D01*
X132574825Y-92244176D01*
X132550850Y-92291229D01*
X132537303Y-92304776D01*
X132530283Y-92316114D01*
X132512647Y-92329432D01*
X132486229Y-92355850D01*
X132459897Y-92369267D01*
X132444209Y-92381114D01*
X132430162Y-92384418D01*
X132404801Y-92397340D01*
X132314223Y-92411686D01*
X132313386Y-92411883D01*
X132312980Y-92411883D01*
X132304703Y-92413194D01*
X131855297Y-92413194D01*
X131847020Y-92411883D01*
X131846614Y-92411883D01*
X131844363Y-92411462D01*
X131755199Y-92397340D01*
X131747309Y-92393320D01*
X131740591Y-92392064D01*
X131720824Y-92379825D01*
X131673771Y-92355850D01*
X131660224Y-92342303D01*
X131648886Y-92335283D01*
X131635568Y-92317647D01*
X131609150Y-92291229D01*
X131595733Y-92264897D01*
X131583886Y-92249209D01*
X131580582Y-92235162D01*
X131567660Y-92209801D01*
X131553314Y-92119223D01*
X131553117Y-92118386D01*
X131553117Y-92117980D01*
X131551806Y-92109703D01*
X131551806Y-91560297D01*
X131553117Y-91552020D01*
X131553117Y-91551614D01*
X131553538Y-91549363D01*
X131567660Y-91460199D01*
X131571680Y-91452309D01*
X131572936Y-91445591D01*
X131585175Y-91425824D01*
X131609150Y-91378771D01*
X131622697Y-91365224D01*
X131629717Y-91353886D01*
X131647353Y-91340568D01*
X131673771Y-91314150D01*
X131700103Y-91300733D01*
X131715791Y-91288886D01*
X131729838Y-91285582D01*
X131755199Y-91272660D01*
X131845777Y-91258314D01*
X131846614Y-91258117D01*
X131847020Y-91258117D01*
X131855297Y-91256806D01*
X132304703Y-91256806D01*
X132312980Y-91258117D01*
X132312980Y-91258117D01*
G37*
G36*
X134598980Y-91258117D02*
G01*
X134599386Y-91258117D01*
X134601637Y-91258538D01*
X134690801Y-91272660D01*
X134698691Y-91276680D01*
X134705409Y-91277936D01*
X134725176Y-91290175D01*
X134772229Y-91314150D01*
X134785776Y-91327697D01*
X134797114Y-91334717D01*
X134810432Y-91352353D01*
X134836850Y-91378771D01*
X134850267Y-91405103D01*
X134862114Y-91420791D01*
X134865418Y-91434838D01*
X134878340Y-91460199D01*
X134892686Y-91550777D01*
X134892883Y-91551614D01*
X134892883Y-91552020D01*
X134894194Y-91560297D01*
X134894194Y-92109703D01*
X134892883Y-92117980D01*
X134892883Y-92118386D01*
X134892462Y-92120637D01*
X134878340Y-92209801D01*
X134874320Y-92217691D01*
X134873064Y-92224409D01*
X134860825Y-92244176D01*
X134836850Y-92291229D01*
X134823303Y-92304776D01*
X134816283Y-92316114D01*
X134798647Y-92329432D01*
X134772229Y-92355850D01*
X134745897Y-92369267D01*
X134730209Y-92381114D01*
X134716162Y-92384418D01*
X134690801Y-92397340D01*
X134600223Y-92411686D01*
X134599386Y-92411883D01*
X134598980Y-92411883D01*
X134590703Y-92413194D01*
X134141297Y-92413194D01*
X134133020Y-92411883D01*
X134132614Y-92411883D01*
X134130363Y-92411462D01*
X134041199Y-92397340D01*
X134033309Y-92393320D01*
X134026591Y-92392064D01*
X134006824Y-92379825D01*
X133959771Y-92355850D01*
X133946224Y-92342303D01*
X133934886Y-92335283D01*
X133921568Y-92317647D01*
X133895150Y-92291229D01*
X133881733Y-92264897D01*
X133869886Y-92249209D01*
X133866582Y-92235162D01*
X133853660Y-92209801D01*
X133839314Y-92119223D01*
X133839117Y-92118386D01*
X133839117Y-92117980D01*
X133837806Y-92109703D01*
X133837806Y-91560297D01*
X133839117Y-91552020D01*
X133839117Y-91551614D01*
X133839538Y-91549363D01*
X133853660Y-91460199D01*
X133857680Y-91452309D01*
X133858936Y-91445591D01*
X133871175Y-91425824D01*
X133895150Y-91378771D01*
X133908697Y-91365224D01*
X133915717Y-91353886D01*
X133933353Y-91340568D01*
X133959771Y-91314150D01*
X133986103Y-91300733D01*
X134001791Y-91288886D01*
X134015838Y-91285582D01*
X134041199Y-91272660D01*
X134131777Y-91258314D01*
X134132614Y-91258117D01*
X134133020Y-91258117D01*
X134141297Y-91256806D01*
X134590703Y-91256806D01*
X134598980Y-91258117D01*
X134598980Y-91258117D01*
G37*
G36*
X124394360Y-89029835D02*
G01*
X124475397Y-89056166D01*
X124562663Y-89083848D01*
X124565655Y-89085493D01*
X124574488Y-89088363D01*
X124646466Y-89129919D01*
X124717499Y-89168970D01*
X124724986Y-89175253D01*
X124738511Y-89183061D01*
X124796259Y-89235057D01*
X124852857Y-89282549D01*
X124862962Y-89295118D01*
X124879261Y-89309793D01*
X124921454Y-89367867D01*
X124963579Y-89420260D01*
X124973994Y-89440182D01*
X124990586Y-89463019D01*
X125017297Y-89523012D01*
X125045439Y-89576843D01*
X125053582Y-89604510D01*
X125067621Y-89636042D01*
X125079992Y-89694241D01*
X125095328Y-89746349D01*
X125098518Y-89781401D01*
X125106999Y-89821301D01*
X125106999Y-89874592D01*
X125111343Y-89922324D01*
X125106999Y-89963653D01*
X125106999Y-90010699D01*
X125097217Y-90056721D01*
X125092873Y-90098047D01*
X125078702Y-90143827D01*
X125067621Y-90195958D01*
X125051028Y-90233226D01*
X125040622Y-90266843D01*
X125014789Y-90314620D01*
X124990586Y-90368981D01*
X124970298Y-90396905D01*
X124956580Y-90422276D01*
X124917859Y-90469082D01*
X124879261Y-90522207D01*
X124858284Y-90541095D01*
X124843952Y-90558419D01*
X124791845Y-90600917D01*
X124738511Y-90648939D01*
X124719524Y-90659901D01*
X124707025Y-90670095D01*
X124641780Y-90704786D01*
X124574488Y-90743637D01*
X124559636Y-90748463D01*
X124551003Y-90753053D01*
X124473430Y-90776473D01*
X124394360Y-90802165D01*
X124385114Y-90803137D01*
X124381851Y-90804122D01*
X124290710Y-90813059D01*
X124253211Y-90817000D01*
X124158789Y-90817000D01*
X124017640Y-90802165D01*
X123936603Y-90775834D01*
X123849337Y-90748152D01*
X123846345Y-90746507D01*
X123837512Y-90743637D01*
X123765534Y-90702081D01*
X123694501Y-90663030D01*
X123687014Y-90656747D01*
X123673489Y-90648939D01*
X123615741Y-90596943D01*
X123559143Y-90549451D01*
X123549038Y-90536882D01*
X123532739Y-90522207D01*
X123490546Y-90464133D01*
X123448421Y-90411740D01*
X123438006Y-90391818D01*
X123421414Y-90368981D01*
X123394703Y-90308988D01*
X123366561Y-90255157D01*
X123358418Y-90227490D01*
X123344379Y-90195958D01*
X123332008Y-90137759D01*
X123316672Y-90085651D01*
X123313482Y-90050599D01*
X123305001Y-90010699D01*
X123305001Y-89957408D01*
X123300657Y-89909676D01*
X123305001Y-89868347D01*
X123305001Y-89821301D01*
X123314783Y-89775279D01*
X123319127Y-89733953D01*
X123333298Y-89688173D01*
X123344379Y-89636042D01*
X123360972Y-89598774D01*
X123371378Y-89565157D01*
X123397211Y-89517380D01*
X123421414Y-89463019D01*
X123441702Y-89435095D01*
X123455420Y-89409724D01*
X123494141Y-89362918D01*
X123532739Y-89309793D01*
X123553716Y-89290905D01*
X123568048Y-89273581D01*
X123620155Y-89231083D01*
X123673489Y-89183061D01*
X123692476Y-89172099D01*
X123704975Y-89161905D01*
X123770220Y-89127214D01*
X123837512Y-89088363D01*
X123852364Y-89083537D01*
X123860997Y-89078947D01*
X123938570Y-89055527D01*
X124017640Y-89029835D01*
X124026886Y-89028863D01*
X124030149Y-89027878D01*
X124121290Y-89018941D01*
X124158789Y-89015000D01*
X124253211Y-89015000D01*
X124394360Y-89029835D01*
X124394360Y-89029835D01*
G37*
G36*
X137094360Y-89029835D02*
G01*
X137175397Y-89056166D01*
X137262663Y-89083848D01*
X137265655Y-89085493D01*
X137274488Y-89088363D01*
X137346466Y-89129919D01*
X137417499Y-89168970D01*
X137424986Y-89175253D01*
X137438511Y-89183061D01*
X137496259Y-89235057D01*
X137552857Y-89282549D01*
X137562962Y-89295118D01*
X137579261Y-89309793D01*
X137621454Y-89367867D01*
X137663579Y-89420260D01*
X137673994Y-89440182D01*
X137690586Y-89463019D01*
X137717297Y-89523012D01*
X137745439Y-89576843D01*
X137753582Y-89604510D01*
X137767621Y-89636042D01*
X137779992Y-89694241D01*
X137795328Y-89746349D01*
X137798518Y-89781401D01*
X137806999Y-89821301D01*
X137806999Y-89874592D01*
X137811343Y-89922324D01*
X137806999Y-89963653D01*
X137806999Y-90010699D01*
X137797217Y-90056721D01*
X137792873Y-90098047D01*
X137778702Y-90143827D01*
X137767621Y-90195958D01*
X137751028Y-90233226D01*
X137740622Y-90266843D01*
X137714789Y-90314620D01*
X137690586Y-90368981D01*
X137670298Y-90396905D01*
X137656580Y-90422276D01*
X137617859Y-90469082D01*
X137579261Y-90522207D01*
X137558284Y-90541095D01*
X137543952Y-90558419D01*
X137491845Y-90600917D01*
X137438511Y-90648939D01*
X137419524Y-90659901D01*
X137407025Y-90670095D01*
X137341780Y-90704786D01*
X137274488Y-90743637D01*
X137259636Y-90748463D01*
X137251003Y-90753053D01*
X137173430Y-90776473D01*
X137094360Y-90802165D01*
X137085114Y-90803137D01*
X137081851Y-90804122D01*
X136990710Y-90813059D01*
X136953211Y-90817000D01*
X136858789Y-90817000D01*
X136717640Y-90802165D01*
X136636603Y-90775834D01*
X136549337Y-90748152D01*
X136546345Y-90746507D01*
X136537512Y-90743637D01*
X136465534Y-90702081D01*
X136394501Y-90663030D01*
X136387014Y-90656747D01*
X136373489Y-90648939D01*
X136315741Y-90596943D01*
X136259143Y-90549451D01*
X136249038Y-90536882D01*
X136232739Y-90522207D01*
X136190546Y-90464133D01*
X136148421Y-90411740D01*
X136138006Y-90391818D01*
X136121414Y-90368981D01*
X136094703Y-90308988D01*
X136066561Y-90255157D01*
X136058418Y-90227490D01*
X136044379Y-90195958D01*
X136032008Y-90137759D01*
X136016672Y-90085651D01*
X136013482Y-90050599D01*
X136005001Y-90010699D01*
X136005001Y-89957408D01*
X136000657Y-89909676D01*
X136005001Y-89868347D01*
X136005001Y-89821301D01*
X136014783Y-89775279D01*
X136019127Y-89733953D01*
X136033298Y-89688173D01*
X136044379Y-89636042D01*
X136060972Y-89598774D01*
X136071378Y-89565157D01*
X136097211Y-89517380D01*
X136121414Y-89463019D01*
X136141702Y-89435095D01*
X136155420Y-89409724D01*
X136194141Y-89362918D01*
X136232739Y-89309793D01*
X136253716Y-89290905D01*
X136268048Y-89273581D01*
X136320155Y-89231083D01*
X136373489Y-89183061D01*
X136392476Y-89172099D01*
X136404975Y-89161905D01*
X136470220Y-89127214D01*
X136537512Y-89088363D01*
X136552364Y-89083537D01*
X136560997Y-89078947D01*
X136638570Y-89055527D01*
X136717640Y-89029835D01*
X136726886Y-89028863D01*
X136730149Y-89027878D01*
X136821290Y-89018941D01*
X136858789Y-89015000D01*
X136953211Y-89015000D01*
X137094360Y-89029835D01*
X137094360Y-89029835D01*
G37*
G36*
X129197899Y-88385959D02*
G01*
X129214769Y-88397231D01*
X129226041Y-88414101D01*
X129232448Y-88446312D01*
X129232448Y-89321688D01*
X129229364Y-89337194D01*
X129226041Y-89353899D01*
X129214769Y-89370769D01*
X129197899Y-89382041D01*
X129178000Y-89385999D01*
X129165688Y-89388448D01*
X128390312Y-89388448D01*
X128358101Y-89382041D01*
X128341231Y-89370769D01*
X128329959Y-89353899D01*
X128323552Y-89321688D01*
X128323552Y-88446312D01*
X128329959Y-88414101D01*
X128341231Y-88397231D01*
X128358101Y-88385959D01*
X128390312Y-88379552D01*
X129165688Y-88379552D01*
X129197899Y-88385959D01*
X129197899Y-88385959D01*
G37*
G36*
X134598980Y-88182117D02*
G01*
X134599386Y-88182117D01*
X134601637Y-88182538D01*
X134690801Y-88196660D01*
X134698691Y-88200680D01*
X134705409Y-88201936D01*
X134725176Y-88214175D01*
X134772229Y-88238150D01*
X134785776Y-88251697D01*
X134797114Y-88258717D01*
X134810432Y-88276353D01*
X134836850Y-88302771D01*
X134850267Y-88329103D01*
X134862114Y-88344791D01*
X134865418Y-88358838D01*
X134878340Y-88384199D01*
X134892686Y-88474777D01*
X134892883Y-88475614D01*
X134892883Y-88476020D01*
X134894194Y-88484297D01*
X134894194Y-89033703D01*
X134892883Y-89041980D01*
X134892883Y-89042386D01*
X134892462Y-89044637D01*
X134878340Y-89133801D01*
X134874320Y-89141691D01*
X134873064Y-89148409D01*
X134860825Y-89168176D01*
X134836850Y-89215229D01*
X134823303Y-89228776D01*
X134816283Y-89240114D01*
X134798647Y-89253432D01*
X134772229Y-89279850D01*
X134745897Y-89293267D01*
X134730209Y-89305114D01*
X134716162Y-89308418D01*
X134690801Y-89321340D01*
X134600223Y-89335686D01*
X134599386Y-89335883D01*
X134598980Y-89335883D01*
X134590703Y-89337194D01*
X134141297Y-89337194D01*
X134133020Y-89335883D01*
X134132614Y-89335883D01*
X134130363Y-89335462D01*
X134041199Y-89321340D01*
X134033309Y-89317320D01*
X134026591Y-89316064D01*
X134006824Y-89303825D01*
X133959771Y-89279850D01*
X133946224Y-89266303D01*
X133934886Y-89259283D01*
X133921568Y-89241647D01*
X133895150Y-89215229D01*
X133881733Y-89188897D01*
X133869886Y-89173209D01*
X133866582Y-89159162D01*
X133853660Y-89133801D01*
X133839314Y-89043223D01*
X133839117Y-89042386D01*
X133839117Y-89041980D01*
X133837806Y-89033703D01*
X133837806Y-88484297D01*
X133839117Y-88476020D01*
X133839117Y-88475614D01*
X133839538Y-88473363D01*
X133853660Y-88384199D01*
X133857680Y-88376309D01*
X133858936Y-88369591D01*
X133871175Y-88349824D01*
X133895150Y-88302771D01*
X133908697Y-88289224D01*
X133915717Y-88277886D01*
X133933353Y-88264568D01*
X133959771Y-88238150D01*
X133986103Y-88224733D01*
X134001791Y-88212886D01*
X134015838Y-88209582D01*
X134041199Y-88196660D01*
X134131777Y-88182314D01*
X134132614Y-88182117D01*
X134133020Y-88182117D01*
X134141297Y-88180806D01*
X134590703Y-88180806D01*
X134598980Y-88182117D01*
X134598980Y-88182117D01*
G37*
G36*
X132324899Y-88485959D02*
G01*
X132341769Y-88497231D01*
X132353041Y-88514101D01*
X132359448Y-88546312D01*
X132359448Y-89221688D01*
X132356999Y-89234000D01*
X132353041Y-89253899D01*
X132341769Y-89270769D01*
X132324899Y-89282041D01*
X132305000Y-89285999D01*
X132292688Y-89288448D01*
X131867312Y-89288448D01*
X131835101Y-89282041D01*
X131818231Y-89270769D01*
X131806959Y-89253899D01*
X131800552Y-89221688D01*
X131800552Y-88546312D01*
X131806959Y-88514101D01*
X131818231Y-88497231D01*
X131835101Y-88485959D01*
X131867312Y-88479552D01*
X132292688Y-88479552D01*
X132324899Y-88485959D01*
X132324899Y-88485959D01*
G37*
G36*
X137094360Y-86489835D02*
G01*
X137175397Y-86516166D01*
X137262663Y-86543848D01*
X137265655Y-86545493D01*
X137274488Y-86548363D01*
X137346466Y-86589919D01*
X137417499Y-86628970D01*
X137424986Y-86635253D01*
X137438511Y-86643061D01*
X137496259Y-86695057D01*
X137552857Y-86742549D01*
X137562962Y-86755118D01*
X137579261Y-86769793D01*
X137621454Y-86827867D01*
X137663579Y-86880260D01*
X137673994Y-86900182D01*
X137690586Y-86923019D01*
X137717297Y-86983012D01*
X137745439Y-87036843D01*
X137753582Y-87064510D01*
X137767621Y-87096042D01*
X137779992Y-87154241D01*
X137795328Y-87206349D01*
X137798518Y-87241401D01*
X137806999Y-87281301D01*
X137806999Y-87334592D01*
X137811343Y-87382324D01*
X137806999Y-87423653D01*
X137806999Y-87470699D01*
X137797217Y-87516721D01*
X137792873Y-87558047D01*
X137778702Y-87603827D01*
X137767621Y-87655958D01*
X137751028Y-87693226D01*
X137740622Y-87726843D01*
X137714789Y-87774620D01*
X137690586Y-87828981D01*
X137670298Y-87856905D01*
X137656580Y-87882276D01*
X137617859Y-87929082D01*
X137579261Y-87982207D01*
X137558284Y-88001095D01*
X137543952Y-88018419D01*
X137491845Y-88060917D01*
X137438511Y-88108939D01*
X137419524Y-88119901D01*
X137407025Y-88130095D01*
X137341780Y-88164786D01*
X137274488Y-88203637D01*
X137259636Y-88208463D01*
X137251003Y-88213053D01*
X137173430Y-88236473D01*
X137094360Y-88262165D01*
X137085114Y-88263137D01*
X137081851Y-88264122D01*
X136990710Y-88273059D01*
X136953211Y-88277000D01*
X136858789Y-88277000D01*
X136717640Y-88262165D01*
X136636603Y-88235834D01*
X136549337Y-88208152D01*
X136546345Y-88206507D01*
X136537512Y-88203637D01*
X136465534Y-88162081D01*
X136394501Y-88123030D01*
X136387014Y-88116747D01*
X136373489Y-88108939D01*
X136315741Y-88056943D01*
X136259143Y-88009451D01*
X136249038Y-87996882D01*
X136232739Y-87982207D01*
X136190546Y-87924133D01*
X136148421Y-87871740D01*
X136138006Y-87851818D01*
X136121414Y-87828981D01*
X136094703Y-87768988D01*
X136066561Y-87715157D01*
X136058418Y-87687490D01*
X136044379Y-87655958D01*
X136032008Y-87597759D01*
X136016672Y-87545651D01*
X136013482Y-87510599D01*
X136005001Y-87470699D01*
X136005001Y-87417408D01*
X136000657Y-87369676D01*
X136005001Y-87328347D01*
X136005001Y-87281301D01*
X136014783Y-87235279D01*
X136019127Y-87193953D01*
X136033298Y-87148173D01*
X136044379Y-87096042D01*
X136060972Y-87058774D01*
X136071378Y-87025157D01*
X136097211Y-86977380D01*
X136121414Y-86923019D01*
X136141702Y-86895095D01*
X136155420Y-86869724D01*
X136194141Y-86822918D01*
X136232739Y-86769793D01*
X136253716Y-86750905D01*
X136268048Y-86733581D01*
X136320155Y-86691083D01*
X136373489Y-86643061D01*
X136392476Y-86632099D01*
X136404975Y-86621905D01*
X136470220Y-86587214D01*
X136537512Y-86548363D01*
X136552364Y-86543537D01*
X136560997Y-86538947D01*
X136638570Y-86515527D01*
X136717640Y-86489835D01*
X136726886Y-86488863D01*
X136730149Y-86487878D01*
X136821290Y-86478941D01*
X136858789Y-86475000D01*
X136953211Y-86475000D01*
X137094360Y-86489835D01*
X137094360Y-86489835D01*
G37*
G36*
X124394360Y-86489835D02*
G01*
X124475397Y-86516166D01*
X124562663Y-86543848D01*
X124565655Y-86545493D01*
X124574488Y-86548363D01*
X124646466Y-86589919D01*
X124717499Y-86628970D01*
X124724986Y-86635253D01*
X124738511Y-86643061D01*
X124796259Y-86695057D01*
X124852857Y-86742549D01*
X124862962Y-86755118D01*
X124879261Y-86769793D01*
X124921454Y-86827867D01*
X124963579Y-86880260D01*
X124973994Y-86900182D01*
X124990586Y-86923019D01*
X125017297Y-86983012D01*
X125045439Y-87036843D01*
X125053582Y-87064510D01*
X125067621Y-87096042D01*
X125079992Y-87154241D01*
X125095328Y-87206349D01*
X125098518Y-87241401D01*
X125106999Y-87281301D01*
X125106999Y-87334592D01*
X125111343Y-87382324D01*
X125106999Y-87423653D01*
X125106999Y-87470699D01*
X125097217Y-87516721D01*
X125092873Y-87558047D01*
X125078702Y-87603827D01*
X125067621Y-87655958D01*
X125051028Y-87693226D01*
X125040622Y-87726843D01*
X125014789Y-87774620D01*
X124990586Y-87828981D01*
X124970298Y-87856905D01*
X124956580Y-87882276D01*
X124917859Y-87929082D01*
X124879261Y-87982207D01*
X124858284Y-88001095D01*
X124843952Y-88018419D01*
X124791845Y-88060917D01*
X124738511Y-88108939D01*
X124719524Y-88119901D01*
X124707025Y-88130095D01*
X124641780Y-88164786D01*
X124574488Y-88203637D01*
X124559636Y-88208463D01*
X124551003Y-88213053D01*
X124473430Y-88236473D01*
X124394360Y-88262165D01*
X124385114Y-88263137D01*
X124381851Y-88264122D01*
X124290710Y-88273059D01*
X124253211Y-88277000D01*
X124158789Y-88277000D01*
X124017640Y-88262165D01*
X123936603Y-88235834D01*
X123849337Y-88208152D01*
X123846345Y-88206507D01*
X123837512Y-88203637D01*
X123765534Y-88162081D01*
X123694501Y-88123030D01*
X123687014Y-88116747D01*
X123673489Y-88108939D01*
X123615741Y-88056943D01*
X123559143Y-88009451D01*
X123549038Y-87996882D01*
X123532739Y-87982207D01*
X123490546Y-87924133D01*
X123448421Y-87871740D01*
X123438006Y-87851818D01*
X123421414Y-87828981D01*
X123394703Y-87768988D01*
X123366561Y-87715157D01*
X123358418Y-87687490D01*
X123344379Y-87655958D01*
X123332008Y-87597759D01*
X123316672Y-87545651D01*
X123313482Y-87510599D01*
X123305001Y-87470699D01*
X123305001Y-87417408D01*
X123300657Y-87369676D01*
X123305001Y-87328347D01*
X123305001Y-87281301D01*
X123314783Y-87235279D01*
X123319127Y-87193953D01*
X123333298Y-87148173D01*
X123344379Y-87096042D01*
X123360972Y-87058774D01*
X123371378Y-87025157D01*
X123397211Y-86977380D01*
X123421414Y-86923019D01*
X123441702Y-86895095D01*
X123455420Y-86869724D01*
X123494141Y-86822918D01*
X123532739Y-86769793D01*
X123553716Y-86750905D01*
X123568048Y-86733581D01*
X123620155Y-86691083D01*
X123673489Y-86643061D01*
X123692476Y-86632099D01*
X123704975Y-86621905D01*
X123770220Y-86587214D01*
X123837512Y-86548363D01*
X123852364Y-86543537D01*
X123860997Y-86538947D01*
X123938570Y-86515527D01*
X124017640Y-86489835D01*
X124026886Y-86488863D01*
X124030149Y-86487878D01*
X124121290Y-86478941D01*
X124158789Y-86475000D01*
X124253211Y-86475000D01*
X124394360Y-86489835D01*
X124394360Y-86489835D01*
G37*
G36*
X134598980Y-86432117D02*
G01*
X134599386Y-86432117D01*
X134601637Y-86432538D01*
X134690801Y-86446660D01*
X134698691Y-86450680D01*
X134705409Y-86451936D01*
X134725176Y-86464175D01*
X134772229Y-86488150D01*
X134785776Y-86501697D01*
X134797114Y-86508717D01*
X134810432Y-86526353D01*
X134836850Y-86552771D01*
X134850267Y-86579103D01*
X134862114Y-86594791D01*
X134865418Y-86608838D01*
X134878340Y-86634199D01*
X134892686Y-86724777D01*
X134892883Y-86725614D01*
X134892883Y-86726020D01*
X134894194Y-86734297D01*
X134894194Y-87283703D01*
X134892883Y-87291980D01*
X134892883Y-87292386D01*
X134892462Y-87294637D01*
X134878340Y-87383801D01*
X134874320Y-87391691D01*
X134873064Y-87398409D01*
X134860825Y-87418176D01*
X134836850Y-87465229D01*
X134823303Y-87478776D01*
X134816283Y-87490114D01*
X134798647Y-87503432D01*
X134772229Y-87529850D01*
X134745897Y-87543267D01*
X134730209Y-87555114D01*
X134716162Y-87558418D01*
X134690801Y-87571340D01*
X134600223Y-87585686D01*
X134599386Y-87585883D01*
X134598980Y-87585883D01*
X134590703Y-87587194D01*
X134141297Y-87587194D01*
X134133020Y-87585883D01*
X134132614Y-87585883D01*
X134130363Y-87585462D01*
X134041199Y-87571340D01*
X134033309Y-87567320D01*
X134026591Y-87566064D01*
X134006824Y-87553825D01*
X133959771Y-87529850D01*
X133946224Y-87516303D01*
X133934886Y-87509283D01*
X133921568Y-87491647D01*
X133895150Y-87465229D01*
X133881733Y-87438897D01*
X133869886Y-87423209D01*
X133866582Y-87409162D01*
X133853660Y-87383801D01*
X133839314Y-87293223D01*
X133839117Y-87292386D01*
X133839117Y-87291980D01*
X133837806Y-87283703D01*
X133837806Y-86734297D01*
X133839117Y-86726020D01*
X133839117Y-86725614D01*
X133839538Y-86723363D01*
X133853660Y-86634199D01*
X133857680Y-86626309D01*
X133858936Y-86619591D01*
X133871175Y-86599824D01*
X133895150Y-86552771D01*
X133908697Y-86539224D01*
X133915717Y-86527886D01*
X133933353Y-86514568D01*
X133959771Y-86488150D01*
X133986103Y-86474733D01*
X134001791Y-86462886D01*
X134015838Y-86459582D01*
X134041199Y-86446660D01*
X134131777Y-86432314D01*
X134132614Y-86432117D01*
X134133020Y-86432117D01*
X134141297Y-86430806D01*
X134590703Y-86430806D01*
X134598980Y-86432117D01*
X134598980Y-86432117D01*
G37*
G36*
X128247899Y-86385959D02*
G01*
X128264769Y-86397231D01*
X128276041Y-86414101D01*
X128282448Y-86446312D01*
X128282448Y-87321688D01*
X128279999Y-87334000D01*
X128276041Y-87353899D01*
X128264769Y-87370769D01*
X128247899Y-87382041D01*
X128228000Y-87385999D01*
X128215688Y-87388448D01*
X127440312Y-87388448D01*
X127408101Y-87382041D01*
X127391231Y-87370769D01*
X127379959Y-87353899D01*
X127373552Y-87321688D01*
X127373552Y-86446312D01*
X127379959Y-86414101D01*
X127391231Y-86397231D01*
X127408101Y-86385959D01*
X127440312Y-86379552D01*
X128215688Y-86379552D01*
X128247899Y-86385959D01*
X128247899Y-86385959D01*
G37*
G36*
X130147899Y-86385959D02*
G01*
X130164769Y-86397231D01*
X130176041Y-86414101D01*
X130182448Y-86446312D01*
X130182448Y-87321688D01*
X130179999Y-87334000D01*
X130176041Y-87353899D01*
X130164769Y-87370769D01*
X130147899Y-87382041D01*
X130128000Y-87385999D01*
X130115688Y-87388448D01*
X129340312Y-87388448D01*
X129308101Y-87382041D01*
X129291231Y-87370769D01*
X129279959Y-87353899D01*
X129273552Y-87321688D01*
X129273552Y-86446312D01*
X129279959Y-86414101D01*
X129291231Y-86397231D01*
X129308101Y-86385959D01*
X129340312Y-86379552D01*
X130115688Y-86379552D01*
X130147899Y-86385959D01*
X130147899Y-86385959D01*
G37*
G36*
X131674899Y-86485959D02*
G01*
X131691769Y-86497231D01*
X131703041Y-86514101D01*
X131709448Y-86546312D01*
X131709448Y-87221688D01*
X131706999Y-87234000D01*
X131703041Y-87253899D01*
X131691769Y-87270769D01*
X131674899Y-87282041D01*
X131655000Y-87285999D01*
X131642688Y-87288448D01*
X131217312Y-87288448D01*
X131185101Y-87282041D01*
X131168231Y-87270769D01*
X131156959Y-87253899D01*
X131150552Y-87221688D01*
X131150552Y-86546312D01*
X131156959Y-86514101D01*
X131168231Y-86497231D01*
X131185101Y-86485959D01*
X131217312Y-86479552D01*
X131642688Y-86479552D01*
X131674899Y-86485959D01*
X131674899Y-86485959D01*
G37*
G36*
X132974899Y-86485959D02*
G01*
X132991769Y-86497231D01*
X133003041Y-86514101D01*
X133009448Y-86546312D01*
X133009448Y-87221688D01*
X133006999Y-87234000D01*
X133003041Y-87253899D01*
X132991769Y-87270769D01*
X132974899Y-87282041D01*
X132955000Y-87285999D01*
X132942688Y-87288448D01*
X132517312Y-87288448D01*
X132485101Y-87282041D01*
X132468231Y-87270769D01*
X132456959Y-87253899D01*
X132450552Y-87221688D01*
X132450552Y-86546312D01*
X132456959Y-86514101D01*
X132468231Y-86497231D01*
X132485101Y-86485959D01*
X132517312Y-86479552D01*
X132942688Y-86479552D01*
X132974899Y-86485959D01*
X132974899Y-86485959D01*
G37*
G36*
X129772980Y-84626117D02*
G01*
X129773386Y-84626117D01*
X129775637Y-84626538D01*
X129864801Y-84640660D01*
X129872691Y-84644680D01*
X129879409Y-84645936D01*
X129899176Y-84658175D01*
X129946229Y-84682150D01*
X129959776Y-84695697D01*
X129971114Y-84702717D01*
X129984432Y-84720353D01*
X130010850Y-84746771D01*
X130024267Y-84773103D01*
X130036114Y-84788791D01*
X130039418Y-84802838D01*
X130052340Y-84828199D01*
X130066686Y-84918777D01*
X130066883Y-84919614D01*
X130066883Y-84920020D01*
X130068194Y-84928297D01*
X130068194Y-85477703D01*
X130066883Y-85485980D01*
X130066883Y-85486386D01*
X130066462Y-85488637D01*
X130052340Y-85577801D01*
X130048320Y-85585691D01*
X130047064Y-85592409D01*
X130034825Y-85612176D01*
X130010850Y-85659229D01*
X129997303Y-85672776D01*
X129990283Y-85684114D01*
X129972647Y-85697432D01*
X129946229Y-85723850D01*
X129919897Y-85737267D01*
X129904209Y-85749114D01*
X129890162Y-85752418D01*
X129864801Y-85765340D01*
X129774223Y-85779686D01*
X129773386Y-85779883D01*
X129772980Y-85779883D01*
X129764703Y-85781194D01*
X129315297Y-85781194D01*
X129307020Y-85779883D01*
X129306614Y-85779883D01*
X129304363Y-85779462D01*
X129215199Y-85765340D01*
X129207309Y-85761320D01*
X129200591Y-85760064D01*
X129180824Y-85747825D01*
X129133771Y-85723850D01*
X129120224Y-85710303D01*
X129108886Y-85703283D01*
X129095568Y-85685647D01*
X129069150Y-85659229D01*
X129055733Y-85632897D01*
X129043886Y-85617209D01*
X129040582Y-85603162D01*
X129027660Y-85577801D01*
X129013314Y-85487223D01*
X129013117Y-85486386D01*
X129013117Y-85485980D01*
X129011806Y-85477703D01*
X129011806Y-84928297D01*
X129013117Y-84920020D01*
X129013117Y-84919614D01*
X129013538Y-84917363D01*
X129027660Y-84828199D01*
X129031680Y-84820309D01*
X129032936Y-84813591D01*
X129045175Y-84793824D01*
X129069150Y-84746771D01*
X129082697Y-84733224D01*
X129089717Y-84721886D01*
X129107353Y-84708568D01*
X129133771Y-84682150D01*
X129160103Y-84668733D01*
X129175791Y-84656886D01*
X129189838Y-84653582D01*
X129215199Y-84640660D01*
X129305777Y-84626314D01*
X129306614Y-84626117D01*
X129307020Y-84626117D01*
X129315297Y-84624806D01*
X129764703Y-84624806D01*
X129772980Y-84626117D01*
X129772980Y-84626117D01*
G37*
G36*
X132312980Y-84626117D02*
G01*
X132313386Y-84626117D01*
X132315637Y-84626538D01*
X132404801Y-84640660D01*
X132412691Y-84644680D01*
X132419409Y-84645936D01*
X132439176Y-84658175D01*
X132486229Y-84682150D01*
X132499776Y-84695697D01*
X132511114Y-84702717D01*
X132524432Y-84720353D01*
X132550850Y-84746771D01*
X132564267Y-84773103D01*
X132576114Y-84788791D01*
X132579418Y-84802838D01*
X132592340Y-84828199D01*
X132606686Y-84918777D01*
X132606883Y-84919614D01*
X132606883Y-84920020D01*
X132608194Y-84928297D01*
X132608194Y-85477703D01*
X132606883Y-85485980D01*
X132606883Y-85486386D01*
X132606462Y-85488637D01*
X132592340Y-85577801D01*
X132588320Y-85585691D01*
X132587064Y-85592409D01*
X132574825Y-85612176D01*
X132550850Y-85659229D01*
X132537303Y-85672776D01*
X132530283Y-85684114D01*
X132512647Y-85697432D01*
X132486229Y-85723850D01*
X132459897Y-85737267D01*
X132444209Y-85749114D01*
X132430162Y-85752418D01*
X132404801Y-85765340D01*
X132314223Y-85779686D01*
X132313386Y-85779883D01*
X132312980Y-85779883D01*
X132304703Y-85781194D01*
X131855297Y-85781194D01*
X131847020Y-85779883D01*
X131846614Y-85779883D01*
X131844363Y-85779462D01*
X131755199Y-85765340D01*
X131747309Y-85761320D01*
X131740591Y-85760064D01*
X131720824Y-85747825D01*
X131673771Y-85723850D01*
X131660224Y-85710303D01*
X131648886Y-85703283D01*
X131635568Y-85685647D01*
X131609150Y-85659229D01*
X131595733Y-85632897D01*
X131583886Y-85617209D01*
X131580582Y-85603162D01*
X131567660Y-85577801D01*
X131553314Y-85487223D01*
X131553117Y-85486386D01*
X131553117Y-85485980D01*
X131551806Y-85477703D01*
X131551806Y-84928297D01*
X131553117Y-84920020D01*
X131553117Y-84919614D01*
X131553538Y-84917363D01*
X131567660Y-84828199D01*
X131571680Y-84820309D01*
X131572936Y-84813591D01*
X131585175Y-84793824D01*
X131609150Y-84746771D01*
X131622697Y-84733224D01*
X131629717Y-84721886D01*
X131647353Y-84708568D01*
X131673771Y-84682150D01*
X131700103Y-84668733D01*
X131715791Y-84656886D01*
X131729838Y-84653582D01*
X131755199Y-84640660D01*
X131845777Y-84626314D01*
X131846614Y-84626117D01*
X131847020Y-84626117D01*
X131855297Y-84624806D01*
X132304703Y-84624806D01*
X132312980Y-84626117D01*
X132312980Y-84626117D01*
G37*
G36*
X137094360Y-83949835D02*
G01*
X137175397Y-83976166D01*
X137262663Y-84003848D01*
X137265655Y-84005493D01*
X137274488Y-84008363D01*
X137346466Y-84049919D01*
X137417499Y-84088970D01*
X137424986Y-84095253D01*
X137438511Y-84103061D01*
X137496259Y-84155057D01*
X137552857Y-84202549D01*
X137562962Y-84215118D01*
X137579261Y-84229793D01*
X137621454Y-84287867D01*
X137663579Y-84340260D01*
X137673994Y-84360182D01*
X137690586Y-84383019D01*
X137717297Y-84443012D01*
X137745439Y-84496843D01*
X137753582Y-84524510D01*
X137767621Y-84556042D01*
X137779992Y-84614241D01*
X137795328Y-84666349D01*
X137798518Y-84701401D01*
X137806999Y-84741301D01*
X137806999Y-84794592D01*
X137811343Y-84842324D01*
X137806999Y-84883653D01*
X137806999Y-84930699D01*
X137797217Y-84976721D01*
X137792873Y-85018047D01*
X137778702Y-85063827D01*
X137767621Y-85115958D01*
X137751028Y-85153226D01*
X137740622Y-85186843D01*
X137714789Y-85234620D01*
X137690586Y-85288981D01*
X137670298Y-85316905D01*
X137656580Y-85342276D01*
X137617859Y-85389082D01*
X137579261Y-85442207D01*
X137558284Y-85461095D01*
X137543952Y-85478419D01*
X137491845Y-85520917D01*
X137438511Y-85568939D01*
X137419524Y-85579901D01*
X137407025Y-85590095D01*
X137341780Y-85624786D01*
X137274488Y-85663637D01*
X137259636Y-85668463D01*
X137251003Y-85673053D01*
X137173430Y-85696473D01*
X137094360Y-85722165D01*
X137085114Y-85723137D01*
X137081851Y-85724122D01*
X136990710Y-85733059D01*
X136953211Y-85737000D01*
X136858789Y-85737000D01*
X136717640Y-85722165D01*
X136636603Y-85695834D01*
X136549337Y-85668152D01*
X136546345Y-85666507D01*
X136537512Y-85663637D01*
X136465534Y-85622081D01*
X136394501Y-85583030D01*
X136387014Y-85576747D01*
X136373489Y-85568939D01*
X136315741Y-85516943D01*
X136259143Y-85469451D01*
X136249038Y-85456882D01*
X136232739Y-85442207D01*
X136190546Y-85384133D01*
X136148421Y-85331740D01*
X136138006Y-85311818D01*
X136121414Y-85288981D01*
X136094703Y-85228988D01*
X136066561Y-85175157D01*
X136058418Y-85147490D01*
X136044379Y-85115958D01*
X136032008Y-85057759D01*
X136016672Y-85005651D01*
X136013482Y-84970599D01*
X136005001Y-84930699D01*
X136005001Y-84877408D01*
X136000657Y-84829676D01*
X136005001Y-84788347D01*
X136005001Y-84741301D01*
X136014783Y-84695279D01*
X136019127Y-84653953D01*
X136033298Y-84608173D01*
X136044379Y-84556042D01*
X136060972Y-84518774D01*
X136071378Y-84485157D01*
X136097211Y-84437380D01*
X136121414Y-84383019D01*
X136141702Y-84355095D01*
X136155420Y-84329724D01*
X136194141Y-84282918D01*
X136232739Y-84229793D01*
X136253716Y-84210905D01*
X136268048Y-84193581D01*
X136320155Y-84151083D01*
X136373489Y-84103061D01*
X136392476Y-84092099D01*
X136404975Y-84081905D01*
X136470220Y-84047214D01*
X136537512Y-84008363D01*
X136552364Y-84003537D01*
X136560997Y-83998947D01*
X136638570Y-83975527D01*
X136717640Y-83949835D01*
X136726886Y-83948863D01*
X136730149Y-83947878D01*
X136821290Y-83938941D01*
X136858789Y-83935000D01*
X136953211Y-83935000D01*
X137094360Y-83949835D01*
X137094360Y-83949835D01*
G37*
G36*
X124394360Y-83949835D02*
G01*
X124475397Y-83976166D01*
X124562663Y-84003848D01*
X124565655Y-84005493D01*
X124574488Y-84008363D01*
X124646466Y-84049919D01*
X124717499Y-84088970D01*
X124724986Y-84095253D01*
X124738511Y-84103061D01*
X124796259Y-84155057D01*
X124852857Y-84202549D01*
X124862962Y-84215118D01*
X124879261Y-84229793D01*
X124921454Y-84287867D01*
X124963579Y-84340260D01*
X124973994Y-84360182D01*
X124990586Y-84383019D01*
X125017297Y-84443012D01*
X125045439Y-84496843D01*
X125053582Y-84524510D01*
X125067621Y-84556042D01*
X125079992Y-84614241D01*
X125095328Y-84666349D01*
X125098518Y-84701401D01*
X125106999Y-84741301D01*
X125106999Y-84794592D01*
X125111343Y-84842324D01*
X125106999Y-84883653D01*
X125106999Y-84930699D01*
X125097217Y-84976721D01*
X125092873Y-85018047D01*
X125078702Y-85063827D01*
X125067621Y-85115958D01*
X125051028Y-85153226D01*
X125040622Y-85186843D01*
X125014789Y-85234620D01*
X124990586Y-85288981D01*
X124970298Y-85316905D01*
X124956580Y-85342276D01*
X124917859Y-85389082D01*
X124879261Y-85442207D01*
X124858284Y-85461095D01*
X124843952Y-85478419D01*
X124791845Y-85520917D01*
X124738511Y-85568939D01*
X124719524Y-85579901D01*
X124707025Y-85590095D01*
X124641780Y-85624786D01*
X124574488Y-85663637D01*
X124559636Y-85668463D01*
X124551003Y-85673053D01*
X124473430Y-85696473D01*
X124394360Y-85722165D01*
X124385114Y-85723137D01*
X124381851Y-85724122D01*
X124290710Y-85733059D01*
X124253211Y-85737000D01*
X124158789Y-85737000D01*
X124017640Y-85722165D01*
X123936603Y-85695834D01*
X123849337Y-85668152D01*
X123846345Y-85666507D01*
X123837512Y-85663637D01*
X123765534Y-85622081D01*
X123694501Y-85583030D01*
X123687014Y-85576747D01*
X123673489Y-85568939D01*
X123615741Y-85516943D01*
X123559143Y-85469451D01*
X123549038Y-85456882D01*
X123532739Y-85442207D01*
X123490546Y-85384133D01*
X123448421Y-85331740D01*
X123438006Y-85311818D01*
X123421414Y-85288981D01*
X123394703Y-85228988D01*
X123366561Y-85175157D01*
X123358418Y-85147490D01*
X123344379Y-85115958D01*
X123332008Y-85057759D01*
X123316672Y-85005651D01*
X123313482Y-84970599D01*
X123305001Y-84930699D01*
X123305001Y-84877408D01*
X123300657Y-84829676D01*
X123305001Y-84788347D01*
X123305001Y-84741301D01*
X123314783Y-84695279D01*
X123319127Y-84653953D01*
X123333298Y-84608173D01*
X123344379Y-84556042D01*
X123360972Y-84518774D01*
X123371378Y-84485157D01*
X123397211Y-84437380D01*
X123421414Y-84383019D01*
X123441702Y-84355095D01*
X123455420Y-84329724D01*
X123494141Y-84282918D01*
X123532739Y-84229793D01*
X123553716Y-84210905D01*
X123568048Y-84193581D01*
X123620155Y-84151083D01*
X123673489Y-84103061D01*
X123692476Y-84092099D01*
X123704975Y-84081905D01*
X123770220Y-84047214D01*
X123837512Y-84008363D01*
X123852364Y-84003537D01*
X123860997Y-83998947D01*
X123938570Y-83975527D01*
X124017640Y-83949835D01*
X124026886Y-83948863D01*
X124030149Y-83947878D01*
X124121290Y-83938941D01*
X124158789Y-83935000D01*
X124253211Y-83935000D01*
X124394360Y-83949835D01*
X124394360Y-83949835D01*
G37*
G36*
X128281899Y-80985959D02*
G01*
X128298769Y-80997231D01*
X128310041Y-81014101D01*
X128316448Y-81046312D01*
X128316448Y-82021688D01*
X128313999Y-82034000D01*
X128310041Y-82053899D01*
X128298769Y-82070769D01*
X128281899Y-82082041D01*
X128262000Y-82085999D01*
X128249688Y-82088448D01*
X128097424Y-82088448D01*
X128029844Y-82108291D01*
X127983721Y-82161521D01*
X127973697Y-82231236D01*
X128025549Y-82315715D01*
X128065831Y-82344026D01*
X128116522Y-82375456D01*
X128127431Y-82387320D01*
X128133402Y-82391516D01*
X128172442Y-82436269D01*
X128218707Y-82486581D01*
X128252500Y-82552903D01*
X128282240Y-82610524D01*
X128282580Y-82611939D01*
X128287243Y-82621091D01*
X128300178Y-82685240D01*
X128313374Y-82740204D01*
X128313320Y-82750417D01*
X128317083Y-82769077D01*
X128312926Y-82825682D01*
X128312675Y-82873566D01*
X128308060Y-82891940D01*
X128306026Y-82919636D01*
X128289744Y-82964861D01*
X128280187Y-83002911D01*
X128267247Y-83027350D01*
X128254889Y-83061676D01*
X128232072Y-83093782D01*
X128217779Y-83120777D01*
X128193608Y-83147906D01*
X128167438Y-83184731D01*
X128143601Y-83204034D01*
X128129063Y-83220351D01*
X128091965Y-83245847D01*
X128050116Y-83279736D01*
X128029974Y-83288452D01*
X128019152Y-83295890D01*
X127968952Y-83314859D01*
X127946807Y-83324443D01*
X127893824Y-83364461D01*
X127869493Y-83430558D01*
X127884760Y-83499316D01*
X127948805Y-83555401D01*
X127960791Y-83560074D01*
X127988219Y-83565904D01*
X128009352Y-83579007D01*
X128024292Y-83584832D01*
X128065828Y-83614024D01*
X128116522Y-83645456D01*
X128127431Y-83657320D01*
X128133402Y-83661516D01*
X128172442Y-83706269D01*
X128218707Y-83756581D01*
X128252500Y-83822903D01*
X128282240Y-83880524D01*
X128282580Y-83881939D01*
X128287243Y-83891091D01*
X128300178Y-83955240D01*
X128313374Y-84010204D01*
X128313320Y-84020417D01*
X128317083Y-84039077D01*
X128312926Y-84095682D01*
X128312675Y-84143566D01*
X128308060Y-84161940D01*
X128306026Y-84189636D01*
X128289744Y-84234861D01*
X128280187Y-84272911D01*
X128267247Y-84297350D01*
X128254889Y-84331676D01*
X128232072Y-84363782D01*
X128217779Y-84390777D01*
X128193608Y-84417906D01*
X128167438Y-84454731D01*
X128143601Y-84474034D01*
X128129063Y-84490351D01*
X128091967Y-84515846D01*
X128050116Y-84549736D01*
X128029971Y-84558453D01*
X128019151Y-84565890D01*
X127968956Y-84584858D01*
X127911568Y-84609692D01*
X127898497Y-84611482D01*
X127894402Y-84613030D01*
X127832634Y-84620504D01*
X127799815Y-84625000D01*
X127730568Y-84625000D01*
X127623657Y-84611494D01*
X127563208Y-84587926D01*
X127535781Y-84582096D01*
X127514648Y-84568993D01*
X127499708Y-84563168D01*
X127458172Y-84533976D01*
X127407478Y-84502544D01*
X127396569Y-84490680D01*
X127390598Y-84486484D01*
X127351558Y-84441731D01*
X127305293Y-84391419D01*
X127271500Y-84325097D01*
X127241760Y-84267476D01*
X127241420Y-84266061D01*
X127236757Y-84256909D01*
X127223822Y-84192760D01*
X127210626Y-84137796D01*
X127210680Y-84127583D01*
X127206917Y-84108923D01*
X127211074Y-84052318D01*
X127211325Y-84004434D01*
X127215940Y-83986060D01*
X127217974Y-83958364D01*
X127234256Y-83913139D01*
X127243813Y-83875089D01*
X127256753Y-83850650D01*
X127269111Y-83816324D01*
X127291928Y-83784218D01*
X127306221Y-83757223D01*
X127330392Y-83730094D01*
X127356562Y-83693269D01*
X127380399Y-83673966D01*
X127394937Y-83657649D01*
X127432035Y-83632153D01*
X127473884Y-83598264D01*
X127494026Y-83589548D01*
X127504848Y-83582110D01*
X127555048Y-83563141D01*
X127577193Y-83553557D01*
X127630176Y-83513539D01*
X127654507Y-83447442D01*
X127639240Y-83378684D01*
X127575195Y-83322599D01*
X127563209Y-83317926D01*
X127535781Y-83312096D01*
X127514648Y-83298993D01*
X127499708Y-83293168D01*
X127458172Y-83263976D01*
X127407478Y-83232544D01*
X127396569Y-83220680D01*
X127390598Y-83216484D01*
X127351558Y-83171731D01*
X127305293Y-83121419D01*
X127271500Y-83055097D01*
X127241760Y-82997476D01*
X127241420Y-82996061D01*
X127236757Y-82986909D01*
X127223822Y-82922760D01*
X127210626Y-82867796D01*
X127210680Y-82857583D01*
X127206917Y-82838923D01*
X127211074Y-82782318D01*
X127211325Y-82734434D01*
X127215940Y-82716060D01*
X127217974Y-82688364D01*
X127234256Y-82643139D01*
X127243813Y-82605089D01*
X127256753Y-82580650D01*
X127269111Y-82546324D01*
X127291928Y-82514218D01*
X127306221Y-82487223D01*
X127330392Y-82460094D01*
X127356562Y-82423269D01*
X127380399Y-82403966D01*
X127394937Y-82387649D01*
X127432034Y-82362153D01*
X127473884Y-82328264D01*
X127494027Y-82319547D01*
X127498516Y-82316462D01*
X127542971Y-82261832D01*
X127550833Y-82191839D01*
X127519607Y-82128707D01*
X127427716Y-82088448D01*
X127274312Y-82088448D01*
X127242101Y-82082041D01*
X127225231Y-82070769D01*
X127213959Y-82053899D01*
X127207552Y-82021688D01*
X127207552Y-81046312D01*
X127213959Y-81014101D01*
X127225231Y-80997231D01*
X127242101Y-80985959D01*
X127274312Y-80979552D01*
X128249688Y-80979552D01*
X128281899Y-80985959D01*
X128281899Y-80985959D01*
G37*
G36*
X129772980Y-82876117D02*
G01*
X129773386Y-82876117D01*
X129775637Y-82876538D01*
X129864801Y-82890660D01*
X129872691Y-82894680D01*
X129879409Y-82895936D01*
X129899176Y-82908175D01*
X129946229Y-82932150D01*
X129959776Y-82945697D01*
X129971114Y-82952717D01*
X129984432Y-82970353D01*
X130010850Y-82996771D01*
X130024267Y-83023103D01*
X130036114Y-83038791D01*
X130039418Y-83052838D01*
X130052340Y-83078199D01*
X130066686Y-83168777D01*
X130066883Y-83169614D01*
X130066883Y-83170020D01*
X130068194Y-83178297D01*
X130068194Y-83727703D01*
X130066883Y-83735980D01*
X130066883Y-83736386D01*
X130066462Y-83738637D01*
X130052340Y-83827801D01*
X130048320Y-83835691D01*
X130047064Y-83842409D01*
X130034825Y-83862176D01*
X130010850Y-83909229D01*
X129997303Y-83922776D01*
X129990283Y-83934114D01*
X129972647Y-83947432D01*
X129946229Y-83973850D01*
X129919897Y-83987267D01*
X129904209Y-83999114D01*
X129890162Y-84002418D01*
X129864801Y-84015340D01*
X129774223Y-84029686D01*
X129773386Y-84029883D01*
X129772980Y-84029883D01*
X129764703Y-84031194D01*
X129315297Y-84031194D01*
X129307020Y-84029883D01*
X129306614Y-84029883D01*
X129304363Y-84029462D01*
X129215199Y-84015340D01*
X129207309Y-84011320D01*
X129200591Y-84010064D01*
X129180824Y-83997825D01*
X129133771Y-83973850D01*
X129120224Y-83960303D01*
X129108886Y-83953283D01*
X129095568Y-83935647D01*
X129069150Y-83909229D01*
X129055733Y-83882897D01*
X129043886Y-83867209D01*
X129040582Y-83853162D01*
X129027660Y-83827801D01*
X129013314Y-83737223D01*
X129013117Y-83736386D01*
X129013117Y-83735980D01*
X129011806Y-83727703D01*
X129011806Y-83178297D01*
X129013117Y-83170020D01*
X129013117Y-83169614D01*
X129013538Y-83167363D01*
X129027660Y-83078199D01*
X129031680Y-83070309D01*
X129032936Y-83063591D01*
X129045175Y-83043824D01*
X129069150Y-82996771D01*
X129082697Y-82983224D01*
X129089717Y-82971886D01*
X129107353Y-82958568D01*
X129133771Y-82932150D01*
X129160103Y-82918733D01*
X129175791Y-82906886D01*
X129189838Y-82903582D01*
X129215199Y-82890660D01*
X129305777Y-82876314D01*
X129306614Y-82876117D01*
X129307020Y-82876117D01*
X129315297Y-82874806D01*
X129764703Y-82874806D01*
X129772980Y-82876117D01*
X129772980Y-82876117D01*
G37*
G36*
X132312980Y-82876117D02*
G01*
X132313386Y-82876117D01*
X132315637Y-82876538D01*
X132404801Y-82890660D01*
X132412691Y-82894680D01*
X132419409Y-82895936D01*
X132439176Y-82908175D01*
X132486229Y-82932150D01*
X132499776Y-82945697D01*
X132511114Y-82952717D01*
X132524432Y-82970353D01*
X132550850Y-82996771D01*
X132564267Y-83023103D01*
X132576114Y-83038791D01*
X132579418Y-83052838D01*
X132592340Y-83078199D01*
X132606686Y-83168777D01*
X132606883Y-83169614D01*
X132606883Y-83170020D01*
X132608194Y-83178297D01*
X132608194Y-83727703D01*
X132606883Y-83735980D01*
X132606883Y-83736386D01*
X132606462Y-83738637D01*
X132592340Y-83827801D01*
X132588320Y-83835691D01*
X132587064Y-83842409D01*
X132574825Y-83862176D01*
X132550850Y-83909229D01*
X132537303Y-83922776D01*
X132530283Y-83934114D01*
X132512647Y-83947432D01*
X132486229Y-83973850D01*
X132459897Y-83987267D01*
X132444209Y-83999114D01*
X132430162Y-84002418D01*
X132404801Y-84015340D01*
X132314223Y-84029686D01*
X132313386Y-84029883D01*
X132312980Y-84029883D01*
X132304703Y-84031194D01*
X131855297Y-84031194D01*
X131847020Y-84029883D01*
X131846614Y-84029883D01*
X131844363Y-84029462D01*
X131755199Y-84015340D01*
X131747309Y-84011320D01*
X131740591Y-84010064D01*
X131720824Y-83997825D01*
X131673771Y-83973850D01*
X131660224Y-83960303D01*
X131648886Y-83953283D01*
X131635568Y-83935647D01*
X131609150Y-83909229D01*
X131595733Y-83882897D01*
X131583886Y-83867209D01*
X131580582Y-83853162D01*
X131567660Y-83827801D01*
X131553314Y-83737223D01*
X131553117Y-83736386D01*
X131553117Y-83735980D01*
X131551806Y-83727703D01*
X131551806Y-83178297D01*
X131553117Y-83170020D01*
X131553117Y-83169614D01*
X131553538Y-83167363D01*
X131567660Y-83078199D01*
X131571680Y-83070309D01*
X131572936Y-83063591D01*
X131585175Y-83043824D01*
X131609150Y-82996771D01*
X131622697Y-82983224D01*
X131629717Y-82971886D01*
X131647353Y-82958568D01*
X131673771Y-82932150D01*
X131700103Y-82918733D01*
X131715791Y-82906886D01*
X131729838Y-82903582D01*
X131755199Y-82890660D01*
X131845777Y-82876314D01*
X131846614Y-82876117D01*
X131847020Y-82876117D01*
X131855297Y-82874806D01*
X132304703Y-82874806D01*
X132312980Y-82876117D01*
X132312980Y-82876117D01*
G37*
G36*
X137775899Y-81397959D02*
G01*
X137792769Y-81409231D01*
X137804041Y-81426101D01*
X137810448Y-81458312D01*
X137810448Y-83133688D01*
X137807999Y-83146000D01*
X137804041Y-83165899D01*
X137792769Y-83182769D01*
X137775899Y-83194041D01*
X137756000Y-83197999D01*
X137743688Y-83200448D01*
X136068312Y-83200448D01*
X136036101Y-83194041D01*
X136019231Y-83182769D01*
X136007959Y-83165899D01*
X136001552Y-83133688D01*
X136001552Y-81458312D01*
X136007959Y-81426101D01*
X136019231Y-81409231D01*
X136036101Y-81397959D01*
X136068312Y-81391552D01*
X137743688Y-81391552D01*
X137775899Y-81397959D01*
X137775899Y-81397959D01*
G37*
G36*
X125075899Y-81397959D02*
G01*
X125092769Y-81409231D01*
X125104041Y-81426101D01*
X125110448Y-81458312D01*
X125110448Y-83133688D01*
X125107999Y-83146000D01*
X125104041Y-83165899D01*
X125092769Y-83182769D01*
X125075899Y-83194041D01*
X125056000Y-83197999D01*
X125043688Y-83200448D01*
X123368312Y-83200448D01*
X123336101Y-83194041D01*
X123319231Y-83182769D01*
X123307959Y-83165899D01*
X123301552Y-83133688D01*
X123301552Y-81458312D01*
X123307959Y-81426101D01*
X123319231Y-81409231D01*
X123336101Y-81397959D01*
X123368312Y-81391552D01*
X125043688Y-81391552D01*
X125075899Y-81397959D01*
X125075899Y-81397959D01*
G37*
M02*
