G04 #@! TF.GenerationSoftware,KiCad,Pcbnew,(5.1.0-1390-gee00ff9b5)*
G04 #@! TF.CreationDate,2019-07-31T14:47:23-07:00*
G04 #@! TF.ProjectId,attiny1614,61747469-6e79-4313-9631-342e6b696361,rev?*
G04 #@! TF.SameCoordinates,Original*
G04 #@! TF.FileFunction,Copper,L1,Top*
G04 #@! TF.FilePolarity,Positive*
%FSLAX46Y46*%
G04 Gerber Fmt 4.6, Leading zero omitted, Abs format (unit mm)*
G04 Created by KiCad (PCBNEW (5.1.0-1390-gee00ff9b5)) date 2019-07-31 14:47:23*
%MOMM*%
%LPD*%
G04 APERTURE LIST*
%ADD10C,0.100000*%
%ADD11C,0.950000*%
%ADD12C,0.600000*%
%ADD13O,1.000000X1.000000*%
%ADD14R,1.000000X1.000000*%
%ADD15O,1.700000X1.700000*%
%ADD16R,1.700000X1.700000*%
%ADD17C,0.609600*%
%ADD18C,0.304800*%
%ADD19C,0.254000*%
G04 APERTURE END LIST*
D10*
G36*
X131809387Y-83998079D02*
G01*
X131886438Y-84049562D01*
X131937921Y-84126613D01*
X131956000Y-84217500D01*
X131956000Y-84692500D01*
X131937921Y-84783387D01*
X131886438Y-84860438D01*
X131809387Y-84911921D01*
X131718500Y-84930000D01*
X131143500Y-84930000D01*
X131052613Y-84911921D01*
X130975562Y-84860438D01*
X130924079Y-84783387D01*
X130906000Y-84692500D01*
X130906000Y-84217500D01*
X130924079Y-84126613D01*
X130975562Y-84049562D01*
X131052613Y-83998079D01*
X131143500Y-83980000D01*
X131718500Y-83980000D01*
X131809387Y-83998079D01*
X131809387Y-83998079D01*
G37*
D11*
X131431000Y-84455000D03*
D10*
G36*
X130059387Y-83998079D02*
G01*
X130136438Y-84049562D01*
X130187921Y-84126613D01*
X130206000Y-84217500D01*
X130206000Y-84692500D01*
X130187921Y-84783387D01*
X130136438Y-84860438D01*
X130059387Y-84911921D01*
X129968500Y-84930000D01*
X129393500Y-84930000D01*
X129302613Y-84911921D01*
X129225562Y-84860438D01*
X129174079Y-84783387D01*
X129156000Y-84692500D01*
X129156000Y-84217500D01*
X129174079Y-84126613D01*
X129225562Y-84049562D01*
X129302613Y-83998079D01*
X129393500Y-83980000D01*
X129968500Y-83980000D01*
X130059387Y-83998079D01*
X130059387Y-83998079D01*
G37*
D11*
X129681000Y-84455000D03*
D10*
G36*
X133918403Y-85817418D02*
G01*
X133967066Y-85849934D01*
X133999582Y-85898597D01*
X134011000Y-85956000D01*
X134011000Y-86256000D01*
X133999582Y-86313403D01*
X133967066Y-86362066D01*
X133918403Y-86394582D01*
X133861000Y-86406000D01*
X132211000Y-86406000D01*
X132153597Y-86394582D01*
X132104934Y-86362066D01*
X132072418Y-86313403D01*
X132061000Y-86256000D01*
X132061000Y-85956000D01*
X132072418Y-85898597D01*
X132104934Y-85849934D01*
X132153597Y-85817418D01*
X132211000Y-85806000D01*
X133861000Y-85806000D01*
X133918403Y-85817418D01*
X133918403Y-85817418D01*
G37*
D12*
X133036000Y-86106000D03*
D10*
G36*
X133918403Y-87087418D02*
G01*
X133967066Y-87119934D01*
X133999582Y-87168597D01*
X134011000Y-87226000D01*
X134011000Y-87526000D01*
X133999582Y-87583403D01*
X133967066Y-87632066D01*
X133918403Y-87664582D01*
X133861000Y-87676000D01*
X132211000Y-87676000D01*
X132153597Y-87664582D01*
X132104934Y-87632066D01*
X132072418Y-87583403D01*
X132061000Y-87526000D01*
X132061000Y-87226000D01*
X132072418Y-87168597D01*
X132104934Y-87119934D01*
X132153597Y-87087418D01*
X132211000Y-87076000D01*
X133861000Y-87076000D01*
X133918403Y-87087418D01*
X133918403Y-87087418D01*
G37*
D12*
X133036000Y-87376000D03*
D10*
G36*
X133918403Y-88357418D02*
G01*
X133967066Y-88389934D01*
X133999582Y-88438597D01*
X134011000Y-88496000D01*
X134011000Y-88796000D01*
X133999582Y-88853403D01*
X133967066Y-88902066D01*
X133918403Y-88934582D01*
X133861000Y-88946000D01*
X132211000Y-88946000D01*
X132153597Y-88934582D01*
X132104934Y-88902066D01*
X132072418Y-88853403D01*
X132061000Y-88796000D01*
X132061000Y-88496000D01*
X132072418Y-88438597D01*
X132104934Y-88389934D01*
X132153597Y-88357418D01*
X132211000Y-88346000D01*
X133861000Y-88346000D01*
X133918403Y-88357418D01*
X133918403Y-88357418D01*
G37*
D12*
X133036000Y-88646000D03*
D10*
G36*
X133918403Y-89627418D02*
G01*
X133967066Y-89659934D01*
X133999582Y-89708597D01*
X134011000Y-89766000D01*
X134011000Y-90066000D01*
X133999582Y-90123403D01*
X133967066Y-90172066D01*
X133918403Y-90204582D01*
X133861000Y-90216000D01*
X132211000Y-90216000D01*
X132153597Y-90204582D01*
X132104934Y-90172066D01*
X132072418Y-90123403D01*
X132061000Y-90066000D01*
X132061000Y-89766000D01*
X132072418Y-89708597D01*
X132104934Y-89659934D01*
X132153597Y-89627418D01*
X132211000Y-89616000D01*
X133861000Y-89616000D01*
X133918403Y-89627418D01*
X133918403Y-89627418D01*
G37*
D12*
X133036000Y-89916000D03*
D10*
G36*
X133918403Y-90897418D02*
G01*
X133967066Y-90929934D01*
X133999582Y-90978597D01*
X134011000Y-91036000D01*
X134011000Y-91336000D01*
X133999582Y-91393403D01*
X133967066Y-91442066D01*
X133918403Y-91474582D01*
X133861000Y-91486000D01*
X132211000Y-91486000D01*
X132153597Y-91474582D01*
X132104934Y-91442066D01*
X132072418Y-91393403D01*
X132061000Y-91336000D01*
X132061000Y-91036000D01*
X132072418Y-90978597D01*
X132104934Y-90929934D01*
X132153597Y-90897418D01*
X132211000Y-90886000D01*
X133861000Y-90886000D01*
X133918403Y-90897418D01*
X133918403Y-90897418D01*
G37*
D12*
X133036000Y-91186000D03*
D10*
G36*
X133918403Y-92167418D02*
G01*
X133967066Y-92199934D01*
X133999582Y-92248597D01*
X134011000Y-92306000D01*
X134011000Y-92606000D01*
X133999582Y-92663403D01*
X133967066Y-92712066D01*
X133918403Y-92744582D01*
X133861000Y-92756000D01*
X132211000Y-92756000D01*
X132153597Y-92744582D01*
X132104934Y-92712066D01*
X132072418Y-92663403D01*
X132061000Y-92606000D01*
X132061000Y-92306000D01*
X132072418Y-92248597D01*
X132104934Y-92199934D01*
X132153597Y-92167418D01*
X132211000Y-92156000D01*
X133861000Y-92156000D01*
X133918403Y-92167418D01*
X133918403Y-92167418D01*
G37*
D12*
X133036000Y-92456000D03*
D10*
G36*
X133918403Y-93437418D02*
G01*
X133967066Y-93469934D01*
X133999582Y-93518597D01*
X134011000Y-93576000D01*
X134011000Y-93876000D01*
X133999582Y-93933403D01*
X133967066Y-93982066D01*
X133918403Y-94014582D01*
X133861000Y-94026000D01*
X132211000Y-94026000D01*
X132153597Y-94014582D01*
X132104934Y-93982066D01*
X132072418Y-93933403D01*
X132061000Y-93876000D01*
X132061000Y-93576000D01*
X132072418Y-93518597D01*
X132104934Y-93469934D01*
X132153597Y-93437418D01*
X132211000Y-93426000D01*
X133861000Y-93426000D01*
X133918403Y-93437418D01*
X133918403Y-93437418D01*
G37*
D12*
X133036000Y-93726000D03*
D10*
G36*
X128968403Y-93437418D02*
G01*
X129017066Y-93469934D01*
X129049582Y-93518597D01*
X129061000Y-93576000D01*
X129061000Y-93876000D01*
X129049582Y-93933403D01*
X129017066Y-93982066D01*
X128968403Y-94014582D01*
X128911000Y-94026000D01*
X127261000Y-94026000D01*
X127203597Y-94014582D01*
X127154934Y-93982066D01*
X127122418Y-93933403D01*
X127111000Y-93876000D01*
X127111000Y-93576000D01*
X127122418Y-93518597D01*
X127154934Y-93469934D01*
X127203597Y-93437418D01*
X127261000Y-93426000D01*
X128911000Y-93426000D01*
X128968403Y-93437418D01*
X128968403Y-93437418D01*
G37*
D12*
X128086000Y-93726000D03*
D10*
G36*
X128968403Y-92167418D02*
G01*
X129017066Y-92199934D01*
X129049582Y-92248597D01*
X129061000Y-92306000D01*
X129061000Y-92606000D01*
X129049582Y-92663403D01*
X129017066Y-92712066D01*
X128968403Y-92744582D01*
X128911000Y-92756000D01*
X127261000Y-92756000D01*
X127203597Y-92744582D01*
X127154934Y-92712066D01*
X127122418Y-92663403D01*
X127111000Y-92606000D01*
X127111000Y-92306000D01*
X127122418Y-92248597D01*
X127154934Y-92199934D01*
X127203597Y-92167418D01*
X127261000Y-92156000D01*
X128911000Y-92156000D01*
X128968403Y-92167418D01*
X128968403Y-92167418D01*
G37*
D12*
X128086000Y-92456000D03*
D10*
G36*
X128968403Y-90897418D02*
G01*
X129017066Y-90929934D01*
X129049582Y-90978597D01*
X129061000Y-91036000D01*
X129061000Y-91336000D01*
X129049582Y-91393403D01*
X129017066Y-91442066D01*
X128968403Y-91474582D01*
X128911000Y-91486000D01*
X127261000Y-91486000D01*
X127203597Y-91474582D01*
X127154934Y-91442066D01*
X127122418Y-91393403D01*
X127111000Y-91336000D01*
X127111000Y-91036000D01*
X127122418Y-90978597D01*
X127154934Y-90929934D01*
X127203597Y-90897418D01*
X127261000Y-90886000D01*
X128911000Y-90886000D01*
X128968403Y-90897418D01*
X128968403Y-90897418D01*
G37*
D12*
X128086000Y-91186000D03*
D10*
G36*
X128968403Y-89627418D02*
G01*
X129017066Y-89659934D01*
X129049582Y-89708597D01*
X129061000Y-89766000D01*
X129061000Y-90066000D01*
X129049582Y-90123403D01*
X129017066Y-90172066D01*
X128968403Y-90204582D01*
X128911000Y-90216000D01*
X127261000Y-90216000D01*
X127203597Y-90204582D01*
X127154934Y-90172066D01*
X127122418Y-90123403D01*
X127111000Y-90066000D01*
X127111000Y-89766000D01*
X127122418Y-89708597D01*
X127154934Y-89659934D01*
X127203597Y-89627418D01*
X127261000Y-89616000D01*
X128911000Y-89616000D01*
X128968403Y-89627418D01*
X128968403Y-89627418D01*
G37*
D12*
X128086000Y-89916000D03*
D10*
G36*
X128968403Y-88357418D02*
G01*
X129017066Y-88389934D01*
X129049582Y-88438597D01*
X129061000Y-88496000D01*
X129061000Y-88796000D01*
X129049582Y-88853403D01*
X129017066Y-88902066D01*
X128968403Y-88934582D01*
X128911000Y-88946000D01*
X127261000Y-88946000D01*
X127203597Y-88934582D01*
X127154934Y-88902066D01*
X127122418Y-88853403D01*
X127111000Y-88796000D01*
X127111000Y-88496000D01*
X127122418Y-88438597D01*
X127154934Y-88389934D01*
X127203597Y-88357418D01*
X127261000Y-88346000D01*
X128911000Y-88346000D01*
X128968403Y-88357418D01*
X128968403Y-88357418D01*
G37*
D12*
X128086000Y-88646000D03*
D10*
G36*
X128968403Y-87087418D02*
G01*
X129017066Y-87119934D01*
X129049582Y-87168597D01*
X129061000Y-87226000D01*
X129061000Y-87526000D01*
X129049582Y-87583403D01*
X129017066Y-87632066D01*
X128968403Y-87664582D01*
X128911000Y-87676000D01*
X127261000Y-87676000D01*
X127203597Y-87664582D01*
X127154934Y-87632066D01*
X127122418Y-87583403D01*
X127111000Y-87526000D01*
X127111000Y-87226000D01*
X127122418Y-87168597D01*
X127154934Y-87119934D01*
X127203597Y-87087418D01*
X127261000Y-87076000D01*
X128911000Y-87076000D01*
X128968403Y-87087418D01*
X128968403Y-87087418D01*
G37*
D12*
X128086000Y-87376000D03*
D10*
G36*
X128968403Y-85817418D02*
G01*
X129017066Y-85849934D01*
X129049582Y-85898597D01*
X129061000Y-85956000D01*
X129061000Y-86256000D01*
X129049582Y-86313403D01*
X129017066Y-86362066D01*
X128968403Y-86394582D01*
X128911000Y-86406000D01*
X127261000Y-86406000D01*
X127203597Y-86394582D01*
X127154934Y-86362066D01*
X127122418Y-86313403D01*
X127111000Y-86256000D01*
X127111000Y-85956000D01*
X127122418Y-85898597D01*
X127154934Y-85849934D01*
X127203597Y-85817418D01*
X127261000Y-85806000D01*
X128911000Y-85806000D01*
X128968403Y-85817418D01*
X128968403Y-85817418D01*
G37*
D12*
X128086000Y-86106000D03*
D13*
X131826000Y-96266000D03*
X131826000Y-97536000D03*
X130556000Y-96266000D03*
X130556000Y-97536000D03*
X129286000Y-96266000D03*
D14*
X129286000Y-97536000D03*
D13*
X131176000Y-82042000D03*
D14*
X129906000Y-82042000D03*
D15*
X135636000Y-97536000D03*
X135636000Y-94996000D03*
X135636000Y-92456000D03*
X135636000Y-89916000D03*
X135636000Y-87376000D03*
X135636000Y-84836000D03*
D16*
X135636000Y-82296000D03*
D15*
X125476000Y-97536000D03*
X125476000Y-94996000D03*
X125476000Y-92456000D03*
X125476000Y-89916000D03*
X125476000Y-87376000D03*
X125476000Y-84836000D03*
D16*
X125476000Y-82296000D03*
D17*
X127508000Y-85598000D03*
X128524000Y-84582000D03*
D18*
X125476000Y-94996000D02*
X126325999Y-94146001D01*
X126325999Y-93626762D02*
X127126051Y-92826710D01*
X127715290Y-92826710D02*
X128086000Y-92456000D01*
X126325999Y-94146001D02*
X126325999Y-93626762D01*
X127126051Y-92826710D02*
X127715290Y-92826710D01*
X135636000Y-94996000D02*
X134786001Y-94146001D01*
X133406710Y-92826710D02*
X133036000Y-92456000D01*
X134786001Y-94146001D02*
X134786001Y-93621762D01*
X134786001Y-93621762D02*
X133990949Y-92826710D01*
X133990949Y-92826710D02*
X133406710Y-92826710D01*
X125476000Y-84836000D02*
X126325999Y-85685999D01*
X126325999Y-85685999D02*
X126325999Y-86205238D01*
X127715290Y-87005290D02*
X128086000Y-87376000D01*
X126325999Y-86205238D02*
X127126051Y-87005290D01*
X127126051Y-87005290D02*
X127715290Y-87005290D01*
X126630800Y-82296000D02*
X127508000Y-83173200D01*
X128086000Y-86106000D02*
X127578000Y-85598000D01*
X127578000Y-85598000D02*
X127508000Y-85598000D01*
X127508000Y-83173200D02*
X127508000Y-85166948D01*
X125476000Y-82296000D02*
X126630800Y-82296000D01*
X127508000Y-85166948D02*
X127508000Y-85598000D01*
X125476000Y-87376000D02*
X126746000Y-88646000D01*
X126746000Y-88646000D02*
X128086000Y-88646000D01*
X125476000Y-89916000D02*
X128086000Y-89916000D01*
X125476000Y-92456000D02*
X126746000Y-91186000D01*
X126746000Y-91186000D02*
X128086000Y-91186000D01*
X125476000Y-97536000D02*
X128086000Y-94926000D01*
X128086000Y-94926000D02*
X128086000Y-93726000D01*
X135636000Y-97536000D02*
X133036000Y-94936000D01*
X133036000Y-94936000D02*
X133036000Y-93726000D01*
X135636000Y-92456000D02*
X134366000Y-91186000D01*
X134366000Y-91186000D02*
X133036000Y-91186000D01*
X135636000Y-89916000D02*
X133036000Y-89916000D01*
X135636000Y-87376000D02*
X134366000Y-88646000D01*
X134366000Y-88646000D02*
X133036000Y-88646000D01*
X135636000Y-84836000D02*
X134481199Y-85990801D01*
X134481199Y-85990801D02*
X134481199Y-87005801D01*
X134481199Y-87005801D02*
X134111000Y-87376000D01*
X134111000Y-87376000D02*
X133036000Y-87376000D01*
X131431000Y-84582000D02*
X130936188Y-85076812D01*
X130936188Y-85076812D02*
X130936188Y-89410812D01*
X130936188Y-89410812D02*
X129161000Y-91186000D01*
X129161000Y-91186000D02*
X128086000Y-91186000D01*
X129681000Y-84582000D02*
X128524000Y-84582000D01*
D19*
G36*
X123824000Y-84891407D02*
G01*
X123824000Y-80796400D01*
X137288000Y-80796400D01*
X137288000Y-99035600D01*
X123824000Y-99035600D01*
X123824000Y-95051407D01*
X124343137Y-95051407D01*
X124377417Y-95278068D01*
X124456572Y-95493208D01*
X124577372Y-95688037D01*
X124734879Y-95854597D01*
X124922661Y-95986083D01*
X125136114Y-96078452D01*
X125432916Y-96124400D01*
X125533272Y-96124400D01*
X125704066Y-96107052D01*
X125922816Y-96038499D01*
X126123313Y-95927361D01*
X126297368Y-95778178D01*
X126437871Y-95597043D01*
X126539081Y-95391356D01*
X126596865Y-95169519D01*
X126608863Y-94940593D01*
X126574583Y-94713932D01*
X126518834Y-94562409D01*
X126578672Y-94502571D01*
X126601071Y-94491816D01*
X126647569Y-94433674D01*
X126664949Y-94416295D01*
X126677727Y-94395965D01*
X126723862Y-94338275D01*
X126729526Y-94313549D01*
X126743040Y-94292045D01*
X126751412Y-94217992D01*
X126756799Y-94194467D01*
X126756799Y-94170338D01*
X126765119Y-94096746D01*
X126756799Y-94072921D01*
X126756799Y-93805204D01*
X126829614Y-93732389D01*
X126829614Y-93885472D01*
X126860395Y-94040215D01*
X126955079Y-94181921D01*
X127096785Y-94276605D01*
X127251528Y-94307386D01*
X127655201Y-94307386D01*
X127655200Y-94747556D01*
X125908942Y-96493816D01*
X125815886Y-96453548D01*
X125519084Y-96407600D01*
X125418728Y-96407600D01*
X125247934Y-96424948D01*
X125029184Y-96493501D01*
X124828687Y-96604639D01*
X124654632Y-96753822D01*
X124514129Y-96934957D01*
X124412919Y-97140644D01*
X124355135Y-97362481D01*
X124343137Y-97591407D01*
X124377417Y-97818068D01*
X124456572Y-98033208D01*
X124577372Y-98228037D01*
X124734879Y-98394597D01*
X124922661Y-98526083D01*
X125136114Y-98618452D01*
X125432916Y-98664400D01*
X125533272Y-98664400D01*
X125704066Y-98647052D01*
X125922816Y-98578499D01*
X126123313Y-98467361D01*
X126297368Y-98318178D01*
X126437871Y-98137043D01*
X126539081Y-97931356D01*
X126596865Y-97709519D01*
X126608863Y-97480593D01*
X126574583Y-97253932D01*
X126518834Y-97102408D01*
X127404507Y-96216735D01*
X128502962Y-96216735D01*
X128515311Y-96413016D01*
X128576085Y-96600061D01*
X128681466Y-96766114D01*
X128687463Y-96771746D01*
X128677372Y-96773753D01*
X128585285Y-96835285D01*
X128523753Y-96927372D01*
X128504614Y-97023590D01*
X128504614Y-98048410D01*
X128523753Y-98144628D01*
X128585285Y-98236715D01*
X128677372Y-98298247D01*
X128773590Y-98317386D01*
X129798410Y-98317386D01*
X129894628Y-98298247D01*
X129986715Y-98236715D01*
X130048247Y-98144628D01*
X130051202Y-98129773D01*
X130094831Y-98170743D01*
X130270714Y-98267436D01*
X130516908Y-98314400D01*
X130604971Y-98314400D01*
X130751119Y-98295937D01*
X130933977Y-98223538D01*
X131093086Y-98107939D01*
X131191529Y-97988942D01*
X131221466Y-98036114D01*
X131364831Y-98170743D01*
X131540714Y-98267436D01*
X131786908Y-98314400D01*
X131874971Y-98314400D01*
X132021119Y-98295937D01*
X132203977Y-98223538D01*
X132363086Y-98107939D01*
X132488448Y-97956403D01*
X132572186Y-97778451D01*
X132609038Y-97585265D01*
X132596689Y-97388984D01*
X132535915Y-97201939D01*
X132430534Y-97035886D01*
X132287169Y-96901257D01*
X132111286Y-96804564D01*
X131865092Y-96757600D01*
X131777029Y-96757600D01*
X131630881Y-96776063D01*
X131448023Y-96848462D01*
X131288914Y-96964061D01*
X131190471Y-97083058D01*
X131160534Y-97035886D01*
X131017169Y-96901257D01*
X131010774Y-96897742D01*
X131093086Y-96837939D01*
X131218448Y-96686403D01*
X131302186Y-96508451D01*
X131339038Y-96315265D01*
X131326689Y-96118984D01*
X131265915Y-95931939D01*
X131160534Y-95765886D01*
X131017169Y-95631257D01*
X130841286Y-95534564D01*
X130595092Y-95487600D01*
X130507029Y-95487600D01*
X130360881Y-95506063D01*
X130178023Y-95578462D01*
X130018914Y-95694061D01*
X129920471Y-95813058D01*
X129890534Y-95765886D01*
X129747169Y-95631257D01*
X129571286Y-95534564D01*
X129325092Y-95487600D01*
X129237029Y-95487600D01*
X129090881Y-95506063D01*
X128908023Y-95578462D01*
X128748914Y-95694061D01*
X128623552Y-95845597D01*
X128539814Y-96023549D01*
X128502962Y-96216735D01*
X127404507Y-96216735D01*
X128338672Y-95282571D01*
X128361072Y-95271815D01*
X128407570Y-95213673D01*
X128424950Y-95196294D01*
X128437728Y-95175964D01*
X128483863Y-95118274D01*
X128489527Y-95093548D01*
X128503041Y-95072044D01*
X128511413Y-94997991D01*
X128516800Y-94974466D01*
X128516800Y-94950337D01*
X128525120Y-94876745D01*
X128516800Y-94852920D01*
X128516800Y-94307386D01*
X128920472Y-94307386D01*
X129075215Y-94276605D01*
X129216921Y-94181921D01*
X129311605Y-94040215D01*
X129342386Y-93885472D01*
X129342386Y-93566528D01*
X129311605Y-93411785D01*
X129216921Y-93270079D01*
X129075215Y-93175395D01*
X128920472Y-93144614D01*
X128007631Y-93144614D01*
X128060625Y-93102385D01*
X128071589Y-93079653D01*
X128113857Y-93037386D01*
X128920472Y-93037386D01*
X129075215Y-93006605D01*
X129216921Y-92911921D01*
X129311605Y-92770215D01*
X129342386Y-92615472D01*
X129342386Y-92296528D01*
X131779614Y-92296528D01*
X131779614Y-92615472D01*
X131810395Y-92770215D01*
X131905079Y-92911921D01*
X132046785Y-93006605D01*
X132201528Y-93037386D01*
X133008143Y-93037386D01*
X133050138Y-93079382D01*
X133060895Y-93101784D01*
X133114451Y-93144614D01*
X132201528Y-93144614D01*
X132046785Y-93175395D01*
X131905079Y-93270079D01*
X131810395Y-93411785D01*
X131779614Y-93566528D01*
X131779614Y-93885472D01*
X131810395Y-94040215D01*
X131905079Y-94181921D01*
X132046785Y-94276605D01*
X132201528Y-94307386D01*
X132605201Y-94307386D01*
X132605200Y-94862532D01*
X132596966Y-94885979D01*
X132605200Y-94959970D01*
X132605200Y-94984547D01*
X132610540Y-95007960D01*
X132618710Y-95081376D01*
X132632188Y-95102861D01*
X132637836Y-95127621D01*
X132684290Y-95185917D01*
X132697107Y-95206349D01*
X132714157Y-95223399D01*
X132760323Y-95281334D01*
X132783060Y-95292301D01*
X134592206Y-97101448D01*
X134572919Y-97140644D01*
X134515135Y-97362481D01*
X134503137Y-97591407D01*
X134537417Y-97818068D01*
X134616572Y-98033208D01*
X134737372Y-98228037D01*
X134894879Y-98394597D01*
X135082661Y-98526083D01*
X135296114Y-98618452D01*
X135592916Y-98664400D01*
X135693272Y-98664400D01*
X135864066Y-98647052D01*
X136082816Y-98578499D01*
X136283313Y-98467361D01*
X136457368Y-98318178D01*
X136597871Y-98137043D01*
X136699081Y-97931356D01*
X136756865Y-97709519D01*
X136768863Y-97480593D01*
X136734583Y-97253932D01*
X136655428Y-97038792D01*
X136534628Y-96843963D01*
X136377121Y-96677403D01*
X136189339Y-96545917D01*
X135975886Y-96453548D01*
X135679084Y-96407600D01*
X135578728Y-96407600D01*
X135407934Y-96424948D01*
X135199508Y-96490266D01*
X133466800Y-94757559D01*
X133466800Y-94307386D01*
X133870472Y-94307386D01*
X134025215Y-94276605D01*
X134166921Y-94181921D01*
X134261605Y-94040215D01*
X134292386Y-93885472D01*
X134292386Y-93737390D01*
X134355202Y-93800206D01*
X134355201Y-94072532D01*
X134346967Y-94095980D01*
X134355201Y-94169971D01*
X134355201Y-94194548D01*
X134360541Y-94217961D01*
X134368711Y-94291377D01*
X134382189Y-94312862D01*
X134387837Y-94337622D01*
X134434291Y-94395918D01*
X134447108Y-94416350D01*
X134464159Y-94433400D01*
X134510323Y-94491333D01*
X134533056Y-94502299D01*
X134592206Y-94561448D01*
X134572919Y-94600644D01*
X134515135Y-94822481D01*
X134503137Y-95051407D01*
X134537417Y-95278068D01*
X134616572Y-95493208D01*
X134737372Y-95688037D01*
X134894879Y-95854597D01*
X135082661Y-95986083D01*
X135296114Y-96078452D01*
X135592916Y-96124400D01*
X135693272Y-96124400D01*
X135864066Y-96107052D01*
X136082816Y-96038499D01*
X136283313Y-95927361D01*
X136457368Y-95778178D01*
X136597871Y-95597043D01*
X136699081Y-95391356D01*
X136756865Y-95169519D01*
X136768863Y-94940593D01*
X136734583Y-94713932D01*
X136655428Y-94498792D01*
X136534628Y-94303963D01*
X136377121Y-94137403D01*
X136189339Y-94005917D01*
X135975886Y-93913548D01*
X135679084Y-93867600D01*
X135578728Y-93867600D01*
X135407934Y-93884948D01*
X135216801Y-93944846D01*
X135216801Y-93695230D01*
X135225035Y-93671784D01*
X135216801Y-93597795D01*
X135216801Y-93573214D01*
X135211460Y-93549797D01*
X135205849Y-93499391D01*
X135296114Y-93538452D01*
X135592916Y-93584400D01*
X135693272Y-93584400D01*
X135864066Y-93567052D01*
X136082816Y-93498499D01*
X136283313Y-93387361D01*
X136457368Y-93238178D01*
X136597871Y-93057043D01*
X136699081Y-92851356D01*
X136756865Y-92629519D01*
X136768863Y-92400593D01*
X136734583Y-92173932D01*
X136655428Y-91958792D01*
X136534628Y-91763963D01*
X136377121Y-91597403D01*
X136189339Y-91465917D01*
X135975886Y-91373548D01*
X135679084Y-91327600D01*
X135578728Y-91327600D01*
X135407934Y-91344948D01*
X135199508Y-91410265D01*
X134722573Y-90933331D01*
X134711814Y-90910926D01*
X134653660Y-90864418D01*
X134636292Y-90847050D01*
X134615973Y-90834279D01*
X134558273Y-90788136D01*
X134533546Y-90782473D01*
X134512045Y-90768959D01*
X134437982Y-90760586D01*
X134414469Y-90755200D01*
X134390337Y-90755200D01*
X134316745Y-90746880D01*
X134292920Y-90755200D01*
X134183706Y-90755200D01*
X134166921Y-90730079D01*
X134025215Y-90635395D01*
X133870472Y-90604614D01*
X132201528Y-90604614D01*
X132046785Y-90635395D01*
X131905079Y-90730079D01*
X131810395Y-90871785D01*
X131779614Y-91026528D01*
X131779614Y-91345472D01*
X131810395Y-91500215D01*
X131905079Y-91641921D01*
X132046785Y-91736605D01*
X132201528Y-91767386D01*
X133870472Y-91767386D01*
X134025215Y-91736605D01*
X134166921Y-91641921D01*
X134183706Y-91616800D01*
X134187558Y-91616800D01*
X134592205Y-92021448D01*
X134572919Y-92060644D01*
X134515135Y-92282481D01*
X134503137Y-92511407D01*
X134537417Y-92738068D01*
X134552474Y-92778991D01*
X134347522Y-92574040D01*
X134336762Y-92551635D01*
X134292386Y-92516146D01*
X134292386Y-92296528D01*
X134261605Y-92141785D01*
X134166921Y-92000079D01*
X134025215Y-91905395D01*
X133870472Y-91874614D01*
X132201528Y-91874614D01*
X132046785Y-91905395D01*
X131905079Y-92000079D01*
X131810395Y-92141785D01*
X131779614Y-92296528D01*
X129342386Y-92296528D01*
X129311605Y-92141785D01*
X129216921Y-92000079D01*
X129075215Y-91905395D01*
X128920472Y-91874614D01*
X127251528Y-91874614D01*
X127096785Y-91905395D01*
X126955079Y-92000079D01*
X126860395Y-92141785D01*
X126829614Y-92296528D01*
X126829614Y-92512070D01*
X126780717Y-92551034D01*
X126769753Y-92573764D01*
X126555607Y-92787910D01*
X126596865Y-92629519D01*
X126608863Y-92400593D01*
X126574583Y-92173932D01*
X126518834Y-92022409D01*
X126924444Y-91616800D01*
X126938294Y-91616800D01*
X126955079Y-91641921D01*
X127096785Y-91736605D01*
X127251528Y-91767386D01*
X128920472Y-91767386D01*
X129075215Y-91736605D01*
X129216921Y-91641921D01*
X129237621Y-91610941D01*
X129306376Y-91603289D01*
X129327860Y-91589812D01*
X129352622Y-91584164D01*
X129410918Y-91537710D01*
X129431349Y-91524893D01*
X129448398Y-91507843D01*
X129506334Y-91461676D01*
X129517301Y-91438940D01*
X129929713Y-91026528D01*
X131188857Y-89767385D01*
X131211262Y-89756626D01*
X131211340Y-89756528D01*
X131779614Y-89756528D01*
X131779614Y-90075472D01*
X131810395Y-90230215D01*
X131905079Y-90371921D01*
X132046785Y-90466605D01*
X132201528Y-90497386D01*
X133870472Y-90497386D01*
X134025215Y-90466605D01*
X134166921Y-90371921D01*
X134183706Y-90346800D01*
X134592139Y-90346800D01*
X134616572Y-90413208D01*
X134737372Y-90608037D01*
X134894879Y-90774597D01*
X135082661Y-90906083D01*
X135296114Y-90998452D01*
X135592916Y-91044400D01*
X135693272Y-91044400D01*
X135864066Y-91027052D01*
X136082816Y-90958499D01*
X136283313Y-90847361D01*
X136457368Y-90698178D01*
X136597871Y-90517043D01*
X136699081Y-90311356D01*
X136756865Y-90089519D01*
X136768863Y-89860593D01*
X136734583Y-89633932D01*
X136655428Y-89418792D01*
X136534628Y-89223963D01*
X136377121Y-89057403D01*
X136189339Y-88925917D01*
X135975886Y-88833548D01*
X135679084Y-88787600D01*
X135578728Y-88787600D01*
X135407934Y-88804948D01*
X135189184Y-88873501D01*
X134988687Y-88984639D01*
X134814632Y-89133822D01*
X134674129Y-89314957D01*
X134590360Y-89485200D01*
X134183706Y-89485200D01*
X134166921Y-89460079D01*
X134025215Y-89365395D01*
X133870472Y-89334614D01*
X132201528Y-89334614D01*
X132046785Y-89365395D01*
X131905079Y-89460079D01*
X131810395Y-89601785D01*
X131779614Y-89756528D01*
X131211340Y-89756528D01*
X131257766Y-89698477D01*
X131275139Y-89681104D01*
X131287913Y-89660779D01*
X131334052Y-89603086D01*
X131339715Y-89578359D01*
X131353228Y-89556858D01*
X131361601Y-89482803D01*
X131366988Y-89459278D01*
X131366988Y-89435149D01*
X131375308Y-89361557D01*
X131366988Y-89337732D01*
X131366988Y-88486528D01*
X131779614Y-88486528D01*
X131779614Y-88805472D01*
X131810395Y-88960215D01*
X131905079Y-89101921D01*
X132046785Y-89196605D01*
X132201528Y-89227386D01*
X133870472Y-89227386D01*
X134025215Y-89196605D01*
X134166921Y-89101921D01*
X134183706Y-89076800D01*
X134292532Y-89076800D01*
X134315978Y-89085034D01*
X134389970Y-89076800D01*
X134414547Y-89076800D01*
X134437961Y-89071460D01*
X134511376Y-89063289D01*
X134532860Y-89049812D01*
X134557622Y-89044164D01*
X134615918Y-88997710D01*
X134636349Y-88984893D01*
X134653398Y-88967843D01*
X134711332Y-88921677D01*
X134722299Y-88898943D01*
X135203059Y-88418183D01*
X135296114Y-88458452D01*
X135592916Y-88504400D01*
X135693272Y-88504400D01*
X135864066Y-88487052D01*
X136082816Y-88418499D01*
X136283313Y-88307361D01*
X136457368Y-88158178D01*
X136597871Y-87977043D01*
X136699081Y-87771356D01*
X136756865Y-87549519D01*
X136768863Y-87320593D01*
X136734583Y-87093932D01*
X136655428Y-86878792D01*
X136534628Y-86683963D01*
X136377121Y-86517403D01*
X136189339Y-86385917D01*
X135975886Y-86293548D01*
X135679084Y-86247600D01*
X135578728Y-86247600D01*
X135407934Y-86264948D01*
X135189184Y-86333501D01*
X134988687Y-86444639D01*
X134911999Y-86510368D01*
X134911999Y-86169243D01*
X135203059Y-85878184D01*
X135296114Y-85918452D01*
X135592916Y-85964400D01*
X135693272Y-85964400D01*
X135864066Y-85947052D01*
X136082816Y-85878499D01*
X136283313Y-85767361D01*
X136457368Y-85618178D01*
X136597871Y-85437043D01*
X136699081Y-85231356D01*
X136756865Y-85009519D01*
X136768863Y-84780593D01*
X136734583Y-84553932D01*
X136655428Y-84338792D01*
X136534628Y-84143963D01*
X136377121Y-83977403D01*
X136189339Y-83845917D01*
X135975886Y-83753548D01*
X135679084Y-83707600D01*
X135578728Y-83707600D01*
X135407934Y-83724948D01*
X135189184Y-83793501D01*
X134988687Y-83904639D01*
X134814632Y-84053822D01*
X134674129Y-84234957D01*
X134572919Y-84440644D01*
X134515135Y-84662481D01*
X134503137Y-84891407D01*
X134537417Y-85118068D01*
X134593166Y-85269591D01*
X134228530Y-85634228D01*
X134206125Y-85644987D01*
X134159622Y-85703137D01*
X134142249Y-85720509D01*
X134129475Y-85740833D01*
X134083335Y-85798529D01*
X134077672Y-85823255D01*
X134064159Y-85844756D01*
X134055786Y-85918811D01*
X134050399Y-85942336D01*
X134050399Y-85966464D01*
X134042079Y-86040056D01*
X134050399Y-86063881D01*
X134050400Y-86827358D01*
X134041489Y-86836269D01*
X134025214Y-86825395D01*
X133870472Y-86794614D01*
X132201528Y-86794614D01*
X132046785Y-86825395D01*
X131905079Y-86920079D01*
X131810395Y-87061785D01*
X131779614Y-87216528D01*
X131779614Y-87535472D01*
X131810395Y-87690215D01*
X131905079Y-87831921D01*
X132046785Y-87926605D01*
X132201528Y-87957386D01*
X133870472Y-87957386D01*
X134025215Y-87926605D01*
X134166921Y-87831921D01*
X134187621Y-87800941D01*
X134256376Y-87793289D01*
X134277860Y-87779812D01*
X134302622Y-87774164D01*
X134360918Y-87727710D01*
X134381349Y-87714893D01*
X134398398Y-87697843D01*
X134456335Y-87651675D01*
X134467299Y-87628943D01*
X134524379Y-87571863D01*
X134537417Y-87658068D01*
X134593166Y-87809591D01*
X134187558Y-88215200D01*
X134183706Y-88215200D01*
X134166921Y-88190079D01*
X134025215Y-88095395D01*
X133870472Y-88064614D01*
X132201528Y-88064614D01*
X132046785Y-88095395D01*
X131905079Y-88190079D01*
X131810395Y-88331785D01*
X131779614Y-88486528D01*
X131366988Y-88486528D01*
X131366988Y-87216528D01*
X131366988Y-85255253D01*
X131410855Y-85211386D01*
X131726257Y-85211386D01*
X131915142Y-85173814D01*
X132085791Y-85059791D01*
X132199814Y-84889142D01*
X132237386Y-84700257D01*
X132237386Y-84209743D01*
X132199814Y-84020858D01*
X132085791Y-83850209D01*
X131915142Y-83736186D01*
X131726257Y-83698614D01*
X131135743Y-83698614D01*
X130946858Y-83736186D01*
X130776209Y-83850209D01*
X130662186Y-84020858D01*
X130624614Y-84209743D01*
X130624614Y-84700257D01*
X130636781Y-84761425D01*
X130614611Y-84789148D01*
X130597238Y-84806520D01*
X130584464Y-84826844D01*
X130538324Y-84884540D01*
X130532661Y-84909266D01*
X130519148Y-84930767D01*
X130510775Y-85004822D01*
X130505388Y-85028347D01*
X130505388Y-85052475D01*
X130497068Y-85126067D01*
X130505388Y-85149892D01*
X130505389Y-89232369D01*
X129091490Y-90646269D01*
X129075215Y-90635395D01*
X128920472Y-90604614D01*
X127251528Y-90604614D01*
X127096785Y-90635395D01*
X126955079Y-90730079D01*
X126938294Y-90755200D01*
X126819468Y-90755200D01*
X126796022Y-90746966D01*
X126722030Y-90755200D01*
X126697452Y-90755200D01*
X126674039Y-90760540D01*
X126600623Y-90768710D01*
X126579137Y-90782189D01*
X126554377Y-90787837D01*
X126496083Y-90834290D01*
X126475650Y-90847107D01*
X126458597Y-90864161D01*
X126400666Y-90910324D01*
X126389701Y-90933056D01*
X125908941Y-91413816D01*
X125815886Y-91373548D01*
X125519084Y-91327600D01*
X125418728Y-91327600D01*
X125247934Y-91344948D01*
X125029184Y-91413501D01*
X124828687Y-91524639D01*
X124654632Y-91673822D01*
X124514129Y-91854957D01*
X124412919Y-92060644D01*
X124355135Y-92282481D01*
X124343137Y-92511407D01*
X124377417Y-92738068D01*
X124456572Y-92953208D01*
X124577372Y-93148037D01*
X124734879Y-93314597D01*
X124922661Y-93446083D01*
X125136114Y-93538452D01*
X125432916Y-93584400D01*
X125533272Y-93584400D01*
X125704066Y-93567052D01*
X125906365Y-93503655D01*
X125900584Y-93554788D01*
X125895200Y-93578293D01*
X125895200Y-93602416D01*
X125886879Y-93676017D01*
X125895200Y-93699845D01*
X125895199Y-93947870D01*
X125815886Y-93913548D01*
X125519084Y-93867600D01*
X125418728Y-93867600D01*
X125247934Y-93884948D01*
X125029184Y-93953501D01*
X124828687Y-94064639D01*
X124654632Y-94213822D01*
X124514129Y-94394957D01*
X124412919Y-94600644D01*
X124355135Y-94822481D01*
X124343137Y-95051407D01*
X123824000Y-95051407D01*
X123824000Y-92511407D01*
X123824000Y-89971407D01*
X124343137Y-89971407D01*
X124377417Y-90198068D01*
X124456572Y-90413208D01*
X124577372Y-90608037D01*
X124734879Y-90774597D01*
X124922661Y-90906083D01*
X125136114Y-90998452D01*
X125432916Y-91044400D01*
X125533272Y-91044400D01*
X125704066Y-91027052D01*
X125922816Y-90958499D01*
X126123313Y-90847361D01*
X126297368Y-90698178D01*
X126437871Y-90517043D01*
X126521640Y-90346800D01*
X126938294Y-90346800D01*
X126955079Y-90371921D01*
X127096785Y-90466605D01*
X127251528Y-90497386D01*
X128920472Y-90497386D01*
X129075215Y-90466605D01*
X129216921Y-90371921D01*
X129311605Y-90230215D01*
X129342386Y-90075472D01*
X129342386Y-89756528D01*
X129311605Y-89601785D01*
X129216921Y-89460079D01*
X129075215Y-89365395D01*
X128920472Y-89334614D01*
X127251528Y-89334614D01*
X127096785Y-89365395D01*
X126955079Y-89460079D01*
X126938294Y-89485200D01*
X126519861Y-89485200D01*
X126495428Y-89418792D01*
X126374628Y-89223963D01*
X126217121Y-89057403D01*
X126029339Y-88925917D01*
X125815886Y-88833548D01*
X125519084Y-88787600D01*
X125418728Y-88787600D01*
X125247934Y-88804948D01*
X125029184Y-88873501D01*
X124828687Y-88984639D01*
X124654632Y-89133822D01*
X124514129Y-89314957D01*
X124412919Y-89520644D01*
X124355135Y-89742481D01*
X124343137Y-89971407D01*
X123824000Y-89971407D01*
X123824000Y-87431407D01*
X124343137Y-87431407D01*
X124377417Y-87658068D01*
X124456572Y-87873208D01*
X124577372Y-88068037D01*
X124734879Y-88234597D01*
X124922661Y-88366083D01*
X125136114Y-88458452D01*
X125432916Y-88504400D01*
X125533272Y-88504400D01*
X125704066Y-88487052D01*
X125912491Y-88421735D01*
X126389429Y-88898673D01*
X126400186Y-88921074D01*
X126458330Y-88967574D01*
X126475708Y-88984952D01*
X126496043Y-88997732D01*
X126553725Y-89043863D01*
X126578452Y-89049527D01*
X126599956Y-89063041D01*
X126674009Y-89071413D01*
X126697534Y-89076800D01*
X126721663Y-89076800D01*
X126795255Y-89085120D01*
X126819080Y-89076800D01*
X126938294Y-89076800D01*
X126955079Y-89101921D01*
X127096785Y-89196605D01*
X127251528Y-89227386D01*
X128920472Y-89227386D01*
X129075215Y-89196605D01*
X129216921Y-89101921D01*
X129311605Y-88960215D01*
X129342386Y-88805472D01*
X129342386Y-88486528D01*
X129311605Y-88331785D01*
X129216921Y-88190079D01*
X129075215Y-88095395D01*
X128920472Y-88064614D01*
X127251528Y-88064614D01*
X127096785Y-88095395D01*
X126955079Y-88190079D01*
X126938294Y-88215200D01*
X126924443Y-88215200D01*
X126519794Y-87810552D01*
X126539081Y-87771356D01*
X126596865Y-87549519D01*
X126608863Y-87320593D01*
X126574583Y-87093932D01*
X126556616Y-87045099D01*
X126769479Y-87257962D01*
X126780236Y-87280364D01*
X126829614Y-87319852D01*
X126829614Y-87535472D01*
X126860395Y-87690215D01*
X126955079Y-87831921D01*
X127096785Y-87926605D01*
X127251528Y-87957386D01*
X128920472Y-87957386D01*
X129075215Y-87926605D01*
X129216921Y-87831921D01*
X129311605Y-87690215D01*
X129342386Y-87535472D01*
X129342386Y-87216528D01*
X129311605Y-87061785D01*
X129216921Y-86920079D01*
X129075215Y-86825395D01*
X128920472Y-86794614D01*
X128113856Y-86794614D01*
X128071863Y-86752620D01*
X128061103Y-86730215D01*
X128007548Y-86687386D01*
X128920472Y-86687386D01*
X129075215Y-86656605D01*
X129216921Y-86561921D01*
X129311605Y-86420215D01*
X129342386Y-86265472D01*
X129342386Y-85946528D01*
X129311605Y-85791785D01*
X129216921Y-85650079D01*
X129075215Y-85555395D01*
X128920472Y-85524614D01*
X128113857Y-85524614D01*
X128091475Y-85502233D01*
X128091618Y-85490574D01*
X128013317Y-85287127D01*
X127938800Y-85204801D01*
X127938800Y-84621064D01*
X127967924Y-84788802D01*
X128079655Y-84975123D01*
X128250970Y-85108728D01*
X128458896Y-85171703D01*
X128675553Y-85155603D01*
X128871886Y-85062586D01*
X128919214Y-85012800D01*
X128994811Y-85012800D01*
X129026209Y-85059791D01*
X129196858Y-85173814D01*
X129385743Y-85211386D01*
X129976257Y-85211386D01*
X130165142Y-85173814D01*
X130335791Y-85059791D01*
X130449814Y-84889142D01*
X130487386Y-84700257D01*
X130487386Y-84209743D01*
X130449814Y-84020858D01*
X130335791Y-83850209D01*
X130165142Y-83736186D01*
X129976257Y-83698614D01*
X129385743Y-83698614D01*
X129196858Y-83736186D01*
X129026209Y-83850209D01*
X128912186Y-84020858D01*
X128892476Y-84119947D01*
X128883524Y-84110057D01*
X128689521Y-84012271D01*
X128473323Y-83990883D01*
X128263920Y-84048759D01*
X128089392Y-84178138D01*
X127973143Y-84361673D01*
X127938800Y-84534327D01*
X127938800Y-83246668D01*
X127947034Y-83223222D01*
X127938800Y-83149230D01*
X127938800Y-83124652D01*
X127933460Y-83101239D01*
X127925290Y-83027823D01*
X127911812Y-83006338D01*
X127906164Y-82981578D01*
X127859710Y-82923282D01*
X127846892Y-82902849D01*
X127829839Y-82885797D01*
X127783675Y-82827866D01*
X127760945Y-82816902D01*
X126987373Y-82043331D01*
X126976614Y-82020926D01*
X126918460Y-81974418D01*
X126901092Y-81957050D01*
X126880773Y-81944279D01*
X126823073Y-81898136D01*
X126798346Y-81892473D01*
X126776845Y-81878959D01*
X126702782Y-81870586D01*
X126679269Y-81865200D01*
X126655137Y-81865200D01*
X126607386Y-81859801D01*
X126607386Y-81529590D01*
X129124614Y-81529590D01*
X129124614Y-82554410D01*
X129143753Y-82650628D01*
X129205285Y-82742715D01*
X129297372Y-82804247D01*
X129393590Y-82823386D01*
X130418410Y-82823386D01*
X130514628Y-82804247D01*
X130606715Y-82742715D01*
X130668247Y-82650628D01*
X130687386Y-82554410D01*
X130687386Y-81529590D01*
X130668247Y-81433372D01*
X130606715Y-81341285D01*
X130514628Y-81279753D01*
X130418410Y-81260614D01*
X129393590Y-81260614D01*
X129297372Y-81279753D01*
X129205285Y-81341285D01*
X129143753Y-81433372D01*
X129124614Y-81529590D01*
X126607386Y-81529590D01*
X126607386Y-81433590D01*
X126588247Y-81337372D01*
X126526715Y-81245285D01*
X126434628Y-81183753D01*
X126338410Y-81164614D01*
X124613590Y-81164614D01*
X124517372Y-81183753D01*
X124425285Y-81245285D01*
X124363753Y-81337372D01*
X124344614Y-81433590D01*
X124344614Y-83158410D01*
X124363753Y-83254628D01*
X124425285Y-83346715D01*
X124517372Y-83408247D01*
X124613590Y-83427386D01*
X126338410Y-83427386D01*
X126434628Y-83408247D01*
X126526715Y-83346715D01*
X126588247Y-83254628D01*
X126607386Y-83158410D01*
X126607386Y-82881829D01*
X127077200Y-83351644D01*
X127077201Y-85117211D01*
X127077200Y-85117215D01*
X127077200Y-85191316D01*
X127073392Y-85194139D01*
X126957143Y-85377673D01*
X126914759Y-85590752D01*
X126931251Y-85685740D01*
X126860395Y-85791785D01*
X126829614Y-85946528D01*
X126829614Y-86099611D01*
X126756799Y-86026796D01*
X126756799Y-85759467D01*
X126765033Y-85736021D01*
X126756799Y-85662029D01*
X126756799Y-85637451D01*
X126751459Y-85614038D01*
X126743289Y-85540622D01*
X126729811Y-85519137D01*
X126724163Y-85494377D01*
X126677709Y-85436081D01*
X126664891Y-85415648D01*
X126647838Y-85398596D01*
X126601674Y-85340665D01*
X126578942Y-85329700D01*
X126519794Y-85270552D01*
X126539081Y-85231356D01*
X126596865Y-85009519D01*
X126608863Y-84780593D01*
X126574583Y-84553932D01*
X126495428Y-84338792D01*
X126374628Y-84143963D01*
X126217121Y-83977403D01*
X126029339Y-83845917D01*
X125815886Y-83753548D01*
X125519084Y-83707600D01*
X125418728Y-83707600D01*
X125247934Y-83724948D01*
X125029184Y-83793501D01*
X124828687Y-83904639D01*
X124654632Y-84053822D01*
X124514129Y-84234957D01*
X124412919Y-84440644D01*
X124355135Y-84662481D01*
X124343137Y-84891407D01*
X124377417Y-85118068D01*
X124456572Y-85333208D01*
X124577372Y-85528037D01*
X124734879Y-85694597D01*
X124922661Y-85826083D01*
X125136114Y-85918452D01*
X125432916Y-85964400D01*
X125533272Y-85964400D01*
X125704066Y-85947052D01*
X125895199Y-85887154D01*
X125895200Y-86131767D01*
X125886965Y-86155216D01*
X125895200Y-86229217D01*
X125895200Y-86253786D01*
X125900538Y-86277190D01*
X125906734Y-86332861D01*
X125815886Y-86293548D01*
X125519084Y-86247600D01*
X125418728Y-86247600D01*
X125247934Y-86264948D01*
X125029184Y-86333501D01*
X124828687Y-86444639D01*
X124654632Y-86593822D01*
X124514129Y-86774957D01*
X124412919Y-86980644D01*
X124355135Y-87202481D01*
X124343137Y-87431407D01*
X123824000Y-87431407D01*
X123824000Y-84891407D01*
X123824000Y-84891407D01*
G37*
X123824000Y-84891407D02*
X123824000Y-80796400D01*
X137288000Y-80796400D01*
X137288000Y-99035600D01*
X123824000Y-99035600D01*
X123824000Y-95051407D01*
X124343137Y-95051407D01*
X124377417Y-95278068D01*
X124456572Y-95493208D01*
X124577372Y-95688037D01*
X124734879Y-95854597D01*
X124922661Y-95986083D01*
X125136114Y-96078452D01*
X125432916Y-96124400D01*
X125533272Y-96124400D01*
X125704066Y-96107052D01*
X125922816Y-96038499D01*
X126123313Y-95927361D01*
X126297368Y-95778178D01*
X126437871Y-95597043D01*
X126539081Y-95391356D01*
X126596865Y-95169519D01*
X126608863Y-94940593D01*
X126574583Y-94713932D01*
X126518834Y-94562409D01*
X126578672Y-94502571D01*
X126601071Y-94491816D01*
X126647569Y-94433674D01*
X126664949Y-94416295D01*
X126677727Y-94395965D01*
X126723862Y-94338275D01*
X126729526Y-94313549D01*
X126743040Y-94292045D01*
X126751412Y-94217992D01*
X126756799Y-94194467D01*
X126756799Y-94170338D01*
X126765119Y-94096746D01*
X126756799Y-94072921D01*
X126756799Y-93805204D01*
X126829614Y-93732389D01*
X126829614Y-93885472D01*
X126860395Y-94040215D01*
X126955079Y-94181921D01*
X127096785Y-94276605D01*
X127251528Y-94307386D01*
X127655201Y-94307386D01*
X127655200Y-94747556D01*
X125908942Y-96493816D01*
X125815886Y-96453548D01*
X125519084Y-96407600D01*
X125418728Y-96407600D01*
X125247934Y-96424948D01*
X125029184Y-96493501D01*
X124828687Y-96604639D01*
X124654632Y-96753822D01*
X124514129Y-96934957D01*
X124412919Y-97140644D01*
X124355135Y-97362481D01*
X124343137Y-97591407D01*
X124377417Y-97818068D01*
X124456572Y-98033208D01*
X124577372Y-98228037D01*
X124734879Y-98394597D01*
X124922661Y-98526083D01*
X125136114Y-98618452D01*
X125432916Y-98664400D01*
X125533272Y-98664400D01*
X125704066Y-98647052D01*
X125922816Y-98578499D01*
X126123313Y-98467361D01*
X126297368Y-98318178D01*
X126437871Y-98137043D01*
X126539081Y-97931356D01*
X126596865Y-97709519D01*
X126608863Y-97480593D01*
X126574583Y-97253932D01*
X126518834Y-97102408D01*
X127404507Y-96216735D01*
X128502962Y-96216735D01*
X128515311Y-96413016D01*
X128576085Y-96600061D01*
X128681466Y-96766114D01*
X128687463Y-96771746D01*
X128677372Y-96773753D01*
X128585285Y-96835285D01*
X128523753Y-96927372D01*
X128504614Y-97023590D01*
X128504614Y-98048410D01*
X128523753Y-98144628D01*
X128585285Y-98236715D01*
X128677372Y-98298247D01*
X128773590Y-98317386D01*
X129798410Y-98317386D01*
X129894628Y-98298247D01*
X129986715Y-98236715D01*
X130048247Y-98144628D01*
X130051202Y-98129773D01*
X130094831Y-98170743D01*
X130270714Y-98267436D01*
X130516908Y-98314400D01*
X130604971Y-98314400D01*
X130751119Y-98295937D01*
X130933977Y-98223538D01*
X131093086Y-98107939D01*
X131191529Y-97988942D01*
X131221466Y-98036114D01*
X131364831Y-98170743D01*
X131540714Y-98267436D01*
X131786908Y-98314400D01*
X131874971Y-98314400D01*
X132021119Y-98295937D01*
X132203977Y-98223538D01*
X132363086Y-98107939D01*
X132488448Y-97956403D01*
X132572186Y-97778451D01*
X132609038Y-97585265D01*
X132596689Y-97388984D01*
X132535915Y-97201939D01*
X132430534Y-97035886D01*
X132287169Y-96901257D01*
X132111286Y-96804564D01*
X131865092Y-96757600D01*
X131777029Y-96757600D01*
X131630881Y-96776063D01*
X131448023Y-96848462D01*
X131288914Y-96964061D01*
X131190471Y-97083058D01*
X131160534Y-97035886D01*
X131017169Y-96901257D01*
X131010774Y-96897742D01*
X131093086Y-96837939D01*
X131218448Y-96686403D01*
X131302186Y-96508451D01*
X131339038Y-96315265D01*
X131326689Y-96118984D01*
X131265915Y-95931939D01*
X131160534Y-95765886D01*
X131017169Y-95631257D01*
X130841286Y-95534564D01*
X130595092Y-95487600D01*
X130507029Y-95487600D01*
X130360881Y-95506063D01*
X130178023Y-95578462D01*
X130018914Y-95694061D01*
X129920471Y-95813058D01*
X129890534Y-95765886D01*
X129747169Y-95631257D01*
X129571286Y-95534564D01*
X129325092Y-95487600D01*
X129237029Y-95487600D01*
X129090881Y-95506063D01*
X128908023Y-95578462D01*
X128748914Y-95694061D01*
X128623552Y-95845597D01*
X128539814Y-96023549D01*
X128502962Y-96216735D01*
X127404507Y-96216735D01*
X128338672Y-95282571D01*
X128361072Y-95271815D01*
X128407570Y-95213673D01*
X128424950Y-95196294D01*
X128437728Y-95175964D01*
X128483863Y-95118274D01*
X128489527Y-95093548D01*
X128503041Y-95072044D01*
X128511413Y-94997991D01*
X128516800Y-94974466D01*
X128516800Y-94950337D01*
X128525120Y-94876745D01*
X128516800Y-94852920D01*
X128516800Y-94307386D01*
X128920472Y-94307386D01*
X129075215Y-94276605D01*
X129216921Y-94181921D01*
X129311605Y-94040215D01*
X129342386Y-93885472D01*
X129342386Y-93566528D01*
X129311605Y-93411785D01*
X129216921Y-93270079D01*
X129075215Y-93175395D01*
X128920472Y-93144614D01*
X128007631Y-93144614D01*
X128060625Y-93102385D01*
X128071589Y-93079653D01*
X128113857Y-93037386D01*
X128920472Y-93037386D01*
X129075215Y-93006605D01*
X129216921Y-92911921D01*
X129311605Y-92770215D01*
X129342386Y-92615472D01*
X129342386Y-92296528D01*
X131779614Y-92296528D01*
X131779614Y-92615472D01*
X131810395Y-92770215D01*
X131905079Y-92911921D01*
X132046785Y-93006605D01*
X132201528Y-93037386D01*
X133008143Y-93037386D01*
X133050138Y-93079382D01*
X133060895Y-93101784D01*
X133114451Y-93144614D01*
X132201528Y-93144614D01*
X132046785Y-93175395D01*
X131905079Y-93270079D01*
X131810395Y-93411785D01*
X131779614Y-93566528D01*
X131779614Y-93885472D01*
X131810395Y-94040215D01*
X131905079Y-94181921D01*
X132046785Y-94276605D01*
X132201528Y-94307386D01*
X132605201Y-94307386D01*
X132605200Y-94862532D01*
X132596966Y-94885979D01*
X132605200Y-94959970D01*
X132605200Y-94984547D01*
X132610540Y-95007960D01*
X132618710Y-95081376D01*
X132632188Y-95102861D01*
X132637836Y-95127621D01*
X132684290Y-95185917D01*
X132697107Y-95206349D01*
X132714157Y-95223399D01*
X132760323Y-95281334D01*
X132783060Y-95292301D01*
X134592206Y-97101448D01*
X134572919Y-97140644D01*
X134515135Y-97362481D01*
X134503137Y-97591407D01*
X134537417Y-97818068D01*
X134616572Y-98033208D01*
X134737372Y-98228037D01*
X134894879Y-98394597D01*
X135082661Y-98526083D01*
X135296114Y-98618452D01*
X135592916Y-98664400D01*
X135693272Y-98664400D01*
X135864066Y-98647052D01*
X136082816Y-98578499D01*
X136283313Y-98467361D01*
X136457368Y-98318178D01*
X136597871Y-98137043D01*
X136699081Y-97931356D01*
X136756865Y-97709519D01*
X136768863Y-97480593D01*
X136734583Y-97253932D01*
X136655428Y-97038792D01*
X136534628Y-96843963D01*
X136377121Y-96677403D01*
X136189339Y-96545917D01*
X135975886Y-96453548D01*
X135679084Y-96407600D01*
X135578728Y-96407600D01*
X135407934Y-96424948D01*
X135199508Y-96490266D01*
X133466800Y-94757559D01*
X133466800Y-94307386D01*
X133870472Y-94307386D01*
X134025215Y-94276605D01*
X134166921Y-94181921D01*
X134261605Y-94040215D01*
X134292386Y-93885472D01*
X134292386Y-93737390D01*
X134355202Y-93800206D01*
X134355201Y-94072532D01*
X134346967Y-94095980D01*
X134355201Y-94169971D01*
X134355201Y-94194548D01*
X134360541Y-94217961D01*
X134368711Y-94291377D01*
X134382189Y-94312862D01*
X134387837Y-94337622D01*
X134434291Y-94395918D01*
X134447108Y-94416350D01*
X134464159Y-94433400D01*
X134510323Y-94491333D01*
X134533056Y-94502299D01*
X134592206Y-94561448D01*
X134572919Y-94600644D01*
X134515135Y-94822481D01*
X134503137Y-95051407D01*
X134537417Y-95278068D01*
X134616572Y-95493208D01*
X134737372Y-95688037D01*
X134894879Y-95854597D01*
X135082661Y-95986083D01*
X135296114Y-96078452D01*
X135592916Y-96124400D01*
X135693272Y-96124400D01*
X135864066Y-96107052D01*
X136082816Y-96038499D01*
X136283313Y-95927361D01*
X136457368Y-95778178D01*
X136597871Y-95597043D01*
X136699081Y-95391356D01*
X136756865Y-95169519D01*
X136768863Y-94940593D01*
X136734583Y-94713932D01*
X136655428Y-94498792D01*
X136534628Y-94303963D01*
X136377121Y-94137403D01*
X136189339Y-94005917D01*
X135975886Y-93913548D01*
X135679084Y-93867600D01*
X135578728Y-93867600D01*
X135407934Y-93884948D01*
X135216801Y-93944846D01*
X135216801Y-93695230D01*
X135225035Y-93671784D01*
X135216801Y-93597795D01*
X135216801Y-93573214D01*
X135211460Y-93549797D01*
X135205849Y-93499391D01*
X135296114Y-93538452D01*
X135592916Y-93584400D01*
X135693272Y-93584400D01*
X135864066Y-93567052D01*
X136082816Y-93498499D01*
X136283313Y-93387361D01*
X136457368Y-93238178D01*
X136597871Y-93057043D01*
X136699081Y-92851356D01*
X136756865Y-92629519D01*
X136768863Y-92400593D01*
X136734583Y-92173932D01*
X136655428Y-91958792D01*
X136534628Y-91763963D01*
X136377121Y-91597403D01*
X136189339Y-91465917D01*
X135975886Y-91373548D01*
X135679084Y-91327600D01*
X135578728Y-91327600D01*
X135407934Y-91344948D01*
X135199508Y-91410265D01*
X134722573Y-90933331D01*
X134711814Y-90910926D01*
X134653660Y-90864418D01*
X134636292Y-90847050D01*
X134615973Y-90834279D01*
X134558273Y-90788136D01*
X134533546Y-90782473D01*
X134512045Y-90768959D01*
X134437982Y-90760586D01*
X134414469Y-90755200D01*
X134390337Y-90755200D01*
X134316745Y-90746880D01*
X134292920Y-90755200D01*
X134183706Y-90755200D01*
X134166921Y-90730079D01*
X134025215Y-90635395D01*
X133870472Y-90604614D01*
X132201528Y-90604614D01*
X132046785Y-90635395D01*
X131905079Y-90730079D01*
X131810395Y-90871785D01*
X131779614Y-91026528D01*
X131779614Y-91345472D01*
X131810395Y-91500215D01*
X131905079Y-91641921D01*
X132046785Y-91736605D01*
X132201528Y-91767386D01*
X133870472Y-91767386D01*
X134025215Y-91736605D01*
X134166921Y-91641921D01*
X134183706Y-91616800D01*
X134187558Y-91616800D01*
X134592205Y-92021448D01*
X134572919Y-92060644D01*
X134515135Y-92282481D01*
X134503137Y-92511407D01*
X134537417Y-92738068D01*
X134552474Y-92778991D01*
X134347522Y-92574040D01*
X134336762Y-92551635D01*
X134292386Y-92516146D01*
X134292386Y-92296528D01*
X134261605Y-92141785D01*
X134166921Y-92000079D01*
X134025215Y-91905395D01*
X133870472Y-91874614D01*
X132201528Y-91874614D01*
X132046785Y-91905395D01*
X131905079Y-92000079D01*
X131810395Y-92141785D01*
X131779614Y-92296528D01*
X129342386Y-92296528D01*
X129311605Y-92141785D01*
X129216921Y-92000079D01*
X129075215Y-91905395D01*
X128920472Y-91874614D01*
X127251528Y-91874614D01*
X127096785Y-91905395D01*
X126955079Y-92000079D01*
X126860395Y-92141785D01*
X126829614Y-92296528D01*
X126829614Y-92512070D01*
X126780717Y-92551034D01*
X126769753Y-92573764D01*
X126555607Y-92787910D01*
X126596865Y-92629519D01*
X126608863Y-92400593D01*
X126574583Y-92173932D01*
X126518834Y-92022409D01*
X126924444Y-91616800D01*
X126938294Y-91616800D01*
X126955079Y-91641921D01*
X127096785Y-91736605D01*
X127251528Y-91767386D01*
X128920472Y-91767386D01*
X129075215Y-91736605D01*
X129216921Y-91641921D01*
X129237621Y-91610941D01*
X129306376Y-91603289D01*
X129327860Y-91589812D01*
X129352622Y-91584164D01*
X129410918Y-91537710D01*
X129431349Y-91524893D01*
X129448398Y-91507843D01*
X129506334Y-91461676D01*
X129517301Y-91438940D01*
X129929713Y-91026528D01*
X131188857Y-89767385D01*
X131211262Y-89756626D01*
X131211340Y-89756528D01*
X131779614Y-89756528D01*
X131779614Y-90075472D01*
X131810395Y-90230215D01*
X131905079Y-90371921D01*
X132046785Y-90466605D01*
X132201528Y-90497386D01*
X133870472Y-90497386D01*
X134025215Y-90466605D01*
X134166921Y-90371921D01*
X134183706Y-90346800D01*
X134592139Y-90346800D01*
X134616572Y-90413208D01*
X134737372Y-90608037D01*
X134894879Y-90774597D01*
X135082661Y-90906083D01*
X135296114Y-90998452D01*
X135592916Y-91044400D01*
X135693272Y-91044400D01*
X135864066Y-91027052D01*
X136082816Y-90958499D01*
X136283313Y-90847361D01*
X136457368Y-90698178D01*
X136597871Y-90517043D01*
X136699081Y-90311356D01*
X136756865Y-90089519D01*
X136768863Y-89860593D01*
X136734583Y-89633932D01*
X136655428Y-89418792D01*
X136534628Y-89223963D01*
X136377121Y-89057403D01*
X136189339Y-88925917D01*
X135975886Y-88833548D01*
X135679084Y-88787600D01*
X135578728Y-88787600D01*
X135407934Y-88804948D01*
X135189184Y-88873501D01*
X134988687Y-88984639D01*
X134814632Y-89133822D01*
X134674129Y-89314957D01*
X134590360Y-89485200D01*
X134183706Y-89485200D01*
X134166921Y-89460079D01*
X134025215Y-89365395D01*
X133870472Y-89334614D01*
X132201528Y-89334614D01*
X132046785Y-89365395D01*
X131905079Y-89460079D01*
X131810395Y-89601785D01*
X131779614Y-89756528D01*
X131211340Y-89756528D01*
X131257766Y-89698477D01*
X131275139Y-89681104D01*
X131287913Y-89660779D01*
X131334052Y-89603086D01*
X131339715Y-89578359D01*
X131353228Y-89556858D01*
X131361601Y-89482803D01*
X131366988Y-89459278D01*
X131366988Y-89435149D01*
X131375308Y-89361557D01*
X131366988Y-89337732D01*
X131366988Y-88486528D01*
X131779614Y-88486528D01*
X131779614Y-88805472D01*
X131810395Y-88960215D01*
X131905079Y-89101921D01*
X132046785Y-89196605D01*
X132201528Y-89227386D01*
X133870472Y-89227386D01*
X134025215Y-89196605D01*
X134166921Y-89101921D01*
X134183706Y-89076800D01*
X134292532Y-89076800D01*
X134315978Y-89085034D01*
X134389970Y-89076800D01*
X134414547Y-89076800D01*
X134437961Y-89071460D01*
X134511376Y-89063289D01*
X134532860Y-89049812D01*
X134557622Y-89044164D01*
X134615918Y-88997710D01*
X134636349Y-88984893D01*
X134653398Y-88967843D01*
X134711332Y-88921677D01*
X134722299Y-88898943D01*
X135203059Y-88418183D01*
X135296114Y-88458452D01*
X135592916Y-88504400D01*
X135693272Y-88504400D01*
X135864066Y-88487052D01*
X136082816Y-88418499D01*
X136283313Y-88307361D01*
X136457368Y-88158178D01*
X136597871Y-87977043D01*
X136699081Y-87771356D01*
X136756865Y-87549519D01*
X136768863Y-87320593D01*
X136734583Y-87093932D01*
X136655428Y-86878792D01*
X136534628Y-86683963D01*
X136377121Y-86517403D01*
X136189339Y-86385917D01*
X135975886Y-86293548D01*
X135679084Y-86247600D01*
X135578728Y-86247600D01*
X135407934Y-86264948D01*
X135189184Y-86333501D01*
X134988687Y-86444639D01*
X134911999Y-86510368D01*
X134911999Y-86169243D01*
X135203059Y-85878184D01*
X135296114Y-85918452D01*
X135592916Y-85964400D01*
X135693272Y-85964400D01*
X135864066Y-85947052D01*
X136082816Y-85878499D01*
X136283313Y-85767361D01*
X136457368Y-85618178D01*
X136597871Y-85437043D01*
X136699081Y-85231356D01*
X136756865Y-85009519D01*
X136768863Y-84780593D01*
X136734583Y-84553932D01*
X136655428Y-84338792D01*
X136534628Y-84143963D01*
X136377121Y-83977403D01*
X136189339Y-83845917D01*
X135975886Y-83753548D01*
X135679084Y-83707600D01*
X135578728Y-83707600D01*
X135407934Y-83724948D01*
X135189184Y-83793501D01*
X134988687Y-83904639D01*
X134814632Y-84053822D01*
X134674129Y-84234957D01*
X134572919Y-84440644D01*
X134515135Y-84662481D01*
X134503137Y-84891407D01*
X134537417Y-85118068D01*
X134593166Y-85269591D01*
X134228530Y-85634228D01*
X134206125Y-85644987D01*
X134159622Y-85703137D01*
X134142249Y-85720509D01*
X134129475Y-85740833D01*
X134083335Y-85798529D01*
X134077672Y-85823255D01*
X134064159Y-85844756D01*
X134055786Y-85918811D01*
X134050399Y-85942336D01*
X134050399Y-85966464D01*
X134042079Y-86040056D01*
X134050399Y-86063881D01*
X134050400Y-86827358D01*
X134041489Y-86836269D01*
X134025214Y-86825395D01*
X133870472Y-86794614D01*
X132201528Y-86794614D01*
X132046785Y-86825395D01*
X131905079Y-86920079D01*
X131810395Y-87061785D01*
X131779614Y-87216528D01*
X131779614Y-87535472D01*
X131810395Y-87690215D01*
X131905079Y-87831921D01*
X132046785Y-87926605D01*
X132201528Y-87957386D01*
X133870472Y-87957386D01*
X134025215Y-87926605D01*
X134166921Y-87831921D01*
X134187621Y-87800941D01*
X134256376Y-87793289D01*
X134277860Y-87779812D01*
X134302622Y-87774164D01*
X134360918Y-87727710D01*
X134381349Y-87714893D01*
X134398398Y-87697843D01*
X134456335Y-87651675D01*
X134467299Y-87628943D01*
X134524379Y-87571863D01*
X134537417Y-87658068D01*
X134593166Y-87809591D01*
X134187558Y-88215200D01*
X134183706Y-88215200D01*
X134166921Y-88190079D01*
X134025215Y-88095395D01*
X133870472Y-88064614D01*
X132201528Y-88064614D01*
X132046785Y-88095395D01*
X131905079Y-88190079D01*
X131810395Y-88331785D01*
X131779614Y-88486528D01*
X131366988Y-88486528D01*
X131366988Y-87216528D01*
X131366988Y-85255253D01*
X131410855Y-85211386D01*
X131726257Y-85211386D01*
X131915142Y-85173814D01*
X132085791Y-85059791D01*
X132199814Y-84889142D01*
X132237386Y-84700257D01*
X132237386Y-84209743D01*
X132199814Y-84020858D01*
X132085791Y-83850209D01*
X131915142Y-83736186D01*
X131726257Y-83698614D01*
X131135743Y-83698614D01*
X130946858Y-83736186D01*
X130776209Y-83850209D01*
X130662186Y-84020858D01*
X130624614Y-84209743D01*
X130624614Y-84700257D01*
X130636781Y-84761425D01*
X130614611Y-84789148D01*
X130597238Y-84806520D01*
X130584464Y-84826844D01*
X130538324Y-84884540D01*
X130532661Y-84909266D01*
X130519148Y-84930767D01*
X130510775Y-85004822D01*
X130505388Y-85028347D01*
X130505388Y-85052475D01*
X130497068Y-85126067D01*
X130505388Y-85149892D01*
X130505389Y-89232369D01*
X129091490Y-90646269D01*
X129075215Y-90635395D01*
X128920472Y-90604614D01*
X127251528Y-90604614D01*
X127096785Y-90635395D01*
X126955079Y-90730079D01*
X126938294Y-90755200D01*
X126819468Y-90755200D01*
X126796022Y-90746966D01*
X126722030Y-90755200D01*
X126697452Y-90755200D01*
X126674039Y-90760540D01*
X126600623Y-90768710D01*
X126579137Y-90782189D01*
X126554377Y-90787837D01*
X126496083Y-90834290D01*
X126475650Y-90847107D01*
X126458597Y-90864161D01*
X126400666Y-90910324D01*
X126389701Y-90933056D01*
X125908941Y-91413816D01*
X125815886Y-91373548D01*
X125519084Y-91327600D01*
X125418728Y-91327600D01*
X125247934Y-91344948D01*
X125029184Y-91413501D01*
X124828687Y-91524639D01*
X124654632Y-91673822D01*
X124514129Y-91854957D01*
X124412919Y-92060644D01*
X124355135Y-92282481D01*
X124343137Y-92511407D01*
X124377417Y-92738068D01*
X124456572Y-92953208D01*
X124577372Y-93148037D01*
X124734879Y-93314597D01*
X124922661Y-93446083D01*
X125136114Y-93538452D01*
X125432916Y-93584400D01*
X125533272Y-93584400D01*
X125704066Y-93567052D01*
X125906365Y-93503655D01*
X125900584Y-93554788D01*
X125895200Y-93578293D01*
X125895200Y-93602416D01*
X125886879Y-93676017D01*
X125895200Y-93699845D01*
X125895199Y-93947870D01*
X125815886Y-93913548D01*
X125519084Y-93867600D01*
X125418728Y-93867600D01*
X125247934Y-93884948D01*
X125029184Y-93953501D01*
X124828687Y-94064639D01*
X124654632Y-94213822D01*
X124514129Y-94394957D01*
X124412919Y-94600644D01*
X124355135Y-94822481D01*
X124343137Y-95051407D01*
X123824000Y-95051407D01*
X123824000Y-92511407D01*
X123824000Y-89971407D01*
X124343137Y-89971407D01*
X124377417Y-90198068D01*
X124456572Y-90413208D01*
X124577372Y-90608037D01*
X124734879Y-90774597D01*
X124922661Y-90906083D01*
X125136114Y-90998452D01*
X125432916Y-91044400D01*
X125533272Y-91044400D01*
X125704066Y-91027052D01*
X125922816Y-90958499D01*
X126123313Y-90847361D01*
X126297368Y-90698178D01*
X126437871Y-90517043D01*
X126521640Y-90346800D01*
X126938294Y-90346800D01*
X126955079Y-90371921D01*
X127096785Y-90466605D01*
X127251528Y-90497386D01*
X128920472Y-90497386D01*
X129075215Y-90466605D01*
X129216921Y-90371921D01*
X129311605Y-90230215D01*
X129342386Y-90075472D01*
X129342386Y-89756528D01*
X129311605Y-89601785D01*
X129216921Y-89460079D01*
X129075215Y-89365395D01*
X128920472Y-89334614D01*
X127251528Y-89334614D01*
X127096785Y-89365395D01*
X126955079Y-89460079D01*
X126938294Y-89485200D01*
X126519861Y-89485200D01*
X126495428Y-89418792D01*
X126374628Y-89223963D01*
X126217121Y-89057403D01*
X126029339Y-88925917D01*
X125815886Y-88833548D01*
X125519084Y-88787600D01*
X125418728Y-88787600D01*
X125247934Y-88804948D01*
X125029184Y-88873501D01*
X124828687Y-88984639D01*
X124654632Y-89133822D01*
X124514129Y-89314957D01*
X124412919Y-89520644D01*
X124355135Y-89742481D01*
X124343137Y-89971407D01*
X123824000Y-89971407D01*
X123824000Y-87431407D01*
X124343137Y-87431407D01*
X124377417Y-87658068D01*
X124456572Y-87873208D01*
X124577372Y-88068037D01*
X124734879Y-88234597D01*
X124922661Y-88366083D01*
X125136114Y-88458452D01*
X125432916Y-88504400D01*
X125533272Y-88504400D01*
X125704066Y-88487052D01*
X125912491Y-88421735D01*
X126389429Y-88898673D01*
X126400186Y-88921074D01*
X126458330Y-88967574D01*
X126475708Y-88984952D01*
X126496043Y-88997732D01*
X126553725Y-89043863D01*
X126578452Y-89049527D01*
X126599956Y-89063041D01*
X126674009Y-89071413D01*
X126697534Y-89076800D01*
X126721663Y-89076800D01*
X126795255Y-89085120D01*
X126819080Y-89076800D01*
X126938294Y-89076800D01*
X126955079Y-89101921D01*
X127096785Y-89196605D01*
X127251528Y-89227386D01*
X128920472Y-89227386D01*
X129075215Y-89196605D01*
X129216921Y-89101921D01*
X129311605Y-88960215D01*
X129342386Y-88805472D01*
X129342386Y-88486528D01*
X129311605Y-88331785D01*
X129216921Y-88190079D01*
X129075215Y-88095395D01*
X128920472Y-88064614D01*
X127251528Y-88064614D01*
X127096785Y-88095395D01*
X126955079Y-88190079D01*
X126938294Y-88215200D01*
X126924443Y-88215200D01*
X126519794Y-87810552D01*
X126539081Y-87771356D01*
X126596865Y-87549519D01*
X126608863Y-87320593D01*
X126574583Y-87093932D01*
X126556616Y-87045099D01*
X126769479Y-87257962D01*
X126780236Y-87280364D01*
X126829614Y-87319852D01*
X126829614Y-87535472D01*
X126860395Y-87690215D01*
X126955079Y-87831921D01*
X127096785Y-87926605D01*
X127251528Y-87957386D01*
X128920472Y-87957386D01*
X129075215Y-87926605D01*
X129216921Y-87831921D01*
X129311605Y-87690215D01*
X129342386Y-87535472D01*
X129342386Y-87216528D01*
X129311605Y-87061785D01*
X129216921Y-86920079D01*
X129075215Y-86825395D01*
X128920472Y-86794614D01*
X128113856Y-86794614D01*
X128071863Y-86752620D01*
X128061103Y-86730215D01*
X128007548Y-86687386D01*
X128920472Y-86687386D01*
X129075215Y-86656605D01*
X129216921Y-86561921D01*
X129311605Y-86420215D01*
X129342386Y-86265472D01*
X129342386Y-85946528D01*
X129311605Y-85791785D01*
X129216921Y-85650079D01*
X129075215Y-85555395D01*
X128920472Y-85524614D01*
X128113857Y-85524614D01*
X128091475Y-85502233D01*
X128091618Y-85490574D01*
X128013317Y-85287127D01*
X127938800Y-85204801D01*
X127938800Y-84621064D01*
X127967924Y-84788802D01*
X128079655Y-84975123D01*
X128250970Y-85108728D01*
X128458896Y-85171703D01*
X128675553Y-85155603D01*
X128871886Y-85062586D01*
X128919214Y-85012800D01*
X128994811Y-85012800D01*
X129026209Y-85059791D01*
X129196858Y-85173814D01*
X129385743Y-85211386D01*
X129976257Y-85211386D01*
X130165142Y-85173814D01*
X130335791Y-85059791D01*
X130449814Y-84889142D01*
X130487386Y-84700257D01*
X130487386Y-84209743D01*
X130449814Y-84020858D01*
X130335791Y-83850209D01*
X130165142Y-83736186D01*
X129976257Y-83698614D01*
X129385743Y-83698614D01*
X129196858Y-83736186D01*
X129026209Y-83850209D01*
X128912186Y-84020858D01*
X128892476Y-84119947D01*
X128883524Y-84110057D01*
X128689521Y-84012271D01*
X128473323Y-83990883D01*
X128263920Y-84048759D01*
X128089392Y-84178138D01*
X127973143Y-84361673D01*
X127938800Y-84534327D01*
X127938800Y-83246668D01*
X127947034Y-83223222D01*
X127938800Y-83149230D01*
X127938800Y-83124652D01*
X127933460Y-83101239D01*
X127925290Y-83027823D01*
X127911812Y-83006338D01*
X127906164Y-82981578D01*
X127859710Y-82923282D01*
X127846892Y-82902849D01*
X127829839Y-82885797D01*
X127783675Y-82827866D01*
X127760945Y-82816902D01*
X126987373Y-82043331D01*
X126976614Y-82020926D01*
X126918460Y-81974418D01*
X126901092Y-81957050D01*
X126880773Y-81944279D01*
X126823073Y-81898136D01*
X126798346Y-81892473D01*
X126776845Y-81878959D01*
X126702782Y-81870586D01*
X126679269Y-81865200D01*
X126655137Y-81865200D01*
X126607386Y-81859801D01*
X126607386Y-81529590D01*
X129124614Y-81529590D01*
X129124614Y-82554410D01*
X129143753Y-82650628D01*
X129205285Y-82742715D01*
X129297372Y-82804247D01*
X129393590Y-82823386D01*
X130418410Y-82823386D01*
X130514628Y-82804247D01*
X130606715Y-82742715D01*
X130668247Y-82650628D01*
X130687386Y-82554410D01*
X130687386Y-81529590D01*
X130668247Y-81433372D01*
X130606715Y-81341285D01*
X130514628Y-81279753D01*
X130418410Y-81260614D01*
X129393590Y-81260614D01*
X129297372Y-81279753D01*
X129205285Y-81341285D01*
X129143753Y-81433372D01*
X129124614Y-81529590D01*
X126607386Y-81529590D01*
X126607386Y-81433590D01*
X126588247Y-81337372D01*
X126526715Y-81245285D01*
X126434628Y-81183753D01*
X126338410Y-81164614D01*
X124613590Y-81164614D01*
X124517372Y-81183753D01*
X124425285Y-81245285D01*
X124363753Y-81337372D01*
X124344614Y-81433590D01*
X124344614Y-83158410D01*
X124363753Y-83254628D01*
X124425285Y-83346715D01*
X124517372Y-83408247D01*
X124613590Y-83427386D01*
X126338410Y-83427386D01*
X126434628Y-83408247D01*
X126526715Y-83346715D01*
X126588247Y-83254628D01*
X126607386Y-83158410D01*
X126607386Y-82881829D01*
X127077200Y-83351644D01*
X127077201Y-85117211D01*
X127077200Y-85117215D01*
X127077200Y-85191316D01*
X127073392Y-85194139D01*
X126957143Y-85377673D01*
X126914759Y-85590752D01*
X126931251Y-85685740D01*
X126860395Y-85791785D01*
X126829614Y-85946528D01*
X126829614Y-86099611D01*
X126756799Y-86026796D01*
X126756799Y-85759467D01*
X126765033Y-85736021D01*
X126756799Y-85662029D01*
X126756799Y-85637451D01*
X126751459Y-85614038D01*
X126743289Y-85540622D01*
X126729811Y-85519137D01*
X126724163Y-85494377D01*
X126677709Y-85436081D01*
X126664891Y-85415648D01*
X126647838Y-85398596D01*
X126601674Y-85340665D01*
X126578942Y-85329700D01*
X126519794Y-85270552D01*
X126539081Y-85231356D01*
X126596865Y-85009519D01*
X126608863Y-84780593D01*
X126574583Y-84553932D01*
X126495428Y-84338792D01*
X126374628Y-84143963D01*
X126217121Y-83977403D01*
X126029339Y-83845917D01*
X125815886Y-83753548D01*
X125519084Y-83707600D01*
X125418728Y-83707600D01*
X125247934Y-83724948D01*
X125029184Y-83793501D01*
X124828687Y-83904639D01*
X124654632Y-84053822D01*
X124514129Y-84234957D01*
X124412919Y-84440644D01*
X124355135Y-84662481D01*
X124343137Y-84891407D01*
X124377417Y-85118068D01*
X124456572Y-85333208D01*
X124577372Y-85528037D01*
X124734879Y-85694597D01*
X124922661Y-85826083D01*
X125136114Y-85918452D01*
X125432916Y-85964400D01*
X125533272Y-85964400D01*
X125704066Y-85947052D01*
X125895199Y-85887154D01*
X125895200Y-86131767D01*
X125886965Y-86155216D01*
X125895200Y-86229217D01*
X125895200Y-86253786D01*
X125900538Y-86277190D01*
X125906734Y-86332861D01*
X125815886Y-86293548D01*
X125519084Y-86247600D01*
X125418728Y-86247600D01*
X125247934Y-86264948D01*
X125029184Y-86333501D01*
X124828687Y-86444639D01*
X124654632Y-86593822D01*
X124514129Y-86774957D01*
X124412919Y-86980644D01*
X124355135Y-87202481D01*
X124343137Y-87431407D01*
X123824000Y-87431407D01*
X123824000Y-84891407D01*
M02*
