G04 #@! TF.GenerationSoftware,KiCad,Pcbnew,(5.1.0-1419-g57928c41b)*
G04 #@! TF.CreationDate,2019-08-03T20:03:29-07:00*
G04 #@! TF.ProjectId,attiny1614,61747469-6e79-4313-9631-342e6b696361,1.2*
G04 #@! TF.SameCoordinates,Original*
G04 #@! TF.FileFunction,Legend,Bot*
G04 #@! TF.FilePolarity,Positive*
%FSLAX46Y46*%
G04 Gerber Fmt 4.6, Leading zero omitted, Abs format (unit mm)*
G04 Created by KiCad (PCBNEW (5.1.0-1419-g57928c41b)) date 2019-08-03 20:03:29*
%MOMM*%
%LPD*%
G04 APERTURE LIST*
%ADD10C,0.152400*%
%ADD11C,0.120000*%
G04 APERTURE END LIST*
D10*
X126373466Y-85428666D02*
X126373466Y-85815714D01*
X126605695Y-85351257D02*
X125792895Y-85622190D01*
X126605695Y-85893123D01*
X125792895Y-86047942D02*
X125792895Y-86512400D01*
X126605695Y-86280171D02*
X125792895Y-86280171D01*
X126063828Y-86667219D02*
X126063828Y-86976857D01*
X125792895Y-86783333D02*
X126489580Y-86783333D01*
X126566990Y-86822038D01*
X126605695Y-86899447D01*
X126605695Y-86976857D01*
X126605695Y-87247790D02*
X126063828Y-87247790D01*
X125792895Y-87247790D02*
X125831600Y-87209085D01*
X125870304Y-87247790D01*
X125831600Y-87286495D01*
X125792895Y-87247790D01*
X125870304Y-87247790D01*
X126063828Y-87634838D02*
X126605695Y-87634838D01*
X126141238Y-87634838D02*
X126102533Y-87673542D01*
X126063828Y-87750952D01*
X126063828Y-87867066D01*
X126102533Y-87944476D01*
X126179942Y-87983180D01*
X126605695Y-87983180D01*
X126063828Y-88292819D02*
X126605695Y-88486342D01*
X126063828Y-88679866D02*
X126605695Y-88486342D01*
X126799219Y-88408933D01*
X126837923Y-88370228D01*
X126876628Y-88292819D01*
X126605695Y-89415257D02*
X126605695Y-88950800D01*
X126605695Y-89183028D02*
X125792895Y-89183028D01*
X125909009Y-89105619D01*
X125986419Y-89028209D01*
X126025123Y-88950800D01*
X125792895Y-90111942D02*
X125792895Y-89957123D01*
X125831600Y-89879714D01*
X125870304Y-89841009D01*
X125986419Y-89763600D01*
X126141238Y-89724895D01*
X126450876Y-89724895D01*
X126528285Y-89763600D01*
X126566990Y-89802304D01*
X126605695Y-89879714D01*
X126605695Y-90034533D01*
X126566990Y-90111942D01*
X126528285Y-90150647D01*
X126450876Y-90189352D01*
X126257352Y-90189352D01*
X126179942Y-90150647D01*
X126141238Y-90111942D01*
X126102533Y-90034533D01*
X126102533Y-89879714D01*
X126141238Y-89802304D01*
X126179942Y-89763600D01*
X126257352Y-89724895D01*
X126605695Y-90963447D02*
X126605695Y-90498990D01*
X126605695Y-90731219D02*
X125792895Y-90731219D01*
X125909009Y-90653809D01*
X125986419Y-90576400D01*
X126025123Y-90498990D01*
X126063828Y-91660133D02*
X126605695Y-91660133D01*
X125754190Y-91466609D02*
X126334761Y-91273085D01*
X126334761Y-91776247D01*
X126063828Y-92627752D02*
X126605695Y-92821276D01*
X126063828Y-93014800D01*
X126605695Y-93750190D02*
X126605695Y-93285733D01*
X126605695Y-93517961D02*
X125792895Y-93517961D01*
X125909009Y-93440552D01*
X125986419Y-93363142D01*
X126025123Y-93285733D01*
X126528285Y-94098533D02*
X126566990Y-94137238D01*
X126605695Y-94098533D01*
X126566990Y-94059828D01*
X126528285Y-94098533D01*
X126605695Y-94098533D01*
X125870304Y-94446876D02*
X125831600Y-94485580D01*
X125792895Y-94562990D01*
X125792895Y-94756514D01*
X125831600Y-94833923D01*
X125870304Y-94872628D01*
X125947714Y-94911333D01*
X126025123Y-94911333D01*
X126141238Y-94872628D01*
X126605695Y-94408171D01*
X126605695Y-94911333D01*
D11*
X130358000Y-88644000D02*
X130358000Y-87184000D01*
X127198000Y-88644000D02*
X127198000Y-86484000D01*
X127198000Y-88644000D02*
X128128000Y-88644000D01*
X130358000Y-88644000D02*
X129428000Y-88644000D01*
X133240000Y-87204000D02*
X133240000Y-88614000D01*
X130920000Y-88614000D02*
X130920000Y-86584000D01*
X130920000Y-88614000D02*
X131580000Y-88614000D01*
X132580000Y-88614000D02*
X133240000Y-88614000D01*
X138236000Y-98866000D02*
X135576000Y-98866000D01*
X138236000Y-83566000D02*
X138236000Y-98866000D01*
X135576000Y-83566000D02*
X135576000Y-98866000D01*
X138236000Y-83566000D02*
X135576000Y-83566000D01*
X138236000Y-82296000D02*
X138236000Y-80966000D01*
X138236000Y-80966000D02*
X136906000Y-80966000D01*
X130050000Y-92881267D02*
X130050000Y-92538733D01*
X129030000Y-92881267D02*
X129030000Y-92538733D01*
X133856000Y-97110733D02*
X133856000Y-97453267D01*
X134876000Y-97110733D02*
X134876000Y-97453267D01*
X134876000Y-92881267D02*
X134876000Y-92538733D01*
X133856000Y-92881267D02*
X133856000Y-92538733D01*
X131570000Y-84156733D02*
X131570000Y-84499267D01*
X132590000Y-84156733D02*
X132590000Y-84499267D01*
X125536000Y-98866000D02*
X122876000Y-98866000D01*
X125536000Y-83566000D02*
X125536000Y-98866000D01*
X122876000Y-83566000D02*
X122876000Y-98866000D01*
X125536000Y-83566000D02*
X122876000Y-83566000D01*
X125536000Y-82296000D02*
X125536000Y-80966000D01*
X125536000Y-80966000D02*
X124206000Y-80966000D01*
X131570000Y-92538733D02*
X131570000Y-92881267D01*
X132590000Y-92538733D02*
X132590000Y-92881267D01*
X134876000Y-88055267D02*
X134876000Y-87712733D01*
X133856000Y-88055267D02*
X133856000Y-87712733D01*
X129030000Y-84156733D02*
X129030000Y-84499267D01*
X130050000Y-84156733D02*
X130050000Y-84499267D01*
D10*
X128332895Y-89550723D02*
X128990876Y-89550723D01*
X129068285Y-89589428D01*
X129106990Y-89628133D01*
X129145695Y-89705542D01*
X129145695Y-89860361D01*
X129106990Y-89937771D01*
X129068285Y-89976476D01*
X128990876Y-90015180D01*
X128332895Y-90015180D01*
X128410304Y-90363523D02*
X128371600Y-90402228D01*
X128332895Y-90479638D01*
X128332895Y-90673161D01*
X128371600Y-90750571D01*
X128410304Y-90789276D01*
X128487714Y-90827980D01*
X128565123Y-90827980D01*
X128681238Y-90789276D01*
X129145695Y-90324819D01*
X129145695Y-90827980D01*
X132447695Y-89570076D02*
X131634895Y-89570076D01*
X131634895Y-89763600D01*
X131673600Y-89879714D01*
X131751009Y-89957123D01*
X131828419Y-89995828D01*
X131983238Y-90034533D01*
X132099352Y-90034533D01*
X132254171Y-89995828D01*
X132331580Y-89957123D01*
X132408990Y-89879714D01*
X132447695Y-89763600D01*
X132447695Y-89570076D01*
X131712304Y-90344171D02*
X131673600Y-90382876D01*
X131634895Y-90460285D01*
X131634895Y-90653809D01*
X131673600Y-90731219D01*
X131712304Y-90769923D01*
X131789714Y-90808628D01*
X131867123Y-90808628D01*
X131983238Y-90769923D01*
X132447695Y-90305466D01*
X132447695Y-90808628D01*
X129907695Y-94860533D02*
X129520647Y-94589600D01*
X129907695Y-94396076D02*
X129094895Y-94396076D01*
X129094895Y-94705714D01*
X129133600Y-94783123D01*
X129172304Y-94821828D01*
X129249714Y-94860533D01*
X129365828Y-94860533D01*
X129443238Y-94821828D01*
X129481942Y-94783123D01*
X129520647Y-94705714D01*
X129520647Y-94396076D01*
X129365828Y-95557219D02*
X129907695Y-95557219D01*
X129056190Y-95363695D02*
X129636761Y-95170171D01*
X129636761Y-95673333D01*
X133463695Y-97146533D02*
X133076647Y-96875600D01*
X133463695Y-96682076D02*
X132650895Y-96682076D01*
X132650895Y-96991714D01*
X132689600Y-97069123D01*
X132728304Y-97107828D01*
X132805714Y-97146533D01*
X132921828Y-97146533D01*
X132999238Y-97107828D01*
X133037942Y-97069123D01*
X133076647Y-96991714D01*
X133076647Y-96682076D01*
X132650895Y-97417466D02*
X132650895Y-97920628D01*
X132960533Y-97649695D01*
X132960533Y-97765809D01*
X132999238Y-97843219D01*
X133037942Y-97881923D01*
X133115352Y-97920628D01*
X133308876Y-97920628D01*
X133386285Y-97881923D01*
X133424990Y-97843219D01*
X133463695Y-97765809D01*
X133463695Y-97533580D01*
X133424990Y-97456171D01*
X133386285Y-97417466D01*
X134733695Y-94860533D02*
X134346647Y-94589600D01*
X134733695Y-94396076D02*
X133920895Y-94396076D01*
X133920895Y-94705714D01*
X133959600Y-94783123D01*
X133998304Y-94821828D01*
X134075714Y-94860533D01*
X134191828Y-94860533D01*
X134269238Y-94821828D01*
X134307942Y-94783123D01*
X134346647Y-94705714D01*
X134346647Y-94396076D01*
X133998304Y-95170171D02*
X133959600Y-95208876D01*
X133920895Y-95286285D01*
X133920895Y-95479809D01*
X133959600Y-95557219D01*
X133998304Y-95595923D01*
X134075714Y-95634628D01*
X134153123Y-95634628D01*
X134269238Y-95595923D01*
X134733695Y-95131466D01*
X134733695Y-95634628D01*
X132447695Y-81906533D02*
X132060647Y-81635600D01*
X132447695Y-81442076D02*
X131634895Y-81442076D01*
X131634895Y-81751714D01*
X131673600Y-81829123D01*
X131712304Y-81867828D01*
X131789714Y-81906533D01*
X131905828Y-81906533D01*
X131983238Y-81867828D01*
X132021942Y-81829123D01*
X132060647Y-81751714D01*
X132060647Y-81442076D01*
X132447695Y-82680628D02*
X132447695Y-82216171D01*
X132447695Y-82448400D02*
X131634895Y-82448400D01*
X131751009Y-82370990D01*
X131828419Y-82293580D01*
X131867123Y-82216171D01*
X132370285Y-94860533D02*
X132408990Y-94821828D01*
X132447695Y-94705714D01*
X132447695Y-94628304D01*
X132408990Y-94512190D01*
X132331580Y-94434780D01*
X132254171Y-94396076D01*
X132099352Y-94357371D01*
X131983238Y-94357371D01*
X131828419Y-94396076D01*
X131751009Y-94434780D01*
X131673600Y-94512190D01*
X131634895Y-94628304D01*
X131634895Y-94705714D01*
X131673600Y-94821828D01*
X131712304Y-94860533D01*
X131634895Y-95131466D02*
X131634895Y-95634628D01*
X131944533Y-95363695D01*
X131944533Y-95479809D01*
X131983238Y-95557219D01*
X132021942Y-95595923D01*
X132099352Y-95634628D01*
X132292876Y-95634628D01*
X132370285Y-95595923D01*
X132408990Y-95557219D01*
X132447695Y-95479809D01*
X132447695Y-95247580D01*
X132408990Y-95170171D01*
X132370285Y-95131466D01*
X134656285Y-90034533D02*
X134694990Y-89995828D01*
X134733695Y-89879714D01*
X134733695Y-89802304D01*
X134694990Y-89686190D01*
X134617580Y-89608780D01*
X134540171Y-89570076D01*
X134385352Y-89531371D01*
X134269238Y-89531371D01*
X134114419Y-89570076D01*
X134037009Y-89608780D01*
X133959600Y-89686190D01*
X133920895Y-89802304D01*
X133920895Y-89879714D01*
X133959600Y-89995828D01*
X133998304Y-90034533D01*
X133998304Y-90344171D02*
X133959600Y-90382876D01*
X133920895Y-90460285D01*
X133920895Y-90653809D01*
X133959600Y-90731219D01*
X133998304Y-90769923D01*
X134075714Y-90808628D01*
X134153123Y-90808628D01*
X134269238Y-90769923D01*
X134733695Y-90305466D01*
X134733695Y-90808628D01*
X129830285Y-81906533D02*
X129868990Y-81867828D01*
X129907695Y-81751714D01*
X129907695Y-81674304D01*
X129868990Y-81558190D01*
X129791580Y-81480780D01*
X129714171Y-81442076D01*
X129559352Y-81403371D01*
X129443238Y-81403371D01*
X129288419Y-81442076D01*
X129211009Y-81480780D01*
X129133600Y-81558190D01*
X129094895Y-81674304D01*
X129094895Y-81751714D01*
X129133600Y-81867828D01*
X129172304Y-81906533D01*
X129907695Y-82680628D02*
X129907695Y-82216171D01*
X129907695Y-82448400D02*
X129094895Y-82448400D01*
X129211009Y-82370990D01*
X129288419Y-82293580D01*
X129327123Y-82216171D01*
M02*
