G04 #@! TF.GenerationSoftware,KiCad,Pcbnew,(5.1.0-1419-g57928c41b)*
G04 #@! TF.CreationDate,2019-08-03T20:03:29-07:00*
G04 #@! TF.ProjectId,attiny1614,61747469-6e79-4313-9631-342e6b696361,1.2*
G04 #@! TF.SameCoordinates,Original*
G04 #@! TF.FileFunction,Copper,L2,Bot*
G04 #@! TF.FilePolarity,Positive*
%FSLAX46Y46*%
G04 Gerber Fmt 4.6, Leading zero omitted, Abs format (unit mm)*
G04 Created by KiCad (PCBNEW (5.1.0-1419-g57928c41b)) date 2019-08-03 20:03:29*
%MOMM*%
%LPD*%
G04 APERTURE LIST*
%ADD10R,0.800000X0.900000*%
%ADD11R,0.450000X0.700000*%
%ADD12O,1.700000X1.700000*%
%ADD13R,1.700000X1.700000*%
%ADD14O,1.000000X1.000000*%
%ADD15R,1.000000X1.000000*%
%ADD16C,0.100000*%
%ADD17C,0.950000*%
%ADD18C,0.609600*%
%ADD19C,0.254000*%
G04 APERTURE END LIST*
D10*
X128778000Y-88884000D03*
X129728000Y-86884000D03*
X127828000Y-86884000D03*
D11*
X132080000Y-88884000D03*
X132730000Y-86884000D03*
X131430000Y-86884000D03*
D12*
X136906000Y-97536000D03*
X136906000Y-94996000D03*
X136906000Y-92456000D03*
X136906000Y-89916000D03*
X136906000Y-87376000D03*
X136906000Y-84836000D03*
D13*
X136906000Y-82296000D03*
D14*
X131826000Y-98044000D03*
X130556000Y-98044000D03*
D15*
X129286000Y-98044000D03*
D16*
G36*
X129868387Y-91328079D02*
G01*
X129945438Y-91379562D01*
X129996921Y-91456613D01*
X130015000Y-91547500D01*
X130015000Y-92122500D01*
X129996921Y-92213387D01*
X129945438Y-92290438D01*
X129868387Y-92341921D01*
X129777500Y-92360000D01*
X129302500Y-92360000D01*
X129211613Y-92341921D01*
X129134562Y-92290438D01*
X129083079Y-92213387D01*
X129065000Y-92122500D01*
X129065000Y-91547500D01*
X129083079Y-91456613D01*
X129134562Y-91379562D01*
X129211613Y-91328079D01*
X129302500Y-91310000D01*
X129777500Y-91310000D01*
X129868387Y-91328079D01*
X129868387Y-91328079D01*
G37*
D17*
X129540000Y-91835000D03*
D16*
G36*
X129868387Y-93078079D02*
G01*
X129945438Y-93129562D01*
X129996921Y-93206613D01*
X130015000Y-93297500D01*
X130015000Y-93872500D01*
X129996921Y-93963387D01*
X129945438Y-94040438D01*
X129868387Y-94091921D01*
X129777500Y-94110000D01*
X129302500Y-94110000D01*
X129211613Y-94091921D01*
X129134562Y-94040438D01*
X129083079Y-93963387D01*
X129065000Y-93872500D01*
X129065000Y-93297500D01*
X129083079Y-93206613D01*
X129134562Y-93129562D01*
X129211613Y-93078079D01*
X129302500Y-93060000D01*
X129777500Y-93060000D01*
X129868387Y-93078079D01*
X129868387Y-93078079D01*
G37*
D17*
X129540000Y-93585000D03*
D16*
G36*
X134694387Y-97650079D02*
G01*
X134771438Y-97701562D01*
X134822921Y-97778613D01*
X134841000Y-97869500D01*
X134841000Y-98444500D01*
X134822921Y-98535387D01*
X134771438Y-98612438D01*
X134694387Y-98663921D01*
X134603500Y-98682000D01*
X134128500Y-98682000D01*
X134037613Y-98663921D01*
X133960562Y-98612438D01*
X133909079Y-98535387D01*
X133891000Y-98444500D01*
X133891000Y-97869500D01*
X133909079Y-97778613D01*
X133960562Y-97701562D01*
X134037613Y-97650079D01*
X134128500Y-97632000D01*
X134603500Y-97632000D01*
X134694387Y-97650079D01*
X134694387Y-97650079D01*
G37*
D17*
X134366000Y-98157000D03*
D16*
G36*
X134694387Y-95900079D02*
G01*
X134771438Y-95951562D01*
X134822921Y-96028613D01*
X134841000Y-96119500D01*
X134841000Y-96694500D01*
X134822921Y-96785387D01*
X134771438Y-96862438D01*
X134694387Y-96913921D01*
X134603500Y-96932000D01*
X134128500Y-96932000D01*
X134037613Y-96913921D01*
X133960562Y-96862438D01*
X133909079Y-96785387D01*
X133891000Y-96694500D01*
X133891000Y-96119500D01*
X133909079Y-96028613D01*
X133960562Y-95951562D01*
X134037613Y-95900079D01*
X134128500Y-95882000D01*
X134603500Y-95882000D01*
X134694387Y-95900079D01*
X134694387Y-95900079D01*
G37*
D17*
X134366000Y-96407000D03*
D14*
X127762000Y-84074000D03*
X127762000Y-82804000D03*
D15*
X127762000Y-81534000D03*
D16*
G36*
X134694387Y-91328079D02*
G01*
X134771438Y-91379562D01*
X134822921Y-91456613D01*
X134841000Y-91547500D01*
X134841000Y-92122500D01*
X134822921Y-92213387D01*
X134771438Y-92290438D01*
X134694387Y-92341921D01*
X134603500Y-92360000D01*
X134128500Y-92360000D01*
X134037613Y-92341921D01*
X133960562Y-92290438D01*
X133909079Y-92213387D01*
X133891000Y-92122500D01*
X133891000Y-91547500D01*
X133909079Y-91456613D01*
X133960562Y-91379562D01*
X134037613Y-91328079D01*
X134128500Y-91310000D01*
X134603500Y-91310000D01*
X134694387Y-91328079D01*
X134694387Y-91328079D01*
G37*
D17*
X134366000Y-91835000D03*
D16*
G36*
X134694387Y-93078079D02*
G01*
X134771438Y-93129562D01*
X134822921Y-93206613D01*
X134841000Y-93297500D01*
X134841000Y-93872500D01*
X134822921Y-93963387D01*
X134771438Y-94040438D01*
X134694387Y-94091921D01*
X134603500Y-94110000D01*
X134128500Y-94110000D01*
X134037613Y-94091921D01*
X133960562Y-94040438D01*
X133909079Y-93963387D01*
X133891000Y-93872500D01*
X133891000Y-93297500D01*
X133909079Y-93206613D01*
X133960562Y-93129562D01*
X134037613Y-93078079D01*
X134128500Y-93060000D01*
X134603500Y-93060000D01*
X134694387Y-93078079D01*
X134694387Y-93078079D01*
G37*
D17*
X134366000Y-93585000D03*
D16*
G36*
X132408387Y-84696079D02*
G01*
X132485438Y-84747562D01*
X132536921Y-84824613D01*
X132555000Y-84915500D01*
X132555000Y-85490500D01*
X132536921Y-85581387D01*
X132485438Y-85658438D01*
X132408387Y-85709921D01*
X132317500Y-85728000D01*
X131842500Y-85728000D01*
X131751613Y-85709921D01*
X131674562Y-85658438D01*
X131623079Y-85581387D01*
X131605000Y-85490500D01*
X131605000Y-84915500D01*
X131623079Y-84824613D01*
X131674562Y-84747562D01*
X131751613Y-84696079D01*
X131842500Y-84678000D01*
X132317500Y-84678000D01*
X132408387Y-84696079D01*
X132408387Y-84696079D01*
G37*
D17*
X132080000Y-85203000D03*
D16*
G36*
X132408387Y-82946079D02*
G01*
X132485438Y-82997562D01*
X132536921Y-83074613D01*
X132555000Y-83165500D01*
X132555000Y-83740500D01*
X132536921Y-83831387D01*
X132485438Y-83908438D01*
X132408387Y-83959921D01*
X132317500Y-83978000D01*
X131842500Y-83978000D01*
X131751613Y-83959921D01*
X131674562Y-83908438D01*
X131623079Y-83831387D01*
X131605000Y-83740500D01*
X131605000Y-83165500D01*
X131623079Y-83074613D01*
X131674562Y-82997562D01*
X131751613Y-82946079D01*
X131842500Y-82928000D01*
X132317500Y-82928000D01*
X132408387Y-82946079D01*
X132408387Y-82946079D01*
G37*
D17*
X132080000Y-83453000D03*
D12*
X124206000Y-97536000D03*
X124206000Y-94996000D03*
X124206000Y-92456000D03*
X124206000Y-89916000D03*
X124206000Y-87376000D03*
X124206000Y-84836000D03*
D13*
X124206000Y-82296000D03*
D16*
G36*
X132408387Y-93078079D02*
G01*
X132485438Y-93129562D01*
X132536921Y-93206613D01*
X132555000Y-93297500D01*
X132555000Y-93872500D01*
X132536921Y-93963387D01*
X132485438Y-94040438D01*
X132408387Y-94091921D01*
X132317500Y-94110000D01*
X131842500Y-94110000D01*
X131751613Y-94091921D01*
X131674562Y-94040438D01*
X131623079Y-93963387D01*
X131605000Y-93872500D01*
X131605000Y-93297500D01*
X131623079Y-93206613D01*
X131674562Y-93129562D01*
X131751613Y-93078079D01*
X131842500Y-93060000D01*
X132317500Y-93060000D01*
X132408387Y-93078079D01*
X132408387Y-93078079D01*
G37*
D17*
X132080000Y-93585000D03*
D16*
G36*
X132408387Y-91328079D02*
G01*
X132485438Y-91379562D01*
X132536921Y-91456613D01*
X132555000Y-91547500D01*
X132555000Y-92122500D01*
X132536921Y-92213387D01*
X132485438Y-92290438D01*
X132408387Y-92341921D01*
X132317500Y-92360000D01*
X131842500Y-92360000D01*
X131751613Y-92341921D01*
X131674562Y-92290438D01*
X131623079Y-92213387D01*
X131605000Y-92122500D01*
X131605000Y-91547500D01*
X131623079Y-91456613D01*
X131674562Y-91379562D01*
X131751613Y-91328079D01*
X131842500Y-91310000D01*
X132317500Y-91310000D01*
X132408387Y-91328079D01*
X132408387Y-91328079D01*
G37*
D17*
X132080000Y-91835000D03*
D16*
G36*
X134694387Y-86502079D02*
G01*
X134771438Y-86553562D01*
X134822921Y-86630613D01*
X134841000Y-86721500D01*
X134841000Y-87296500D01*
X134822921Y-87387387D01*
X134771438Y-87464438D01*
X134694387Y-87515921D01*
X134603500Y-87534000D01*
X134128500Y-87534000D01*
X134037613Y-87515921D01*
X133960562Y-87464438D01*
X133909079Y-87387387D01*
X133891000Y-87296500D01*
X133891000Y-86721500D01*
X133909079Y-86630613D01*
X133960562Y-86553562D01*
X134037613Y-86502079D01*
X134128500Y-86484000D01*
X134603500Y-86484000D01*
X134694387Y-86502079D01*
X134694387Y-86502079D01*
G37*
D17*
X134366000Y-87009000D03*
D16*
G36*
X134694387Y-88252079D02*
G01*
X134771438Y-88303562D01*
X134822921Y-88380613D01*
X134841000Y-88471500D01*
X134841000Y-89046500D01*
X134822921Y-89137387D01*
X134771438Y-89214438D01*
X134694387Y-89265921D01*
X134603500Y-89284000D01*
X134128500Y-89284000D01*
X134037613Y-89265921D01*
X133960562Y-89214438D01*
X133909079Y-89137387D01*
X133891000Y-89046500D01*
X133891000Y-88471500D01*
X133909079Y-88380613D01*
X133960562Y-88303562D01*
X134037613Y-88252079D01*
X134128500Y-88234000D01*
X134603500Y-88234000D01*
X134694387Y-88252079D01*
X134694387Y-88252079D01*
G37*
D17*
X134366000Y-88759000D03*
D16*
G36*
X129868387Y-84696079D02*
G01*
X129945438Y-84747562D01*
X129996921Y-84824613D01*
X130015000Y-84915500D01*
X130015000Y-85490500D01*
X129996921Y-85581387D01*
X129945438Y-85658438D01*
X129868387Y-85709921D01*
X129777500Y-85728000D01*
X129302500Y-85728000D01*
X129211613Y-85709921D01*
X129134562Y-85658438D01*
X129083079Y-85581387D01*
X129065000Y-85490500D01*
X129065000Y-84915500D01*
X129083079Y-84824613D01*
X129134562Y-84747562D01*
X129211613Y-84696079D01*
X129302500Y-84678000D01*
X129777500Y-84678000D01*
X129868387Y-84696079D01*
X129868387Y-84696079D01*
G37*
D17*
X129540000Y-85203000D03*
D16*
G36*
X129868387Y-82946079D02*
G01*
X129945438Y-82997562D01*
X129996921Y-83074613D01*
X130015000Y-83165500D01*
X130015000Y-83740500D01*
X129996921Y-83831387D01*
X129945438Y-83908438D01*
X129868387Y-83959921D01*
X129777500Y-83978000D01*
X129302500Y-83978000D01*
X129211613Y-83959921D01*
X129134562Y-83908438D01*
X129083079Y-83831387D01*
X129065000Y-83740500D01*
X129065000Y-83165500D01*
X129083079Y-83074613D01*
X129134562Y-82997562D01*
X129211613Y-82946079D01*
X129302500Y-82928000D01*
X129777500Y-82928000D01*
X129868387Y-82946079D01*
X129868387Y-82946079D01*
G37*
D17*
X129540000Y-83453000D03*
D18*
X131318000Y-82550000D03*
X127000000Y-96266000D03*
X133604000Y-81788000D03*
X131318000Y-90678000D03*
X130810000Y-92964000D03*
D19*
X132749000Y-86884000D02*
X132749000Y-86280000D01*
X132749000Y-86280000D02*
X133096000Y-85933000D01*
X133096000Y-85933000D02*
X133096000Y-82804000D01*
X133096000Y-82804000D02*
X131826000Y-81534000D01*
X131826000Y-81534000D02*
X127762000Y-81534000D01*
X132080000Y-83312000D02*
X131318000Y-82550000D01*
X127000000Y-96266000D02*
X127000000Y-95250000D01*
X127000000Y-95250000D02*
X124206000Y-92456000D01*
X131826000Y-98044000D02*
X133096000Y-96774000D01*
X133096000Y-96774000D02*
X133096000Y-93105000D01*
X133096000Y-93105000D02*
X134366000Y-91835000D01*
X134366000Y-91835000D02*
X132080000Y-91835000D01*
X134366000Y-88759000D02*
X134366000Y-91835000D01*
X132099000Y-88884000D02*
X134241000Y-88884000D01*
X128778000Y-88884000D02*
X129574000Y-88884000D01*
X129574000Y-88884000D02*
X131449000Y-87009000D01*
X127828000Y-86884000D02*
X127828000Y-84140000D01*
X129540000Y-93585000D02*
X129540000Y-97790000D01*
X127762000Y-82804000D02*
X128891000Y-82804000D01*
X128891000Y-82804000D02*
X129540000Y-83453000D01*
X135495000Y-97536000D02*
X136906000Y-97536000D01*
X134366000Y-96407000D02*
X135495000Y-97536000D01*
X135777000Y-94996000D02*
X136906000Y-94996000D01*
X134366000Y-93585000D02*
X135777000Y-94996000D01*
X135636000Y-83820000D02*
X133908799Y-82092799D01*
X136906000Y-92456000D02*
X135636000Y-91186000D01*
X135636000Y-91186000D02*
X135636000Y-83820000D01*
X133908799Y-82092799D02*
X133604000Y-81788000D01*
X131013201Y-90982799D02*
X131318000Y-90678000D01*
X130161000Y-91835000D02*
X131013201Y-90982799D01*
X129540000Y-91835000D02*
X130161000Y-91835000D01*
X132080000Y-91835000D02*
X130951000Y-92964000D01*
X130951000Y-92964000D02*
X130810000Y-92964000D01*
X131939000Y-98157000D02*
X131826000Y-98044000D01*
X134366000Y-98157000D02*
X131939000Y-98157000D01*
G36*
X123062000Y-92511407D02*
G01*
X123073137Y-92511407D01*
X123107417Y-92738068D01*
X123186572Y-92953208D01*
X123307372Y-93148037D01*
X123464879Y-93314597D01*
X123652661Y-93446083D01*
X123866114Y-93538452D01*
X124162916Y-93584400D01*
X124263272Y-93584400D01*
X124434066Y-93567052D01*
X124652817Y-93498499D01*
X124667204Y-93490524D01*
X126594601Y-95417922D01*
X126594600Y-95840486D01*
X126565392Y-95862139D01*
X126449143Y-96045673D01*
X126406759Y-96258752D01*
X126443924Y-96472802D01*
X126555655Y-96659123D01*
X126726970Y-96792728D01*
X126934896Y-96855703D01*
X127151553Y-96839603D01*
X127347886Y-96746586D01*
X127497572Y-96589126D01*
X127580818Y-96387653D01*
X127583617Y-96158573D01*
X127505317Y-95955126D01*
X127405400Y-95844739D01*
X127405400Y-95319135D01*
X127413148Y-95297072D01*
X127405400Y-95227448D01*
X127405400Y-95204313D01*
X127400374Y-95182280D01*
X127392686Y-95113194D01*
X127380002Y-95092974D01*
X127374688Y-95069676D01*
X127330982Y-95014828D01*
X127318918Y-94995595D01*
X127302859Y-94979536D01*
X127259423Y-94925027D01*
X127238030Y-94914708D01*
X125237948Y-92914627D01*
X125269081Y-92851356D01*
X125326865Y-92629519D01*
X125338863Y-92400593D01*
X125304583Y-92173932D01*
X125225428Y-91958792D01*
X125104628Y-91763963D01*
X124947121Y-91597403D01*
X124759339Y-91465917D01*
X124545886Y-91373548D01*
X124249084Y-91327600D01*
X124148728Y-91327600D01*
X123977934Y-91344948D01*
X123759184Y-91413501D01*
X123558687Y-91524639D01*
X123384632Y-91673822D01*
X123244129Y-91854957D01*
X123142919Y-92060644D01*
X123085135Y-92282481D01*
X123073137Y-92511407D01*
X123062000Y-92511407D01*
X123062000Y-89971407D01*
X123073137Y-89971407D01*
X123107417Y-90198068D01*
X123186572Y-90413208D01*
X123307372Y-90608037D01*
X123464879Y-90774597D01*
X123652661Y-90906083D01*
X123866114Y-90998452D01*
X124162916Y-91044400D01*
X124263272Y-91044400D01*
X124434066Y-91027052D01*
X124652816Y-90958499D01*
X124853313Y-90847361D01*
X125027368Y-90698178D01*
X125167871Y-90517043D01*
X125269081Y-90311356D01*
X125326865Y-90089519D01*
X125338863Y-89860593D01*
X125304583Y-89633932D01*
X125225428Y-89418792D01*
X125104628Y-89223963D01*
X124947121Y-89057403D01*
X124759339Y-88925917D01*
X124545886Y-88833548D01*
X124249084Y-88787600D01*
X124148728Y-88787600D01*
X123977934Y-88804948D01*
X123759184Y-88873501D01*
X123558687Y-88984639D01*
X123384632Y-89133822D01*
X123244129Y-89314957D01*
X123142919Y-89520644D01*
X123085135Y-89742481D01*
X123073137Y-89971407D01*
X123062000Y-89971407D01*
X123062000Y-87431407D01*
X123073137Y-87431407D01*
X123107417Y-87658068D01*
X123186572Y-87873208D01*
X123307372Y-88068037D01*
X123464879Y-88234597D01*
X123652661Y-88366083D01*
X123866114Y-88458452D01*
X124162916Y-88504400D01*
X124263272Y-88504400D01*
X124434066Y-88487052D01*
X124642952Y-88421590D01*
X128096614Y-88421590D01*
X128096614Y-89346410D01*
X128115753Y-89442628D01*
X128177285Y-89534715D01*
X128269372Y-89596247D01*
X128365590Y-89615386D01*
X129190410Y-89615386D01*
X129286628Y-89596247D01*
X129378715Y-89534715D01*
X129440247Y-89442628D01*
X129459386Y-89346410D01*
X129459386Y-89289400D01*
X129504865Y-89289400D01*
X129526928Y-89297148D01*
X129596552Y-89289400D01*
X129619687Y-89289400D01*
X129641720Y-89284374D01*
X129710808Y-89276686D01*
X129731028Y-89264001D01*
X129754323Y-89258688D01*
X129809180Y-89214976D01*
X129828406Y-89202915D01*
X129844450Y-89186870D01*
X129898973Y-89143423D01*
X129909293Y-89122028D01*
X131515937Y-87515386D01*
X131667410Y-87515386D01*
X131763628Y-87496247D01*
X131855715Y-87434715D01*
X131917247Y-87342628D01*
X131936386Y-87246410D01*
X131936386Y-86521590D01*
X131917247Y-86425372D01*
X131855715Y-86333285D01*
X131763628Y-86271753D01*
X131667410Y-86252614D01*
X131192590Y-86252614D01*
X131096372Y-86271753D01*
X131004285Y-86333285D01*
X130942753Y-86425372D01*
X130923614Y-86521590D01*
X130923614Y-86961065D01*
X129459386Y-88425294D01*
X129459386Y-88421590D01*
X129440247Y-88325372D01*
X129378715Y-88233285D01*
X129286628Y-88171753D01*
X129190410Y-88152614D01*
X128365590Y-88152614D01*
X128269372Y-88171753D01*
X128177285Y-88233285D01*
X128115753Y-88325372D01*
X128096614Y-88421590D01*
X124642952Y-88421590D01*
X124652816Y-88418499D01*
X124853313Y-88307361D01*
X125027368Y-88158178D01*
X125167871Y-87977043D01*
X125269081Y-87771356D01*
X125326865Y-87549519D01*
X125338863Y-87320593D01*
X125304583Y-87093932D01*
X125225428Y-86878792D01*
X125104628Y-86683963D01*
X124947121Y-86517403D01*
X124759339Y-86385917D01*
X124545886Y-86293548D01*
X124249084Y-86247600D01*
X124148728Y-86247600D01*
X123977934Y-86264948D01*
X123759184Y-86333501D01*
X123558687Y-86444639D01*
X123384632Y-86593822D01*
X123244129Y-86774957D01*
X123142919Y-86980644D01*
X123085135Y-87202481D01*
X123073137Y-87431407D01*
X123062000Y-87431407D01*
X123062000Y-84891407D01*
X123073137Y-84891407D01*
X123107417Y-85118068D01*
X123186572Y-85333208D01*
X123307372Y-85528037D01*
X123464879Y-85694597D01*
X123652661Y-85826083D01*
X123866114Y-85918452D01*
X124162916Y-85964400D01*
X124263272Y-85964400D01*
X124434066Y-85947052D01*
X124652816Y-85878499D01*
X124853313Y-85767361D01*
X125027368Y-85618178D01*
X125167871Y-85437043D01*
X125269081Y-85231356D01*
X125326865Y-85009519D01*
X125338863Y-84780593D01*
X125304583Y-84553932D01*
X125225428Y-84338792D01*
X125104628Y-84143963D01*
X124991881Y-84024735D01*
X126978962Y-84024735D01*
X126991311Y-84221016D01*
X127052085Y-84408061D01*
X127157466Y-84574114D01*
X127300831Y-84708743D01*
X127422601Y-84775687D01*
X127422600Y-86152614D01*
X127415590Y-86152614D01*
X127319372Y-86171753D01*
X127227285Y-86233285D01*
X127165753Y-86325372D01*
X127146614Y-86421590D01*
X127146614Y-87346410D01*
X127165753Y-87442628D01*
X127227285Y-87534715D01*
X127319372Y-87596247D01*
X127415590Y-87615386D01*
X128240410Y-87615386D01*
X128336628Y-87596247D01*
X128428715Y-87534715D01*
X128490247Y-87442628D01*
X128509386Y-87346410D01*
X128509386Y-86421590D01*
X128490247Y-86325372D01*
X128428715Y-86233285D01*
X128336628Y-86171753D01*
X128240410Y-86152614D01*
X128233400Y-86152614D01*
X128233400Y-84693663D01*
X128299087Y-84645939D01*
X128424448Y-84494403D01*
X128508186Y-84316451D01*
X128545038Y-84123265D01*
X128532689Y-83926984D01*
X128471915Y-83739939D01*
X128366534Y-83573886D01*
X128223169Y-83439257D01*
X128216774Y-83435742D01*
X128299086Y-83375939D01*
X128424448Y-83224402D01*
X128431507Y-83209400D01*
X128723080Y-83209400D01*
X128783614Y-83269934D01*
X128783614Y-83748257D01*
X128821186Y-83937142D01*
X128935209Y-84107791D01*
X129105858Y-84221814D01*
X129294743Y-84259386D01*
X129785257Y-84259386D01*
X129974142Y-84221814D01*
X130144791Y-84107791D01*
X130258814Y-83937142D01*
X130296386Y-83748257D01*
X130296386Y-83157743D01*
X130258814Y-82968858D01*
X130144791Y-82798209D01*
X129974142Y-82684186D01*
X129785257Y-82646614D01*
X129306934Y-82646614D01*
X129226550Y-82566230D01*
X129216426Y-82545146D01*
X129161700Y-82501380D01*
X129145356Y-82485035D01*
X129126230Y-82473014D01*
X129071935Y-82429593D01*
X129048662Y-82424262D01*
X129028433Y-82411549D01*
X128958753Y-82403670D01*
X128936615Y-82398600D01*
X128913907Y-82398600D01*
X128844650Y-82390769D01*
X128822227Y-82398600D01*
X128426642Y-82398600D01*
X128366534Y-82303886D01*
X128360537Y-82298254D01*
X128370628Y-82296247D01*
X128462715Y-82234715D01*
X128524247Y-82142628D01*
X128543386Y-82046410D01*
X128543386Y-81939400D01*
X131658079Y-81939400D01*
X132375232Y-82656555D01*
X132325257Y-82646614D01*
X131987935Y-82646614D01*
X131900196Y-82558875D01*
X131901617Y-82442573D01*
X131823317Y-82239126D01*
X131677525Y-82078057D01*
X131483521Y-81980271D01*
X131267323Y-81958883D01*
X131057920Y-82016759D01*
X130883392Y-82146138D01*
X130767143Y-82329673D01*
X130724759Y-82542752D01*
X130761924Y-82756802D01*
X130873655Y-82943123D01*
X131044970Y-83076728D01*
X131252896Y-83139702D01*
X131328317Y-83134098D01*
X131323614Y-83157743D01*
X131323614Y-83748257D01*
X131361186Y-83937142D01*
X131475209Y-84107791D01*
X131645858Y-84221814D01*
X131834743Y-84259386D01*
X132325257Y-84259386D01*
X132514142Y-84221814D01*
X132684791Y-84107791D01*
X132690601Y-84099096D01*
X132690600Y-85765078D01*
X132511228Y-85944451D01*
X132490147Y-85954574D01*
X132446385Y-86009295D01*
X132430033Y-86025646D01*
X132418013Y-86044773D01*
X132374593Y-86099065D01*
X132369263Y-86122336D01*
X132356549Y-86142565D01*
X132348670Y-86212253D01*
X132343601Y-86234384D01*
X132343601Y-86257084D01*
X132337494Y-86311095D01*
X132304285Y-86333285D01*
X132242753Y-86425372D01*
X132223614Y-86521590D01*
X132223614Y-87246410D01*
X132242753Y-87342628D01*
X132304285Y-87434715D01*
X132396372Y-87496247D01*
X132492590Y-87515386D01*
X132967410Y-87515386D01*
X133063628Y-87496247D01*
X133155715Y-87434715D01*
X133217247Y-87342628D01*
X133236386Y-87246410D01*
X133236386Y-86521590D01*
X133217247Y-86425372D01*
X133201106Y-86401216D01*
X133333773Y-86268549D01*
X133354854Y-86258426D01*
X133398616Y-86203705D01*
X133414964Y-86187358D01*
X133426988Y-86168230D01*
X133470409Y-86113932D01*
X133475738Y-86090664D01*
X133488451Y-86070437D01*
X133496329Y-86000756D01*
X133501400Y-85978616D01*
X133501400Y-85955906D01*
X133509230Y-85886650D01*
X133501400Y-85864228D01*
X133501400Y-82873135D01*
X133509148Y-82851072D01*
X133501400Y-82781447D01*
X133501400Y-82758313D01*
X133496374Y-82736280D01*
X133488686Y-82667191D01*
X133476002Y-82646971D01*
X133470688Y-82623676D01*
X133426980Y-82568826D01*
X133414915Y-82549593D01*
X133398863Y-82533541D01*
X133355423Y-82479027D01*
X133334028Y-82468707D01*
X132646073Y-81780752D01*
X133010759Y-81780752D01*
X133047924Y-81994802D01*
X133159655Y-82181123D01*
X133330970Y-82314728D01*
X133538896Y-82377702D01*
X133614745Y-82372066D01*
X133653232Y-82410554D01*
X133653238Y-82410558D01*
X135230601Y-83987922D01*
X135230600Y-91116865D01*
X135222852Y-91138928D01*
X135230600Y-91208552D01*
X135230600Y-91231686D01*
X135235627Y-91253721D01*
X135243314Y-91322808D01*
X135255999Y-91343028D01*
X135261312Y-91366322D01*
X135305017Y-91421170D01*
X135317085Y-91440406D01*
X135333130Y-91456451D01*
X135376576Y-91510973D01*
X135397972Y-91521293D01*
X135874052Y-91997373D01*
X135842919Y-92060644D01*
X135785135Y-92282481D01*
X135773137Y-92511407D01*
X135807417Y-92738068D01*
X135886572Y-92953208D01*
X136007372Y-93148037D01*
X136164879Y-93314597D01*
X136352661Y-93446083D01*
X136566114Y-93538452D01*
X136862916Y-93584400D01*
X136963272Y-93584400D01*
X137134066Y-93567052D01*
X137352816Y-93498499D01*
X137553313Y-93387361D01*
X137727368Y-93238178D01*
X137867871Y-93057043D01*
X137969081Y-92851356D01*
X138026865Y-92629519D01*
X138038863Y-92400593D01*
X138004583Y-92173932D01*
X137925428Y-91958792D01*
X137804628Y-91763963D01*
X137647121Y-91597403D01*
X137459339Y-91465917D01*
X137245886Y-91373548D01*
X136949084Y-91327600D01*
X136848728Y-91327600D01*
X136677934Y-91344948D01*
X136459183Y-91413501D01*
X136444796Y-91421476D01*
X136041400Y-91018080D01*
X136041400Y-90644021D01*
X136164879Y-90774597D01*
X136352661Y-90906083D01*
X136566114Y-90998452D01*
X136862916Y-91044400D01*
X136963272Y-91044400D01*
X137134066Y-91027052D01*
X137352816Y-90958499D01*
X137553313Y-90847361D01*
X137727368Y-90698178D01*
X137867871Y-90517043D01*
X137969081Y-90311356D01*
X138026865Y-90089519D01*
X138038863Y-89860593D01*
X138004583Y-89633932D01*
X137925428Y-89418792D01*
X137804628Y-89223963D01*
X137647121Y-89057403D01*
X137459339Y-88925917D01*
X137245886Y-88833548D01*
X136949084Y-88787600D01*
X136848728Y-88787600D01*
X136677934Y-88804948D01*
X136459184Y-88873501D01*
X136258687Y-88984639D01*
X136084632Y-89133822D01*
X136041400Y-89189556D01*
X136041400Y-88104021D01*
X136164879Y-88234597D01*
X136352661Y-88366083D01*
X136566114Y-88458452D01*
X136862916Y-88504400D01*
X136963272Y-88504400D01*
X137134066Y-88487052D01*
X137352816Y-88418499D01*
X137553313Y-88307361D01*
X137727368Y-88158178D01*
X137867871Y-87977043D01*
X137969081Y-87771356D01*
X138026865Y-87549519D01*
X138038863Y-87320593D01*
X138004583Y-87093932D01*
X137925428Y-86878792D01*
X137804628Y-86683963D01*
X137647121Y-86517403D01*
X137459339Y-86385917D01*
X137245886Y-86293548D01*
X136949084Y-86247600D01*
X136848728Y-86247600D01*
X136677934Y-86264948D01*
X136459184Y-86333501D01*
X136258687Y-86444639D01*
X136084632Y-86593822D01*
X136041400Y-86649556D01*
X136041400Y-85564021D01*
X136164879Y-85694597D01*
X136352661Y-85826083D01*
X136566114Y-85918452D01*
X136862916Y-85964400D01*
X136963272Y-85964400D01*
X137134066Y-85947052D01*
X137352816Y-85878499D01*
X137553313Y-85767361D01*
X137727368Y-85618178D01*
X137867871Y-85437043D01*
X137969081Y-85231356D01*
X138026865Y-85009519D01*
X138038863Y-84780593D01*
X138004583Y-84553932D01*
X137925428Y-84338792D01*
X137804628Y-84143963D01*
X137647121Y-83977403D01*
X137459339Y-83845917D01*
X137245886Y-83753548D01*
X136949084Y-83707600D01*
X136848728Y-83707600D01*
X136677934Y-83724948D01*
X136459184Y-83793501D01*
X136258687Y-83904639D01*
X136084632Y-84053822D01*
X136041400Y-84109556D01*
X136041400Y-83889135D01*
X136049148Y-83867072D01*
X136041400Y-83797447D01*
X136041400Y-83774313D01*
X136036374Y-83752280D01*
X136028686Y-83683191D01*
X136016002Y-83662971D01*
X136010688Y-83639676D01*
X135966980Y-83584826D01*
X135954915Y-83565593D01*
X135938863Y-83549541D01*
X135895423Y-83495027D01*
X135874028Y-83484707D01*
X134228616Y-81839296D01*
X134228612Y-81839289D01*
X134186196Y-81796874D01*
X134187617Y-81680573D01*
X134109317Y-81477126D01*
X133963525Y-81316057D01*
X133769521Y-81218271D01*
X133553323Y-81196883D01*
X133343920Y-81254759D01*
X133169392Y-81384138D01*
X133053143Y-81567673D01*
X133010759Y-81780752D01*
X132646073Y-81780752D01*
X132161550Y-81296230D01*
X132151426Y-81275146D01*
X132096700Y-81231380D01*
X132080356Y-81215035D01*
X132061230Y-81203014D01*
X132006935Y-81159593D01*
X131983662Y-81154262D01*
X131963433Y-81141549D01*
X131893753Y-81133670D01*
X131871615Y-81128600D01*
X131848907Y-81128600D01*
X131779650Y-81120769D01*
X131757227Y-81128600D01*
X128543386Y-81128600D01*
X128543386Y-81021590D01*
X128524247Y-80925372D01*
X128462715Y-80833285D01*
X128370628Y-80771753D01*
X128274410Y-80752614D01*
X127249590Y-80752614D01*
X127153372Y-80771753D01*
X127061285Y-80833285D01*
X126999753Y-80925372D01*
X126980614Y-81021590D01*
X126980614Y-82046410D01*
X126999753Y-82142628D01*
X127061285Y-82234715D01*
X127153372Y-82296247D01*
X127169209Y-82299397D01*
X127099552Y-82383597D01*
X127015814Y-82561549D01*
X126978962Y-82754735D01*
X126991311Y-82951016D01*
X127052085Y-83138061D01*
X127157466Y-83304114D01*
X127300831Y-83438743D01*
X127307226Y-83442258D01*
X127224914Y-83502061D01*
X127099552Y-83653597D01*
X127015814Y-83831549D01*
X126978962Y-84024735D01*
X124991881Y-84024735D01*
X124947121Y-83977403D01*
X124759339Y-83845917D01*
X124545886Y-83753548D01*
X124249084Y-83707600D01*
X124148728Y-83707600D01*
X123977934Y-83724948D01*
X123759184Y-83793501D01*
X123558687Y-83904639D01*
X123384632Y-84053822D01*
X123244129Y-84234957D01*
X123142919Y-84440644D01*
X123085135Y-84662481D01*
X123073137Y-84891407D01*
X123062000Y-84891407D01*
X123062000Y-81433590D01*
X123074614Y-81433590D01*
X123074614Y-83158410D01*
X123093753Y-83254628D01*
X123155285Y-83346715D01*
X123247372Y-83408247D01*
X123343590Y-83427386D01*
X125068410Y-83427386D01*
X125164628Y-83408247D01*
X125256715Y-83346715D01*
X125318247Y-83254628D01*
X125337386Y-83158410D01*
X125337386Y-82754735D01*
X125337386Y-81433590D01*
X125318247Y-81337372D01*
X125256715Y-81245285D01*
X125164628Y-81183753D01*
X125068410Y-81164614D01*
X123343590Y-81164614D01*
X123247372Y-81183753D01*
X123155285Y-81245285D01*
X123093753Y-81337372D01*
X123074614Y-81433590D01*
X123062000Y-81433590D01*
X123062000Y-80644000D01*
X138050000Y-80644000D01*
X138050000Y-99188000D01*
X123062000Y-99188000D01*
X123062000Y-97591407D01*
X123073137Y-97591407D01*
X123107417Y-97818068D01*
X123186572Y-98033208D01*
X123307372Y-98228037D01*
X123464879Y-98394597D01*
X123652661Y-98526083D01*
X123866114Y-98618452D01*
X124162916Y-98664400D01*
X124263272Y-98664400D01*
X124434066Y-98647052D01*
X124652816Y-98578499D01*
X124853313Y-98467361D01*
X125027368Y-98318178D01*
X125167871Y-98137043D01*
X125269081Y-97931356D01*
X125326865Y-97709519D01*
X125336190Y-97531590D01*
X128504614Y-97531590D01*
X128504614Y-98556410D01*
X128523753Y-98652628D01*
X128585285Y-98744715D01*
X128677372Y-98806247D01*
X128773590Y-98825386D01*
X129798410Y-98825386D01*
X129894628Y-98806247D01*
X129986715Y-98744715D01*
X130048247Y-98652628D01*
X130067386Y-98556410D01*
X130067386Y-97531590D01*
X130048247Y-97435372D01*
X129986715Y-97343285D01*
X129945400Y-97315678D01*
X129945400Y-94359531D01*
X129974142Y-94353814D01*
X130144791Y-94239791D01*
X130258814Y-94069142D01*
X130296386Y-93880257D01*
X130296386Y-93289743D01*
X130282060Y-93217721D01*
X130365655Y-93357123D01*
X130536970Y-93490728D01*
X130744896Y-93553703D01*
X130961553Y-93537603D01*
X131157886Y-93444586D01*
X131307572Y-93287126D01*
X131382474Y-93105848D01*
X131846936Y-92641386D01*
X132325257Y-92641386D01*
X132514142Y-92603814D01*
X132684791Y-92489791D01*
X132798814Y-92319142D01*
X132814477Y-92240400D01*
X133387278Y-92240400D01*
X132858228Y-92769451D01*
X132837147Y-92779574D01*
X132793385Y-92834295D01*
X132777033Y-92850646D01*
X132765013Y-92869773D01*
X132721593Y-92924065D01*
X132716263Y-92947336D01*
X132703549Y-92967565D01*
X132695670Y-93037253D01*
X132690601Y-93059384D01*
X132690601Y-93082084D01*
X132682769Y-93151349D01*
X132690601Y-93173776D01*
X132690600Y-96606079D01*
X132004488Y-97292191D01*
X131865091Y-97265600D01*
X131777029Y-97265600D01*
X131630881Y-97284063D01*
X131448023Y-97356462D01*
X131288914Y-97472061D01*
X131163552Y-97623597D01*
X131079814Y-97801549D01*
X131042962Y-97994735D01*
X131055311Y-98191016D01*
X131116085Y-98378061D01*
X131221466Y-98544114D01*
X131364831Y-98678743D01*
X131540714Y-98775436D01*
X131786908Y-98822400D01*
X131874971Y-98822400D01*
X132021119Y-98803937D01*
X132203977Y-98731538D01*
X132363086Y-98615939D01*
X132407378Y-98562400D01*
X133631523Y-98562400D01*
X133647186Y-98641142D01*
X133761209Y-98811791D01*
X133931858Y-98925814D01*
X134120743Y-98963386D01*
X134611257Y-98963386D01*
X134800142Y-98925814D01*
X134970791Y-98811791D01*
X135084814Y-98641142D01*
X135122386Y-98452257D01*
X135122386Y-97861743D01*
X135091339Y-97705660D01*
X135159450Y-97773771D01*
X135169574Y-97794854D01*
X135224295Y-97838616D01*
X135240642Y-97854964D01*
X135259770Y-97866988D01*
X135314068Y-97910409D01*
X135337336Y-97915738D01*
X135357563Y-97928451D01*
X135427244Y-97936329D01*
X135449384Y-97941400D01*
X135472094Y-97941400D01*
X135541350Y-97949230D01*
X135563772Y-97941400D01*
X135852794Y-97941400D01*
X135886572Y-98033208D01*
X136007372Y-98228037D01*
X136164879Y-98394597D01*
X136352661Y-98526083D01*
X136566114Y-98618452D01*
X136862916Y-98664400D01*
X136963272Y-98664400D01*
X137134066Y-98647052D01*
X137352816Y-98578499D01*
X137553313Y-98467361D01*
X137727368Y-98318178D01*
X137867871Y-98137043D01*
X137969081Y-97931356D01*
X138026865Y-97709519D01*
X138038863Y-97480593D01*
X138004583Y-97253932D01*
X137925428Y-97038792D01*
X137804628Y-96843963D01*
X137647121Y-96677403D01*
X137459339Y-96545917D01*
X137245886Y-96453548D01*
X136949084Y-96407600D01*
X136848728Y-96407600D01*
X136677934Y-96424948D01*
X136459184Y-96493501D01*
X136258687Y-96604639D01*
X136084632Y-96753822D01*
X135944129Y-96934957D01*
X135847861Y-97130600D01*
X135662922Y-97130600D01*
X135122386Y-96590065D01*
X135122386Y-96111743D01*
X135084814Y-95922858D01*
X134970791Y-95752209D01*
X134800142Y-95638186D01*
X134611257Y-95600614D01*
X134120743Y-95600614D01*
X133931858Y-95638186D01*
X133761209Y-95752209D01*
X133647186Y-95922858D01*
X133609614Y-96111743D01*
X133609614Y-96702257D01*
X133647186Y-96891142D01*
X133761209Y-97061791D01*
X133931858Y-97175814D01*
X134120743Y-97213386D01*
X134599065Y-97213386D01*
X134767340Y-97381661D01*
X134611257Y-97350614D01*
X134120743Y-97350614D01*
X133931858Y-97388186D01*
X133761209Y-97502209D01*
X133647186Y-97672858D01*
X133631523Y-97751600D01*
X132691722Y-97751600D01*
X133333775Y-97109548D01*
X133354854Y-97099426D01*
X133398612Y-97044710D01*
X133414967Y-97028356D01*
X133426991Y-97009224D01*
X133470409Y-96954934D01*
X133475738Y-96931663D01*
X133488451Y-96911437D01*
X133496329Y-96841756D01*
X133501400Y-96819616D01*
X133501400Y-96796906D01*
X133509230Y-96727650D01*
X133501400Y-96705228D01*
X133501400Y-93272921D01*
X133640661Y-93133660D01*
X133609614Y-93289743D01*
X133609614Y-93880257D01*
X133647186Y-94069142D01*
X133761209Y-94239791D01*
X133931858Y-94353814D01*
X134120743Y-94391386D01*
X134599064Y-94391386D01*
X135441452Y-95233775D01*
X135451574Y-95254854D01*
X135506290Y-95298612D01*
X135522644Y-95314967D01*
X135541776Y-95326991D01*
X135596066Y-95370409D01*
X135619337Y-95375738D01*
X135639563Y-95388451D01*
X135709244Y-95396329D01*
X135731384Y-95401400D01*
X135754094Y-95401400D01*
X135823350Y-95409230D01*
X135845772Y-95401400D01*
X135852794Y-95401400D01*
X135886572Y-95493208D01*
X136007372Y-95688037D01*
X136164879Y-95854597D01*
X136352661Y-95986083D01*
X136566114Y-96078452D01*
X136862916Y-96124400D01*
X136963272Y-96124400D01*
X137134066Y-96107052D01*
X137352816Y-96038499D01*
X137553313Y-95927361D01*
X137727368Y-95778178D01*
X137867871Y-95597043D01*
X137969081Y-95391356D01*
X138026865Y-95169519D01*
X138038863Y-94940593D01*
X138004583Y-94713932D01*
X137925428Y-94498792D01*
X137804628Y-94303963D01*
X137647121Y-94137403D01*
X137459339Y-94005917D01*
X137245886Y-93913548D01*
X136949084Y-93867600D01*
X136848728Y-93867600D01*
X136677934Y-93884948D01*
X136459184Y-93953501D01*
X136258687Y-94064639D01*
X136084632Y-94213822D01*
X135944129Y-94394957D01*
X135879870Y-94525548D01*
X135122386Y-93768065D01*
X135122386Y-93289743D01*
X135084814Y-93100858D01*
X134970791Y-92930209D01*
X134800142Y-92816186D01*
X134611257Y-92778614D01*
X134120743Y-92778614D01*
X133964661Y-92809661D01*
X134132936Y-92641386D01*
X134611257Y-92641386D01*
X134800142Y-92603814D01*
X134970791Y-92489791D01*
X135084814Y-92319142D01*
X135122386Y-92130257D01*
X135122386Y-91539743D01*
X135084814Y-91350858D01*
X134970791Y-91180209D01*
X134800142Y-91066186D01*
X134771400Y-91060469D01*
X134771400Y-89533531D01*
X134800142Y-89527814D01*
X134970791Y-89413791D01*
X135084814Y-89243142D01*
X135122386Y-89054257D01*
X135122386Y-88463743D01*
X135084814Y-88274858D01*
X134970791Y-88104209D01*
X134800142Y-87990186D01*
X134611257Y-87952614D01*
X134120743Y-87952614D01*
X133931858Y-87990186D01*
X133761209Y-88104209D01*
X133647186Y-88274858D01*
X133609614Y-88463743D01*
X133609614Y-88478600D01*
X132577835Y-88478600D01*
X132567247Y-88425372D01*
X132505715Y-88333285D01*
X132413628Y-88271753D01*
X132317410Y-88252614D01*
X131842590Y-88252614D01*
X131746372Y-88271753D01*
X131654285Y-88333285D01*
X131592753Y-88425372D01*
X131573614Y-88521590D01*
X131573614Y-89246410D01*
X131592753Y-89342628D01*
X131654285Y-89434715D01*
X131746372Y-89496247D01*
X131842590Y-89515386D01*
X132317410Y-89515386D01*
X132413628Y-89496247D01*
X132505715Y-89434715D01*
X132567247Y-89342628D01*
X132577835Y-89289400D01*
X133678094Y-89289400D01*
X133761209Y-89413791D01*
X133931858Y-89527814D01*
X133960600Y-89533531D01*
X133960601Y-91060468D01*
X133931859Y-91066185D01*
X133761209Y-91180209D01*
X133647186Y-91350858D01*
X133631523Y-91429600D01*
X132814477Y-91429600D01*
X132798814Y-91350858D01*
X132684791Y-91180209D01*
X132514142Y-91066186D01*
X132325257Y-91028614D01*
X131834743Y-91028614D01*
X131778877Y-91039727D01*
X131815572Y-91001126D01*
X131898818Y-90799653D01*
X131901617Y-90570573D01*
X131823317Y-90367126D01*
X131677525Y-90206057D01*
X131483521Y-90108271D01*
X131267323Y-90086883D01*
X131057920Y-90144759D01*
X130883392Y-90274138D01*
X130767143Y-90457673D01*
X130724759Y-90670752D01*
X130728778Y-90693900D01*
X130183915Y-91238763D01*
X130144791Y-91180209D01*
X129974142Y-91066186D01*
X129785257Y-91028614D01*
X129294743Y-91028614D01*
X129105858Y-91066186D01*
X128935209Y-91180209D01*
X128821186Y-91350858D01*
X128783614Y-91539743D01*
X128783614Y-92130257D01*
X128821186Y-92319142D01*
X128935209Y-92489791D01*
X129105858Y-92603814D01*
X129294743Y-92641386D01*
X129785257Y-92641386D01*
X129974142Y-92603814D01*
X130144791Y-92489791D01*
X130258814Y-92319142D01*
X130276535Y-92230053D01*
X130297808Y-92227686D01*
X130318028Y-92215001D01*
X130341323Y-92209688D01*
X130396180Y-92165976D01*
X130415406Y-92153915D01*
X130431450Y-92137870D01*
X130485973Y-92094423D01*
X130496293Y-92073028D01*
X131305531Y-91263792D01*
X131425309Y-91254891D01*
X131361186Y-91350858D01*
X131323614Y-91539743D01*
X131323614Y-92018065D01*
X130949939Y-92391740D01*
X130759323Y-92372883D01*
X130549920Y-92430759D01*
X130375392Y-92560138D01*
X130259143Y-92743673D01*
X130216759Y-92956752D01*
X130235799Y-93066414D01*
X130144791Y-92930209D01*
X129974142Y-92816186D01*
X129785257Y-92778614D01*
X129294743Y-92778614D01*
X129105858Y-92816186D01*
X128935209Y-92930209D01*
X128821186Y-93100858D01*
X128783614Y-93289743D01*
X128783614Y-93880257D01*
X128821186Y-94069142D01*
X128935209Y-94239791D01*
X129105858Y-94353814D01*
X129134600Y-94359531D01*
X129134601Y-97262614D01*
X128773590Y-97262614D01*
X128677372Y-97281753D01*
X128585285Y-97343285D01*
X128523753Y-97435372D01*
X128504614Y-97531590D01*
X125336190Y-97531590D01*
X125338863Y-97480593D01*
X125304583Y-97253932D01*
X125225428Y-97038792D01*
X125104628Y-96843963D01*
X124947121Y-96677403D01*
X124759339Y-96545917D01*
X124545886Y-96453548D01*
X124249084Y-96407600D01*
X124148728Y-96407600D01*
X123977934Y-96424948D01*
X123759184Y-96493501D01*
X123558687Y-96604639D01*
X123384632Y-96753822D01*
X123244129Y-96934957D01*
X123142919Y-97140644D01*
X123085135Y-97362481D01*
X123073137Y-97591407D01*
X123062000Y-97591407D01*
X123062000Y-95051407D01*
X123073137Y-95051407D01*
X123107417Y-95278068D01*
X123186572Y-95493208D01*
X123307372Y-95688037D01*
X123464879Y-95854597D01*
X123652661Y-95986083D01*
X123866114Y-96078452D01*
X124162916Y-96124400D01*
X124263272Y-96124400D01*
X124434066Y-96107052D01*
X124652816Y-96038499D01*
X124853313Y-95927361D01*
X125027368Y-95778178D01*
X125167871Y-95597043D01*
X125269081Y-95391356D01*
X125326865Y-95169519D01*
X125338863Y-94940593D01*
X125304583Y-94713932D01*
X125225428Y-94498792D01*
X125104628Y-94303963D01*
X124947121Y-94137403D01*
X124759339Y-94005917D01*
X124545886Y-93913548D01*
X124249084Y-93867600D01*
X124148728Y-93867600D01*
X123977934Y-93884948D01*
X123759184Y-93953501D01*
X123558687Y-94064639D01*
X123384632Y-94213822D01*
X123244129Y-94394957D01*
X123142919Y-94600644D01*
X123085135Y-94822481D01*
X123073137Y-95051407D01*
X123062000Y-95051407D01*
X123062000Y-92511407D01*
X123062000Y-92511407D01*
G37*
X123062000Y-92511407D02*
X123073137Y-92511407D01*
X123107417Y-92738068D01*
X123186572Y-92953208D01*
X123307372Y-93148037D01*
X123464879Y-93314597D01*
X123652661Y-93446083D01*
X123866114Y-93538452D01*
X124162916Y-93584400D01*
X124263272Y-93584400D01*
X124434066Y-93567052D01*
X124652817Y-93498499D01*
X124667204Y-93490524D01*
X126594601Y-95417922D01*
X126594600Y-95840486D01*
X126565392Y-95862139D01*
X126449143Y-96045673D01*
X126406759Y-96258752D01*
X126443924Y-96472802D01*
X126555655Y-96659123D01*
X126726970Y-96792728D01*
X126934896Y-96855703D01*
X127151553Y-96839603D01*
X127347886Y-96746586D01*
X127497572Y-96589126D01*
X127580818Y-96387653D01*
X127583617Y-96158573D01*
X127505317Y-95955126D01*
X127405400Y-95844739D01*
X127405400Y-95319135D01*
X127413148Y-95297072D01*
X127405400Y-95227448D01*
X127405400Y-95204313D01*
X127400374Y-95182280D01*
X127392686Y-95113194D01*
X127380002Y-95092974D01*
X127374688Y-95069676D01*
X127330982Y-95014828D01*
X127318918Y-94995595D01*
X127302859Y-94979536D01*
X127259423Y-94925027D01*
X127238030Y-94914708D01*
X125237948Y-92914627D01*
X125269081Y-92851356D01*
X125326865Y-92629519D01*
X125338863Y-92400593D01*
X125304583Y-92173932D01*
X125225428Y-91958792D01*
X125104628Y-91763963D01*
X124947121Y-91597403D01*
X124759339Y-91465917D01*
X124545886Y-91373548D01*
X124249084Y-91327600D01*
X124148728Y-91327600D01*
X123977934Y-91344948D01*
X123759184Y-91413501D01*
X123558687Y-91524639D01*
X123384632Y-91673822D01*
X123244129Y-91854957D01*
X123142919Y-92060644D01*
X123085135Y-92282481D01*
X123073137Y-92511407D01*
X123062000Y-92511407D01*
X123062000Y-89971407D01*
X123073137Y-89971407D01*
X123107417Y-90198068D01*
X123186572Y-90413208D01*
X123307372Y-90608037D01*
X123464879Y-90774597D01*
X123652661Y-90906083D01*
X123866114Y-90998452D01*
X124162916Y-91044400D01*
X124263272Y-91044400D01*
X124434066Y-91027052D01*
X124652816Y-90958499D01*
X124853313Y-90847361D01*
X125027368Y-90698178D01*
X125167871Y-90517043D01*
X125269081Y-90311356D01*
X125326865Y-90089519D01*
X125338863Y-89860593D01*
X125304583Y-89633932D01*
X125225428Y-89418792D01*
X125104628Y-89223963D01*
X124947121Y-89057403D01*
X124759339Y-88925917D01*
X124545886Y-88833548D01*
X124249084Y-88787600D01*
X124148728Y-88787600D01*
X123977934Y-88804948D01*
X123759184Y-88873501D01*
X123558687Y-88984639D01*
X123384632Y-89133822D01*
X123244129Y-89314957D01*
X123142919Y-89520644D01*
X123085135Y-89742481D01*
X123073137Y-89971407D01*
X123062000Y-89971407D01*
X123062000Y-87431407D01*
X123073137Y-87431407D01*
X123107417Y-87658068D01*
X123186572Y-87873208D01*
X123307372Y-88068037D01*
X123464879Y-88234597D01*
X123652661Y-88366083D01*
X123866114Y-88458452D01*
X124162916Y-88504400D01*
X124263272Y-88504400D01*
X124434066Y-88487052D01*
X124642952Y-88421590D01*
X128096614Y-88421590D01*
X128096614Y-89346410D01*
X128115753Y-89442628D01*
X128177285Y-89534715D01*
X128269372Y-89596247D01*
X128365590Y-89615386D01*
X129190410Y-89615386D01*
X129286628Y-89596247D01*
X129378715Y-89534715D01*
X129440247Y-89442628D01*
X129459386Y-89346410D01*
X129459386Y-89289400D01*
X129504865Y-89289400D01*
X129526928Y-89297148D01*
X129596552Y-89289400D01*
X129619687Y-89289400D01*
X129641720Y-89284374D01*
X129710808Y-89276686D01*
X129731028Y-89264001D01*
X129754323Y-89258688D01*
X129809180Y-89214976D01*
X129828406Y-89202915D01*
X129844450Y-89186870D01*
X129898973Y-89143423D01*
X129909293Y-89122028D01*
X131515937Y-87515386D01*
X131667410Y-87515386D01*
X131763628Y-87496247D01*
X131855715Y-87434715D01*
X131917247Y-87342628D01*
X131936386Y-87246410D01*
X131936386Y-86521590D01*
X131917247Y-86425372D01*
X131855715Y-86333285D01*
X131763628Y-86271753D01*
X131667410Y-86252614D01*
X131192590Y-86252614D01*
X131096372Y-86271753D01*
X131004285Y-86333285D01*
X130942753Y-86425372D01*
X130923614Y-86521590D01*
X130923614Y-86961065D01*
X129459386Y-88425294D01*
X129459386Y-88421590D01*
X129440247Y-88325372D01*
X129378715Y-88233285D01*
X129286628Y-88171753D01*
X129190410Y-88152614D01*
X128365590Y-88152614D01*
X128269372Y-88171753D01*
X128177285Y-88233285D01*
X128115753Y-88325372D01*
X128096614Y-88421590D01*
X124642952Y-88421590D01*
X124652816Y-88418499D01*
X124853313Y-88307361D01*
X125027368Y-88158178D01*
X125167871Y-87977043D01*
X125269081Y-87771356D01*
X125326865Y-87549519D01*
X125338863Y-87320593D01*
X125304583Y-87093932D01*
X125225428Y-86878792D01*
X125104628Y-86683963D01*
X124947121Y-86517403D01*
X124759339Y-86385917D01*
X124545886Y-86293548D01*
X124249084Y-86247600D01*
X124148728Y-86247600D01*
X123977934Y-86264948D01*
X123759184Y-86333501D01*
X123558687Y-86444639D01*
X123384632Y-86593822D01*
X123244129Y-86774957D01*
X123142919Y-86980644D01*
X123085135Y-87202481D01*
X123073137Y-87431407D01*
X123062000Y-87431407D01*
X123062000Y-84891407D01*
X123073137Y-84891407D01*
X123107417Y-85118068D01*
X123186572Y-85333208D01*
X123307372Y-85528037D01*
X123464879Y-85694597D01*
X123652661Y-85826083D01*
X123866114Y-85918452D01*
X124162916Y-85964400D01*
X124263272Y-85964400D01*
X124434066Y-85947052D01*
X124652816Y-85878499D01*
X124853313Y-85767361D01*
X125027368Y-85618178D01*
X125167871Y-85437043D01*
X125269081Y-85231356D01*
X125326865Y-85009519D01*
X125338863Y-84780593D01*
X125304583Y-84553932D01*
X125225428Y-84338792D01*
X125104628Y-84143963D01*
X124991881Y-84024735D01*
X126978962Y-84024735D01*
X126991311Y-84221016D01*
X127052085Y-84408061D01*
X127157466Y-84574114D01*
X127300831Y-84708743D01*
X127422601Y-84775687D01*
X127422600Y-86152614D01*
X127415590Y-86152614D01*
X127319372Y-86171753D01*
X127227285Y-86233285D01*
X127165753Y-86325372D01*
X127146614Y-86421590D01*
X127146614Y-87346410D01*
X127165753Y-87442628D01*
X127227285Y-87534715D01*
X127319372Y-87596247D01*
X127415590Y-87615386D01*
X128240410Y-87615386D01*
X128336628Y-87596247D01*
X128428715Y-87534715D01*
X128490247Y-87442628D01*
X128509386Y-87346410D01*
X128509386Y-86421590D01*
X128490247Y-86325372D01*
X128428715Y-86233285D01*
X128336628Y-86171753D01*
X128240410Y-86152614D01*
X128233400Y-86152614D01*
X128233400Y-84693663D01*
X128299087Y-84645939D01*
X128424448Y-84494403D01*
X128508186Y-84316451D01*
X128545038Y-84123265D01*
X128532689Y-83926984D01*
X128471915Y-83739939D01*
X128366534Y-83573886D01*
X128223169Y-83439257D01*
X128216774Y-83435742D01*
X128299086Y-83375939D01*
X128424448Y-83224402D01*
X128431507Y-83209400D01*
X128723080Y-83209400D01*
X128783614Y-83269934D01*
X128783614Y-83748257D01*
X128821186Y-83937142D01*
X128935209Y-84107791D01*
X129105858Y-84221814D01*
X129294743Y-84259386D01*
X129785257Y-84259386D01*
X129974142Y-84221814D01*
X130144791Y-84107791D01*
X130258814Y-83937142D01*
X130296386Y-83748257D01*
X130296386Y-83157743D01*
X130258814Y-82968858D01*
X130144791Y-82798209D01*
X129974142Y-82684186D01*
X129785257Y-82646614D01*
X129306934Y-82646614D01*
X129226550Y-82566230D01*
X129216426Y-82545146D01*
X129161700Y-82501380D01*
X129145356Y-82485035D01*
X129126230Y-82473014D01*
X129071935Y-82429593D01*
X129048662Y-82424262D01*
X129028433Y-82411549D01*
X128958753Y-82403670D01*
X128936615Y-82398600D01*
X128913907Y-82398600D01*
X128844650Y-82390769D01*
X128822227Y-82398600D01*
X128426642Y-82398600D01*
X128366534Y-82303886D01*
X128360537Y-82298254D01*
X128370628Y-82296247D01*
X128462715Y-82234715D01*
X128524247Y-82142628D01*
X128543386Y-82046410D01*
X128543386Y-81939400D01*
X131658079Y-81939400D01*
X132375232Y-82656555D01*
X132325257Y-82646614D01*
X131987935Y-82646614D01*
X131900196Y-82558875D01*
X131901617Y-82442573D01*
X131823317Y-82239126D01*
X131677525Y-82078057D01*
X131483521Y-81980271D01*
X131267323Y-81958883D01*
X131057920Y-82016759D01*
X130883392Y-82146138D01*
X130767143Y-82329673D01*
X130724759Y-82542752D01*
X130761924Y-82756802D01*
X130873655Y-82943123D01*
X131044970Y-83076728D01*
X131252896Y-83139702D01*
X131328317Y-83134098D01*
X131323614Y-83157743D01*
X131323614Y-83748257D01*
X131361186Y-83937142D01*
X131475209Y-84107791D01*
X131645858Y-84221814D01*
X131834743Y-84259386D01*
X132325257Y-84259386D01*
X132514142Y-84221814D01*
X132684791Y-84107791D01*
X132690601Y-84099096D01*
X132690600Y-85765078D01*
X132511228Y-85944451D01*
X132490147Y-85954574D01*
X132446385Y-86009295D01*
X132430033Y-86025646D01*
X132418013Y-86044773D01*
X132374593Y-86099065D01*
X132369263Y-86122336D01*
X132356549Y-86142565D01*
X132348670Y-86212253D01*
X132343601Y-86234384D01*
X132343601Y-86257084D01*
X132337494Y-86311095D01*
X132304285Y-86333285D01*
X132242753Y-86425372D01*
X132223614Y-86521590D01*
X132223614Y-87246410D01*
X132242753Y-87342628D01*
X132304285Y-87434715D01*
X132396372Y-87496247D01*
X132492590Y-87515386D01*
X132967410Y-87515386D01*
X133063628Y-87496247D01*
X133155715Y-87434715D01*
X133217247Y-87342628D01*
X133236386Y-87246410D01*
X133236386Y-86521590D01*
X133217247Y-86425372D01*
X133201106Y-86401216D01*
X133333773Y-86268549D01*
X133354854Y-86258426D01*
X133398616Y-86203705D01*
X133414964Y-86187358D01*
X133426988Y-86168230D01*
X133470409Y-86113932D01*
X133475738Y-86090664D01*
X133488451Y-86070437D01*
X133496329Y-86000756D01*
X133501400Y-85978616D01*
X133501400Y-85955906D01*
X133509230Y-85886650D01*
X133501400Y-85864228D01*
X133501400Y-82873135D01*
X133509148Y-82851072D01*
X133501400Y-82781447D01*
X133501400Y-82758313D01*
X133496374Y-82736280D01*
X133488686Y-82667191D01*
X133476002Y-82646971D01*
X133470688Y-82623676D01*
X133426980Y-82568826D01*
X133414915Y-82549593D01*
X133398863Y-82533541D01*
X133355423Y-82479027D01*
X133334028Y-82468707D01*
X132646073Y-81780752D01*
X133010759Y-81780752D01*
X133047924Y-81994802D01*
X133159655Y-82181123D01*
X133330970Y-82314728D01*
X133538896Y-82377702D01*
X133614745Y-82372066D01*
X133653232Y-82410554D01*
X133653238Y-82410558D01*
X135230601Y-83987922D01*
X135230600Y-91116865D01*
X135222852Y-91138928D01*
X135230600Y-91208552D01*
X135230600Y-91231686D01*
X135235627Y-91253721D01*
X135243314Y-91322808D01*
X135255999Y-91343028D01*
X135261312Y-91366322D01*
X135305017Y-91421170D01*
X135317085Y-91440406D01*
X135333130Y-91456451D01*
X135376576Y-91510973D01*
X135397972Y-91521293D01*
X135874052Y-91997373D01*
X135842919Y-92060644D01*
X135785135Y-92282481D01*
X135773137Y-92511407D01*
X135807417Y-92738068D01*
X135886572Y-92953208D01*
X136007372Y-93148037D01*
X136164879Y-93314597D01*
X136352661Y-93446083D01*
X136566114Y-93538452D01*
X136862916Y-93584400D01*
X136963272Y-93584400D01*
X137134066Y-93567052D01*
X137352816Y-93498499D01*
X137553313Y-93387361D01*
X137727368Y-93238178D01*
X137867871Y-93057043D01*
X137969081Y-92851356D01*
X138026865Y-92629519D01*
X138038863Y-92400593D01*
X138004583Y-92173932D01*
X137925428Y-91958792D01*
X137804628Y-91763963D01*
X137647121Y-91597403D01*
X137459339Y-91465917D01*
X137245886Y-91373548D01*
X136949084Y-91327600D01*
X136848728Y-91327600D01*
X136677934Y-91344948D01*
X136459183Y-91413501D01*
X136444796Y-91421476D01*
X136041400Y-91018080D01*
X136041400Y-90644021D01*
X136164879Y-90774597D01*
X136352661Y-90906083D01*
X136566114Y-90998452D01*
X136862916Y-91044400D01*
X136963272Y-91044400D01*
X137134066Y-91027052D01*
X137352816Y-90958499D01*
X137553313Y-90847361D01*
X137727368Y-90698178D01*
X137867871Y-90517043D01*
X137969081Y-90311356D01*
X138026865Y-90089519D01*
X138038863Y-89860593D01*
X138004583Y-89633932D01*
X137925428Y-89418792D01*
X137804628Y-89223963D01*
X137647121Y-89057403D01*
X137459339Y-88925917D01*
X137245886Y-88833548D01*
X136949084Y-88787600D01*
X136848728Y-88787600D01*
X136677934Y-88804948D01*
X136459184Y-88873501D01*
X136258687Y-88984639D01*
X136084632Y-89133822D01*
X136041400Y-89189556D01*
X136041400Y-88104021D01*
X136164879Y-88234597D01*
X136352661Y-88366083D01*
X136566114Y-88458452D01*
X136862916Y-88504400D01*
X136963272Y-88504400D01*
X137134066Y-88487052D01*
X137352816Y-88418499D01*
X137553313Y-88307361D01*
X137727368Y-88158178D01*
X137867871Y-87977043D01*
X137969081Y-87771356D01*
X138026865Y-87549519D01*
X138038863Y-87320593D01*
X138004583Y-87093932D01*
X137925428Y-86878792D01*
X137804628Y-86683963D01*
X137647121Y-86517403D01*
X137459339Y-86385917D01*
X137245886Y-86293548D01*
X136949084Y-86247600D01*
X136848728Y-86247600D01*
X136677934Y-86264948D01*
X136459184Y-86333501D01*
X136258687Y-86444639D01*
X136084632Y-86593822D01*
X136041400Y-86649556D01*
X136041400Y-85564021D01*
X136164879Y-85694597D01*
X136352661Y-85826083D01*
X136566114Y-85918452D01*
X136862916Y-85964400D01*
X136963272Y-85964400D01*
X137134066Y-85947052D01*
X137352816Y-85878499D01*
X137553313Y-85767361D01*
X137727368Y-85618178D01*
X137867871Y-85437043D01*
X137969081Y-85231356D01*
X138026865Y-85009519D01*
X138038863Y-84780593D01*
X138004583Y-84553932D01*
X137925428Y-84338792D01*
X137804628Y-84143963D01*
X137647121Y-83977403D01*
X137459339Y-83845917D01*
X137245886Y-83753548D01*
X136949084Y-83707600D01*
X136848728Y-83707600D01*
X136677934Y-83724948D01*
X136459184Y-83793501D01*
X136258687Y-83904639D01*
X136084632Y-84053822D01*
X136041400Y-84109556D01*
X136041400Y-83889135D01*
X136049148Y-83867072D01*
X136041400Y-83797447D01*
X136041400Y-83774313D01*
X136036374Y-83752280D01*
X136028686Y-83683191D01*
X136016002Y-83662971D01*
X136010688Y-83639676D01*
X135966980Y-83584826D01*
X135954915Y-83565593D01*
X135938863Y-83549541D01*
X135895423Y-83495027D01*
X135874028Y-83484707D01*
X134228616Y-81839296D01*
X134228612Y-81839289D01*
X134186196Y-81796874D01*
X134187617Y-81680573D01*
X134109317Y-81477126D01*
X133963525Y-81316057D01*
X133769521Y-81218271D01*
X133553323Y-81196883D01*
X133343920Y-81254759D01*
X133169392Y-81384138D01*
X133053143Y-81567673D01*
X133010759Y-81780752D01*
X132646073Y-81780752D01*
X132161550Y-81296230D01*
X132151426Y-81275146D01*
X132096700Y-81231380D01*
X132080356Y-81215035D01*
X132061230Y-81203014D01*
X132006935Y-81159593D01*
X131983662Y-81154262D01*
X131963433Y-81141549D01*
X131893753Y-81133670D01*
X131871615Y-81128600D01*
X131848907Y-81128600D01*
X131779650Y-81120769D01*
X131757227Y-81128600D01*
X128543386Y-81128600D01*
X128543386Y-81021590D01*
X128524247Y-80925372D01*
X128462715Y-80833285D01*
X128370628Y-80771753D01*
X128274410Y-80752614D01*
X127249590Y-80752614D01*
X127153372Y-80771753D01*
X127061285Y-80833285D01*
X126999753Y-80925372D01*
X126980614Y-81021590D01*
X126980614Y-82046410D01*
X126999753Y-82142628D01*
X127061285Y-82234715D01*
X127153372Y-82296247D01*
X127169209Y-82299397D01*
X127099552Y-82383597D01*
X127015814Y-82561549D01*
X126978962Y-82754735D01*
X126991311Y-82951016D01*
X127052085Y-83138061D01*
X127157466Y-83304114D01*
X127300831Y-83438743D01*
X127307226Y-83442258D01*
X127224914Y-83502061D01*
X127099552Y-83653597D01*
X127015814Y-83831549D01*
X126978962Y-84024735D01*
X124991881Y-84024735D01*
X124947121Y-83977403D01*
X124759339Y-83845917D01*
X124545886Y-83753548D01*
X124249084Y-83707600D01*
X124148728Y-83707600D01*
X123977934Y-83724948D01*
X123759184Y-83793501D01*
X123558687Y-83904639D01*
X123384632Y-84053822D01*
X123244129Y-84234957D01*
X123142919Y-84440644D01*
X123085135Y-84662481D01*
X123073137Y-84891407D01*
X123062000Y-84891407D01*
X123062000Y-81433590D01*
X123074614Y-81433590D01*
X123074614Y-83158410D01*
X123093753Y-83254628D01*
X123155285Y-83346715D01*
X123247372Y-83408247D01*
X123343590Y-83427386D01*
X125068410Y-83427386D01*
X125164628Y-83408247D01*
X125256715Y-83346715D01*
X125318247Y-83254628D01*
X125337386Y-83158410D01*
X125337386Y-82754735D01*
X125337386Y-81433590D01*
X125318247Y-81337372D01*
X125256715Y-81245285D01*
X125164628Y-81183753D01*
X125068410Y-81164614D01*
X123343590Y-81164614D01*
X123247372Y-81183753D01*
X123155285Y-81245285D01*
X123093753Y-81337372D01*
X123074614Y-81433590D01*
X123062000Y-81433590D01*
X123062000Y-80644000D01*
X138050000Y-80644000D01*
X138050000Y-99188000D01*
X123062000Y-99188000D01*
X123062000Y-97591407D01*
X123073137Y-97591407D01*
X123107417Y-97818068D01*
X123186572Y-98033208D01*
X123307372Y-98228037D01*
X123464879Y-98394597D01*
X123652661Y-98526083D01*
X123866114Y-98618452D01*
X124162916Y-98664400D01*
X124263272Y-98664400D01*
X124434066Y-98647052D01*
X124652816Y-98578499D01*
X124853313Y-98467361D01*
X125027368Y-98318178D01*
X125167871Y-98137043D01*
X125269081Y-97931356D01*
X125326865Y-97709519D01*
X125336190Y-97531590D01*
X128504614Y-97531590D01*
X128504614Y-98556410D01*
X128523753Y-98652628D01*
X128585285Y-98744715D01*
X128677372Y-98806247D01*
X128773590Y-98825386D01*
X129798410Y-98825386D01*
X129894628Y-98806247D01*
X129986715Y-98744715D01*
X130048247Y-98652628D01*
X130067386Y-98556410D01*
X130067386Y-97531590D01*
X130048247Y-97435372D01*
X129986715Y-97343285D01*
X129945400Y-97315678D01*
X129945400Y-94359531D01*
X129974142Y-94353814D01*
X130144791Y-94239791D01*
X130258814Y-94069142D01*
X130296386Y-93880257D01*
X130296386Y-93289743D01*
X130282060Y-93217721D01*
X130365655Y-93357123D01*
X130536970Y-93490728D01*
X130744896Y-93553703D01*
X130961553Y-93537603D01*
X131157886Y-93444586D01*
X131307572Y-93287126D01*
X131382474Y-93105848D01*
X131846936Y-92641386D01*
X132325257Y-92641386D01*
X132514142Y-92603814D01*
X132684791Y-92489791D01*
X132798814Y-92319142D01*
X132814477Y-92240400D01*
X133387278Y-92240400D01*
X132858228Y-92769451D01*
X132837147Y-92779574D01*
X132793385Y-92834295D01*
X132777033Y-92850646D01*
X132765013Y-92869773D01*
X132721593Y-92924065D01*
X132716263Y-92947336D01*
X132703549Y-92967565D01*
X132695670Y-93037253D01*
X132690601Y-93059384D01*
X132690601Y-93082084D01*
X132682769Y-93151349D01*
X132690601Y-93173776D01*
X132690600Y-96606079D01*
X132004488Y-97292191D01*
X131865091Y-97265600D01*
X131777029Y-97265600D01*
X131630881Y-97284063D01*
X131448023Y-97356462D01*
X131288914Y-97472061D01*
X131163552Y-97623597D01*
X131079814Y-97801549D01*
X131042962Y-97994735D01*
X131055311Y-98191016D01*
X131116085Y-98378061D01*
X131221466Y-98544114D01*
X131364831Y-98678743D01*
X131540714Y-98775436D01*
X131786908Y-98822400D01*
X131874971Y-98822400D01*
X132021119Y-98803937D01*
X132203977Y-98731538D01*
X132363086Y-98615939D01*
X132407378Y-98562400D01*
X133631523Y-98562400D01*
X133647186Y-98641142D01*
X133761209Y-98811791D01*
X133931858Y-98925814D01*
X134120743Y-98963386D01*
X134611257Y-98963386D01*
X134800142Y-98925814D01*
X134970791Y-98811791D01*
X135084814Y-98641142D01*
X135122386Y-98452257D01*
X135122386Y-97861743D01*
X135091339Y-97705660D01*
X135159450Y-97773771D01*
X135169574Y-97794854D01*
X135224295Y-97838616D01*
X135240642Y-97854964D01*
X135259770Y-97866988D01*
X135314068Y-97910409D01*
X135337336Y-97915738D01*
X135357563Y-97928451D01*
X135427244Y-97936329D01*
X135449384Y-97941400D01*
X135472094Y-97941400D01*
X135541350Y-97949230D01*
X135563772Y-97941400D01*
X135852794Y-97941400D01*
X135886572Y-98033208D01*
X136007372Y-98228037D01*
X136164879Y-98394597D01*
X136352661Y-98526083D01*
X136566114Y-98618452D01*
X136862916Y-98664400D01*
X136963272Y-98664400D01*
X137134066Y-98647052D01*
X137352816Y-98578499D01*
X137553313Y-98467361D01*
X137727368Y-98318178D01*
X137867871Y-98137043D01*
X137969081Y-97931356D01*
X138026865Y-97709519D01*
X138038863Y-97480593D01*
X138004583Y-97253932D01*
X137925428Y-97038792D01*
X137804628Y-96843963D01*
X137647121Y-96677403D01*
X137459339Y-96545917D01*
X137245886Y-96453548D01*
X136949084Y-96407600D01*
X136848728Y-96407600D01*
X136677934Y-96424948D01*
X136459184Y-96493501D01*
X136258687Y-96604639D01*
X136084632Y-96753822D01*
X135944129Y-96934957D01*
X135847861Y-97130600D01*
X135662922Y-97130600D01*
X135122386Y-96590065D01*
X135122386Y-96111743D01*
X135084814Y-95922858D01*
X134970791Y-95752209D01*
X134800142Y-95638186D01*
X134611257Y-95600614D01*
X134120743Y-95600614D01*
X133931858Y-95638186D01*
X133761209Y-95752209D01*
X133647186Y-95922858D01*
X133609614Y-96111743D01*
X133609614Y-96702257D01*
X133647186Y-96891142D01*
X133761209Y-97061791D01*
X133931858Y-97175814D01*
X134120743Y-97213386D01*
X134599065Y-97213386D01*
X134767340Y-97381661D01*
X134611257Y-97350614D01*
X134120743Y-97350614D01*
X133931858Y-97388186D01*
X133761209Y-97502209D01*
X133647186Y-97672858D01*
X133631523Y-97751600D01*
X132691722Y-97751600D01*
X133333775Y-97109548D01*
X133354854Y-97099426D01*
X133398612Y-97044710D01*
X133414967Y-97028356D01*
X133426991Y-97009224D01*
X133470409Y-96954934D01*
X133475738Y-96931663D01*
X133488451Y-96911437D01*
X133496329Y-96841756D01*
X133501400Y-96819616D01*
X133501400Y-96796906D01*
X133509230Y-96727650D01*
X133501400Y-96705228D01*
X133501400Y-93272921D01*
X133640661Y-93133660D01*
X133609614Y-93289743D01*
X133609614Y-93880257D01*
X133647186Y-94069142D01*
X133761209Y-94239791D01*
X133931858Y-94353814D01*
X134120743Y-94391386D01*
X134599064Y-94391386D01*
X135441452Y-95233775D01*
X135451574Y-95254854D01*
X135506290Y-95298612D01*
X135522644Y-95314967D01*
X135541776Y-95326991D01*
X135596066Y-95370409D01*
X135619337Y-95375738D01*
X135639563Y-95388451D01*
X135709244Y-95396329D01*
X135731384Y-95401400D01*
X135754094Y-95401400D01*
X135823350Y-95409230D01*
X135845772Y-95401400D01*
X135852794Y-95401400D01*
X135886572Y-95493208D01*
X136007372Y-95688037D01*
X136164879Y-95854597D01*
X136352661Y-95986083D01*
X136566114Y-96078452D01*
X136862916Y-96124400D01*
X136963272Y-96124400D01*
X137134066Y-96107052D01*
X137352816Y-96038499D01*
X137553313Y-95927361D01*
X137727368Y-95778178D01*
X137867871Y-95597043D01*
X137969081Y-95391356D01*
X138026865Y-95169519D01*
X138038863Y-94940593D01*
X138004583Y-94713932D01*
X137925428Y-94498792D01*
X137804628Y-94303963D01*
X137647121Y-94137403D01*
X137459339Y-94005917D01*
X137245886Y-93913548D01*
X136949084Y-93867600D01*
X136848728Y-93867600D01*
X136677934Y-93884948D01*
X136459184Y-93953501D01*
X136258687Y-94064639D01*
X136084632Y-94213822D01*
X135944129Y-94394957D01*
X135879870Y-94525548D01*
X135122386Y-93768065D01*
X135122386Y-93289743D01*
X135084814Y-93100858D01*
X134970791Y-92930209D01*
X134800142Y-92816186D01*
X134611257Y-92778614D01*
X134120743Y-92778614D01*
X133964661Y-92809661D01*
X134132936Y-92641386D01*
X134611257Y-92641386D01*
X134800142Y-92603814D01*
X134970791Y-92489791D01*
X135084814Y-92319142D01*
X135122386Y-92130257D01*
X135122386Y-91539743D01*
X135084814Y-91350858D01*
X134970791Y-91180209D01*
X134800142Y-91066186D01*
X134771400Y-91060469D01*
X134771400Y-89533531D01*
X134800142Y-89527814D01*
X134970791Y-89413791D01*
X135084814Y-89243142D01*
X135122386Y-89054257D01*
X135122386Y-88463743D01*
X135084814Y-88274858D01*
X134970791Y-88104209D01*
X134800142Y-87990186D01*
X134611257Y-87952614D01*
X134120743Y-87952614D01*
X133931858Y-87990186D01*
X133761209Y-88104209D01*
X133647186Y-88274858D01*
X133609614Y-88463743D01*
X133609614Y-88478600D01*
X132577835Y-88478600D01*
X132567247Y-88425372D01*
X132505715Y-88333285D01*
X132413628Y-88271753D01*
X132317410Y-88252614D01*
X131842590Y-88252614D01*
X131746372Y-88271753D01*
X131654285Y-88333285D01*
X131592753Y-88425372D01*
X131573614Y-88521590D01*
X131573614Y-89246410D01*
X131592753Y-89342628D01*
X131654285Y-89434715D01*
X131746372Y-89496247D01*
X131842590Y-89515386D01*
X132317410Y-89515386D01*
X132413628Y-89496247D01*
X132505715Y-89434715D01*
X132567247Y-89342628D01*
X132577835Y-89289400D01*
X133678094Y-89289400D01*
X133761209Y-89413791D01*
X133931858Y-89527814D01*
X133960600Y-89533531D01*
X133960601Y-91060468D01*
X133931859Y-91066185D01*
X133761209Y-91180209D01*
X133647186Y-91350858D01*
X133631523Y-91429600D01*
X132814477Y-91429600D01*
X132798814Y-91350858D01*
X132684791Y-91180209D01*
X132514142Y-91066186D01*
X132325257Y-91028614D01*
X131834743Y-91028614D01*
X131778877Y-91039727D01*
X131815572Y-91001126D01*
X131898818Y-90799653D01*
X131901617Y-90570573D01*
X131823317Y-90367126D01*
X131677525Y-90206057D01*
X131483521Y-90108271D01*
X131267323Y-90086883D01*
X131057920Y-90144759D01*
X130883392Y-90274138D01*
X130767143Y-90457673D01*
X130724759Y-90670752D01*
X130728778Y-90693900D01*
X130183915Y-91238763D01*
X130144791Y-91180209D01*
X129974142Y-91066186D01*
X129785257Y-91028614D01*
X129294743Y-91028614D01*
X129105858Y-91066186D01*
X128935209Y-91180209D01*
X128821186Y-91350858D01*
X128783614Y-91539743D01*
X128783614Y-92130257D01*
X128821186Y-92319142D01*
X128935209Y-92489791D01*
X129105858Y-92603814D01*
X129294743Y-92641386D01*
X129785257Y-92641386D01*
X129974142Y-92603814D01*
X130144791Y-92489791D01*
X130258814Y-92319142D01*
X130276535Y-92230053D01*
X130297808Y-92227686D01*
X130318028Y-92215001D01*
X130341323Y-92209688D01*
X130396180Y-92165976D01*
X130415406Y-92153915D01*
X130431450Y-92137870D01*
X130485973Y-92094423D01*
X130496293Y-92073028D01*
X131305531Y-91263792D01*
X131425309Y-91254891D01*
X131361186Y-91350858D01*
X131323614Y-91539743D01*
X131323614Y-92018065D01*
X130949939Y-92391740D01*
X130759323Y-92372883D01*
X130549920Y-92430759D01*
X130375392Y-92560138D01*
X130259143Y-92743673D01*
X130216759Y-92956752D01*
X130235799Y-93066414D01*
X130144791Y-92930209D01*
X129974142Y-92816186D01*
X129785257Y-92778614D01*
X129294743Y-92778614D01*
X129105858Y-92816186D01*
X128935209Y-92930209D01*
X128821186Y-93100858D01*
X128783614Y-93289743D01*
X128783614Y-93880257D01*
X128821186Y-94069142D01*
X128935209Y-94239791D01*
X129105858Y-94353814D01*
X129134600Y-94359531D01*
X129134601Y-97262614D01*
X128773590Y-97262614D01*
X128677372Y-97281753D01*
X128585285Y-97343285D01*
X128523753Y-97435372D01*
X128504614Y-97531590D01*
X125336190Y-97531590D01*
X125338863Y-97480593D01*
X125304583Y-97253932D01*
X125225428Y-97038792D01*
X125104628Y-96843963D01*
X124947121Y-96677403D01*
X124759339Y-96545917D01*
X124545886Y-96453548D01*
X124249084Y-96407600D01*
X124148728Y-96407600D01*
X123977934Y-96424948D01*
X123759184Y-96493501D01*
X123558687Y-96604639D01*
X123384632Y-96753822D01*
X123244129Y-96934957D01*
X123142919Y-97140644D01*
X123085135Y-97362481D01*
X123073137Y-97591407D01*
X123062000Y-97591407D01*
X123062000Y-95051407D01*
X123073137Y-95051407D01*
X123107417Y-95278068D01*
X123186572Y-95493208D01*
X123307372Y-95688037D01*
X123464879Y-95854597D01*
X123652661Y-95986083D01*
X123866114Y-96078452D01*
X124162916Y-96124400D01*
X124263272Y-96124400D01*
X124434066Y-96107052D01*
X124652816Y-96038499D01*
X124853313Y-95927361D01*
X125027368Y-95778178D01*
X125167871Y-95597043D01*
X125269081Y-95391356D01*
X125326865Y-95169519D01*
X125338863Y-94940593D01*
X125304583Y-94713932D01*
X125225428Y-94498792D01*
X125104628Y-94303963D01*
X124947121Y-94137403D01*
X124759339Y-94005917D01*
X124545886Y-93913548D01*
X124249084Y-93867600D01*
X124148728Y-93867600D01*
X123977934Y-93884948D01*
X123759184Y-93953501D01*
X123558687Y-94064639D01*
X123384632Y-94213822D01*
X123244129Y-94394957D01*
X123142919Y-94600644D01*
X123085135Y-94822481D01*
X123073137Y-95051407D01*
X123062000Y-95051407D01*
X123062000Y-92511407D01*
M02*
