G04 #@! TF.GenerationSoftware,KiCad,Pcbnew,(5.1.0-1419-g57928c41b)*
G04 #@! TF.CreationDate,2019-08-03T20:03:29-07:00*
G04 #@! TF.ProjectId,attiny1614,61747469-6e79-4313-9631-342e6b696361,1.2*
G04 #@! TF.SameCoordinates,Original*
G04 #@! TF.FileFunction,Soldermask,Top*
G04 #@! TF.FilePolarity,Negative*
%FSLAX46Y46*%
G04 Gerber Fmt 4.6, Leading zero omitted, Abs format (unit mm)*
G04 Created by KiCad (PCBNEW (5.1.0-1419-g57928c41b)) date 2019-08-03 20:03:29*
%MOMM*%
%LPD*%
G04 APERTURE LIST*
%ADD10C,0.100000*%
G04 APERTURE END LIST*
D10*
G36*
X129805899Y-97495959D02*
G01*
X129822769Y-97507231D01*
X129834041Y-97524101D01*
X129840448Y-97556312D01*
X129840448Y-97714633D01*
X129860291Y-97782213D01*
X129913521Y-97828336D01*
X129983236Y-97838360D01*
X130047304Y-97809101D01*
X130061202Y-97791626D01*
X130063111Y-97786324D01*
X130085927Y-97754219D01*
X130100221Y-97727223D01*
X130124392Y-97700094D01*
X130150562Y-97663269D01*
X130174399Y-97643966D01*
X130188937Y-97627649D01*
X130226033Y-97602154D01*
X130267884Y-97568264D01*
X130288029Y-97559547D01*
X130298849Y-97552110D01*
X130349044Y-97533142D01*
X130406432Y-97508308D01*
X130419503Y-97506518D01*
X130423598Y-97504970D01*
X130485366Y-97497496D01*
X130518185Y-97493000D01*
X130587432Y-97493000D01*
X130694343Y-97506506D01*
X130754792Y-97530074D01*
X130782219Y-97535904D01*
X130803352Y-97549007D01*
X130818292Y-97554832D01*
X130859828Y-97584024D01*
X130910522Y-97615456D01*
X130921431Y-97627320D01*
X130927402Y-97631516D01*
X130966442Y-97676269D01*
X131012707Y-97726581D01*
X131046495Y-97792893D01*
X131079466Y-97856774D01*
X131128094Y-97907725D01*
X131196549Y-97924298D01*
X131263097Y-97901230D01*
X131301012Y-97857934D01*
X131320753Y-97820651D01*
X131333111Y-97786324D01*
X131355928Y-97754218D01*
X131370221Y-97727223D01*
X131394392Y-97700094D01*
X131420562Y-97663269D01*
X131444399Y-97643966D01*
X131458937Y-97627649D01*
X131496033Y-97602154D01*
X131537884Y-97568264D01*
X131558029Y-97559547D01*
X131568849Y-97552110D01*
X131619044Y-97533142D01*
X131676432Y-97508308D01*
X131689503Y-97506518D01*
X131693598Y-97504970D01*
X131755366Y-97497496D01*
X131788185Y-97493000D01*
X131857432Y-97493000D01*
X131964343Y-97506506D01*
X132024792Y-97530074D01*
X132052219Y-97535904D01*
X132073352Y-97549007D01*
X132088292Y-97554832D01*
X132129828Y-97584024D01*
X132180522Y-97615456D01*
X132191431Y-97627320D01*
X132197402Y-97631516D01*
X132236442Y-97676269D01*
X132282707Y-97726581D01*
X132316500Y-97792903D01*
X132346240Y-97850524D01*
X132346580Y-97851939D01*
X132351243Y-97861091D01*
X132364178Y-97925240D01*
X132377374Y-97980204D01*
X132377320Y-97990417D01*
X132381083Y-98009077D01*
X132376926Y-98065682D01*
X132376675Y-98113566D01*
X132372060Y-98131940D01*
X132370026Y-98159636D01*
X132353744Y-98204861D01*
X132344187Y-98242911D01*
X132331247Y-98267350D01*
X132318889Y-98301676D01*
X132296072Y-98333782D01*
X132281779Y-98360777D01*
X132257608Y-98387906D01*
X132231438Y-98424731D01*
X132207601Y-98444034D01*
X132193063Y-98460351D01*
X132155967Y-98485846D01*
X132114116Y-98519736D01*
X132093971Y-98528453D01*
X132083151Y-98535890D01*
X132032956Y-98554858D01*
X131975568Y-98579692D01*
X131962497Y-98581482D01*
X131958402Y-98583030D01*
X131896634Y-98590504D01*
X131863815Y-98595000D01*
X131794568Y-98595000D01*
X131687657Y-98581494D01*
X131627208Y-98557926D01*
X131599781Y-98552096D01*
X131578648Y-98538993D01*
X131563708Y-98533168D01*
X131522172Y-98503976D01*
X131471478Y-98472544D01*
X131460569Y-98460680D01*
X131454598Y-98456484D01*
X131415558Y-98411731D01*
X131369293Y-98361419D01*
X131335505Y-98295107D01*
X131302534Y-98231226D01*
X131253906Y-98180275D01*
X131185451Y-98163702D01*
X131118903Y-98186770D01*
X131080988Y-98230066D01*
X131061247Y-98267349D01*
X131048889Y-98301676D01*
X131026072Y-98333782D01*
X131011779Y-98360777D01*
X130987608Y-98387906D01*
X130961438Y-98424731D01*
X130937601Y-98444034D01*
X130923063Y-98460351D01*
X130885967Y-98485846D01*
X130844116Y-98519736D01*
X130823971Y-98528453D01*
X130813151Y-98535890D01*
X130762956Y-98554858D01*
X130705568Y-98579692D01*
X130692497Y-98581482D01*
X130688402Y-98583030D01*
X130626634Y-98590504D01*
X130593815Y-98595000D01*
X130524568Y-98595000D01*
X130417657Y-98581494D01*
X130357208Y-98557926D01*
X130329781Y-98552096D01*
X130308648Y-98538993D01*
X130293708Y-98533168D01*
X130252172Y-98503976D01*
X130201478Y-98472544D01*
X130190569Y-98460680D01*
X130184598Y-98456484D01*
X130145558Y-98411731D01*
X130099293Y-98361419D01*
X130076220Y-98316136D01*
X130027895Y-98265502D01*
X129959440Y-98248929D01*
X129892892Y-98271997D01*
X129849380Y-98327382D01*
X129840448Y-98373784D01*
X129840448Y-98531688D01*
X129837999Y-98544000D01*
X129834041Y-98563899D01*
X129822769Y-98580769D01*
X129805899Y-98592041D01*
X129786000Y-98595999D01*
X129773688Y-98598448D01*
X128798312Y-98598448D01*
X128766101Y-98592041D01*
X128749231Y-98580769D01*
X128737959Y-98563899D01*
X128731552Y-98531688D01*
X128731552Y-97556312D01*
X128737959Y-97524101D01*
X128749231Y-97507231D01*
X128766101Y-97495959D01*
X128798312Y-97489552D01*
X129773688Y-97489552D01*
X129805899Y-97495959D01*
X129805899Y-97495959D01*
G37*
G36*
X137094360Y-96649835D02*
G01*
X137175397Y-96676166D01*
X137262663Y-96703848D01*
X137265655Y-96705493D01*
X137274488Y-96708363D01*
X137346466Y-96749919D01*
X137417499Y-96788970D01*
X137424986Y-96795253D01*
X137438511Y-96803061D01*
X137496259Y-96855057D01*
X137552857Y-96902549D01*
X137562962Y-96915118D01*
X137579261Y-96929793D01*
X137621454Y-96987867D01*
X137663579Y-97040260D01*
X137673994Y-97060182D01*
X137690586Y-97083019D01*
X137717297Y-97143012D01*
X137745439Y-97196843D01*
X137753582Y-97224510D01*
X137767621Y-97256042D01*
X137779992Y-97314241D01*
X137795328Y-97366349D01*
X137798518Y-97401401D01*
X137806999Y-97441301D01*
X137806999Y-97494592D01*
X137811343Y-97542324D01*
X137806999Y-97583653D01*
X137806999Y-97630699D01*
X137797217Y-97676721D01*
X137792873Y-97718047D01*
X137778702Y-97763827D01*
X137767621Y-97815958D01*
X137751028Y-97853226D01*
X137740622Y-97886843D01*
X137714789Y-97934620D01*
X137690586Y-97988981D01*
X137670298Y-98016905D01*
X137656580Y-98042276D01*
X137617859Y-98089082D01*
X137579261Y-98142207D01*
X137558284Y-98161095D01*
X137543952Y-98178419D01*
X137491845Y-98220917D01*
X137438511Y-98268939D01*
X137419524Y-98279901D01*
X137407025Y-98290095D01*
X137341780Y-98324786D01*
X137274488Y-98363637D01*
X137259636Y-98368463D01*
X137251003Y-98373053D01*
X137173430Y-98396473D01*
X137094360Y-98422165D01*
X137085114Y-98423137D01*
X137081851Y-98424122D01*
X136990710Y-98433059D01*
X136953211Y-98437000D01*
X136858789Y-98437000D01*
X136717640Y-98422165D01*
X136636603Y-98395834D01*
X136549337Y-98368152D01*
X136546345Y-98366507D01*
X136537512Y-98363637D01*
X136465534Y-98322081D01*
X136394501Y-98283030D01*
X136387014Y-98276747D01*
X136373489Y-98268939D01*
X136315741Y-98216943D01*
X136259143Y-98169451D01*
X136249038Y-98156882D01*
X136232739Y-98142207D01*
X136190546Y-98084133D01*
X136148421Y-98031740D01*
X136138006Y-98011818D01*
X136121414Y-97988981D01*
X136094703Y-97928988D01*
X136066561Y-97875157D01*
X136058418Y-97847490D01*
X136044379Y-97815958D01*
X136032008Y-97757759D01*
X136016672Y-97705651D01*
X136013482Y-97670599D01*
X136005001Y-97630699D01*
X136005001Y-97577408D01*
X136000657Y-97529676D01*
X136005001Y-97488347D01*
X136005001Y-97441301D01*
X136014783Y-97395279D01*
X136019127Y-97353953D01*
X136033298Y-97308173D01*
X136044379Y-97256042D01*
X136060972Y-97218774D01*
X136071378Y-97185157D01*
X136097211Y-97137380D01*
X136121414Y-97083019D01*
X136141702Y-97055095D01*
X136155420Y-97029724D01*
X136194141Y-96982918D01*
X136232739Y-96929793D01*
X136253716Y-96910905D01*
X136268048Y-96893581D01*
X136320155Y-96851083D01*
X136373489Y-96803061D01*
X136392476Y-96792099D01*
X136404975Y-96781905D01*
X136470220Y-96747214D01*
X136537512Y-96708363D01*
X136552364Y-96703537D01*
X136560997Y-96698947D01*
X136638570Y-96675527D01*
X136717640Y-96649835D01*
X136726886Y-96648863D01*
X136730149Y-96647878D01*
X136821290Y-96638941D01*
X136858789Y-96635000D01*
X136953211Y-96635000D01*
X137094360Y-96649835D01*
X137094360Y-96649835D01*
G37*
G36*
X124394360Y-96649835D02*
G01*
X124475397Y-96676166D01*
X124562663Y-96703848D01*
X124565655Y-96705493D01*
X124574488Y-96708363D01*
X124646466Y-96749919D01*
X124717499Y-96788970D01*
X124724986Y-96795253D01*
X124738511Y-96803061D01*
X124796259Y-96855057D01*
X124852857Y-96902549D01*
X124862962Y-96915118D01*
X124879261Y-96929793D01*
X124921454Y-96987867D01*
X124963579Y-97040260D01*
X124973994Y-97060182D01*
X124990586Y-97083019D01*
X125017297Y-97143012D01*
X125045439Y-97196843D01*
X125053582Y-97224510D01*
X125067621Y-97256042D01*
X125079992Y-97314241D01*
X125095328Y-97366349D01*
X125098518Y-97401401D01*
X125106999Y-97441301D01*
X125106999Y-97494592D01*
X125111343Y-97542324D01*
X125106999Y-97583653D01*
X125106999Y-97630699D01*
X125097217Y-97676721D01*
X125092873Y-97718047D01*
X125078702Y-97763827D01*
X125067621Y-97815958D01*
X125051028Y-97853226D01*
X125040622Y-97886843D01*
X125014789Y-97934620D01*
X124990586Y-97988981D01*
X124970298Y-98016905D01*
X124956580Y-98042276D01*
X124917859Y-98089082D01*
X124879261Y-98142207D01*
X124858284Y-98161095D01*
X124843952Y-98178419D01*
X124791845Y-98220917D01*
X124738511Y-98268939D01*
X124719524Y-98279901D01*
X124707025Y-98290095D01*
X124641780Y-98324786D01*
X124574488Y-98363637D01*
X124559636Y-98368463D01*
X124551003Y-98373053D01*
X124473430Y-98396473D01*
X124394360Y-98422165D01*
X124385114Y-98423137D01*
X124381851Y-98424122D01*
X124290710Y-98433059D01*
X124253211Y-98437000D01*
X124158789Y-98437000D01*
X124017640Y-98422165D01*
X123936603Y-98395834D01*
X123849337Y-98368152D01*
X123846345Y-98366507D01*
X123837512Y-98363637D01*
X123765534Y-98322081D01*
X123694501Y-98283030D01*
X123687014Y-98276747D01*
X123673489Y-98268939D01*
X123615741Y-98216943D01*
X123559143Y-98169451D01*
X123549038Y-98156882D01*
X123532739Y-98142207D01*
X123490546Y-98084133D01*
X123448421Y-98031740D01*
X123438006Y-98011818D01*
X123421414Y-97988981D01*
X123394703Y-97928988D01*
X123366561Y-97875157D01*
X123358418Y-97847490D01*
X123344379Y-97815958D01*
X123332008Y-97757759D01*
X123316672Y-97705651D01*
X123313482Y-97670599D01*
X123305001Y-97630699D01*
X123305001Y-97577408D01*
X123300657Y-97529676D01*
X123305001Y-97488347D01*
X123305001Y-97441301D01*
X123314783Y-97395279D01*
X123319127Y-97353953D01*
X123333298Y-97308173D01*
X123344379Y-97256042D01*
X123360972Y-97218774D01*
X123371378Y-97185157D01*
X123397211Y-97137380D01*
X123421414Y-97083019D01*
X123441702Y-97055095D01*
X123455420Y-97029724D01*
X123494141Y-96982918D01*
X123532739Y-96929793D01*
X123553716Y-96910905D01*
X123568048Y-96893581D01*
X123620155Y-96851083D01*
X123673489Y-96803061D01*
X123692476Y-96792099D01*
X123704975Y-96781905D01*
X123770220Y-96747214D01*
X123837512Y-96708363D01*
X123852364Y-96703537D01*
X123860997Y-96698947D01*
X123938570Y-96675527D01*
X124017640Y-96649835D01*
X124026886Y-96648863D01*
X124030149Y-96647878D01*
X124121290Y-96638941D01*
X124158789Y-96635000D01*
X124253211Y-96635000D01*
X124394360Y-96649835D01*
X124394360Y-96649835D01*
G37*
G36*
X137094360Y-94109835D02*
G01*
X137175397Y-94136166D01*
X137262663Y-94163848D01*
X137265655Y-94165493D01*
X137274488Y-94168363D01*
X137346466Y-94209919D01*
X137417499Y-94248970D01*
X137424986Y-94255253D01*
X137438511Y-94263061D01*
X137496259Y-94315057D01*
X137552857Y-94362549D01*
X137562962Y-94375118D01*
X137579261Y-94389793D01*
X137621454Y-94447867D01*
X137663579Y-94500260D01*
X137673994Y-94520182D01*
X137690586Y-94543019D01*
X137717297Y-94603012D01*
X137745439Y-94656843D01*
X137753582Y-94684510D01*
X137767621Y-94716042D01*
X137779992Y-94774241D01*
X137795328Y-94826349D01*
X137798518Y-94861401D01*
X137806999Y-94901301D01*
X137806999Y-94954592D01*
X137811343Y-95002324D01*
X137806999Y-95043653D01*
X137806999Y-95090699D01*
X137797217Y-95136721D01*
X137792873Y-95178047D01*
X137778702Y-95223827D01*
X137767621Y-95275958D01*
X137751028Y-95313226D01*
X137740622Y-95346843D01*
X137714789Y-95394620D01*
X137690586Y-95448981D01*
X137670298Y-95476905D01*
X137656580Y-95502276D01*
X137617859Y-95549082D01*
X137579261Y-95602207D01*
X137558284Y-95621095D01*
X137543952Y-95638419D01*
X137491845Y-95680917D01*
X137438511Y-95728939D01*
X137419524Y-95739901D01*
X137407025Y-95750095D01*
X137341780Y-95784786D01*
X137274488Y-95823637D01*
X137259636Y-95828463D01*
X137251003Y-95833053D01*
X137173430Y-95856473D01*
X137094360Y-95882165D01*
X137085114Y-95883137D01*
X137081851Y-95884122D01*
X136990710Y-95893059D01*
X136953211Y-95897000D01*
X136858789Y-95897000D01*
X136717640Y-95882165D01*
X136636603Y-95855834D01*
X136549337Y-95828152D01*
X136546345Y-95826507D01*
X136537512Y-95823637D01*
X136465534Y-95782081D01*
X136394501Y-95743030D01*
X136387014Y-95736747D01*
X136373489Y-95728939D01*
X136315741Y-95676943D01*
X136259143Y-95629451D01*
X136249038Y-95616882D01*
X136232739Y-95602207D01*
X136190546Y-95544133D01*
X136148421Y-95491740D01*
X136138006Y-95471818D01*
X136121414Y-95448981D01*
X136094703Y-95388988D01*
X136066561Y-95335157D01*
X136058418Y-95307490D01*
X136044379Y-95275958D01*
X136032008Y-95217759D01*
X136016672Y-95165651D01*
X136013482Y-95130599D01*
X136005001Y-95090699D01*
X136005001Y-95037408D01*
X136000657Y-94989676D01*
X136005001Y-94948347D01*
X136005001Y-94901301D01*
X136014783Y-94855279D01*
X136019127Y-94813953D01*
X136033298Y-94768173D01*
X136044379Y-94716042D01*
X136060972Y-94678774D01*
X136071378Y-94645157D01*
X136097211Y-94597380D01*
X136121414Y-94543019D01*
X136141702Y-94515095D01*
X136155420Y-94489724D01*
X136194141Y-94442918D01*
X136232739Y-94389793D01*
X136253716Y-94370905D01*
X136268048Y-94353581D01*
X136320155Y-94311083D01*
X136373489Y-94263061D01*
X136392476Y-94252099D01*
X136404975Y-94241905D01*
X136470220Y-94207214D01*
X136537512Y-94168363D01*
X136552364Y-94163537D01*
X136560997Y-94158947D01*
X136638570Y-94135527D01*
X136717640Y-94109835D01*
X136726886Y-94108863D01*
X136730149Y-94107878D01*
X136821290Y-94098941D01*
X136858789Y-94095000D01*
X136953211Y-94095000D01*
X137094360Y-94109835D01*
X137094360Y-94109835D01*
G37*
G36*
X124394360Y-94109835D02*
G01*
X124475397Y-94136166D01*
X124562663Y-94163848D01*
X124565655Y-94165493D01*
X124574488Y-94168363D01*
X124646466Y-94209919D01*
X124717499Y-94248970D01*
X124724986Y-94255253D01*
X124738511Y-94263061D01*
X124796259Y-94315057D01*
X124852857Y-94362549D01*
X124862962Y-94375118D01*
X124879261Y-94389793D01*
X124921454Y-94447867D01*
X124963579Y-94500260D01*
X124973994Y-94520182D01*
X124990586Y-94543019D01*
X125017297Y-94603012D01*
X125045439Y-94656843D01*
X125053582Y-94684510D01*
X125067621Y-94716042D01*
X125079992Y-94774241D01*
X125095328Y-94826349D01*
X125098518Y-94861401D01*
X125106999Y-94901301D01*
X125106999Y-94954592D01*
X125111343Y-95002324D01*
X125106999Y-95043653D01*
X125106999Y-95090699D01*
X125097217Y-95136721D01*
X125092873Y-95178047D01*
X125078702Y-95223827D01*
X125067621Y-95275958D01*
X125051028Y-95313226D01*
X125040622Y-95346843D01*
X125014789Y-95394620D01*
X124990586Y-95448981D01*
X124970298Y-95476905D01*
X124956580Y-95502276D01*
X124917859Y-95549082D01*
X124879261Y-95602207D01*
X124858284Y-95621095D01*
X124843952Y-95638419D01*
X124791845Y-95680917D01*
X124738511Y-95728939D01*
X124719524Y-95739901D01*
X124707025Y-95750095D01*
X124641780Y-95784786D01*
X124574488Y-95823637D01*
X124559636Y-95828463D01*
X124551003Y-95833053D01*
X124473430Y-95856473D01*
X124394360Y-95882165D01*
X124385114Y-95883137D01*
X124381851Y-95884122D01*
X124290710Y-95893059D01*
X124253211Y-95897000D01*
X124158789Y-95897000D01*
X124017640Y-95882165D01*
X123936603Y-95855834D01*
X123849337Y-95828152D01*
X123846345Y-95826507D01*
X123837512Y-95823637D01*
X123765534Y-95782081D01*
X123694501Y-95743030D01*
X123687014Y-95736747D01*
X123673489Y-95728939D01*
X123615741Y-95676943D01*
X123559143Y-95629451D01*
X123549038Y-95616882D01*
X123532739Y-95602207D01*
X123490546Y-95544133D01*
X123448421Y-95491740D01*
X123438006Y-95471818D01*
X123421414Y-95448981D01*
X123394703Y-95388988D01*
X123366561Y-95335157D01*
X123358418Y-95307490D01*
X123344379Y-95275958D01*
X123332008Y-95217759D01*
X123316672Y-95165651D01*
X123313482Y-95130599D01*
X123305001Y-95090699D01*
X123305001Y-95037408D01*
X123300657Y-94989676D01*
X123305001Y-94948347D01*
X123305001Y-94901301D01*
X123314783Y-94855279D01*
X123319127Y-94813953D01*
X123333298Y-94768173D01*
X123344379Y-94716042D01*
X123360972Y-94678774D01*
X123371378Y-94645157D01*
X123397211Y-94597380D01*
X123421414Y-94543019D01*
X123441702Y-94515095D01*
X123455420Y-94489724D01*
X123494141Y-94442918D01*
X123532739Y-94389793D01*
X123553716Y-94370905D01*
X123568048Y-94353581D01*
X123620155Y-94311083D01*
X123673489Y-94263061D01*
X123692476Y-94252099D01*
X123704975Y-94241905D01*
X123770220Y-94207214D01*
X123837512Y-94168363D01*
X123852364Y-94163537D01*
X123860997Y-94158947D01*
X123938570Y-94135527D01*
X124017640Y-94109835D01*
X124026886Y-94108863D01*
X124030149Y-94107878D01*
X124121290Y-94098941D01*
X124158789Y-94095000D01*
X124253211Y-94095000D01*
X124394360Y-94109835D01*
X124394360Y-94109835D01*
G37*
G36*
X131995980Y-94723117D02*
G01*
X131996386Y-94723117D01*
X131998637Y-94723538D01*
X132087801Y-94737660D01*
X132095691Y-94741680D01*
X132102409Y-94742936D01*
X132122176Y-94755175D01*
X132169229Y-94779150D01*
X132182776Y-94792697D01*
X132194114Y-94799717D01*
X132207432Y-94817353D01*
X132233850Y-94843771D01*
X132247267Y-94870103D01*
X132259114Y-94885791D01*
X132262418Y-94899838D01*
X132275340Y-94925199D01*
X132289686Y-95015777D01*
X132289883Y-95016614D01*
X132289883Y-95017020D01*
X132291194Y-95025297D01*
X132291194Y-95474703D01*
X132289883Y-95482980D01*
X132289883Y-95483386D01*
X132289462Y-95485637D01*
X132275340Y-95574801D01*
X132271320Y-95582691D01*
X132270064Y-95589409D01*
X132257825Y-95609176D01*
X132233850Y-95656229D01*
X132220303Y-95669776D01*
X132213283Y-95681114D01*
X132195647Y-95694432D01*
X132169229Y-95720850D01*
X132142897Y-95734267D01*
X132127209Y-95746114D01*
X132113162Y-95749418D01*
X132087801Y-95762340D01*
X131997223Y-95776686D01*
X131996386Y-95776883D01*
X131995980Y-95776883D01*
X131987703Y-95778194D01*
X131438297Y-95778194D01*
X131430020Y-95776883D01*
X131429614Y-95776883D01*
X131427363Y-95776462D01*
X131338199Y-95762340D01*
X131330309Y-95758320D01*
X131323591Y-95757064D01*
X131303824Y-95744825D01*
X131256771Y-95720850D01*
X131243224Y-95707303D01*
X131231886Y-95700283D01*
X131218568Y-95682647D01*
X131192150Y-95656229D01*
X131178733Y-95629897D01*
X131166886Y-95614209D01*
X131163582Y-95600162D01*
X131150660Y-95574801D01*
X131136314Y-95484223D01*
X131136117Y-95483386D01*
X131136117Y-95482980D01*
X131134806Y-95474703D01*
X131134806Y-95025297D01*
X131136117Y-95017020D01*
X131136117Y-95016614D01*
X131136538Y-95014363D01*
X131150660Y-94925199D01*
X131154680Y-94917309D01*
X131155936Y-94910591D01*
X131168175Y-94890824D01*
X131192150Y-94843771D01*
X131205697Y-94830224D01*
X131212717Y-94818886D01*
X131230353Y-94805568D01*
X131256771Y-94779150D01*
X131283103Y-94765733D01*
X131298791Y-94753886D01*
X131312838Y-94750582D01*
X131338199Y-94737660D01*
X131428777Y-94723314D01*
X131429614Y-94723117D01*
X131430020Y-94723117D01*
X131438297Y-94721806D01*
X131987703Y-94721806D01*
X131995980Y-94723117D01*
X131995980Y-94723117D01*
G37*
G36*
X128185980Y-94723117D02*
G01*
X128186386Y-94723117D01*
X128188637Y-94723538D01*
X128277801Y-94737660D01*
X128285691Y-94741680D01*
X128292409Y-94742936D01*
X128312176Y-94755175D01*
X128359229Y-94779150D01*
X128372776Y-94792697D01*
X128384114Y-94799717D01*
X128397432Y-94817353D01*
X128423850Y-94843771D01*
X128437267Y-94870103D01*
X128449114Y-94885791D01*
X128452418Y-94899838D01*
X128465340Y-94925199D01*
X128479686Y-95015777D01*
X128479883Y-95016614D01*
X128479883Y-95017020D01*
X128481194Y-95025297D01*
X128481194Y-95474703D01*
X128479883Y-95482980D01*
X128479883Y-95483386D01*
X128479462Y-95485637D01*
X128465340Y-95574801D01*
X128461320Y-95582691D01*
X128460064Y-95589409D01*
X128447825Y-95609176D01*
X128423850Y-95656229D01*
X128410303Y-95669776D01*
X128403283Y-95681114D01*
X128385647Y-95694432D01*
X128359229Y-95720850D01*
X128332897Y-95734267D01*
X128317209Y-95746114D01*
X128303162Y-95749418D01*
X128277801Y-95762340D01*
X128187223Y-95776686D01*
X128186386Y-95776883D01*
X128185980Y-95776883D01*
X128177703Y-95778194D01*
X127628297Y-95778194D01*
X127620020Y-95776883D01*
X127619614Y-95776883D01*
X127617363Y-95776462D01*
X127528199Y-95762340D01*
X127520309Y-95758320D01*
X127513591Y-95757064D01*
X127493824Y-95744825D01*
X127446771Y-95720850D01*
X127433224Y-95707303D01*
X127421886Y-95700283D01*
X127408568Y-95682647D01*
X127382150Y-95656229D01*
X127368733Y-95629897D01*
X127356886Y-95614209D01*
X127353582Y-95600162D01*
X127340660Y-95574801D01*
X127326314Y-95484223D01*
X127326117Y-95483386D01*
X127326117Y-95482980D01*
X127324806Y-95474703D01*
X127324806Y-95025297D01*
X127326117Y-95017020D01*
X127326117Y-95016614D01*
X127326538Y-95014363D01*
X127340660Y-94925199D01*
X127344680Y-94917309D01*
X127345936Y-94910591D01*
X127358175Y-94890824D01*
X127382150Y-94843771D01*
X127395697Y-94830224D01*
X127402717Y-94818886D01*
X127420353Y-94805568D01*
X127446771Y-94779150D01*
X127473103Y-94765733D01*
X127488791Y-94753886D01*
X127502838Y-94750582D01*
X127528199Y-94737660D01*
X127618777Y-94723314D01*
X127619614Y-94723117D01*
X127620020Y-94723117D01*
X127628297Y-94721806D01*
X128177703Y-94721806D01*
X128185980Y-94723117D01*
X128185980Y-94723117D01*
G37*
G36*
X133745980Y-94723117D02*
G01*
X133746386Y-94723117D01*
X133748637Y-94723538D01*
X133837801Y-94737660D01*
X133845691Y-94741680D01*
X133852409Y-94742936D01*
X133872176Y-94755175D01*
X133919229Y-94779150D01*
X133932776Y-94792697D01*
X133944114Y-94799717D01*
X133957432Y-94817353D01*
X133983850Y-94843771D01*
X133997267Y-94870103D01*
X134009114Y-94885791D01*
X134012418Y-94899838D01*
X134025340Y-94925199D01*
X134039686Y-95015777D01*
X134039883Y-95016614D01*
X134039883Y-95017020D01*
X134041194Y-95025297D01*
X134041194Y-95474703D01*
X134039883Y-95482980D01*
X134039883Y-95483386D01*
X134039462Y-95485637D01*
X134025340Y-95574801D01*
X134021320Y-95582691D01*
X134020064Y-95589409D01*
X134007825Y-95609176D01*
X133983850Y-95656229D01*
X133970303Y-95669776D01*
X133963283Y-95681114D01*
X133945647Y-95694432D01*
X133919229Y-95720850D01*
X133892897Y-95734267D01*
X133877209Y-95746114D01*
X133863162Y-95749418D01*
X133837801Y-95762340D01*
X133747223Y-95776686D01*
X133746386Y-95776883D01*
X133745980Y-95776883D01*
X133737703Y-95778194D01*
X133188297Y-95778194D01*
X133180020Y-95776883D01*
X133179614Y-95776883D01*
X133177363Y-95776462D01*
X133088199Y-95762340D01*
X133080309Y-95758320D01*
X133073591Y-95757064D01*
X133053824Y-95744825D01*
X133006771Y-95720850D01*
X132993224Y-95707303D01*
X132981886Y-95700283D01*
X132968568Y-95682647D01*
X132942150Y-95656229D01*
X132928733Y-95629897D01*
X132916886Y-95614209D01*
X132913582Y-95600162D01*
X132900660Y-95574801D01*
X132886314Y-95484223D01*
X132886117Y-95483386D01*
X132886117Y-95482980D01*
X132884806Y-95474703D01*
X132884806Y-95025297D01*
X132886117Y-95017020D01*
X132886117Y-95016614D01*
X132886538Y-95014363D01*
X132900660Y-94925199D01*
X132904680Y-94917309D01*
X132905936Y-94910591D01*
X132918175Y-94890824D01*
X132942150Y-94843771D01*
X132955697Y-94830224D01*
X132962717Y-94818886D01*
X132980353Y-94805568D01*
X133006771Y-94779150D01*
X133033103Y-94765733D01*
X133048791Y-94753886D01*
X133062838Y-94750582D01*
X133088199Y-94737660D01*
X133178777Y-94723314D01*
X133179614Y-94723117D01*
X133180020Y-94723117D01*
X133188297Y-94721806D01*
X133737703Y-94721806D01*
X133745980Y-94723117D01*
X133745980Y-94723117D01*
G37*
G36*
X129935980Y-94723117D02*
G01*
X129936386Y-94723117D01*
X129938637Y-94723538D01*
X130027801Y-94737660D01*
X130035691Y-94741680D01*
X130042409Y-94742936D01*
X130062176Y-94755175D01*
X130109229Y-94779150D01*
X130122776Y-94792697D01*
X130134114Y-94799717D01*
X130147432Y-94817353D01*
X130173850Y-94843771D01*
X130187267Y-94870103D01*
X130199114Y-94885791D01*
X130202418Y-94899838D01*
X130215340Y-94925199D01*
X130229686Y-95015777D01*
X130229883Y-95016614D01*
X130229883Y-95017020D01*
X130231194Y-95025297D01*
X130231194Y-95474703D01*
X130229883Y-95482980D01*
X130229883Y-95483386D01*
X130229462Y-95485637D01*
X130215340Y-95574801D01*
X130211320Y-95582691D01*
X130210064Y-95589409D01*
X130197825Y-95609176D01*
X130173850Y-95656229D01*
X130160303Y-95669776D01*
X130153283Y-95681114D01*
X130135647Y-95694432D01*
X130109229Y-95720850D01*
X130082897Y-95734267D01*
X130067209Y-95746114D01*
X130053162Y-95749418D01*
X130027801Y-95762340D01*
X129937223Y-95776686D01*
X129936386Y-95776883D01*
X129935980Y-95776883D01*
X129927703Y-95778194D01*
X129378297Y-95778194D01*
X129370020Y-95776883D01*
X129369614Y-95776883D01*
X129367363Y-95776462D01*
X129278199Y-95762340D01*
X129270309Y-95758320D01*
X129263591Y-95757064D01*
X129243824Y-95744825D01*
X129196771Y-95720850D01*
X129183224Y-95707303D01*
X129171886Y-95700283D01*
X129158568Y-95682647D01*
X129132150Y-95656229D01*
X129118733Y-95629897D01*
X129106886Y-95614209D01*
X129103582Y-95600162D01*
X129090660Y-95574801D01*
X129076314Y-95484223D01*
X129076117Y-95483386D01*
X129076117Y-95482980D01*
X129074806Y-95474703D01*
X129074806Y-95025297D01*
X129076117Y-95017020D01*
X129076117Y-95016614D01*
X129076538Y-95014363D01*
X129090660Y-94925199D01*
X129094680Y-94917309D01*
X129095936Y-94910591D01*
X129108175Y-94890824D01*
X129132150Y-94843771D01*
X129145697Y-94830224D01*
X129152717Y-94818886D01*
X129170353Y-94805568D01*
X129196771Y-94779150D01*
X129223103Y-94765733D01*
X129238791Y-94753886D01*
X129252838Y-94750582D01*
X129278199Y-94737660D01*
X129368777Y-94723314D01*
X129369614Y-94723117D01*
X129370020Y-94723117D01*
X129378297Y-94721806D01*
X129927703Y-94721806D01*
X129935980Y-94723117D01*
X129935980Y-94723117D01*
G37*
G36*
X133852483Y-93374001D02*
G01*
X133853061Y-93374001D01*
X133857575Y-93374899D01*
X133923492Y-93386522D01*
X133927426Y-93388793D01*
X133931487Y-93389601D01*
X133948405Y-93400905D01*
X133984879Y-93421963D01*
X133991207Y-93429504D01*
X133997974Y-93434026D01*
X134009598Y-93451422D01*
X134026797Y-93471920D01*
X134029142Y-93480673D01*
X134042399Y-93500513D01*
X134057999Y-93578939D01*
X134057999Y-93588367D01*
X134059715Y-93594771D01*
X134059715Y-93862751D01*
X134057999Y-93872483D01*
X134057999Y-93873061D01*
X134057101Y-93877575D01*
X134045478Y-93943492D01*
X134043207Y-93947426D01*
X134042399Y-93951487D01*
X134031095Y-93968405D01*
X134010037Y-94004879D01*
X134002496Y-94011207D01*
X133997974Y-94017974D01*
X133980578Y-94029598D01*
X133960080Y-94046797D01*
X133951327Y-94049142D01*
X133931487Y-94062399D01*
X133853061Y-94077999D01*
X133843633Y-94077999D01*
X133837229Y-94079715D01*
X132219249Y-94079715D01*
X132209517Y-94077999D01*
X132208939Y-94077999D01*
X132204425Y-94077101D01*
X132138508Y-94065478D01*
X132134574Y-94063207D01*
X132130513Y-94062399D01*
X132113595Y-94051095D01*
X132077121Y-94030037D01*
X132070793Y-94022496D01*
X132064026Y-94017974D01*
X132052402Y-94000578D01*
X132035203Y-93980080D01*
X132032858Y-93971327D01*
X132019601Y-93951487D01*
X132004001Y-93873061D01*
X132004001Y-93863633D01*
X132002285Y-93857229D01*
X132002285Y-93589249D01*
X132004001Y-93579517D01*
X132004001Y-93578939D01*
X132004899Y-93574425D01*
X132016522Y-93508508D01*
X132018793Y-93504574D01*
X132019601Y-93500513D01*
X132030905Y-93483595D01*
X132051963Y-93447121D01*
X132059504Y-93440793D01*
X132064026Y-93434026D01*
X132081422Y-93422402D01*
X132101920Y-93405203D01*
X132110673Y-93402858D01*
X132130513Y-93389601D01*
X132208939Y-93374001D01*
X132218367Y-93374001D01*
X132224771Y-93372285D01*
X133842751Y-93372285D01*
X133852483Y-93374001D01*
X133852483Y-93374001D01*
G37*
G36*
X128902483Y-93374001D02*
G01*
X128903061Y-93374001D01*
X128907575Y-93374899D01*
X128973492Y-93386522D01*
X128977426Y-93388793D01*
X128981487Y-93389601D01*
X128998405Y-93400905D01*
X129034879Y-93421963D01*
X129041207Y-93429504D01*
X129047974Y-93434026D01*
X129059598Y-93451422D01*
X129076797Y-93471920D01*
X129079142Y-93480673D01*
X129092399Y-93500513D01*
X129107999Y-93578939D01*
X129107999Y-93588367D01*
X129109715Y-93594771D01*
X129109715Y-93862751D01*
X129107999Y-93872483D01*
X129107999Y-93873061D01*
X129107101Y-93877575D01*
X129095478Y-93943492D01*
X129093207Y-93947426D01*
X129092399Y-93951487D01*
X129081095Y-93968405D01*
X129060037Y-94004879D01*
X129052496Y-94011207D01*
X129047974Y-94017974D01*
X129030578Y-94029598D01*
X129010080Y-94046797D01*
X129001327Y-94049142D01*
X128981487Y-94062399D01*
X128903061Y-94077999D01*
X128893633Y-94077999D01*
X128887229Y-94079715D01*
X127269249Y-94079715D01*
X127259517Y-94077999D01*
X127258939Y-94077999D01*
X127254425Y-94077101D01*
X127188508Y-94065478D01*
X127184574Y-94063207D01*
X127180513Y-94062399D01*
X127163595Y-94051095D01*
X127127121Y-94030037D01*
X127120793Y-94022496D01*
X127114026Y-94017974D01*
X127102402Y-94000578D01*
X127085203Y-93980080D01*
X127082858Y-93971327D01*
X127069601Y-93951487D01*
X127054001Y-93873061D01*
X127054001Y-93863633D01*
X127052285Y-93857229D01*
X127052285Y-93589249D01*
X127054001Y-93579517D01*
X127054001Y-93578939D01*
X127054899Y-93574425D01*
X127066522Y-93508508D01*
X127068793Y-93504574D01*
X127069601Y-93500513D01*
X127080905Y-93483595D01*
X127101963Y-93447121D01*
X127109504Y-93440793D01*
X127114026Y-93434026D01*
X127131422Y-93422402D01*
X127151920Y-93405203D01*
X127160673Y-93402858D01*
X127180513Y-93389601D01*
X127258939Y-93374001D01*
X127268367Y-93374001D01*
X127274771Y-93372285D01*
X128892751Y-93372285D01*
X128902483Y-93374001D01*
X128902483Y-93374001D01*
G37*
G36*
X137094360Y-91569835D02*
G01*
X137175397Y-91596166D01*
X137262663Y-91623848D01*
X137265655Y-91625493D01*
X137274488Y-91628363D01*
X137346466Y-91669919D01*
X137417499Y-91708970D01*
X137424986Y-91715253D01*
X137438511Y-91723061D01*
X137496259Y-91775057D01*
X137552857Y-91822549D01*
X137562962Y-91835118D01*
X137579261Y-91849793D01*
X137621454Y-91907867D01*
X137663579Y-91960260D01*
X137673994Y-91980182D01*
X137690586Y-92003019D01*
X137717297Y-92063012D01*
X137745439Y-92116843D01*
X137753582Y-92144510D01*
X137767621Y-92176042D01*
X137779992Y-92234241D01*
X137795328Y-92286349D01*
X137798518Y-92321401D01*
X137806999Y-92361301D01*
X137806999Y-92414592D01*
X137811343Y-92462324D01*
X137806999Y-92503653D01*
X137806999Y-92550699D01*
X137797217Y-92596721D01*
X137792873Y-92638047D01*
X137778702Y-92683827D01*
X137767621Y-92735958D01*
X137751028Y-92773226D01*
X137740622Y-92806843D01*
X137714789Y-92854620D01*
X137690586Y-92908981D01*
X137670298Y-92936905D01*
X137656580Y-92962276D01*
X137617859Y-93009082D01*
X137579261Y-93062207D01*
X137558284Y-93081095D01*
X137543952Y-93098419D01*
X137491845Y-93140917D01*
X137438511Y-93188939D01*
X137419524Y-93199901D01*
X137407025Y-93210095D01*
X137341780Y-93244786D01*
X137274488Y-93283637D01*
X137259636Y-93288463D01*
X137251003Y-93293053D01*
X137173430Y-93316473D01*
X137094360Y-93342165D01*
X137085114Y-93343137D01*
X137081851Y-93344122D01*
X136990710Y-93353059D01*
X136953211Y-93357000D01*
X136858789Y-93357000D01*
X136717640Y-93342165D01*
X136636603Y-93315834D01*
X136549337Y-93288152D01*
X136546345Y-93286507D01*
X136537512Y-93283637D01*
X136465534Y-93242081D01*
X136394501Y-93203030D01*
X136387014Y-93196747D01*
X136373489Y-93188939D01*
X136315741Y-93136943D01*
X136259143Y-93089451D01*
X136249038Y-93076882D01*
X136232739Y-93062207D01*
X136190546Y-93004133D01*
X136148421Y-92951740D01*
X136138006Y-92931818D01*
X136121414Y-92908981D01*
X136094703Y-92848988D01*
X136066561Y-92795157D01*
X136058418Y-92767490D01*
X136044379Y-92735958D01*
X136032008Y-92677759D01*
X136016672Y-92625651D01*
X136013482Y-92590599D01*
X136005001Y-92550699D01*
X136005001Y-92497408D01*
X136000657Y-92449676D01*
X136005001Y-92408347D01*
X136005001Y-92361301D01*
X136014783Y-92315279D01*
X136019127Y-92273953D01*
X136033298Y-92228173D01*
X136044379Y-92176042D01*
X136060972Y-92138774D01*
X136071378Y-92105157D01*
X136097211Y-92057380D01*
X136121414Y-92003019D01*
X136141702Y-91975095D01*
X136155420Y-91949724D01*
X136194141Y-91902918D01*
X136232739Y-91849793D01*
X136253716Y-91830905D01*
X136268048Y-91813581D01*
X136320155Y-91771083D01*
X136373489Y-91723061D01*
X136392476Y-91712099D01*
X136404975Y-91701905D01*
X136470220Y-91667214D01*
X136537512Y-91628363D01*
X136552364Y-91623537D01*
X136560997Y-91618947D01*
X136638570Y-91595527D01*
X136717640Y-91569835D01*
X136726886Y-91568863D01*
X136730149Y-91567878D01*
X136821290Y-91558941D01*
X136858789Y-91555000D01*
X136953211Y-91555000D01*
X137094360Y-91569835D01*
X137094360Y-91569835D01*
G37*
G36*
X124394360Y-91569835D02*
G01*
X124475397Y-91596166D01*
X124562663Y-91623848D01*
X124565655Y-91625493D01*
X124574488Y-91628363D01*
X124646466Y-91669919D01*
X124717499Y-91708970D01*
X124724986Y-91715253D01*
X124738511Y-91723061D01*
X124796259Y-91775057D01*
X124852857Y-91822549D01*
X124862962Y-91835118D01*
X124879261Y-91849793D01*
X124921454Y-91907867D01*
X124963579Y-91960260D01*
X124973994Y-91980182D01*
X124990586Y-92003019D01*
X125017297Y-92063012D01*
X125045439Y-92116843D01*
X125053582Y-92144510D01*
X125067621Y-92176042D01*
X125079992Y-92234241D01*
X125095328Y-92286349D01*
X125098518Y-92321401D01*
X125106999Y-92361301D01*
X125106999Y-92414592D01*
X125111343Y-92462324D01*
X125106999Y-92503653D01*
X125106999Y-92550699D01*
X125097217Y-92596721D01*
X125092873Y-92638047D01*
X125078702Y-92683827D01*
X125067621Y-92735958D01*
X125051028Y-92773226D01*
X125040622Y-92806843D01*
X125014789Y-92854620D01*
X124990586Y-92908981D01*
X124970298Y-92936905D01*
X124956580Y-92962276D01*
X124917859Y-93009082D01*
X124879261Y-93062207D01*
X124858284Y-93081095D01*
X124843952Y-93098419D01*
X124791845Y-93140917D01*
X124738511Y-93188939D01*
X124719524Y-93199901D01*
X124707025Y-93210095D01*
X124641780Y-93244786D01*
X124574488Y-93283637D01*
X124559636Y-93288463D01*
X124551003Y-93293053D01*
X124473430Y-93316473D01*
X124394360Y-93342165D01*
X124385114Y-93343137D01*
X124381851Y-93344122D01*
X124290710Y-93353059D01*
X124253211Y-93357000D01*
X124158789Y-93357000D01*
X124017640Y-93342165D01*
X123936603Y-93315834D01*
X123849337Y-93288152D01*
X123846345Y-93286507D01*
X123837512Y-93283637D01*
X123765534Y-93242081D01*
X123694501Y-93203030D01*
X123687014Y-93196747D01*
X123673489Y-93188939D01*
X123615741Y-93136943D01*
X123559143Y-93089451D01*
X123549038Y-93076882D01*
X123532739Y-93062207D01*
X123490546Y-93004133D01*
X123448421Y-92951740D01*
X123438006Y-92931818D01*
X123421414Y-92908981D01*
X123394703Y-92848988D01*
X123366561Y-92795157D01*
X123358418Y-92767490D01*
X123344379Y-92735958D01*
X123332008Y-92677759D01*
X123316672Y-92625651D01*
X123313482Y-92590599D01*
X123305001Y-92550699D01*
X123305001Y-92497408D01*
X123300657Y-92449676D01*
X123305001Y-92408347D01*
X123305001Y-92361301D01*
X123314783Y-92315279D01*
X123319127Y-92273953D01*
X123333298Y-92228173D01*
X123344379Y-92176042D01*
X123360972Y-92138774D01*
X123371378Y-92105157D01*
X123397211Y-92057380D01*
X123421414Y-92003019D01*
X123441702Y-91975095D01*
X123455420Y-91949724D01*
X123494141Y-91902918D01*
X123532739Y-91849793D01*
X123553716Y-91830905D01*
X123568048Y-91813581D01*
X123620155Y-91771083D01*
X123673489Y-91723061D01*
X123692476Y-91712099D01*
X123704975Y-91701905D01*
X123770220Y-91667214D01*
X123837512Y-91628363D01*
X123852364Y-91623537D01*
X123860997Y-91618947D01*
X123938570Y-91595527D01*
X124017640Y-91569835D01*
X124026886Y-91568863D01*
X124030149Y-91567878D01*
X124121290Y-91558941D01*
X124158789Y-91555000D01*
X124253211Y-91555000D01*
X124394360Y-91569835D01*
X124394360Y-91569835D01*
G37*
G36*
X133852483Y-92104001D02*
G01*
X133853061Y-92104001D01*
X133857575Y-92104899D01*
X133923492Y-92116522D01*
X133927426Y-92118793D01*
X133931487Y-92119601D01*
X133948405Y-92130905D01*
X133984879Y-92151963D01*
X133991207Y-92159504D01*
X133997974Y-92164026D01*
X134009598Y-92181422D01*
X134026797Y-92201920D01*
X134029142Y-92210673D01*
X134042399Y-92230513D01*
X134057999Y-92308939D01*
X134057999Y-92318367D01*
X134059715Y-92324771D01*
X134059715Y-92592751D01*
X134057999Y-92602483D01*
X134057999Y-92603061D01*
X134057101Y-92607575D01*
X134045478Y-92673492D01*
X134043207Y-92677426D01*
X134042399Y-92681487D01*
X134031095Y-92698405D01*
X134010037Y-92734879D01*
X134002496Y-92741207D01*
X133997974Y-92747974D01*
X133980578Y-92759598D01*
X133960080Y-92776797D01*
X133951327Y-92779142D01*
X133931487Y-92792399D01*
X133853061Y-92807999D01*
X133843633Y-92807999D01*
X133837229Y-92809715D01*
X132219249Y-92809715D01*
X132209517Y-92807999D01*
X132208939Y-92807999D01*
X132204425Y-92807101D01*
X132138508Y-92795478D01*
X132134574Y-92793207D01*
X132130513Y-92792399D01*
X132113595Y-92781095D01*
X132077121Y-92760037D01*
X132070793Y-92752496D01*
X132064026Y-92747974D01*
X132052402Y-92730578D01*
X132035203Y-92710080D01*
X132032858Y-92701327D01*
X132019601Y-92681487D01*
X132004001Y-92603061D01*
X132004001Y-92593633D01*
X132002285Y-92587229D01*
X132002285Y-92319249D01*
X132004001Y-92309517D01*
X132004001Y-92308939D01*
X132004899Y-92304425D01*
X132016522Y-92238508D01*
X132018793Y-92234574D01*
X132019601Y-92230513D01*
X132030905Y-92213595D01*
X132051963Y-92177121D01*
X132059504Y-92170793D01*
X132064026Y-92164026D01*
X132081422Y-92152402D01*
X132101920Y-92135203D01*
X132110673Y-92132858D01*
X132130513Y-92119601D01*
X132208939Y-92104001D01*
X132218367Y-92104001D01*
X132224771Y-92102285D01*
X133842751Y-92102285D01*
X133852483Y-92104001D01*
X133852483Y-92104001D01*
G37*
G36*
X128902483Y-92104001D02*
G01*
X128903061Y-92104001D01*
X128907575Y-92104899D01*
X128973492Y-92116522D01*
X128977426Y-92118793D01*
X128981487Y-92119601D01*
X128998405Y-92130905D01*
X129034879Y-92151963D01*
X129041207Y-92159504D01*
X129047974Y-92164026D01*
X129059598Y-92181422D01*
X129076797Y-92201920D01*
X129079142Y-92210673D01*
X129092399Y-92230513D01*
X129107999Y-92308939D01*
X129107999Y-92318367D01*
X129109715Y-92324771D01*
X129109715Y-92592751D01*
X129107999Y-92602483D01*
X129107999Y-92603061D01*
X129107101Y-92607575D01*
X129095478Y-92673492D01*
X129093207Y-92677426D01*
X129092399Y-92681487D01*
X129081095Y-92698405D01*
X129060037Y-92734879D01*
X129052496Y-92741207D01*
X129047974Y-92747974D01*
X129030578Y-92759598D01*
X129010080Y-92776797D01*
X129001327Y-92779142D01*
X128981487Y-92792399D01*
X128903061Y-92807999D01*
X128893633Y-92807999D01*
X128887229Y-92809715D01*
X127269249Y-92809715D01*
X127259517Y-92807999D01*
X127258939Y-92807999D01*
X127254425Y-92807101D01*
X127188508Y-92795478D01*
X127184574Y-92793207D01*
X127180513Y-92792399D01*
X127163595Y-92781095D01*
X127127121Y-92760037D01*
X127120793Y-92752496D01*
X127114026Y-92747974D01*
X127102402Y-92730578D01*
X127085203Y-92710080D01*
X127082858Y-92701327D01*
X127069601Y-92681487D01*
X127054001Y-92603061D01*
X127054001Y-92593633D01*
X127052285Y-92587229D01*
X127052285Y-92319249D01*
X127054001Y-92309517D01*
X127054001Y-92308939D01*
X127054899Y-92304425D01*
X127066522Y-92238508D01*
X127068793Y-92234574D01*
X127069601Y-92230513D01*
X127080905Y-92213595D01*
X127101963Y-92177121D01*
X127109504Y-92170793D01*
X127114026Y-92164026D01*
X127131422Y-92152402D01*
X127151920Y-92135203D01*
X127160673Y-92132858D01*
X127180513Y-92119601D01*
X127258939Y-92104001D01*
X127268367Y-92104001D01*
X127274771Y-92102285D01*
X128892751Y-92102285D01*
X128902483Y-92104001D01*
X128902483Y-92104001D01*
G37*
G36*
X128902483Y-90834001D02*
G01*
X128903061Y-90834001D01*
X128907575Y-90834899D01*
X128973492Y-90846522D01*
X128977426Y-90848793D01*
X128981487Y-90849601D01*
X128998405Y-90860905D01*
X129034879Y-90881963D01*
X129041207Y-90889504D01*
X129047974Y-90894026D01*
X129059598Y-90911422D01*
X129076797Y-90931920D01*
X129079142Y-90940673D01*
X129092399Y-90960513D01*
X129107999Y-91038939D01*
X129107999Y-91048367D01*
X129109715Y-91054771D01*
X129109715Y-91322751D01*
X129107999Y-91332483D01*
X129107999Y-91333061D01*
X129107101Y-91337575D01*
X129095478Y-91403492D01*
X129093207Y-91407426D01*
X129092399Y-91411487D01*
X129081095Y-91428405D01*
X129060037Y-91464879D01*
X129052496Y-91471207D01*
X129047974Y-91477974D01*
X129030578Y-91489598D01*
X129010080Y-91506797D01*
X129001327Y-91509142D01*
X128981487Y-91522399D01*
X128903061Y-91537999D01*
X128893633Y-91537999D01*
X128887229Y-91539715D01*
X127269249Y-91539715D01*
X127259517Y-91537999D01*
X127258939Y-91537999D01*
X127254425Y-91537101D01*
X127188508Y-91525478D01*
X127184574Y-91523207D01*
X127180513Y-91522399D01*
X127163595Y-91511095D01*
X127127121Y-91490037D01*
X127120793Y-91482496D01*
X127114026Y-91477974D01*
X127102402Y-91460578D01*
X127085203Y-91440080D01*
X127082858Y-91431327D01*
X127069601Y-91411487D01*
X127054001Y-91333061D01*
X127054001Y-91323633D01*
X127052285Y-91317229D01*
X127052285Y-91049249D01*
X127054001Y-91039517D01*
X127054001Y-91038939D01*
X127054899Y-91034425D01*
X127066522Y-90968508D01*
X127068793Y-90964574D01*
X127069601Y-90960513D01*
X127080905Y-90943595D01*
X127101963Y-90907121D01*
X127109504Y-90900793D01*
X127114026Y-90894026D01*
X127131422Y-90882402D01*
X127151920Y-90865203D01*
X127160673Y-90862858D01*
X127180513Y-90849601D01*
X127258939Y-90834001D01*
X127268367Y-90834001D01*
X127274771Y-90832285D01*
X128892751Y-90832285D01*
X128902483Y-90834001D01*
X128902483Y-90834001D01*
G37*
G36*
X133852483Y-90834001D02*
G01*
X133853061Y-90834001D01*
X133857575Y-90834899D01*
X133923492Y-90846522D01*
X133927426Y-90848793D01*
X133931487Y-90849601D01*
X133948405Y-90860905D01*
X133984879Y-90881963D01*
X133991207Y-90889504D01*
X133997974Y-90894026D01*
X134009598Y-90911422D01*
X134026797Y-90931920D01*
X134029142Y-90940673D01*
X134042399Y-90960513D01*
X134057999Y-91038939D01*
X134057999Y-91048367D01*
X134059715Y-91054771D01*
X134059715Y-91322751D01*
X134057999Y-91332483D01*
X134057999Y-91333061D01*
X134057101Y-91337575D01*
X134045478Y-91403492D01*
X134043207Y-91407426D01*
X134042399Y-91411487D01*
X134031095Y-91428405D01*
X134010037Y-91464879D01*
X134002496Y-91471207D01*
X133997974Y-91477974D01*
X133980578Y-91489598D01*
X133960080Y-91506797D01*
X133951327Y-91509142D01*
X133931487Y-91522399D01*
X133853061Y-91537999D01*
X133843633Y-91537999D01*
X133837229Y-91539715D01*
X132219249Y-91539715D01*
X132209517Y-91537999D01*
X132208939Y-91537999D01*
X132204425Y-91537101D01*
X132138508Y-91525478D01*
X132134574Y-91523207D01*
X132130513Y-91522399D01*
X132113595Y-91511095D01*
X132077121Y-91490037D01*
X132070793Y-91482496D01*
X132064026Y-91477974D01*
X132052402Y-91460578D01*
X132035203Y-91440080D01*
X132032858Y-91431327D01*
X132019601Y-91411487D01*
X132004001Y-91333061D01*
X132004001Y-91323633D01*
X132002285Y-91317229D01*
X132002285Y-91049249D01*
X132004001Y-91039517D01*
X132004001Y-91038939D01*
X132004899Y-91034425D01*
X132016522Y-90968508D01*
X132018793Y-90964574D01*
X132019601Y-90960513D01*
X132030905Y-90943595D01*
X132051963Y-90907121D01*
X132059504Y-90900793D01*
X132064026Y-90894026D01*
X132081422Y-90882402D01*
X132101920Y-90865203D01*
X132110673Y-90862858D01*
X132130513Y-90849601D01*
X132208939Y-90834001D01*
X132218367Y-90834001D01*
X132224771Y-90832285D01*
X133842751Y-90832285D01*
X133852483Y-90834001D01*
X133852483Y-90834001D01*
G37*
G36*
X124394360Y-89029835D02*
G01*
X124475397Y-89056166D01*
X124562663Y-89083848D01*
X124565655Y-89085493D01*
X124574488Y-89088363D01*
X124646466Y-89129919D01*
X124717499Y-89168970D01*
X124724986Y-89175253D01*
X124738511Y-89183061D01*
X124796259Y-89235057D01*
X124852857Y-89282549D01*
X124862962Y-89295118D01*
X124879261Y-89309793D01*
X124921454Y-89367867D01*
X124963579Y-89420260D01*
X124973994Y-89440182D01*
X124990586Y-89463019D01*
X125017297Y-89523012D01*
X125045439Y-89576843D01*
X125053582Y-89604510D01*
X125067621Y-89636042D01*
X125079992Y-89694241D01*
X125095328Y-89746349D01*
X125098518Y-89781401D01*
X125106999Y-89821301D01*
X125106999Y-89874592D01*
X125111343Y-89922324D01*
X125106999Y-89963653D01*
X125106999Y-90010699D01*
X125097217Y-90056721D01*
X125092873Y-90098047D01*
X125078702Y-90143827D01*
X125067621Y-90195958D01*
X125051028Y-90233226D01*
X125040622Y-90266843D01*
X125014789Y-90314620D01*
X124990586Y-90368981D01*
X124970298Y-90396905D01*
X124956580Y-90422276D01*
X124917859Y-90469082D01*
X124879261Y-90522207D01*
X124858284Y-90541095D01*
X124843952Y-90558419D01*
X124791845Y-90600917D01*
X124738511Y-90648939D01*
X124719524Y-90659901D01*
X124707025Y-90670095D01*
X124641780Y-90704786D01*
X124574488Y-90743637D01*
X124559636Y-90748463D01*
X124551003Y-90753053D01*
X124473430Y-90776473D01*
X124394360Y-90802165D01*
X124385114Y-90803137D01*
X124381851Y-90804122D01*
X124290710Y-90813059D01*
X124253211Y-90817000D01*
X124158789Y-90817000D01*
X124017640Y-90802165D01*
X123936603Y-90775834D01*
X123849337Y-90748152D01*
X123846345Y-90746507D01*
X123837512Y-90743637D01*
X123765534Y-90702081D01*
X123694501Y-90663030D01*
X123687014Y-90656747D01*
X123673489Y-90648939D01*
X123615741Y-90596943D01*
X123559143Y-90549451D01*
X123549038Y-90536882D01*
X123532739Y-90522207D01*
X123490546Y-90464133D01*
X123448421Y-90411740D01*
X123438006Y-90391818D01*
X123421414Y-90368981D01*
X123394703Y-90308988D01*
X123366561Y-90255157D01*
X123358418Y-90227490D01*
X123344379Y-90195958D01*
X123332008Y-90137759D01*
X123316672Y-90085651D01*
X123313482Y-90050599D01*
X123305001Y-90010699D01*
X123305001Y-89957408D01*
X123300657Y-89909676D01*
X123305001Y-89868347D01*
X123305001Y-89821301D01*
X123314783Y-89775279D01*
X123319127Y-89733953D01*
X123333298Y-89688173D01*
X123344379Y-89636042D01*
X123360972Y-89598774D01*
X123371378Y-89565157D01*
X123397211Y-89517380D01*
X123421414Y-89463019D01*
X123441702Y-89435095D01*
X123455420Y-89409724D01*
X123494141Y-89362918D01*
X123532739Y-89309793D01*
X123553716Y-89290905D01*
X123568048Y-89273581D01*
X123620155Y-89231083D01*
X123673489Y-89183061D01*
X123692476Y-89172099D01*
X123704975Y-89161905D01*
X123770220Y-89127214D01*
X123837512Y-89088363D01*
X123852364Y-89083537D01*
X123860997Y-89078947D01*
X123938570Y-89055527D01*
X124017640Y-89029835D01*
X124026886Y-89028863D01*
X124030149Y-89027878D01*
X124121290Y-89018941D01*
X124158789Y-89015000D01*
X124253211Y-89015000D01*
X124394360Y-89029835D01*
X124394360Y-89029835D01*
G37*
G36*
X137094360Y-89029835D02*
G01*
X137175397Y-89056166D01*
X137262663Y-89083848D01*
X137265655Y-89085493D01*
X137274488Y-89088363D01*
X137346466Y-89129919D01*
X137417499Y-89168970D01*
X137424986Y-89175253D01*
X137438511Y-89183061D01*
X137496259Y-89235057D01*
X137552857Y-89282549D01*
X137562962Y-89295118D01*
X137579261Y-89309793D01*
X137621454Y-89367867D01*
X137663579Y-89420260D01*
X137673994Y-89440182D01*
X137690586Y-89463019D01*
X137717297Y-89523012D01*
X137745439Y-89576843D01*
X137753582Y-89604510D01*
X137767621Y-89636042D01*
X137779992Y-89694241D01*
X137795328Y-89746349D01*
X137798518Y-89781401D01*
X137806999Y-89821301D01*
X137806999Y-89874592D01*
X137811343Y-89922324D01*
X137806999Y-89963653D01*
X137806999Y-90010699D01*
X137797217Y-90056721D01*
X137792873Y-90098047D01*
X137778702Y-90143827D01*
X137767621Y-90195958D01*
X137751028Y-90233226D01*
X137740622Y-90266843D01*
X137714789Y-90314620D01*
X137690586Y-90368981D01*
X137670298Y-90396905D01*
X137656580Y-90422276D01*
X137617859Y-90469082D01*
X137579261Y-90522207D01*
X137558284Y-90541095D01*
X137543952Y-90558419D01*
X137491845Y-90600917D01*
X137438511Y-90648939D01*
X137419524Y-90659901D01*
X137407025Y-90670095D01*
X137341780Y-90704786D01*
X137274488Y-90743637D01*
X137259636Y-90748463D01*
X137251003Y-90753053D01*
X137173430Y-90776473D01*
X137094360Y-90802165D01*
X137085114Y-90803137D01*
X137081851Y-90804122D01*
X136990710Y-90813059D01*
X136953211Y-90817000D01*
X136858789Y-90817000D01*
X136717640Y-90802165D01*
X136636603Y-90775834D01*
X136549337Y-90748152D01*
X136546345Y-90746507D01*
X136537512Y-90743637D01*
X136465534Y-90702081D01*
X136394501Y-90663030D01*
X136387014Y-90656747D01*
X136373489Y-90648939D01*
X136315741Y-90596943D01*
X136259143Y-90549451D01*
X136249038Y-90536882D01*
X136232739Y-90522207D01*
X136190546Y-90464133D01*
X136148421Y-90411740D01*
X136138006Y-90391818D01*
X136121414Y-90368981D01*
X136094703Y-90308988D01*
X136066561Y-90255157D01*
X136058418Y-90227490D01*
X136044379Y-90195958D01*
X136032008Y-90137759D01*
X136016672Y-90085651D01*
X136013482Y-90050599D01*
X136005001Y-90010699D01*
X136005001Y-89957408D01*
X136000657Y-89909676D01*
X136005001Y-89868347D01*
X136005001Y-89821301D01*
X136014783Y-89775279D01*
X136019127Y-89733953D01*
X136033298Y-89688173D01*
X136044379Y-89636042D01*
X136060972Y-89598774D01*
X136071378Y-89565157D01*
X136097211Y-89517380D01*
X136121414Y-89463019D01*
X136141702Y-89435095D01*
X136155420Y-89409724D01*
X136194141Y-89362918D01*
X136232739Y-89309793D01*
X136253716Y-89290905D01*
X136268048Y-89273581D01*
X136320155Y-89231083D01*
X136373489Y-89183061D01*
X136392476Y-89172099D01*
X136404975Y-89161905D01*
X136470220Y-89127214D01*
X136537512Y-89088363D01*
X136552364Y-89083537D01*
X136560997Y-89078947D01*
X136638570Y-89055527D01*
X136717640Y-89029835D01*
X136726886Y-89028863D01*
X136730149Y-89027878D01*
X136821290Y-89018941D01*
X136858789Y-89015000D01*
X136953211Y-89015000D01*
X137094360Y-89029835D01*
X137094360Y-89029835D01*
G37*
G36*
X128902483Y-89564001D02*
G01*
X128903061Y-89564001D01*
X128907575Y-89564899D01*
X128973492Y-89576522D01*
X128977426Y-89578793D01*
X128981487Y-89579601D01*
X128998405Y-89590905D01*
X129034879Y-89611963D01*
X129041207Y-89619504D01*
X129047974Y-89624026D01*
X129059598Y-89641422D01*
X129076797Y-89661920D01*
X129079142Y-89670673D01*
X129092399Y-89690513D01*
X129107999Y-89768939D01*
X129107999Y-89778367D01*
X129109715Y-89784771D01*
X129109715Y-90052751D01*
X129107999Y-90062483D01*
X129107999Y-90063061D01*
X129107101Y-90067575D01*
X129095478Y-90133492D01*
X129093207Y-90137426D01*
X129092399Y-90141487D01*
X129081095Y-90158405D01*
X129060037Y-90194879D01*
X129052496Y-90201207D01*
X129047974Y-90207974D01*
X129030578Y-90219598D01*
X129010080Y-90236797D01*
X129001327Y-90239142D01*
X128981487Y-90252399D01*
X128903061Y-90267999D01*
X128893633Y-90267999D01*
X128887229Y-90269715D01*
X127269249Y-90269715D01*
X127259517Y-90267999D01*
X127258939Y-90267999D01*
X127254425Y-90267101D01*
X127188508Y-90255478D01*
X127184574Y-90253207D01*
X127180513Y-90252399D01*
X127163595Y-90241095D01*
X127127121Y-90220037D01*
X127120793Y-90212496D01*
X127114026Y-90207974D01*
X127102402Y-90190578D01*
X127085203Y-90170080D01*
X127082858Y-90161327D01*
X127069601Y-90141487D01*
X127054001Y-90063061D01*
X127054001Y-90053633D01*
X127052285Y-90047229D01*
X127052285Y-89779249D01*
X127054001Y-89769517D01*
X127054001Y-89768939D01*
X127054899Y-89764425D01*
X127066522Y-89698508D01*
X127068793Y-89694574D01*
X127069601Y-89690513D01*
X127080905Y-89673595D01*
X127101963Y-89637121D01*
X127109504Y-89630793D01*
X127114026Y-89624026D01*
X127131422Y-89612402D01*
X127151920Y-89595203D01*
X127160673Y-89592858D01*
X127180513Y-89579601D01*
X127258939Y-89564001D01*
X127268367Y-89564001D01*
X127274771Y-89562285D01*
X128892751Y-89562285D01*
X128902483Y-89564001D01*
X128902483Y-89564001D01*
G37*
G36*
X133852483Y-89564001D02*
G01*
X133853061Y-89564001D01*
X133857575Y-89564899D01*
X133923492Y-89576522D01*
X133927426Y-89578793D01*
X133931487Y-89579601D01*
X133948405Y-89590905D01*
X133984879Y-89611963D01*
X133991207Y-89619504D01*
X133997974Y-89624026D01*
X134009598Y-89641422D01*
X134026797Y-89661920D01*
X134029142Y-89670673D01*
X134042399Y-89690513D01*
X134057999Y-89768939D01*
X134057999Y-89778367D01*
X134059715Y-89784771D01*
X134059715Y-90052751D01*
X134057999Y-90062483D01*
X134057999Y-90063061D01*
X134057101Y-90067575D01*
X134045478Y-90133492D01*
X134043207Y-90137426D01*
X134042399Y-90141487D01*
X134031095Y-90158405D01*
X134010037Y-90194879D01*
X134002496Y-90201207D01*
X133997974Y-90207974D01*
X133980578Y-90219598D01*
X133960080Y-90236797D01*
X133951327Y-90239142D01*
X133931487Y-90252399D01*
X133853061Y-90267999D01*
X133843633Y-90267999D01*
X133837229Y-90269715D01*
X132219249Y-90269715D01*
X132209517Y-90267999D01*
X132208939Y-90267999D01*
X132204425Y-90267101D01*
X132138508Y-90255478D01*
X132134574Y-90253207D01*
X132130513Y-90252399D01*
X132113595Y-90241095D01*
X132077121Y-90220037D01*
X132070793Y-90212496D01*
X132064026Y-90207974D01*
X132052402Y-90190578D01*
X132035203Y-90170080D01*
X132032858Y-90161327D01*
X132019601Y-90141487D01*
X132004001Y-90063061D01*
X132004001Y-90053633D01*
X132002285Y-90047229D01*
X132002285Y-89779249D01*
X132004001Y-89769517D01*
X132004001Y-89768939D01*
X132004899Y-89764425D01*
X132016522Y-89698508D01*
X132018793Y-89694574D01*
X132019601Y-89690513D01*
X132030905Y-89673595D01*
X132051963Y-89637121D01*
X132059504Y-89630793D01*
X132064026Y-89624026D01*
X132081422Y-89612402D01*
X132101920Y-89595203D01*
X132110673Y-89592858D01*
X132130513Y-89579601D01*
X132208939Y-89564001D01*
X132218367Y-89564001D01*
X132224771Y-89562285D01*
X133842751Y-89562285D01*
X133852483Y-89564001D01*
X133852483Y-89564001D01*
G37*
G36*
X128902483Y-88294001D02*
G01*
X128903061Y-88294001D01*
X128907575Y-88294899D01*
X128973492Y-88306522D01*
X128977426Y-88308793D01*
X128981487Y-88309601D01*
X128998405Y-88320905D01*
X129034879Y-88341963D01*
X129041207Y-88349504D01*
X129047974Y-88354026D01*
X129059598Y-88371422D01*
X129076797Y-88391920D01*
X129079142Y-88400673D01*
X129092399Y-88420513D01*
X129107999Y-88498939D01*
X129107999Y-88508367D01*
X129109715Y-88514771D01*
X129109715Y-88782751D01*
X129107999Y-88792483D01*
X129107999Y-88793061D01*
X129107101Y-88797575D01*
X129095478Y-88863492D01*
X129093207Y-88867426D01*
X129092399Y-88871487D01*
X129081095Y-88888405D01*
X129060037Y-88924879D01*
X129052496Y-88931207D01*
X129047974Y-88937974D01*
X129030578Y-88949598D01*
X129010080Y-88966797D01*
X129001327Y-88969142D01*
X128981487Y-88982399D01*
X128903061Y-88997999D01*
X128893633Y-88997999D01*
X128887229Y-88999715D01*
X127269249Y-88999715D01*
X127259517Y-88997999D01*
X127258939Y-88997999D01*
X127254425Y-88997101D01*
X127188508Y-88985478D01*
X127184574Y-88983207D01*
X127180513Y-88982399D01*
X127163595Y-88971095D01*
X127127121Y-88950037D01*
X127120793Y-88942496D01*
X127114026Y-88937974D01*
X127102402Y-88920578D01*
X127085203Y-88900080D01*
X127082858Y-88891327D01*
X127069601Y-88871487D01*
X127054001Y-88793061D01*
X127054001Y-88783633D01*
X127052285Y-88777229D01*
X127052285Y-88509249D01*
X127054001Y-88499517D01*
X127054001Y-88498939D01*
X127054899Y-88494425D01*
X127066522Y-88428508D01*
X127068793Y-88424574D01*
X127069601Y-88420513D01*
X127080905Y-88403595D01*
X127101963Y-88367121D01*
X127109504Y-88360793D01*
X127114026Y-88354026D01*
X127131422Y-88342402D01*
X127151920Y-88325203D01*
X127160673Y-88322858D01*
X127180513Y-88309601D01*
X127258939Y-88294001D01*
X127268367Y-88294001D01*
X127274771Y-88292285D01*
X128892751Y-88292285D01*
X128902483Y-88294001D01*
X128902483Y-88294001D01*
G37*
G36*
X133852483Y-88294001D02*
G01*
X133853061Y-88294001D01*
X133857575Y-88294899D01*
X133923492Y-88306522D01*
X133927426Y-88308793D01*
X133931487Y-88309601D01*
X133948405Y-88320905D01*
X133984879Y-88341963D01*
X133991207Y-88349504D01*
X133997974Y-88354026D01*
X134009598Y-88371422D01*
X134026797Y-88391920D01*
X134029142Y-88400673D01*
X134042399Y-88420513D01*
X134057999Y-88498939D01*
X134057999Y-88508367D01*
X134059715Y-88514771D01*
X134059715Y-88782751D01*
X134057999Y-88792483D01*
X134057999Y-88793061D01*
X134057101Y-88797575D01*
X134045478Y-88863492D01*
X134043207Y-88867426D01*
X134042399Y-88871487D01*
X134031095Y-88888405D01*
X134010037Y-88924879D01*
X134002496Y-88931207D01*
X133997974Y-88937974D01*
X133980578Y-88949598D01*
X133960080Y-88966797D01*
X133951327Y-88969142D01*
X133931487Y-88982399D01*
X133853061Y-88997999D01*
X133843633Y-88997999D01*
X133837229Y-88999715D01*
X132219249Y-88999715D01*
X132209517Y-88997999D01*
X132208939Y-88997999D01*
X132204425Y-88997101D01*
X132138508Y-88985478D01*
X132134574Y-88983207D01*
X132130513Y-88982399D01*
X132113595Y-88971095D01*
X132077121Y-88950037D01*
X132070793Y-88942496D01*
X132064026Y-88937974D01*
X132052402Y-88920578D01*
X132035203Y-88900080D01*
X132032858Y-88891327D01*
X132019601Y-88871487D01*
X132004001Y-88793061D01*
X132004001Y-88783633D01*
X132002285Y-88777229D01*
X132002285Y-88509249D01*
X132004001Y-88499517D01*
X132004001Y-88498939D01*
X132004899Y-88494425D01*
X132016522Y-88428508D01*
X132018793Y-88424574D01*
X132019601Y-88420513D01*
X132030905Y-88403595D01*
X132051963Y-88367121D01*
X132059504Y-88360793D01*
X132064026Y-88354026D01*
X132081422Y-88342402D01*
X132101920Y-88325203D01*
X132110673Y-88322858D01*
X132130513Y-88309601D01*
X132208939Y-88294001D01*
X132218367Y-88294001D01*
X132224771Y-88292285D01*
X133842751Y-88292285D01*
X133852483Y-88294001D01*
X133852483Y-88294001D01*
G37*
G36*
X124394360Y-86489835D02*
G01*
X124475397Y-86516166D01*
X124562663Y-86543848D01*
X124565655Y-86545493D01*
X124574488Y-86548363D01*
X124646466Y-86589919D01*
X124717499Y-86628970D01*
X124724986Y-86635253D01*
X124738511Y-86643061D01*
X124796259Y-86695057D01*
X124852857Y-86742549D01*
X124862962Y-86755118D01*
X124879261Y-86769793D01*
X124921454Y-86827867D01*
X124963579Y-86880260D01*
X124973994Y-86900182D01*
X124990586Y-86923019D01*
X125017297Y-86983012D01*
X125045439Y-87036843D01*
X125053582Y-87064510D01*
X125067621Y-87096042D01*
X125079992Y-87154241D01*
X125095328Y-87206349D01*
X125098518Y-87241401D01*
X125106999Y-87281301D01*
X125106999Y-87334592D01*
X125111343Y-87382324D01*
X125106999Y-87423653D01*
X125106999Y-87470699D01*
X125097217Y-87516721D01*
X125092873Y-87558047D01*
X125078702Y-87603827D01*
X125067621Y-87655958D01*
X125051028Y-87693226D01*
X125040622Y-87726843D01*
X125014789Y-87774620D01*
X124990586Y-87828981D01*
X124970298Y-87856905D01*
X124956580Y-87882276D01*
X124917859Y-87929082D01*
X124879261Y-87982207D01*
X124858284Y-88001095D01*
X124843952Y-88018419D01*
X124791845Y-88060917D01*
X124738511Y-88108939D01*
X124719524Y-88119901D01*
X124707025Y-88130095D01*
X124641780Y-88164786D01*
X124574488Y-88203637D01*
X124559636Y-88208463D01*
X124551003Y-88213053D01*
X124473430Y-88236473D01*
X124394360Y-88262165D01*
X124385114Y-88263137D01*
X124381851Y-88264122D01*
X124290710Y-88273059D01*
X124253211Y-88277000D01*
X124158789Y-88277000D01*
X124017640Y-88262165D01*
X123936603Y-88235834D01*
X123849337Y-88208152D01*
X123846345Y-88206507D01*
X123837512Y-88203637D01*
X123765534Y-88162081D01*
X123694501Y-88123030D01*
X123687014Y-88116747D01*
X123673489Y-88108939D01*
X123615741Y-88056943D01*
X123559143Y-88009451D01*
X123549038Y-87996882D01*
X123532739Y-87982207D01*
X123490546Y-87924133D01*
X123448421Y-87871740D01*
X123438006Y-87851818D01*
X123421414Y-87828981D01*
X123394703Y-87768988D01*
X123366561Y-87715157D01*
X123358418Y-87687490D01*
X123344379Y-87655958D01*
X123332008Y-87597759D01*
X123316672Y-87545651D01*
X123313482Y-87510599D01*
X123305001Y-87470699D01*
X123305001Y-87417408D01*
X123300657Y-87369676D01*
X123305001Y-87328347D01*
X123305001Y-87281301D01*
X123314783Y-87235279D01*
X123319127Y-87193953D01*
X123333298Y-87148173D01*
X123344379Y-87096042D01*
X123360972Y-87058774D01*
X123371378Y-87025157D01*
X123397211Y-86977380D01*
X123421414Y-86923019D01*
X123441702Y-86895095D01*
X123455420Y-86869724D01*
X123494141Y-86822918D01*
X123532739Y-86769793D01*
X123553716Y-86750905D01*
X123568048Y-86733581D01*
X123620155Y-86691083D01*
X123673489Y-86643061D01*
X123692476Y-86632099D01*
X123704975Y-86621905D01*
X123770220Y-86587214D01*
X123837512Y-86548363D01*
X123852364Y-86543537D01*
X123860997Y-86538947D01*
X123938570Y-86515527D01*
X124017640Y-86489835D01*
X124026886Y-86488863D01*
X124030149Y-86487878D01*
X124121290Y-86478941D01*
X124158789Y-86475000D01*
X124253211Y-86475000D01*
X124394360Y-86489835D01*
X124394360Y-86489835D01*
G37*
G36*
X137094360Y-86489835D02*
G01*
X137175397Y-86516166D01*
X137262663Y-86543848D01*
X137265655Y-86545493D01*
X137274488Y-86548363D01*
X137346466Y-86589919D01*
X137417499Y-86628970D01*
X137424986Y-86635253D01*
X137438511Y-86643061D01*
X137496259Y-86695057D01*
X137552857Y-86742549D01*
X137562962Y-86755118D01*
X137579261Y-86769793D01*
X137621454Y-86827867D01*
X137663579Y-86880260D01*
X137673994Y-86900182D01*
X137690586Y-86923019D01*
X137717297Y-86983012D01*
X137745439Y-87036843D01*
X137753582Y-87064510D01*
X137767621Y-87096042D01*
X137779992Y-87154241D01*
X137795328Y-87206349D01*
X137798518Y-87241401D01*
X137806999Y-87281301D01*
X137806999Y-87334592D01*
X137811343Y-87382324D01*
X137806999Y-87423653D01*
X137806999Y-87470699D01*
X137797217Y-87516721D01*
X137792873Y-87558047D01*
X137778702Y-87603827D01*
X137767621Y-87655958D01*
X137751028Y-87693226D01*
X137740622Y-87726843D01*
X137714789Y-87774620D01*
X137690586Y-87828981D01*
X137670298Y-87856905D01*
X137656580Y-87882276D01*
X137617859Y-87929082D01*
X137579261Y-87982207D01*
X137558284Y-88001095D01*
X137543952Y-88018419D01*
X137491845Y-88060917D01*
X137438511Y-88108939D01*
X137419524Y-88119901D01*
X137407025Y-88130095D01*
X137341780Y-88164786D01*
X137274488Y-88203637D01*
X137259636Y-88208463D01*
X137251003Y-88213053D01*
X137173430Y-88236473D01*
X137094360Y-88262165D01*
X137085114Y-88263137D01*
X137081851Y-88264122D01*
X136990710Y-88273059D01*
X136953211Y-88277000D01*
X136858789Y-88277000D01*
X136717640Y-88262165D01*
X136636603Y-88235834D01*
X136549337Y-88208152D01*
X136546345Y-88206507D01*
X136537512Y-88203637D01*
X136465534Y-88162081D01*
X136394501Y-88123030D01*
X136387014Y-88116747D01*
X136373489Y-88108939D01*
X136315741Y-88056943D01*
X136259143Y-88009451D01*
X136249038Y-87996882D01*
X136232739Y-87982207D01*
X136190546Y-87924133D01*
X136148421Y-87871740D01*
X136138006Y-87851818D01*
X136121414Y-87828981D01*
X136094703Y-87768988D01*
X136066561Y-87715157D01*
X136058418Y-87687490D01*
X136044379Y-87655958D01*
X136032008Y-87597759D01*
X136016672Y-87545651D01*
X136013482Y-87510599D01*
X136005001Y-87470699D01*
X136005001Y-87417408D01*
X136000657Y-87369676D01*
X136005001Y-87328347D01*
X136005001Y-87281301D01*
X136014783Y-87235279D01*
X136019127Y-87193953D01*
X136033298Y-87148173D01*
X136044379Y-87096042D01*
X136060972Y-87058774D01*
X136071378Y-87025157D01*
X136097211Y-86977380D01*
X136121414Y-86923019D01*
X136141702Y-86895095D01*
X136155420Y-86869724D01*
X136194141Y-86822918D01*
X136232739Y-86769793D01*
X136253716Y-86750905D01*
X136268048Y-86733581D01*
X136320155Y-86691083D01*
X136373489Y-86643061D01*
X136392476Y-86632099D01*
X136404975Y-86621905D01*
X136470220Y-86587214D01*
X136537512Y-86548363D01*
X136552364Y-86543537D01*
X136560997Y-86538947D01*
X136638570Y-86515527D01*
X136717640Y-86489835D01*
X136726886Y-86488863D01*
X136730149Y-86487878D01*
X136821290Y-86478941D01*
X136858789Y-86475000D01*
X136953211Y-86475000D01*
X137094360Y-86489835D01*
X137094360Y-86489835D01*
G37*
G36*
X128902483Y-87024001D02*
G01*
X128903061Y-87024001D01*
X128907575Y-87024899D01*
X128973492Y-87036522D01*
X128977426Y-87038793D01*
X128981487Y-87039601D01*
X128998405Y-87050905D01*
X129034879Y-87071963D01*
X129041207Y-87079504D01*
X129047974Y-87084026D01*
X129059598Y-87101422D01*
X129076797Y-87121920D01*
X129079142Y-87130673D01*
X129092399Y-87150513D01*
X129107999Y-87228939D01*
X129107999Y-87238367D01*
X129109715Y-87244771D01*
X129109715Y-87512751D01*
X129107999Y-87522483D01*
X129107999Y-87523061D01*
X129107101Y-87527575D01*
X129095478Y-87593492D01*
X129093207Y-87597426D01*
X129092399Y-87601487D01*
X129081095Y-87618405D01*
X129060037Y-87654879D01*
X129052496Y-87661207D01*
X129047974Y-87667974D01*
X129030578Y-87679598D01*
X129010080Y-87696797D01*
X129001327Y-87699142D01*
X128981487Y-87712399D01*
X128903061Y-87727999D01*
X128893633Y-87727999D01*
X128887229Y-87729715D01*
X127269249Y-87729715D01*
X127259517Y-87727999D01*
X127258939Y-87727999D01*
X127254425Y-87727101D01*
X127188508Y-87715478D01*
X127184574Y-87713207D01*
X127180513Y-87712399D01*
X127163595Y-87701095D01*
X127127121Y-87680037D01*
X127120793Y-87672496D01*
X127114026Y-87667974D01*
X127102402Y-87650578D01*
X127085203Y-87630080D01*
X127082858Y-87621327D01*
X127069601Y-87601487D01*
X127054001Y-87523061D01*
X127054001Y-87513633D01*
X127052285Y-87507229D01*
X127052285Y-87239249D01*
X127054001Y-87229517D01*
X127054001Y-87228939D01*
X127054899Y-87224425D01*
X127066522Y-87158508D01*
X127068793Y-87154574D01*
X127069601Y-87150513D01*
X127080905Y-87133595D01*
X127101963Y-87097121D01*
X127109504Y-87090793D01*
X127114026Y-87084026D01*
X127131422Y-87072402D01*
X127151920Y-87055203D01*
X127160673Y-87052858D01*
X127180513Y-87039601D01*
X127258939Y-87024001D01*
X127268367Y-87024001D01*
X127274771Y-87022285D01*
X128892751Y-87022285D01*
X128902483Y-87024001D01*
X128902483Y-87024001D01*
G37*
G36*
X133852483Y-87024001D02*
G01*
X133853061Y-87024001D01*
X133857575Y-87024899D01*
X133923492Y-87036522D01*
X133927426Y-87038793D01*
X133931487Y-87039601D01*
X133948405Y-87050905D01*
X133984879Y-87071963D01*
X133991207Y-87079504D01*
X133997974Y-87084026D01*
X134009598Y-87101422D01*
X134026797Y-87121920D01*
X134029142Y-87130673D01*
X134042399Y-87150513D01*
X134057999Y-87228939D01*
X134057999Y-87238367D01*
X134059715Y-87244771D01*
X134059715Y-87512751D01*
X134057999Y-87522483D01*
X134057999Y-87523061D01*
X134057101Y-87527575D01*
X134045478Y-87593492D01*
X134043207Y-87597426D01*
X134042399Y-87601487D01*
X134031095Y-87618405D01*
X134010037Y-87654879D01*
X134002496Y-87661207D01*
X133997974Y-87667974D01*
X133980578Y-87679598D01*
X133960080Y-87696797D01*
X133951327Y-87699142D01*
X133931487Y-87712399D01*
X133853061Y-87727999D01*
X133843633Y-87727999D01*
X133837229Y-87729715D01*
X132219249Y-87729715D01*
X132209517Y-87727999D01*
X132208939Y-87727999D01*
X132204425Y-87727101D01*
X132138508Y-87715478D01*
X132134574Y-87713207D01*
X132130513Y-87712399D01*
X132113595Y-87701095D01*
X132077121Y-87680037D01*
X132070793Y-87672496D01*
X132064026Y-87667974D01*
X132052402Y-87650578D01*
X132035203Y-87630080D01*
X132032858Y-87621327D01*
X132019601Y-87601487D01*
X132004001Y-87523061D01*
X132004001Y-87513633D01*
X132002285Y-87507229D01*
X132002285Y-87239249D01*
X132004001Y-87229517D01*
X132004001Y-87228939D01*
X132004899Y-87224425D01*
X132016522Y-87158508D01*
X132018793Y-87154574D01*
X132019601Y-87150513D01*
X132030905Y-87133595D01*
X132051963Y-87097121D01*
X132059504Y-87090793D01*
X132064026Y-87084026D01*
X132081422Y-87072402D01*
X132101920Y-87055203D01*
X132110673Y-87052858D01*
X132130513Y-87039601D01*
X132208939Y-87024001D01*
X132218367Y-87024001D01*
X132224771Y-87022285D01*
X133842751Y-87022285D01*
X133852483Y-87024001D01*
X133852483Y-87024001D01*
G37*
G36*
X128902483Y-85754001D02*
G01*
X128903061Y-85754001D01*
X128907575Y-85754899D01*
X128973492Y-85766522D01*
X128977426Y-85768793D01*
X128981487Y-85769601D01*
X128998405Y-85780905D01*
X129034879Y-85801963D01*
X129041207Y-85809504D01*
X129047974Y-85814026D01*
X129059598Y-85831422D01*
X129076797Y-85851920D01*
X129079142Y-85860673D01*
X129092399Y-85880513D01*
X129107999Y-85958939D01*
X129107999Y-85968367D01*
X129109715Y-85974771D01*
X129109715Y-86242751D01*
X129107999Y-86252483D01*
X129107999Y-86253061D01*
X129107101Y-86257575D01*
X129095478Y-86323492D01*
X129093207Y-86327426D01*
X129092399Y-86331487D01*
X129081095Y-86348405D01*
X129060037Y-86384879D01*
X129052496Y-86391207D01*
X129047974Y-86397974D01*
X129030578Y-86409598D01*
X129010080Y-86426797D01*
X129001327Y-86429142D01*
X128981487Y-86442399D01*
X128903061Y-86457999D01*
X128893633Y-86457999D01*
X128887229Y-86459715D01*
X127269249Y-86459715D01*
X127259517Y-86457999D01*
X127258939Y-86457999D01*
X127254425Y-86457101D01*
X127188508Y-86445478D01*
X127184574Y-86443207D01*
X127180513Y-86442399D01*
X127163595Y-86431095D01*
X127127121Y-86410037D01*
X127120793Y-86402496D01*
X127114026Y-86397974D01*
X127102402Y-86380578D01*
X127085203Y-86360080D01*
X127082858Y-86351327D01*
X127069601Y-86331487D01*
X127054001Y-86253061D01*
X127054001Y-86243633D01*
X127052285Y-86237229D01*
X127052285Y-85969249D01*
X127054001Y-85959517D01*
X127054001Y-85958939D01*
X127054899Y-85954425D01*
X127066522Y-85888508D01*
X127068793Y-85884574D01*
X127069601Y-85880513D01*
X127080905Y-85863595D01*
X127101963Y-85827121D01*
X127109504Y-85820793D01*
X127114026Y-85814026D01*
X127131422Y-85802402D01*
X127151920Y-85785203D01*
X127160673Y-85782858D01*
X127180513Y-85769601D01*
X127258939Y-85754001D01*
X127268367Y-85754001D01*
X127274771Y-85752285D01*
X128892751Y-85752285D01*
X128902483Y-85754001D01*
X128902483Y-85754001D01*
G37*
G36*
X133852483Y-85754001D02*
G01*
X133853061Y-85754001D01*
X133857575Y-85754899D01*
X133923492Y-85766522D01*
X133927426Y-85768793D01*
X133931487Y-85769601D01*
X133948405Y-85780905D01*
X133984879Y-85801963D01*
X133991207Y-85809504D01*
X133997974Y-85814026D01*
X134009598Y-85831422D01*
X134026797Y-85851920D01*
X134029142Y-85860673D01*
X134042399Y-85880513D01*
X134057999Y-85958939D01*
X134057999Y-85968367D01*
X134059715Y-85974771D01*
X134059715Y-86242751D01*
X134057999Y-86252483D01*
X134057999Y-86253061D01*
X134057101Y-86257575D01*
X134045478Y-86323492D01*
X134043207Y-86327426D01*
X134042399Y-86331487D01*
X134031095Y-86348405D01*
X134010037Y-86384879D01*
X134002496Y-86391207D01*
X133997974Y-86397974D01*
X133980578Y-86409598D01*
X133960080Y-86426797D01*
X133951327Y-86429142D01*
X133931487Y-86442399D01*
X133853061Y-86457999D01*
X133843633Y-86457999D01*
X133837229Y-86459715D01*
X132219249Y-86459715D01*
X132209517Y-86457999D01*
X132208939Y-86457999D01*
X132204425Y-86457101D01*
X132138508Y-86445478D01*
X132134574Y-86443207D01*
X132130513Y-86442399D01*
X132113595Y-86431095D01*
X132077121Y-86410037D01*
X132070793Y-86402496D01*
X132064026Y-86397974D01*
X132052402Y-86380578D01*
X132035203Y-86360080D01*
X132032858Y-86351327D01*
X132019601Y-86331487D01*
X132004001Y-86253061D01*
X132004001Y-86243633D01*
X132002285Y-86237229D01*
X132002285Y-85969249D01*
X132004001Y-85959517D01*
X132004001Y-85958939D01*
X132004899Y-85954425D01*
X132016522Y-85888508D01*
X132018793Y-85884574D01*
X132019601Y-85880513D01*
X132030905Y-85863595D01*
X132051963Y-85827121D01*
X132059504Y-85820793D01*
X132064026Y-85814026D01*
X132081422Y-85802402D01*
X132101920Y-85785203D01*
X132110673Y-85782858D01*
X132130513Y-85769601D01*
X132208939Y-85754001D01*
X132218367Y-85754001D01*
X132224771Y-85752285D01*
X133842751Y-85752285D01*
X133852483Y-85754001D01*
X133852483Y-85754001D01*
G37*
G36*
X137094360Y-83949835D02*
G01*
X137175397Y-83976166D01*
X137262663Y-84003848D01*
X137265655Y-84005493D01*
X137274488Y-84008363D01*
X137346466Y-84049919D01*
X137417499Y-84088970D01*
X137424986Y-84095253D01*
X137438511Y-84103061D01*
X137496259Y-84155057D01*
X137552857Y-84202549D01*
X137562962Y-84215118D01*
X137579261Y-84229793D01*
X137621454Y-84287867D01*
X137663579Y-84340260D01*
X137673994Y-84360182D01*
X137690586Y-84383019D01*
X137717297Y-84443012D01*
X137745439Y-84496843D01*
X137753582Y-84524510D01*
X137767621Y-84556042D01*
X137779992Y-84614241D01*
X137795328Y-84666349D01*
X137798518Y-84701401D01*
X137806999Y-84741301D01*
X137806999Y-84794592D01*
X137811343Y-84842324D01*
X137806999Y-84883653D01*
X137806999Y-84930699D01*
X137797217Y-84976721D01*
X137792873Y-85018047D01*
X137778702Y-85063827D01*
X137767621Y-85115958D01*
X137751028Y-85153226D01*
X137740622Y-85186843D01*
X137714789Y-85234620D01*
X137690586Y-85288981D01*
X137670298Y-85316905D01*
X137656580Y-85342276D01*
X137617859Y-85389082D01*
X137579261Y-85442207D01*
X137558284Y-85461095D01*
X137543952Y-85478419D01*
X137491845Y-85520917D01*
X137438511Y-85568939D01*
X137419524Y-85579901D01*
X137407025Y-85590095D01*
X137341780Y-85624786D01*
X137274488Y-85663637D01*
X137259636Y-85668463D01*
X137251003Y-85673053D01*
X137173430Y-85696473D01*
X137094360Y-85722165D01*
X137085114Y-85723137D01*
X137081851Y-85724122D01*
X136990710Y-85733059D01*
X136953211Y-85737000D01*
X136858789Y-85737000D01*
X136717640Y-85722165D01*
X136636603Y-85695834D01*
X136549337Y-85668152D01*
X136546345Y-85666507D01*
X136537512Y-85663637D01*
X136465534Y-85622081D01*
X136394501Y-85583030D01*
X136387014Y-85576747D01*
X136373489Y-85568939D01*
X136315741Y-85516943D01*
X136259143Y-85469451D01*
X136249038Y-85456882D01*
X136232739Y-85442207D01*
X136190546Y-85384133D01*
X136148421Y-85331740D01*
X136138006Y-85311818D01*
X136121414Y-85288981D01*
X136094703Y-85228988D01*
X136066561Y-85175157D01*
X136058418Y-85147490D01*
X136044379Y-85115958D01*
X136032008Y-85057759D01*
X136016672Y-85005651D01*
X136013482Y-84970599D01*
X136005001Y-84930699D01*
X136005001Y-84877408D01*
X136000657Y-84829676D01*
X136005001Y-84788347D01*
X136005001Y-84741301D01*
X136014783Y-84695279D01*
X136019127Y-84653953D01*
X136033298Y-84608173D01*
X136044379Y-84556042D01*
X136060972Y-84518774D01*
X136071378Y-84485157D01*
X136097211Y-84437380D01*
X136121414Y-84383019D01*
X136141702Y-84355095D01*
X136155420Y-84329724D01*
X136194141Y-84282918D01*
X136232739Y-84229793D01*
X136253716Y-84210905D01*
X136268048Y-84193581D01*
X136320155Y-84151083D01*
X136373489Y-84103061D01*
X136392476Y-84092099D01*
X136404975Y-84081905D01*
X136470220Y-84047214D01*
X136537512Y-84008363D01*
X136552364Y-84003537D01*
X136560997Y-83998947D01*
X136638570Y-83975527D01*
X136717640Y-83949835D01*
X136726886Y-83948863D01*
X136730149Y-83947878D01*
X136821290Y-83938941D01*
X136858789Y-83935000D01*
X136953211Y-83935000D01*
X137094360Y-83949835D01*
X137094360Y-83949835D01*
G37*
G36*
X124394360Y-83949835D02*
G01*
X124475397Y-83976166D01*
X124562663Y-84003848D01*
X124565655Y-84005493D01*
X124574488Y-84008363D01*
X124646466Y-84049919D01*
X124717499Y-84088970D01*
X124724986Y-84095253D01*
X124738511Y-84103061D01*
X124796259Y-84155057D01*
X124852857Y-84202549D01*
X124862962Y-84215118D01*
X124879261Y-84229793D01*
X124921454Y-84287867D01*
X124963579Y-84340260D01*
X124973994Y-84360182D01*
X124990586Y-84383019D01*
X125017297Y-84443012D01*
X125045439Y-84496843D01*
X125053582Y-84524510D01*
X125067621Y-84556042D01*
X125079992Y-84614241D01*
X125095328Y-84666349D01*
X125098518Y-84701401D01*
X125106999Y-84741301D01*
X125106999Y-84794592D01*
X125111343Y-84842324D01*
X125106999Y-84883653D01*
X125106999Y-84930699D01*
X125097217Y-84976721D01*
X125092873Y-85018047D01*
X125078702Y-85063827D01*
X125067621Y-85115958D01*
X125051028Y-85153226D01*
X125040622Y-85186843D01*
X125014789Y-85234620D01*
X124990586Y-85288981D01*
X124970298Y-85316905D01*
X124956580Y-85342276D01*
X124917859Y-85389082D01*
X124879261Y-85442207D01*
X124858284Y-85461095D01*
X124843952Y-85478419D01*
X124791845Y-85520917D01*
X124738511Y-85568939D01*
X124719524Y-85579901D01*
X124707025Y-85590095D01*
X124641780Y-85624786D01*
X124574488Y-85663637D01*
X124559636Y-85668463D01*
X124551003Y-85673053D01*
X124473430Y-85696473D01*
X124394360Y-85722165D01*
X124385114Y-85723137D01*
X124381851Y-85724122D01*
X124290710Y-85733059D01*
X124253211Y-85737000D01*
X124158789Y-85737000D01*
X124017640Y-85722165D01*
X123936603Y-85695834D01*
X123849337Y-85668152D01*
X123846345Y-85666507D01*
X123837512Y-85663637D01*
X123765534Y-85622081D01*
X123694501Y-85583030D01*
X123687014Y-85576747D01*
X123673489Y-85568939D01*
X123615741Y-85516943D01*
X123559143Y-85469451D01*
X123549038Y-85456882D01*
X123532739Y-85442207D01*
X123490546Y-85384133D01*
X123448421Y-85331740D01*
X123438006Y-85311818D01*
X123421414Y-85288981D01*
X123394703Y-85228988D01*
X123366561Y-85175157D01*
X123358418Y-85147490D01*
X123344379Y-85115958D01*
X123332008Y-85057759D01*
X123316672Y-85005651D01*
X123313482Y-84970599D01*
X123305001Y-84930699D01*
X123305001Y-84877408D01*
X123300657Y-84829676D01*
X123305001Y-84788347D01*
X123305001Y-84741301D01*
X123314783Y-84695279D01*
X123319127Y-84653953D01*
X123333298Y-84608173D01*
X123344379Y-84556042D01*
X123360972Y-84518774D01*
X123371378Y-84485157D01*
X123397211Y-84437380D01*
X123421414Y-84383019D01*
X123441702Y-84355095D01*
X123455420Y-84329724D01*
X123494141Y-84282918D01*
X123532739Y-84229793D01*
X123553716Y-84210905D01*
X123568048Y-84193581D01*
X123620155Y-84151083D01*
X123673489Y-84103061D01*
X123692476Y-84092099D01*
X123704975Y-84081905D01*
X123770220Y-84047214D01*
X123837512Y-84008363D01*
X123852364Y-84003537D01*
X123860997Y-83998947D01*
X123938570Y-83975527D01*
X124017640Y-83949835D01*
X124026886Y-83948863D01*
X124030149Y-83947878D01*
X124121290Y-83938941D01*
X124158789Y-83935000D01*
X124253211Y-83935000D01*
X124394360Y-83949835D01*
X124394360Y-83949835D01*
G37*
G36*
X128281899Y-80985959D02*
G01*
X128298769Y-80997231D01*
X128310041Y-81014101D01*
X128316448Y-81046312D01*
X128316448Y-82021688D01*
X128313999Y-82034000D01*
X128310041Y-82053899D01*
X128298769Y-82070769D01*
X128281899Y-82082041D01*
X128262000Y-82085999D01*
X128249688Y-82088448D01*
X128097424Y-82088448D01*
X128029844Y-82108291D01*
X127983721Y-82161521D01*
X127973697Y-82231236D01*
X128025549Y-82315715D01*
X128065831Y-82344026D01*
X128116522Y-82375456D01*
X128127431Y-82387320D01*
X128133402Y-82391516D01*
X128172442Y-82436269D01*
X128218707Y-82486581D01*
X128252500Y-82552903D01*
X128282240Y-82610524D01*
X128282580Y-82611939D01*
X128287243Y-82621091D01*
X128300178Y-82685240D01*
X128313374Y-82740204D01*
X128313320Y-82750417D01*
X128317083Y-82769077D01*
X128312926Y-82825682D01*
X128312675Y-82873566D01*
X128308060Y-82891940D01*
X128306026Y-82919636D01*
X128289744Y-82964861D01*
X128280187Y-83002911D01*
X128267247Y-83027350D01*
X128254889Y-83061676D01*
X128232072Y-83093782D01*
X128217779Y-83120777D01*
X128193608Y-83147906D01*
X128167438Y-83184731D01*
X128143601Y-83204034D01*
X128129063Y-83220351D01*
X128091965Y-83245847D01*
X128050116Y-83279736D01*
X128029974Y-83288452D01*
X128019152Y-83295890D01*
X127968952Y-83314859D01*
X127946807Y-83324443D01*
X127893824Y-83364461D01*
X127869493Y-83430558D01*
X127884760Y-83499316D01*
X127948805Y-83555401D01*
X127960791Y-83560074D01*
X127988219Y-83565904D01*
X128009352Y-83579007D01*
X128024292Y-83584832D01*
X128065828Y-83614024D01*
X128116522Y-83645456D01*
X128127431Y-83657320D01*
X128133402Y-83661516D01*
X128172442Y-83706269D01*
X128218707Y-83756581D01*
X128252500Y-83822903D01*
X128282240Y-83880524D01*
X128282580Y-83881939D01*
X128287243Y-83891091D01*
X128300178Y-83955240D01*
X128313374Y-84010204D01*
X128313320Y-84020417D01*
X128317083Y-84039077D01*
X128312926Y-84095682D01*
X128312675Y-84143566D01*
X128308060Y-84161940D01*
X128306026Y-84189636D01*
X128289744Y-84234861D01*
X128280187Y-84272911D01*
X128267247Y-84297350D01*
X128254889Y-84331676D01*
X128232072Y-84363782D01*
X128217779Y-84390777D01*
X128193608Y-84417906D01*
X128167438Y-84454731D01*
X128143601Y-84474034D01*
X128129063Y-84490351D01*
X128091967Y-84515846D01*
X128050116Y-84549736D01*
X128029971Y-84558453D01*
X128019151Y-84565890D01*
X127968956Y-84584858D01*
X127911568Y-84609692D01*
X127898497Y-84611482D01*
X127894402Y-84613030D01*
X127832634Y-84620504D01*
X127799815Y-84625000D01*
X127730568Y-84625000D01*
X127623657Y-84611494D01*
X127563208Y-84587926D01*
X127535781Y-84582096D01*
X127514648Y-84568993D01*
X127499708Y-84563168D01*
X127458172Y-84533976D01*
X127407478Y-84502544D01*
X127396569Y-84490680D01*
X127390598Y-84486484D01*
X127351558Y-84441731D01*
X127305293Y-84391419D01*
X127271500Y-84325097D01*
X127241760Y-84267476D01*
X127241420Y-84266061D01*
X127236757Y-84256909D01*
X127223822Y-84192760D01*
X127210626Y-84137796D01*
X127210680Y-84127583D01*
X127206917Y-84108923D01*
X127211074Y-84052318D01*
X127211325Y-84004434D01*
X127215940Y-83986060D01*
X127217974Y-83958364D01*
X127234256Y-83913139D01*
X127243813Y-83875089D01*
X127256753Y-83850650D01*
X127269111Y-83816324D01*
X127291928Y-83784218D01*
X127306221Y-83757223D01*
X127330392Y-83730094D01*
X127356562Y-83693269D01*
X127380399Y-83673966D01*
X127394937Y-83657649D01*
X127432035Y-83632153D01*
X127473884Y-83598264D01*
X127494026Y-83589548D01*
X127504848Y-83582110D01*
X127555048Y-83563141D01*
X127577193Y-83553557D01*
X127630176Y-83513539D01*
X127654507Y-83447442D01*
X127639240Y-83378684D01*
X127575195Y-83322599D01*
X127563209Y-83317926D01*
X127535781Y-83312096D01*
X127514648Y-83298993D01*
X127499708Y-83293168D01*
X127458172Y-83263976D01*
X127407478Y-83232544D01*
X127396569Y-83220680D01*
X127390598Y-83216484D01*
X127351558Y-83171731D01*
X127305293Y-83121419D01*
X127271500Y-83055097D01*
X127241760Y-82997476D01*
X127241420Y-82996061D01*
X127236757Y-82986909D01*
X127223822Y-82922760D01*
X127210626Y-82867796D01*
X127210680Y-82857583D01*
X127206917Y-82838923D01*
X127211074Y-82782318D01*
X127211325Y-82734434D01*
X127215940Y-82716060D01*
X127217974Y-82688364D01*
X127234256Y-82643139D01*
X127243813Y-82605089D01*
X127256753Y-82580650D01*
X127269111Y-82546324D01*
X127291928Y-82514218D01*
X127306221Y-82487223D01*
X127330392Y-82460094D01*
X127356562Y-82423269D01*
X127380399Y-82403966D01*
X127394937Y-82387649D01*
X127432034Y-82362153D01*
X127473884Y-82328264D01*
X127494027Y-82319547D01*
X127498516Y-82316462D01*
X127542971Y-82261832D01*
X127550833Y-82191839D01*
X127519607Y-82128707D01*
X127427716Y-82088448D01*
X127274312Y-82088448D01*
X127242101Y-82082041D01*
X127225231Y-82070769D01*
X127213959Y-82053899D01*
X127207552Y-82021688D01*
X127207552Y-81046312D01*
X127213959Y-81014101D01*
X127225231Y-80997231D01*
X127242101Y-80985959D01*
X127274312Y-80979552D01*
X128249688Y-80979552D01*
X128281899Y-80985959D01*
X128281899Y-80985959D01*
G37*
G36*
X130429479Y-81244001D02*
G01*
X130430082Y-81244001D01*
X130433224Y-81244626D01*
X130513862Y-81258082D01*
X130521413Y-81262168D01*
X130528017Y-81263482D01*
X130545815Y-81275374D01*
X130587534Y-81297951D01*
X130600205Y-81311715D01*
X130611043Y-81318957D01*
X130622087Y-81335486D01*
X130644269Y-81359582D01*
X130655892Y-81386079D01*
X130666518Y-81401983D01*
X130669547Y-81417210D01*
X130678982Y-81438720D01*
X130687434Y-81506526D01*
X130687434Y-83082879D01*
X130685999Y-83091479D01*
X130685999Y-83092082D01*
X130685374Y-83095224D01*
X130671918Y-83175862D01*
X130667832Y-83183413D01*
X130666518Y-83190017D01*
X130654626Y-83207815D01*
X130632049Y-83249534D01*
X130618285Y-83262205D01*
X130611043Y-83273043D01*
X130594514Y-83284087D01*
X130570418Y-83306269D01*
X130543921Y-83317892D01*
X130528017Y-83328518D01*
X130512790Y-83331547D01*
X130491280Y-83340982D01*
X130423474Y-83349434D01*
X130047121Y-83349434D01*
X130038521Y-83347999D01*
X130037918Y-83347999D01*
X130034776Y-83347374D01*
X129954138Y-83333918D01*
X129946587Y-83329832D01*
X129939983Y-83328518D01*
X129922185Y-83316626D01*
X129880466Y-83294049D01*
X129867795Y-83280285D01*
X129856957Y-83273043D01*
X129845913Y-83256514D01*
X129823731Y-83232418D01*
X129812108Y-83205921D01*
X129801482Y-83190017D01*
X129798453Y-83174790D01*
X129789018Y-83153280D01*
X129780566Y-83085474D01*
X129780566Y-81509121D01*
X129782001Y-81500521D01*
X129782001Y-81499918D01*
X129782626Y-81496776D01*
X129796082Y-81416138D01*
X129800168Y-81408587D01*
X129801482Y-81401983D01*
X129813374Y-81384185D01*
X129835951Y-81342466D01*
X129849715Y-81329795D01*
X129856957Y-81318957D01*
X129873486Y-81307913D01*
X129897582Y-81285731D01*
X129924079Y-81274108D01*
X129939983Y-81263482D01*
X129955210Y-81260453D01*
X129976720Y-81251018D01*
X130044526Y-81242566D01*
X130420879Y-81242566D01*
X130429479Y-81244001D01*
X130429479Y-81244001D01*
G37*
G36*
X134629479Y-81244001D02*
G01*
X134630082Y-81244001D01*
X134633224Y-81244626D01*
X134713862Y-81258082D01*
X134721413Y-81262168D01*
X134728017Y-81263482D01*
X134745815Y-81275374D01*
X134787534Y-81297951D01*
X134800205Y-81311715D01*
X134811043Y-81318957D01*
X134822087Y-81335486D01*
X134844269Y-81359582D01*
X134855892Y-81386079D01*
X134866518Y-81401983D01*
X134869547Y-81417210D01*
X134878982Y-81438720D01*
X134887434Y-81506526D01*
X134887434Y-83082879D01*
X134885999Y-83091479D01*
X134885999Y-83092082D01*
X134885374Y-83095224D01*
X134871918Y-83175862D01*
X134867832Y-83183413D01*
X134866518Y-83190017D01*
X134854626Y-83207815D01*
X134832049Y-83249534D01*
X134818285Y-83262205D01*
X134811043Y-83273043D01*
X134794514Y-83284087D01*
X134770418Y-83306269D01*
X134743921Y-83317892D01*
X134728017Y-83328518D01*
X134712790Y-83331547D01*
X134691280Y-83340982D01*
X134623474Y-83349434D01*
X134247121Y-83349434D01*
X134238521Y-83347999D01*
X134237918Y-83347999D01*
X134234776Y-83347374D01*
X134154138Y-83333918D01*
X134146587Y-83329832D01*
X134139983Y-83328518D01*
X134122185Y-83316626D01*
X134080466Y-83294049D01*
X134067795Y-83280285D01*
X134056957Y-83273043D01*
X134045913Y-83256514D01*
X134023731Y-83232418D01*
X134012108Y-83205921D01*
X134001482Y-83190017D01*
X133998453Y-83174790D01*
X133989018Y-83153280D01*
X133980566Y-83085474D01*
X133980566Y-81509121D01*
X133982001Y-81500521D01*
X133982001Y-81499918D01*
X133982626Y-81496776D01*
X133996082Y-81416138D01*
X134000168Y-81408587D01*
X134001482Y-81401983D01*
X134013374Y-81384185D01*
X134035951Y-81342466D01*
X134049715Y-81329795D01*
X134056957Y-81318957D01*
X134073486Y-81307913D01*
X134097582Y-81285731D01*
X134124079Y-81274108D01*
X134139983Y-81263482D01*
X134155210Y-81260453D01*
X134176720Y-81251018D01*
X134244526Y-81242566D01*
X134620879Y-81242566D01*
X134629479Y-81244001D01*
X134629479Y-81244001D01*
G37*
G36*
X125075899Y-81397959D02*
G01*
X125092769Y-81409231D01*
X125104041Y-81426101D01*
X125110448Y-81458312D01*
X125110448Y-83133688D01*
X125107999Y-83146000D01*
X125104041Y-83165899D01*
X125092769Y-83182769D01*
X125075899Y-83194041D01*
X125056000Y-83197999D01*
X125043688Y-83200448D01*
X123368312Y-83200448D01*
X123336101Y-83194041D01*
X123319231Y-83182769D01*
X123307959Y-83165899D01*
X123301552Y-83133688D01*
X123301552Y-81458312D01*
X123307959Y-81426101D01*
X123319231Y-81409231D01*
X123336101Y-81397959D01*
X123368312Y-81391552D01*
X125043688Y-81391552D01*
X125075899Y-81397959D01*
X125075899Y-81397959D01*
G37*
G36*
X137775899Y-81397959D02*
G01*
X137792769Y-81409231D01*
X137804041Y-81426101D01*
X137810448Y-81458312D01*
X137810448Y-83133688D01*
X137807999Y-83146000D01*
X137804041Y-83165899D01*
X137792769Y-83182769D01*
X137775899Y-83194041D01*
X137756000Y-83197999D01*
X137743688Y-83200448D01*
X136068312Y-83200448D01*
X136036101Y-83194041D01*
X136019231Y-83182769D01*
X136007959Y-83165899D01*
X136001552Y-83133688D01*
X136001552Y-81458312D01*
X136007959Y-81426101D01*
X136019231Y-81409231D01*
X136036101Y-81397959D01*
X136068312Y-81391552D01*
X137743688Y-81391552D01*
X137775899Y-81397959D01*
X137775899Y-81397959D01*
G37*
M02*
