G04 #@! TF.GenerationSoftware,KiCad,Pcbnew,(5.1.0-1390-gee00ff9b5)*
G04 #@! TF.CreationDate,2019-07-31T14:47:23-07:00*
G04 #@! TF.ProjectId,attiny1614,61747469-6e79-4313-9631-342e6b696361,rev?*
G04 #@! TF.SameCoordinates,Original*
G04 #@! TF.FileFunction,Legend,Bot*
G04 #@! TF.FilePolarity,Positive*
%FSLAX46Y46*%
G04 Gerber Fmt 4.6, Leading zero omitted, Abs format (unit mm)*
G04 Created by KiCad (PCBNEW (5.1.0-1390-gee00ff9b5)) date 2019-07-31 14:47:23*
%MOMM*%
%LPD*%
G04 APERTURE LIST*
%ADD10C,0.152400*%
%ADD11C,0.120000*%
%ADD12C,0.150000*%
G04 APERTURE END LIST*
D10*
X127643466Y-87968666D02*
X127643466Y-88355714D01*
X127875695Y-87891257D02*
X127062895Y-88162190D01*
X127875695Y-88433123D01*
X127062895Y-88587942D02*
X127062895Y-89052400D01*
X127875695Y-88820171D02*
X127062895Y-88820171D01*
X127333828Y-89207219D02*
X127333828Y-89516857D01*
X127062895Y-89323333D02*
X127759580Y-89323333D01*
X127836990Y-89362038D01*
X127875695Y-89439447D01*
X127875695Y-89516857D01*
X127875695Y-89787790D02*
X127333828Y-89787790D01*
X127062895Y-89787790D02*
X127101600Y-89749085D01*
X127140304Y-89787790D01*
X127101600Y-89826495D01*
X127062895Y-89787790D01*
X127140304Y-89787790D01*
X127333828Y-90174838D02*
X127875695Y-90174838D01*
X127411238Y-90174838D02*
X127372533Y-90213542D01*
X127333828Y-90290952D01*
X127333828Y-90407066D01*
X127372533Y-90484476D01*
X127449942Y-90523180D01*
X127875695Y-90523180D01*
X127333828Y-90832819D02*
X127875695Y-91026342D01*
X127333828Y-91219866D02*
X127875695Y-91026342D01*
X128069219Y-90948933D01*
X128107923Y-90910228D01*
X128146628Y-90832819D01*
X127875695Y-91955257D02*
X127875695Y-91490800D01*
X127875695Y-91723028D02*
X127062895Y-91723028D01*
X127179009Y-91645619D01*
X127256419Y-91568209D01*
X127295123Y-91490800D01*
X127062895Y-92651942D02*
X127062895Y-92497123D01*
X127101600Y-92419714D01*
X127140304Y-92381009D01*
X127256419Y-92303600D01*
X127411238Y-92264895D01*
X127720876Y-92264895D01*
X127798285Y-92303600D01*
X127836990Y-92342304D01*
X127875695Y-92419714D01*
X127875695Y-92574533D01*
X127836990Y-92651942D01*
X127798285Y-92690647D01*
X127720876Y-92729352D01*
X127527352Y-92729352D01*
X127449942Y-92690647D01*
X127411238Y-92651942D01*
X127372533Y-92574533D01*
X127372533Y-92419714D01*
X127411238Y-92342304D01*
X127449942Y-92303600D01*
X127527352Y-92264895D01*
X127875695Y-93503447D02*
X127875695Y-93038990D01*
X127875695Y-93271219D02*
X127062895Y-93271219D01*
X127179009Y-93193809D01*
X127256419Y-93116400D01*
X127295123Y-93038990D01*
X127333828Y-94200133D02*
X127875695Y-94200133D01*
X127024190Y-94006609D02*
X127604761Y-93813085D01*
X127604761Y-94316247D01*
X127333828Y-95167752D02*
X127875695Y-95361276D01*
X127333828Y-95554800D01*
X127875695Y-96290190D02*
X127875695Y-95825733D01*
X127875695Y-96057961D02*
X127062895Y-96057961D01*
X127179009Y-95980552D01*
X127256419Y-95903142D01*
X127295123Y-95825733D01*
X127798285Y-96638533D02*
X127836990Y-96677238D01*
X127875695Y-96638533D01*
X127836990Y-96599828D01*
X127798285Y-96638533D01*
X127875695Y-96638533D01*
X127062895Y-97180400D02*
X127062895Y-97257809D01*
X127101600Y-97335219D01*
X127140304Y-97373923D01*
X127217714Y-97412628D01*
X127372533Y-97451333D01*
X127566057Y-97451333D01*
X127720876Y-97412628D01*
X127798285Y-97373923D01*
X127836990Y-97335219D01*
X127875695Y-97257809D01*
X127875695Y-97180400D01*
X127836990Y-97102990D01*
X127798285Y-97064285D01*
X127720876Y-97025580D01*
X127566057Y-96986876D01*
X127372533Y-96986876D01*
X127217714Y-97025580D01*
X127140304Y-97064285D01*
X127101600Y-97102990D01*
X127062895Y-97180400D01*
D11*
X130384733Y-85092000D02*
X130727267Y-85092000D01*
X130384733Y-84072000D02*
X130727267Y-84072000D01*
X132136000Y-90041000D02*
X131206000Y-90041000D01*
X128976000Y-90041000D02*
X129906000Y-90041000D01*
X128976000Y-90041000D02*
X128976000Y-87881000D01*
X132136000Y-90041000D02*
X132136000Y-88581000D01*
X130384733Y-94490000D02*
X130727267Y-94490000D01*
X130384733Y-93470000D02*
X130727267Y-93470000D01*
X136966000Y-98866000D02*
X134306000Y-98866000D01*
X136966000Y-83566000D02*
X136966000Y-98866000D01*
X134306000Y-83566000D02*
X134306000Y-98866000D01*
X136966000Y-83566000D02*
X134306000Y-83566000D01*
X136966000Y-82296000D02*
X136966000Y-80966000D01*
X136966000Y-80966000D02*
X135636000Y-80966000D01*
X126806000Y-98866000D02*
X124146000Y-98866000D01*
X126806000Y-83566000D02*
X126806000Y-98866000D01*
X124146000Y-83566000D02*
X124146000Y-98866000D01*
X126806000Y-83566000D02*
X124146000Y-83566000D01*
X126806000Y-82296000D02*
X126806000Y-80966000D01*
X126806000Y-80966000D02*
X125476000Y-80966000D01*
X128352733Y-86956500D02*
X128695267Y-86956500D01*
X128352733Y-85936500D02*
X128695267Y-85936500D01*
X130384733Y-92625500D02*
X130727267Y-92625500D01*
X130384733Y-91605500D02*
X130727267Y-91605500D01*
X132416733Y-86956500D02*
X132759267Y-86956500D01*
X132416733Y-85936500D02*
X132759267Y-85936500D01*
D12*
X130722666Y-83764380D02*
X131056000Y-83288190D01*
X131294095Y-83764380D02*
X131294095Y-82764380D01*
X130913142Y-82764380D01*
X130817904Y-82812000D01*
X130770285Y-82859619D01*
X130722666Y-82954857D01*
X130722666Y-83097714D01*
X130770285Y-83192952D01*
X130817904Y-83240571D01*
X130913142Y-83288190D01*
X131294095Y-83288190D01*
X130341714Y-82859619D02*
X130294095Y-82812000D01*
X130198857Y-82764380D01*
X129960761Y-82764380D01*
X129865523Y-82812000D01*
X129817904Y-82859619D01*
X129770285Y-82954857D01*
X129770285Y-83050095D01*
X129817904Y-83192952D01*
X130389333Y-83764380D01*
X129770285Y-83764380D01*
X133857904Y-88733380D02*
X133857904Y-89542904D01*
X133810285Y-89638142D01*
X133762666Y-89685761D01*
X133667428Y-89733380D01*
X133476952Y-89733380D01*
X133381714Y-89685761D01*
X133334095Y-89638142D01*
X133286476Y-89542904D01*
X133286476Y-88733380D01*
X132286476Y-89733380D02*
X132857904Y-89733380D01*
X132572190Y-89733380D02*
X132572190Y-88733380D01*
X132667428Y-88876238D01*
X132762666Y-88971476D01*
X132857904Y-89019095D01*
X133262666Y-94432380D02*
X133596000Y-93956190D01*
X133834095Y-94432380D02*
X133834095Y-93432380D01*
X133453142Y-93432380D01*
X133357904Y-93480000D01*
X133310285Y-93527619D01*
X133262666Y-93622857D01*
X133262666Y-93765714D01*
X133310285Y-93860952D01*
X133357904Y-93908571D01*
X133453142Y-93956190D01*
X133834095Y-93956190D01*
X132310285Y-94432380D02*
X132881714Y-94432380D01*
X132596000Y-94432380D02*
X132596000Y-93432380D01*
X132691238Y-93575238D01*
X132786476Y-93670476D01*
X132881714Y-93718095D01*
X127928666Y-85533642D02*
X127976285Y-85581261D01*
X128119142Y-85628880D01*
X128214380Y-85628880D01*
X128357238Y-85581261D01*
X128452476Y-85486023D01*
X128500095Y-85390785D01*
X128547714Y-85200309D01*
X128547714Y-85057452D01*
X128500095Y-84866976D01*
X128452476Y-84771738D01*
X128357238Y-84676500D01*
X128214380Y-84628880D01*
X128119142Y-84628880D01*
X127976285Y-84676500D01*
X127928666Y-84724119D01*
X127595333Y-84628880D02*
X126976285Y-84628880D01*
X127309619Y-85009833D01*
X127166761Y-85009833D01*
X127071523Y-85057452D01*
X127023904Y-85105071D01*
X126976285Y-85200309D01*
X126976285Y-85438404D01*
X127023904Y-85533642D01*
X127071523Y-85581261D01*
X127166761Y-85628880D01*
X127452476Y-85628880D01*
X127547714Y-85581261D01*
X127595333Y-85533642D01*
X133262666Y-92472642D02*
X133310285Y-92520261D01*
X133453142Y-92567880D01*
X133548380Y-92567880D01*
X133691238Y-92520261D01*
X133786476Y-92425023D01*
X133834095Y-92329785D01*
X133881714Y-92139309D01*
X133881714Y-91996452D01*
X133834095Y-91805976D01*
X133786476Y-91710738D01*
X133691238Y-91615500D01*
X133548380Y-91567880D01*
X133453142Y-91567880D01*
X133310285Y-91615500D01*
X133262666Y-91663119D01*
X132881714Y-91663119D02*
X132834095Y-91615500D01*
X132738857Y-91567880D01*
X132500761Y-91567880D01*
X132405523Y-91615500D01*
X132357904Y-91663119D01*
X132310285Y-91758357D01*
X132310285Y-91853595D01*
X132357904Y-91996452D01*
X132929333Y-92567880D01*
X132310285Y-92567880D01*
X133516666Y-85279642D02*
X133564285Y-85327261D01*
X133707142Y-85374880D01*
X133802380Y-85374880D01*
X133945238Y-85327261D01*
X134040476Y-85232023D01*
X134088095Y-85136785D01*
X134135714Y-84946309D01*
X134135714Y-84803452D01*
X134088095Y-84612976D01*
X134040476Y-84517738D01*
X133945238Y-84422500D01*
X133802380Y-84374880D01*
X133707142Y-84374880D01*
X133564285Y-84422500D01*
X133516666Y-84470119D01*
X132564285Y-85374880D02*
X133135714Y-85374880D01*
X132850000Y-85374880D02*
X132850000Y-84374880D01*
X132945238Y-84517738D01*
X133040476Y-84612976D01*
X133135714Y-84660595D01*
M02*
