G04 #@! TF.GenerationSoftware,KiCad,Pcbnew,(5.1.0-1419-g57928c41b)*
G04 #@! TF.CreationDate,2019-08-03T20:03:29-07:00*
G04 #@! TF.ProjectId,attiny1614,61747469-6e79-4313-9631-342e6b696361,1.2*
G04 #@! TF.SameCoordinates,Original*
G04 #@! TF.FileFunction,Legend,Top*
G04 #@! TF.FilePolarity,Positive*
%FSLAX46Y46*%
G04 Gerber Fmt 4.6, Leading zero omitted, Abs format (unit mm)*
G04 Created by KiCad (PCBNEW (5.1.0-1419-g57928c41b)) date 2019-08-03 20:03:29*
%MOMM*%
%LPD*%
G04 APERTURE LIST*
%ADD10C,0.254000*%
%ADD11C,0.152400*%
%ADD12C,0.120000*%
G04 APERTURE END LIST*
D10*
X126492000Y-86051571D02*
X126552476Y-86112047D01*
X126492000Y-86172523D01*
X126431523Y-86112047D01*
X126492000Y-86051571D01*
X126492000Y-86172523D01*
D11*
X132774266Y-98360895D02*
X133045200Y-99173695D01*
X133316133Y-98360895D01*
X134051523Y-99096285D02*
X134012819Y-99134990D01*
X133896704Y-99173695D01*
X133819295Y-99173695D01*
X133703180Y-99134990D01*
X133625771Y-99057580D01*
X133587066Y-98980171D01*
X133548361Y-98825352D01*
X133548361Y-98709238D01*
X133587066Y-98554419D01*
X133625771Y-98477009D01*
X133703180Y-98399600D01*
X133819295Y-98360895D01*
X133896704Y-98360895D01*
X134012819Y-98399600D01*
X134051523Y-98438304D01*
X134864323Y-99096285D02*
X134825619Y-99134990D01*
X134709504Y-99173695D01*
X134632095Y-99173695D01*
X134515980Y-99134990D01*
X134438571Y-99057580D01*
X134399866Y-98980171D01*
X134361161Y-98825352D01*
X134361161Y-98709238D01*
X134399866Y-98554419D01*
X134438571Y-98477009D01*
X134515980Y-98399600D01*
X134632095Y-98360895D01*
X134709504Y-98360895D01*
X134825619Y-98399600D01*
X134864323Y-98438304D01*
X129731104Y-83106380D02*
X129731104Y-83609542D01*
X129421466Y-83338609D01*
X129421466Y-83454723D01*
X129382761Y-83532133D01*
X129344057Y-83570838D01*
X129266647Y-83609542D01*
X129073123Y-83609542D01*
X128995714Y-83570838D01*
X128957009Y-83532133D01*
X128918304Y-83454723D01*
X128918304Y-83222495D01*
X128957009Y-83145085D01*
X128995714Y-83106380D01*
X129460171Y-83880476D02*
X128918304Y-84074000D01*
X129460171Y-84267523D01*
X129731104Y-84499752D02*
X129731104Y-85002914D01*
X129421466Y-84731980D01*
X129421466Y-84848095D01*
X129382761Y-84925504D01*
X129344057Y-84964209D01*
X129266647Y-85002914D01*
X129073123Y-85002914D01*
X128995714Y-84964209D01*
X128957009Y-84925504D01*
X128918304Y-84848095D01*
X128918304Y-84615866D01*
X128957009Y-84538457D01*
X128995714Y-84499752D01*
X131153504Y-84949695D02*
X130882571Y-84562647D01*
X130689047Y-84949695D02*
X130689047Y-84136895D01*
X130998685Y-84136895D01*
X131076095Y-84175600D01*
X131114800Y-84214304D01*
X131153504Y-84291714D01*
X131153504Y-84407828D01*
X131114800Y-84485238D01*
X131076095Y-84523942D01*
X130998685Y-84562647D01*
X130689047Y-84562647D01*
X131501847Y-84523942D02*
X131772780Y-84523942D01*
X131888895Y-84949695D02*
X131501847Y-84949695D01*
X131501847Y-84136895D01*
X131888895Y-84136895D01*
X132198533Y-84910990D02*
X132314647Y-84949695D01*
X132508171Y-84949695D01*
X132585580Y-84910990D01*
X132624285Y-84872285D01*
X132662990Y-84794876D01*
X132662990Y-84717466D01*
X132624285Y-84640057D01*
X132585580Y-84601352D01*
X132508171Y-84562647D01*
X132353352Y-84523942D01*
X132275942Y-84485238D01*
X132237238Y-84446533D01*
X132198533Y-84369123D01*
X132198533Y-84291714D01*
X132237238Y-84214304D01*
X132275942Y-84175600D01*
X132353352Y-84136895D01*
X132546876Y-84136895D01*
X132662990Y-84175600D01*
X133011333Y-84523942D02*
X133282266Y-84523942D01*
X133398380Y-84949695D02*
X133011333Y-84949695D01*
X133011333Y-84136895D01*
X133398380Y-84136895D01*
X133630609Y-84136895D02*
X134095066Y-84136895D01*
X133862838Y-84949695D02*
X133862838Y-84136895D01*
X129936723Y-96113600D02*
X129859314Y-96074895D01*
X129743200Y-96074895D01*
X129627085Y-96113600D01*
X129549676Y-96191009D01*
X129510971Y-96268419D01*
X129472266Y-96423238D01*
X129472266Y-96539352D01*
X129510971Y-96694171D01*
X129549676Y-96771580D01*
X129627085Y-96848990D01*
X129743200Y-96887695D01*
X129820609Y-96887695D01*
X129936723Y-96848990D01*
X129975428Y-96810285D01*
X129975428Y-96539352D01*
X129820609Y-96539352D01*
X130323771Y-96887695D02*
X130323771Y-96074895D01*
X130788228Y-96887695D01*
X130788228Y-96074895D01*
X131175276Y-96887695D02*
X131175276Y-96074895D01*
X131368800Y-96074895D01*
X131484914Y-96113600D01*
X131562323Y-96191009D01*
X131601028Y-96268419D01*
X131639733Y-96423238D01*
X131639733Y-96539352D01*
X131601028Y-96694171D01*
X131562323Y-96771580D01*
X131484914Y-96848990D01*
X131368800Y-96887695D01*
X131175276Y-96887695D01*
X126888723Y-98360895D02*
X127353180Y-98360895D01*
X127120952Y-99173695D02*
X127120952Y-98360895D01*
X127546704Y-98360895D02*
X128088571Y-99173695D01*
X128088571Y-98360895D02*
X127546704Y-99173695D01*
X135788400Y-81676723D02*
X135827104Y-81599314D01*
X135827104Y-81483200D01*
X135788400Y-81367085D01*
X135710990Y-81289676D01*
X135633580Y-81250971D01*
X135478761Y-81212266D01*
X135362647Y-81212266D01*
X135207828Y-81250971D01*
X135130419Y-81289676D01*
X135053009Y-81367085D01*
X135014304Y-81483200D01*
X135014304Y-81560609D01*
X135053009Y-81676723D01*
X135091714Y-81715428D01*
X135362647Y-81715428D01*
X135362647Y-81560609D01*
X135014304Y-82063771D02*
X135827104Y-82063771D01*
X135014304Y-82528228D01*
X135827104Y-82528228D01*
X135014304Y-82915276D02*
X135827104Y-82915276D01*
X135827104Y-83108800D01*
X135788400Y-83224914D01*
X135710990Y-83302323D01*
X135633580Y-83341028D01*
X135478761Y-83379733D01*
X135362647Y-83379733D01*
X135207828Y-83341028D01*
X135130419Y-83302323D01*
X135053009Y-83224914D01*
X135014304Y-83108800D01*
X135014304Y-82915276D01*
X126175104Y-81212266D02*
X125362304Y-81483200D01*
X126175104Y-81754133D01*
X125439714Y-82489523D02*
X125401009Y-82450819D01*
X125362304Y-82334704D01*
X125362304Y-82257295D01*
X125401009Y-82141180D01*
X125478419Y-82063771D01*
X125555828Y-82025066D01*
X125710647Y-81986361D01*
X125826761Y-81986361D01*
X125981580Y-82025066D01*
X126058990Y-82063771D01*
X126136400Y-82141180D01*
X126175104Y-82257295D01*
X126175104Y-82334704D01*
X126136400Y-82450819D01*
X126097695Y-82489523D01*
X125439714Y-83302323D02*
X125401009Y-83263619D01*
X125362304Y-83147504D01*
X125362304Y-83070095D01*
X125401009Y-82953980D01*
X125478419Y-82876571D01*
X125555828Y-82837866D01*
X125710647Y-82799161D01*
X125826761Y-82799161D01*
X125981580Y-82837866D01*
X126058990Y-82876571D01*
X126136400Y-82953980D01*
X126175104Y-83070095D01*
X126175104Y-83147504D01*
X126136400Y-83263619D01*
X126097695Y-83302323D01*
X125788057Y-97207009D02*
X125749352Y-97323123D01*
X125710647Y-97361828D01*
X125633238Y-97400533D01*
X125517123Y-97400533D01*
X125439714Y-97361828D01*
X125401009Y-97323123D01*
X125362304Y-97245714D01*
X125362304Y-96936076D01*
X126175104Y-96936076D01*
X126175104Y-97207009D01*
X126136400Y-97284419D01*
X126097695Y-97323123D01*
X126020285Y-97361828D01*
X125942876Y-97361828D01*
X125865466Y-97323123D01*
X125826761Y-97284419D01*
X125788057Y-97207009D01*
X125788057Y-96936076D01*
X126097695Y-97710171D02*
X126136400Y-97748876D01*
X126175104Y-97826285D01*
X126175104Y-98019809D01*
X126136400Y-98097219D01*
X126097695Y-98135923D01*
X126020285Y-98174628D01*
X125942876Y-98174628D01*
X125826761Y-98135923D01*
X125362304Y-97671466D01*
X125362304Y-98174628D01*
X125788057Y-94667009D02*
X125749352Y-94783123D01*
X125710647Y-94821828D01*
X125633238Y-94860533D01*
X125517123Y-94860533D01*
X125439714Y-94821828D01*
X125401009Y-94783123D01*
X125362304Y-94705714D01*
X125362304Y-94396076D01*
X126175104Y-94396076D01*
X126175104Y-94667009D01*
X126136400Y-94744419D01*
X126097695Y-94783123D01*
X126020285Y-94821828D01*
X125942876Y-94821828D01*
X125865466Y-94783123D01*
X125826761Y-94744419D01*
X125788057Y-94667009D01*
X125788057Y-94396076D01*
X126175104Y-95131466D02*
X126175104Y-95634628D01*
X125865466Y-95363695D01*
X125865466Y-95479809D01*
X125826761Y-95557219D01*
X125788057Y-95595923D01*
X125710647Y-95634628D01*
X125517123Y-95634628D01*
X125439714Y-95595923D01*
X125401009Y-95557219D01*
X125362304Y-95479809D01*
X125362304Y-95247580D01*
X125401009Y-95170171D01*
X125439714Y-95131466D01*
X125594533Y-91875428D02*
X125594533Y-92262476D01*
X125362304Y-91798019D02*
X126175104Y-92068952D01*
X125362304Y-92339885D01*
X126175104Y-92533409D02*
X126175104Y-93075276D01*
X125362304Y-92726933D01*
X125594533Y-89335428D02*
X125594533Y-89722476D01*
X125362304Y-89258019D02*
X126175104Y-89528952D01*
X125362304Y-89799885D01*
X126175104Y-90419161D02*
X126175104Y-90264342D01*
X126136400Y-90186933D01*
X126097695Y-90148228D01*
X125981580Y-90070819D01*
X125826761Y-90032114D01*
X125517123Y-90032114D01*
X125439714Y-90070819D01*
X125401009Y-90109523D01*
X125362304Y-90186933D01*
X125362304Y-90341752D01*
X125401009Y-90419161D01*
X125439714Y-90457866D01*
X125517123Y-90496571D01*
X125710647Y-90496571D01*
X125788057Y-90457866D01*
X125826761Y-90419161D01*
X125865466Y-90341752D01*
X125865466Y-90186933D01*
X125826761Y-90109523D01*
X125788057Y-90070819D01*
X125710647Y-90032114D01*
X125594533Y-86795428D02*
X125594533Y-87182476D01*
X125362304Y-86718019D02*
X126175104Y-86988952D01*
X125362304Y-87259885D01*
X126175104Y-87917866D02*
X126175104Y-87530819D01*
X125788057Y-87492114D01*
X125826761Y-87530819D01*
X125865466Y-87608228D01*
X125865466Y-87801752D01*
X125826761Y-87879161D01*
X125788057Y-87917866D01*
X125710647Y-87956571D01*
X125517123Y-87956571D01*
X125439714Y-87917866D01*
X125401009Y-87879161D01*
X125362304Y-87801752D01*
X125362304Y-87608228D01*
X125401009Y-87530819D01*
X125439714Y-87492114D01*
X125594533Y-84255428D02*
X125594533Y-84642476D01*
X125362304Y-84178019D02*
X126175104Y-84448952D01*
X125362304Y-84719885D01*
X125904171Y-85339161D02*
X125362304Y-85339161D01*
X126213809Y-85145638D02*
X125633238Y-84952114D01*
X125633238Y-85455276D01*
X135246533Y-84255428D02*
X135246533Y-84642476D01*
X135014304Y-84178019D02*
X135827104Y-84448952D01*
X135014304Y-84719885D01*
X135827104Y-84913409D02*
X135827104Y-85416571D01*
X135517466Y-85145638D01*
X135517466Y-85261752D01*
X135478761Y-85339161D01*
X135440057Y-85377866D01*
X135362647Y-85416571D01*
X135169123Y-85416571D01*
X135091714Y-85377866D01*
X135053009Y-85339161D01*
X135014304Y-85261752D01*
X135014304Y-85029523D01*
X135053009Y-84952114D01*
X135091714Y-84913409D01*
X135246533Y-86795428D02*
X135246533Y-87182476D01*
X135014304Y-86718019D02*
X135827104Y-86988952D01*
X135014304Y-87259885D01*
X135749695Y-87492114D02*
X135788400Y-87530819D01*
X135827104Y-87608228D01*
X135827104Y-87801752D01*
X135788400Y-87879161D01*
X135749695Y-87917866D01*
X135672285Y-87956571D01*
X135594876Y-87956571D01*
X135478761Y-87917866D01*
X135014304Y-87453409D01*
X135014304Y-87956571D01*
X135246533Y-89335428D02*
X135246533Y-89722476D01*
X135014304Y-89258019D02*
X135827104Y-89528952D01*
X135014304Y-89799885D01*
X135014304Y-90496571D02*
X135014304Y-90032114D01*
X135014304Y-90264342D02*
X135827104Y-90264342D01*
X135710990Y-90186933D01*
X135633580Y-90109523D01*
X135594876Y-90032114D01*
X135440057Y-97207009D02*
X135401352Y-97323123D01*
X135362647Y-97361828D01*
X135285238Y-97400533D01*
X135169123Y-97400533D01*
X135091714Y-97361828D01*
X135053009Y-97323123D01*
X135014304Y-97245714D01*
X135014304Y-96936076D01*
X135827104Y-96936076D01*
X135827104Y-97207009D01*
X135788400Y-97284419D01*
X135749695Y-97323123D01*
X135672285Y-97361828D01*
X135594876Y-97361828D01*
X135517466Y-97323123D01*
X135478761Y-97284419D01*
X135440057Y-97207009D01*
X135440057Y-96936076D01*
X135014304Y-98174628D02*
X135014304Y-97710171D01*
X135014304Y-97942400D02*
X135827104Y-97942400D01*
X135710990Y-97864990D01*
X135633580Y-97787580D01*
X135594876Y-97710171D01*
X135440057Y-94667009D02*
X135401352Y-94783123D01*
X135362647Y-94821828D01*
X135285238Y-94860533D01*
X135169123Y-94860533D01*
X135091714Y-94821828D01*
X135053009Y-94783123D01*
X135014304Y-94705714D01*
X135014304Y-94396076D01*
X135827104Y-94396076D01*
X135827104Y-94667009D01*
X135788400Y-94744419D01*
X135749695Y-94783123D01*
X135672285Y-94821828D01*
X135594876Y-94821828D01*
X135517466Y-94783123D01*
X135478761Y-94744419D01*
X135440057Y-94667009D01*
X135440057Y-94396076D01*
X135827104Y-95363695D02*
X135827104Y-95441104D01*
X135788400Y-95518514D01*
X135749695Y-95557219D01*
X135672285Y-95595923D01*
X135517466Y-95634628D01*
X135323942Y-95634628D01*
X135169123Y-95595923D01*
X135091714Y-95557219D01*
X135053009Y-95518514D01*
X135014304Y-95441104D01*
X135014304Y-95363695D01*
X135053009Y-95286285D01*
X135091714Y-95247580D01*
X135169123Y-95208876D01*
X135323942Y-95170171D01*
X135517466Y-95170171D01*
X135672285Y-95208876D01*
X135749695Y-95247580D01*
X135788400Y-95286285D01*
X135827104Y-95363695D01*
X135246533Y-91875428D02*
X135246533Y-92262476D01*
X135014304Y-91798019D02*
X135827104Y-92068952D01*
X135014304Y-92339885D01*
X135827104Y-92765638D02*
X135827104Y-92843047D01*
X135788400Y-92920457D01*
X135749695Y-92959161D01*
X135672285Y-92997866D01*
X135517466Y-93036571D01*
X135323942Y-93036571D01*
X135169123Y-92997866D01*
X135091714Y-92959161D01*
X135053009Y-92920457D01*
X135014304Y-92843047D01*
X135014304Y-92765638D01*
X135053009Y-92688228D01*
X135091714Y-92649523D01*
X135169123Y-92610819D01*
X135323942Y-92572114D01*
X135517466Y-92572114D01*
X135672285Y-92610819D01*
X135749695Y-92649523D01*
X135788400Y-92688228D01*
X135827104Y-92765638D01*
D12*
X130556000Y-85481000D02*
X127106000Y-85481000D01*
X130556000Y-85481000D02*
X132506000Y-85481000D01*
X130556000Y-94351000D02*
X128606000Y-94351000D01*
X130556000Y-94351000D02*
X132506000Y-94351000D01*
X130438000Y-94515000D02*
X127978000Y-94515000D01*
X130438000Y-95985000D02*
X130438000Y-94515000D01*
X127978000Y-95985000D02*
X130438000Y-95985000D01*
X132521000Y-99154000D02*
X132521000Y-98351530D01*
X132521000Y-97736470D02*
X132521000Y-96934000D01*
X130046000Y-99154000D02*
X132521000Y-99154000D01*
X130046000Y-96934000D02*
X132521000Y-96934000D01*
X130046000Y-99154000D02*
X130046000Y-98607471D01*
X130046000Y-97480529D02*
X130046000Y-96934000D01*
X129286000Y-99154000D02*
X128526000Y-99154000D01*
X128526000Y-99154000D02*
X128526000Y-98044000D01*
X130264000Y-80726000D02*
X134404000Y-80726000D01*
X134404000Y-83566000D02*
X134404000Y-83866000D01*
X134404000Y-83866000D02*
X130264000Y-83866000D01*
X130264000Y-81026000D02*
X130264000Y-80726000D01*
X130264000Y-83866000D02*
X130264000Y-83566000D01*
X134404000Y-80726000D02*
X134404000Y-81026000D01*
X132416733Y-94740000D02*
X132759267Y-94740000D01*
X132416733Y-95760000D02*
X132759267Y-95760000D01*
X126652000Y-84769000D02*
X127454470Y-84769000D01*
X128069530Y-84769000D02*
X128872000Y-84769000D01*
X126652000Y-82294000D02*
X126652000Y-84769000D01*
X128872000Y-82294000D02*
X128872000Y-84769000D01*
X126652000Y-82294000D02*
X127198529Y-82294000D01*
X128325471Y-82294000D02*
X128872000Y-82294000D01*
X126652000Y-81534000D02*
X126652000Y-80774000D01*
X126652000Y-80774000D02*
X127762000Y-80774000D01*
D11*
X129936723Y-89470895D02*
X129936723Y-90128876D01*
X129975428Y-90206285D01*
X130014133Y-90244990D01*
X130091542Y-90283695D01*
X130246361Y-90283695D01*
X130323771Y-90244990D01*
X130362476Y-90206285D01*
X130401180Y-90128876D01*
X130401180Y-89470895D01*
X131213980Y-90283695D02*
X130749523Y-90283695D01*
X130981752Y-90283695D02*
X130981752Y-89470895D01*
X130904342Y-89587009D01*
X130826933Y-89664419D01*
X130749523Y-89703123D01*
X133468533Y-96887695D02*
X133197600Y-96500647D01*
X133004076Y-96887695D02*
X133004076Y-96074895D01*
X133313714Y-96074895D01*
X133391123Y-96113600D01*
X133429828Y-96152304D01*
X133468533Y-96229714D01*
X133468533Y-96345828D01*
X133429828Y-96423238D01*
X133391123Y-96461942D01*
X133313714Y-96500647D01*
X133004076Y-96500647D01*
X134203923Y-96074895D02*
X133816876Y-96074895D01*
X133778171Y-96461942D01*
X133816876Y-96423238D01*
X133894285Y-96384533D01*
X134087809Y-96384533D01*
X134165219Y-96423238D01*
X134203923Y-96461942D01*
X134242628Y-96539352D01*
X134242628Y-96732876D01*
X134203923Y-96810285D01*
X134165219Y-96848990D01*
X134087809Y-96887695D01*
X133894285Y-96887695D01*
X133816876Y-96848990D01*
X133778171Y-96810285D01*
M02*
