G04 #@! TF.GenerationSoftware,KiCad,Pcbnew,(5.1.0-1390-gee00ff9b5)*
G04 #@! TF.CreationDate,2019-07-31T14:47:23-07:00*
G04 #@! TF.ProjectId,attiny1614,61747469-6e79-4313-9631-342e6b696361,rev?*
G04 #@! TF.SameCoordinates,Original*
G04 #@! TF.FileFunction,Soldermask,Bot*
G04 #@! TF.FilePolarity,Negative*
%FSLAX46Y46*%
G04 Gerber Fmt 4.6, Leading zero omitted, Abs format (unit mm)*
G04 Created by KiCad (PCBNEW (5.1.0-1390-gee00ff9b5)) date 2019-07-31 14:47:23*
%MOMM*%
%LPD*%
G04 APERTURE LIST*
%ADD10C,0.100000*%
G04 APERTURE END LIST*
D10*
G36*
X135824360Y-96649835D02*
G01*
X135905397Y-96676166D01*
X135992663Y-96703848D01*
X135995655Y-96705493D01*
X136004488Y-96708363D01*
X136076466Y-96749919D01*
X136147499Y-96788970D01*
X136154986Y-96795253D01*
X136168511Y-96803061D01*
X136226259Y-96855057D01*
X136282857Y-96902549D01*
X136292962Y-96915118D01*
X136309261Y-96929793D01*
X136351454Y-96987867D01*
X136393579Y-97040260D01*
X136403994Y-97060182D01*
X136420586Y-97083019D01*
X136447297Y-97143012D01*
X136475439Y-97196843D01*
X136483582Y-97224510D01*
X136497621Y-97256042D01*
X136509992Y-97314241D01*
X136525328Y-97366349D01*
X136528518Y-97401401D01*
X136536999Y-97441301D01*
X136536999Y-97494592D01*
X136541343Y-97542324D01*
X136536999Y-97583653D01*
X136536999Y-97630699D01*
X136527217Y-97676721D01*
X136522873Y-97718047D01*
X136508702Y-97763827D01*
X136497621Y-97815958D01*
X136481028Y-97853226D01*
X136470622Y-97886843D01*
X136444789Y-97934620D01*
X136420586Y-97988981D01*
X136400298Y-98016905D01*
X136386580Y-98042276D01*
X136347859Y-98089082D01*
X136309261Y-98142207D01*
X136288284Y-98161095D01*
X136273952Y-98178419D01*
X136221845Y-98220917D01*
X136168511Y-98268939D01*
X136149524Y-98279901D01*
X136137025Y-98290095D01*
X136071780Y-98324786D01*
X136004488Y-98363637D01*
X135989636Y-98368463D01*
X135981003Y-98373053D01*
X135903430Y-98396473D01*
X135824360Y-98422165D01*
X135815114Y-98423137D01*
X135811851Y-98424122D01*
X135720710Y-98433059D01*
X135683211Y-98437000D01*
X135588789Y-98437000D01*
X135447640Y-98422165D01*
X135366603Y-98395834D01*
X135279337Y-98368152D01*
X135276345Y-98366507D01*
X135267512Y-98363637D01*
X135195534Y-98322081D01*
X135124501Y-98283030D01*
X135117014Y-98276747D01*
X135103489Y-98268939D01*
X135045741Y-98216943D01*
X134989143Y-98169451D01*
X134979038Y-98156882D01*
X134962739Y-98142207D01*
X134920546Y-98084133D01*
X134878421Y-98031740D01*
X134868006Y-98011818D01*
X134851414Y-97988981D01*
X134824703Y-97928988D01*
X134796561Y-97875157D01*
X134788418Y-97847490D01*
X134774379Y-97815958D01*
X134762008Y-97757759D01*
X134746672Y-97705651D01*
X134743482Y-97670599D01*
X134735001Y-97630699D01*
X134735001Y-97577408D01*
X134730657Y-97529676D01*
X134735001Y-97488347D01*
X134735001Y-97441301D01*
X134744783Y-97395279D01*
X134749127Y-97353953D01*
X134763298Y-97308173D01*
X134774379Y-97256042D01*
X134790972Y-97218774D01*
X134801378Y-97185157D01*
X134827211Y-97137380D01*
X134851414Y-97083019D01*
X134871702Y-97055095D01*
X134885420Y-97029724D01*
X134924141Y-96982918D01*
X134962739Y-96929793D01*
X134983716Y-96910905D01*
X134998048Y-96893581D01*
X135050155Y-96851083D01*
X135103489Y-96803061D01*
X135122476Y-96792099D01*
X135134975Y-96781905D01*
X135200220Y-96747214D01*
X135267512Y-96708363D01*
X135282364Y-96703537D01*
X135290997Y-96698947D01*
X135368570Y-96675527D01*
X135447640Y-96649835D01*
X135456886Y-96648863D01*
X135460149Y-96647878D01*
X135551290Y-96638941D01*
X135588789Y-96635000D01*
X135683211Y-96635000D01*
X135824360Y-96649835D01*
X135824360Y-96649835D01*
G37*
G36*
X125664360Y-96649835D02*
G01*
X125745397Y-96676166D01*
X125832663Y-96703848D01*
X125835655Y-96705493D01*
X125844488Y-96708363D01*
X125916466Y-96749919D01*
X125987499Y-96788970D01*
X125994986Y-96795253D01*
X126008511Y-96803061D01*
X126066259Y-96855057D01*
X126122857Y-96902549D01*
X126132962Y-96915118D01*
X126149261Y-96929793D01*
X126191454Y-96987867D01*
X126233579Y-97040260D01*
X126243994Y-97060182D01*
X126260586Y-97083019D01*
X126287297Y-97143012D01*
X126315439Y-97196843D01*
X126323582Y-97224510D01*
X126337621Y-97256042D01*
X126349992Y-97314241D01*
X126365328Y-97366349D01*
X126368518Y-97401401D01*
X126376999Y-97441301D01*
X126376999Y-97494592D01*
X126381343Y-97542324D01*
X126376999Y-97583653D01*
X126376999Y-97630699D01*
X126367217Y-97676721D01*
X126362873Y-97718047D01*
X126348702Y-97763827D01*
X126337621Y-97815958D01*
X126321028Y-97853226D01*
X126310622Y-97886843D01*
X126284789Y-97934620D01*
X126260586Y-97988981D01*
X126240298Y-98016905D01*
X126226580Y-98042276D01*
X126187859Y-98089082D01*
X126149261Y-98142207D01*
X126128284Y-98161095D01*
X126113952Y-98178419D01*
X126061845Y-98220917D01*
X126008511Y-98268939D01*
X125989524Y-98279901D01*
X125977025Y-98290095D01*
X125911780Y-98324786D01*
X125844488Y-98363637D01*
X125829636Y-98368463D01*
X125821003Y-98373053D01*
X125743430Y-98396473D01*
X125664360Y-98422165D01*
X125655114Y-98423137D01*
X125651851Y-98424122D01*
X125560710Y-98433059D01*
X125523211Y-98437000D01*
X125428789Y-98437000D01*
X125287640Y-98422165D01*
X125206603Y-98395834D01*
X125119337Y-98368152D01*
X125116345Y-98366507D01*
X125107512Y-98363637D01*
X125035534Y-98322081D01*
X124964501Y-98283030D01*
X124957014Y-98276747D01*
X124943489Y-98268939D01*
X124885741Y-98216943D01*
X124829143Y-98169451D01*
X124819038Y-98156882D01*
X124802739Y-98142207D01*
X124760546Y-98084133D01*
X124718421Y-98031740D01*
X124708006Y-98011818D01*
X124691414Y-97988981D01*
X124664703Y-97928988D01*
X124636561Y-97875157D01*
X124628418Y-97847490D01*
X124614379Y-97815958D01*
X124602008Y-97757759D01*
X124586672Y-97705651D01*
X124583482Y-97670599D01*
X124575001Y-97630699D01*
X124575001Y-97577408D01*
X124570657Y-97529676D01*
X124575001Y-97488347D01*
X124575001Y-97441301D01*
X124584783Y-97395279D01*
X124589127Y-97353953D01*
X124603298Y-97308173D01*
X124614379Y-97256042D01*
X124630972Y-97218774D01*
X124641378Y-97185157D01*
X124667211Y-97137380D01*
X124691414Y-97083019D01*
X124711702Y-97055095D01*
X124725420Y-97029724D01*
X124764141Y-96982918D01*
X124802739Y-96929793D01*
X124823716Y-96910905D01*
X124838048Y-96893581D01*
X124890155Y-96851083D01*
X124943489Y-96803061D01*
X124962476Y-96792099D01*
X124974975Y-96781905D01*
X125040220Y-96747214D01*
X125107512Y-96708363D01*
X125122364Y-96703537D01*
X125130997Y-96698947D01*
X125208570Y-96675527D01*
X125287640Y-96649835D01*
X125296886Y-96648863D01*
X125300149Y-96647878D01*
X125391290Y-96638941D01*
X125428789Y-96635000D01*
X125523211Y-96635000D01*
X125664360Y-96649835D01*
X125664360Y-96649835D01*
G37*
G36*
X129424343Y-95728506D02*
G01*
X129484792Y-95752074D01*
X129512219Y-95757904D01*
X129533352Y-95771007D01*
X129548292Y-95776832D01*
X129589828Y-95806024D01*
X129640522Y-95837456D01*
X129651431Y-95849320D01*
X129657402Y-95853516D01*
X129696442Y-95898269D01*
X129742707Y-95948581D01*
X129776495Y-96014893D01*
X129809466Y-96078774D01*
X129858094Y-96129725D01*
X129926549Y-96146298D01*
X129993097Y-96123230D01*
X130031012Y-96079934D01*
X130050753Y-96042651D01*
X130063111Y-96008324D01*
X130085928Y-95976218D01*
X130100221Y-95949223D01*
X130124392Y-95922094D01*
X130150562Y-95885269D01*
X130174399Y-95865966D01*
X130188937Y-95849649D01*
X130226033Y-95824154D01*
X130267884Y-95790264D01*
X130288029Y-95781547D01*
X130298849Y-95774110D01*
X130349044Y-95755142D01*
X130406432Y-95730308D01*
X130419503Y-95728518D01*
X130423598Y-95726970D01*
X130485366Y-95719496D01*
X130518185Y-95715000D01*
X130587432Y-95715000D01*
X130694343Y-95728506D01*
X130754792Y-95752074D01*
X130782219Y-95757904D01*
X130803352Y-95771007D01*
X130818292Y-95776832D01*
X130859828Y-95806024D01*
X130910522Y-95837456D01*
X130921431Y-95849320D01*
X130927402Y-95853516D01*
X130966442Y-95898269D01*
X131012707Y-95948581D01*
X131046495Y-96014893D01*
X131079466Y-96078774D01*
X131128094Y-96129725D01*
X131196549Y-96146298D01*
X131263097Y-96123230D01*
X131301012Y-96079934D01*
X131320753Y-96042651D01*
X131333111Y-96008324D01*
X131355928Y-95976218D01*
X131370221Y-95949223D01*
X131394392Y-95922094D01*
X131420562Y-95885269D01*
X131444399Y-95865966D01*
X131458937Y-95849649D01*
X131496033Y-95824154D01*
X131537884Y-95790264D01*
X131558029Y-95781547D01*
X131568849Y-95774110D01*
X131619044Y-95755142D01*
X131676432Y-95730308D01*
X131689503Y-95728518D01*
X131693598Y-95726970D01*
X131755366Y-95719496D01*
X131788185Y-95715000D01*
X131857432Y-95715000D01*
X131964343Y-95728506D01*
X132024792Y-95752074D01*
X132052219Y-95757904D01*
X132073352Y-95771007D01*
X132088292Y-95776832D01*
X132129828Y-95806024D01*
X132180522Y-95837456D01*
X132191431Y-95849320D01*
X132197402Y-95853516D01*
X132236442Y-95898269D01*
X132282707Y-95948581D01*
X132316500Y-96014903D01*
X132346240Y-96072524D01*
X132346580Y-96073939D01*
X132351243Y-96083091D01*
X132364178Y-96147240D01*
X132377374Y-96202204D01*
X132377320Y-96212417D01*
X132381083Y-96231077D01*
X132376926Y-96287682D01*
X132376675Y-96335566D01*
X132372060Y-96353940D01*
X132370026Y-96381636D01*
X132353744Y-96426861D01*
X132344187Y-96464911D01*
X132331247Y-96489350D01*
X132318889Y-96523676D01*
X132296072Y-96555782D01*
X132281779Y-96582777D01*
X132257608Y-96609906D01*
X132231438Y-96646731D01*
X132207601Y-96666034D01*
X132193063Y-96682351D01*
X132155965Y-96707847D01*
X132114116Y-96741736D01*
X132093974Y-96750452D01*
X132083152Y-96757890D01*
X132032952Y-96776859D01*
X132010807Y-96786443D01*
X131957824Y-96826461D01*
X131933493Y-96892558D01*
X131948760Y-96961316D01*
X132012805Y-97017401D01*
X132024791Y-97022074D01*
X132052219Y-97027904D01*
X132073352Y-97041007D01*
X132088292Y-97046832D01*
X132129828Y-97076024D01*
X132180522Y-97107456D01*
X132191431Y-97119320D01*
X132197402Y-97123516D01*
X132236442Y-97168269D01*
X132282707Y-97218581D01*
X132316500Y-97284903D01*
X132346240Y-97342524D01*
X132346580Y-97343939D01*
X132351243Y-97353091D01*
X132364178Y-97417240D01*
X132377374Y-97472204D01*
X132377320Y-97482417D01*
X132381083Y-97501077D01*
X132376926Y-97557682D01*
X132376675Y-97605566D01*
X132372060Y-97623940D01*
X132370026Y-97651636D01*
X132353744Y-97696861D01*
X132344187Y-97734911D01*
X132331247Y-97759350D01*
X132318889Y-97793676D01*
X132296072Y-97825782D01*
X132281779Y-97852777D01*
X132257608Y-97879906D01*
X132231438Y-97916731D01*
X132207601Y-97936034D01*
X132193063Y-97952351D01*
X132155967Y-97977846D01*
X132114116Y-98011736D01*
X132093971Y-98020453D01*
X132083151Y-98027890D01*
X132032956Y-98046858D01*
X131975568Y-98071692D01*
X131962497Y-98073482D01*
X131958402Y-98075030D01*
X131896634Y-98082504D01*
X131863815Y-98087000D01*
X131794568Y-98087000D01*
X131687657Y-98073494D01*
X131627208Y-98049926D01*
X131599781Y-98044096D01*
X131578648Y-98030993D01*
X131563708Y-98025168D01*
X131522172Y-97995976D01*
X131471478Y-97964544D01*
X131460569Y-97952680D01*
X131454598Y-97948484D01*
X131415558Y-97903731D01*
X131369293Y-97853419D01*
X131335505Y-97787107D01*
X131302534Y-97723226D01*
X131253906Y-97672275D01*
X131185451Y-97655702D01*
X131118903Y-97678770D01*
X131080988Y-97722066D01*
X131061247Y-97759349D01*
X131048889Y-97793676D01*
X131026072Y-97825782D01*
X131011779Y-97852777D01*
X130987608Y-97879906D01*
X130961438Y-97916731D01*
X130937601Y-97936034D01*
X130923063Y-97952351D01*
X130885967Y-97977846D01*
X130844116Y-98011736D01*
X130823971Y-98020453D01*
X130813151Y-98027890D01*
X130762956Y-98046858D01*
X130705568Y-98071692D01*
X130692497Y-98073482D01*
X130688402Y-98075030D01*
X130626634Y-98082504D01*
X130593815Y-98087000D01*
X130524568Y-98087000D01*
X130417657Y-98073494D01*
X130357208Y-98049926D01*
X130329781Y-98044096D01*
X130308648Y-98030993D01*
X130293708Y-98025168D01*
X130252172Y-97995976D01*
X130201478Y-97964544D01*
X130190569Y-97952680D01*
X130184598Y-97948484D01*
X130145558Y-97903731D01*
X130099293Y-97853419D01*
X130076220Y-97808136D01*
X130027895Y-97757502D01*
X129959440Y-97740929D01*
X129892892Y-97763997D01*
X129849380Y-97819382D01*
X129840448Y-97865784D01*
X129840448Y-98023688D01*
X129837999Y-98036000D01*
X129834041Y-98055899D01*
X129822769Y-98072769D01*
X129805899Y-98084041D01*
X129786000Y-98087999D01*
X129773688Y-98090448D01*
X128798312Y-98090448D01*
X128766101Y-98084041D01*
X128749231Y-98072769D01*
X128737959Y-98055899D01*
X128731552Y-98023688D01*
X128731552Y-97048312D01*
X128737959Y-97016101D01*
X128749231Y-96999231D01*
X128766101Y-96987959D01*
X128798312Y-96981552D01*
X128950576Y-96981552D01*
X129018156Y-96961709D01*
X129064279Y-96908479D01*
X129068638Y-96878161D01*
X129497167Y-96878161D01*
X129528393Y-96941293D01*
X129620284Y-96981552D01*
X129773688Y-96981552D01*
X129805899Y-96987959D01*
X129822769Y-96999231D01*
X129834041Y-97016101D01*
X129840448Y-97048312D01*
X129840448Y-97206633D01*
X129860291Y-97274213D01*
X129913521Y-97320336D01*
X129983236Y-97330360D01*
X130047304Y-97301101D01*
X130061202Y-97283626D01*
X130063111Y-97278324D01*
X130085927Y-97246219D01*
X130100221Y-97219223D01*
X130124392Y-97192094D01*
X130150562Y-97155269D01*
X130174399Y-97135966D01*
X130188937Y-97119649D01*
X130226035Y-97094153D01*
X130267884Y-97060264D01*
X130288026Y-97051548D01*
X130298848Y-97044110D01*
X130349048Y-97025141D01*
X130371193Y-97015557D01*
X130424176Y-96975539D01*
X130448507Y-96909442D01*
X130444759Y-96892558D01*
X130663493Y-96892558D01*
X130678760Y-96961316D01*
X130742805Y-97017401D01*
X130754791Y-97022074D01*
X130782219Y-97027904D01*
X130803352Y-97041007D01*
X130818292Y-97046832D01*
X130859828Y-97076024D01*
X130910522Y-97107456D01*
X130921431Y-97119320D01*
X130927402Y-97123516D01*
X130966442Y-97168269D01*
X131012707Y-97218581D01*
X131046495Y-97284893D01*
X131079466Y-97348774D01*
X131128094Y-97399725D01*
X131196549Y-97416298D01*
X131263097Y-97393230D01*
X131301012Y-97349934D01*
X131320753Y-97312651D01*
X131333111Y-97278324D01*
X131355928Y-97246218D01*
X131370221Y-97219223D01*
X131394392Y-97192094D01*
X131420562Y-97155269D01*
X131444399Y-97135966D01*
X131458937Y-97119649D01*
X131496035Y-97094153D01*
X131537884Y-97060264D01*
X131558026Y-97051548D01*
X131568848Y-97044110D01*
X131619048Y-97025141D01*
X131641193Y-97015557D01*
X131694176Y-96975539D01*
X131718507Y-96909442D01*
X131703240Y-96840684D01*
X131639195Y-96784599D01*
X131627209Y-96779926D01*
X131599781Y-96774096D01*
X131578648Y-96760993D01*
X131563708Y-96755168D01*
X131522172Y-96725976D01*
X131471478Y-96694544D01*
X131460569Y-96682680D01*
X131454598Y-96678484D01*
X131415558Y-96633731D01*
X131369293Y-96583419D01*
X131335505Y-96517107D01*
X131302534Y-96453226D01*
X131253906Y-96402275D01*
X131185451Y-96385702D01*
X131118903Y-96408770D01*
X131080988Y-96452066D01*
X131061247Y-96489349D01*
X131048889Y-96523676D01*
X131026072Y-96555782D01*
X131011779Y-96582777D01*
X130987608Y-96609906D01*
X130961438Y-96646731D01*
X130937601Y-96666034D01*
X130923063Y-96682351D01*
X130885965Y-96707847D01*
X130844116Y-96741736D01*
X130823974Y-96750452D01*
X130813152Y-96757890D01*
X130762952Y-96776859D01*
X130740807Y-96786443D01*
X130687824Y-96826461D01*
X130663493Y-96892558D01*
X130444759Y-96892558D01*
X130433240Y-96840684D01*
X130369195Y-96784599D01*
X130357209Y-96779926D01*
X130329781Y-96774096D01*
X130308648Y-96760993D01*
X130293708Y-96755168D01*
X130252172Y-96725976D01*
X130201478Y-96694544D01*
X130190569Y-96682680D01*
X130184598Y-96678484D01*
X130145558Y-96633731D01*
X130099293Y-96583419D01*
X130065505Y-96517107D01*
X130032534Y-96453226D01*
X129983906Y-96402275D01*
X129915451Y-96385702D01*
X129848903Y-96408770D01*
X129810988Y-96452066D01*
X129791247Y-96489349D01*
X129778889Y-96523676D01*
X129756072Y-96555782D01*
X129741779Y-96582777D01*
X129717608Y-96609906D01*
X129691438Y-96646731D01*
X129667601Y-96666034D01*
X129653063Y-96682351D01*
X129615966Y-96707847D01*
X129574116Y-96741736D01*
X129553973Y-96750453D01*
X129549484Y-96753538D01*
X129505029Y-96808168D01*
X129497167Y-96878161D01*
X129068638Y-96878161D01*
X129074303Y-96838764D01*
X129022451Y-96754285D01*
X128982169Y-96725974D01*
X128931478Y-96694544D01*
X128920569Y-96682680D01*
X128914598Y-96678484D01*
X128875558Y-96633731D01*
X128829293Y-96583419D01*
X128795500Y-96517097D01*
X128765760Y-96459476D01*
X128765420Y-96458061D01*
X128760757Y-96448909D01*
X128747822Y-96384760D01*
X128734626Y-96329796D01*
X128734680Y-96319583D01*
X128730917Y-96300923D01*
X128735074Y-96244318D01*
X128735325Y-96196434D01*
X128739940Y-96178060D01*
X128741974Y-96150364D01*
X128758256Y-96105139D01*
X128767813Y-96067089D01*
X128780753Y-96042650D01*
X128793111Y-96008324D01*
X128815928Y-95976218D01*
X128830221Y-95949223D01*
X128854392Y-95922094D01*
X128880562Y-95885269D01*
X128904399Y-95865966D01*
X128918937Y-95849649D01*
X128956033Y-95824154D01*
X128997884Y-95790264D01*
X129018029Y-95781547D01*
X129028849Y-95774110D01*
X129079044Y-95755142D01*
X129136432Y-95730308D01*
X129149503Y-95728518D01*
X129153598Y-95726970D01*
X129215366Y-95719496D01*
X129248185Y-95715000D01*
X129317432Y-95715000D01*
X129424343Y-95728506D01*
X129424343Y-95728506D01*
G37*
G36*
X135824360Y-94109835D02*
G01*
X135905397Y-94136166D01*
X135992663Y-94163848D01*
X135995655Y-94165493D01*
X136004488Y-94168363D01*
X136076466Y-94209919D01*
X136147499Y-94248970D01*
X136154986Y-94255253D01*
X136168511Y-94263061D01*
X136226259Y-94315057D01*
X136282857Y-94362549D01*
X136292962Y-94375118D01*
X136309261Y-94389793D01*
X136351454Y-94447867D01*
X136393579Y-94500260D01*
X136403994Y-94520182D01*
X136420586Y-94543019D01*
X136447297Y-94603012D01*
X136475439Y-94656843D01*
X136483582Y-94684510D01*
X136497621Y-94716042D01*
X136509992Y-94774241D01*
X136525328Y-94826349D01*
X136528518Y-94861401D01*
X136536999Y-94901301D01*
X136536999Y-94954592D01*
X136541343Y-95002324D01*
X136536999Y-95043653D01*
X136536999Y-95090699D01*
X136527217Y-95136721D01*
X136522873Y-95178047D01*
X136508702Y-95223827D01*
X136497621Y-95275958D01*
X136481028Y-95313226D01*
X136470622Y-95346843D01*
X136444789Y-95394620D01*
X136420586Y-95448981D01*
X136400298Y-95476905D01*
X136386580Y-95502276D01*
X136347859Y-95549082D01*
X136309261Y-95602207D01*
X136288284Y-95621095D01*
X136273952Y-95638419D01*
X136221845Y-95680917D01*
X136168511Y-95728939D01*
X136149524Y-95739901D01*
X136137025Y-95750095D01*
X136071780Y-95784786D01*
X136004488Y-95823637D01*
X135989636Y-95828463D01*
X135981003Y-95833053D01*
X135903430Y-95856473D01*
X135824360Y-95882165D01*
X135815114Y-95883137D01*
X135811851Y-95884122D01*
X135720710Y-95893059D01*
X135683211Y-95897000D01*
X135588789Y-95897000D01*
X135447640Y-95882165D01*
X135366603Y-95855834D01*
X135279337Y-95828152D01*
X135276345Y-95826507D01*
X135267512Y-95823637D01*
X135195534Y-95782081D01*
X135124501Y-95743030D01*
X135117014Y-95736747D01*
X135103489Y-95728939D01*
X135045741Y-95676943D01*
X134989143Y-95629451D01*
X134979038Y-95616882D01*
X134962739Y-95602207D01*
X134920546Y-95544133D01*
X134878421Y-95491740D01*
X134868006Y-95471818D01*
X134851414Y-95448981D01*
X134824703Y-95388988D01*
X134796561Y-95335157D01*
X134788418Y-95307490D01*
X134774379Y-95275958D01*
X134762008Y-95217759D01*
X134746672Y-95165651D01*
X134743482Y-95130599D01*
X134735001Y-95090699D01*
X134735001Y-95037408D01*
X134730657Y-94989676D01*
X134735001Y-94948347D01*
X134735001Y-94901301D01*
X134744783Y-94855279D01*
X134749127Y-94813953D01*
X134763298Y-94768173D01*
X134774379Y-94716042D01*
X134790972Y-94678774D01*
X134801378Y-94645157D01*
X134827211Y-94597380D01*
X134851414Y-94543019D01*
X134871702Y-94515095D01*
X134885420Y-94489724D01*
X134924141Y-94442918D01*
X134962739Y-94389793D01*
X134983716Y-94370905D01*
X134998048Y-94353581D01*
X135050155Y-94311083D01*
X135103489Y-94263061D01*
X135122476Y-94252099D01*
X135134975Y-94241905D01*
X135200220Y-94207214D01*
X135267512Y-94168363D01*
X135282364Y-94163537D01*
X135290997Y-94158947D01*
X135368570Y-94135527D01*
X135447640Y-94109835D01*
X135456886Y-94108863D01*
X135460149Y-94107878D01*
X135551290Y-94098941D01*
X135588789Y-94095000D01*
X135683211Y-94095000D01*
X135824360Y-94109835D01*
X135824360Y-94109835D01*
G37*
G36*
X125664360Y-94109835D02*
G01*
X125745397Y-94136166D01*
X125832663Y-94163848D01*
X125835655Y-94165493D01*
X125844488Y-94168363D01*
X125916466Y-94209919D01*
X125987499Y-94248970D01*
X125994986Y-94255253D01*
X126008511Y-94263061D01*
X126066259Y-94315057D01*
X126122857Y-94362549D01*
X126132962Y-94375118D01*
X126149261Y-94389793D01*
X126191454Y-94447867D01*
X126233579Y-94500260D01*
X126243994Y-94520182D01*
X126260586Y-94543019D01*
X126287297Y-94603012D01*
X126315439Y-94656843D01*
X126323582Y-94684510D01*
X126337621Y-94716042D01*
X126349992Y-94774241D01*
X126365328Y-94826349D01*
X126368518Y-94861401D01*
X126376999Y-94901301D01*
X126376999Y-94954592D01*
X126381343Y-95002324D01*
X126376999Y-95043653D01*
X126376999Y-95090699D01*
X126367217Y-95136721D01*
X126362873Y-95178047D01*
X126348702Y-95223827D01*
X126337621Y-95275958D01*
X126321028Y-95313226D01*
X126310622Y-95346843D01*
X126284789Y-95394620D01*
X126260586Y-95448981D01*
X126240298Y-95476905D01*
X126226580Y-95502276D01*
X126187859Y-95549082D01*
X126149261Y-95602207D01*
X126128284Y-95621095D01*
X126113952Y-95638419D01*
X126061845Y-95680917D01*
X126008511Y-95728939D01*
X125989524Y-95739901D01*
X125977025Y-95750095D01*
X125911780Y-95784786D01*
X125844488Y-95823637D01*
X125829636Y-95828463D01*
X125821003Y-95833053D01*
X125743430Y-95856473D01*
X125664360Y-95882165D01*
X125655114Y-95883137D01*
X125651851Y-95884122D01*
X125560710Y-95893059D01*
X125523211Y-95897000D01*
X125428789Y-95897000D01*
X125287640Y-95882165D01*
X125206603Y-95855834D01*
X125119337Y-95828152D01*
X125116345Y-95826507D01*
X125107512Y-95823637D01*
X125035534Y-95782081D01*
X124964501Y-95743030D01*
X124957014Y-95736747D01*
X124943489Y-95728939D01*
X124885741Y-95676943D01*
X124829143Y-95629451D01*
X124819038Y-95616882D01*
X124802739Y-95602207D01*
X124760546Y-95544133D01*
X124718421Y-95491740D01*
X124708006Y-95471818D01*
X124691414Y-95448981D01*
X124664703Y-95388988D01*
X124636561Y-95335157D01*
X124628418Y-95307490D01*
X124614379Y-95275958D01*
X124602008Y-95217759D01*
X124586672Y-95165651D01*
X124583482Y-95130599D01*
X124575001Y-95090699D01*
X124575001Y-95037408D01*
X124570657Y-94989676D01*
X124575001Y-94948347D01*
X124575001Y-94901301D01*
X124584783Y-94855279D01*
X124589127Y-94813953D01*
X124603298Y-94768173D01*
X124614379Y-94716042D01*
X124630972Y-94678774D01*
X124641378Y-94645157D01*
X124667211Y-94597380D01*
X124691414Y-94543019D01*
X124711702Y-94515095D01*
X124725420Y-94489724D01*
X124764141Y-94442918D01*
X124802739Y-94389793D01*
X124823716Y-94370905D01*
X124838048Y-94353581D01*
X124890155Y-94311083D01*
X124943489Y-94263061D01*
X124962476Y-94252099D01*
X124974975Y-94241905D01*
X125040220Y-94207214D01*
X125107512Y-94168363D01*
X125122364Y-94163537D01*
X125130997Y-94158947D01*
X125208570Y-94135527D01*
X125287640Y-94109835D01*
X125296886Y-94108863D01*
X125300149Y-94107878D01*
X125391290Y-94098941D01*
X125428789Y-94095000D01*
X125523211Y-94095000D01*
X125664360Y-94109835D01*
X125664360Y-94109835D01*
G37*
G36*
X131713980Y-93453117D02*
G01*
X131714386Y-93453117D01*
X131716637Y-93453538D01*
X131805801Y-93467660D01*
X131813691Y-93471680D01*
X131820409Y-93472936D01*
X131840176Y-93485175D01*
X131887229Y-93509150D01*
X131900776Y-93522697D01*
X131912114Y-93529717D01*
X131925432Y-93547353D01*
X131951850Y-93573771D01*
X131965267Y-93600103D01*
X131977114Y-93615791D01*
X131980418Y-93629838D01*
X131993340Y-93655199D01*
X132007686Y-93745777D01*
X132007883Y-93746614D01*
X132007883Y-93747020D01*
X132009194Y-93755297D01*
X132009194Y-94204703D01*
X132007883Y-94212980D01*
X132007883Y-94213386D01*
X132007462Y-94215637D01*
X131993340Y-94304801D01*
X131989320Y-94312691D01*
X131988064Y-94319409D01*
X131975825Y-94339176D01*
X131951850Y-94386229D01*
X131938303Y-94399776D01*
X131931283Y-94411114D01*
X131913647Y-94424432D01*
X131887229Y-94450850D01*
X131860897Y-94464267D01*
X131845209Y-94476114D01*
X131831162Y-94479418D01*
X131805801Y-94492340D01*
X131715223Y-94506686D01*
X131714386Y-94506883D01*
X131713980Y-94506883D01*
X131705703Y-94508194D01*
X131156297Y-94508194D01*
X131148020Y-94506883D01*
X131147614Y-94506883D01*
X131145363Y-94506462D01*
X131056199Y-94492340D01*
X131048309Y-94488320D01*
X131041591Y-94487064D01*
X131021824Y-94474825D01*
X130974771Y-94450850D01*
X130961224Y-94437303D01*
X130949886Y-94430283D01*
X130936568Y-94412647D01*
X130910150Y-94386229D01*
X130896733Y-94359897D01*
X130884886Y-94344209D01*
X130881582Y-94330162D01*
X130868660Y-94304801D01*
X130854314Y-94214223D01*
X130854117Y-94213386D01*
X130854117Y-94212980D01*
X130852806Y-94204703D01*
X130852806Y-93755297D01*
X130854117Y-93747020D01*
X130854117Y-93746614D01*
X130854538Y-93744363D01*
X130868660Y-93655199D01*
X130872680Y-93647309D01*
X130873936Y-93640591D01*
X130886175Y-93620824D01*
X130910150Y-93573771D01*
X130923697Y-93560224D01*
X130930717Y-93548886D01*
X130948353Y-93535568D01*
X130974771Y-93509150D01*
X131001103Y-93495733D01*
X131016791Y-93483886D01*
X131030838Y-93480582D01*
X131056199Y-93467660D01*
X131146777Y-93453314D01*
X131147614Y-93453117D01*
X131148020Y-93453117D01*
X131156297Y-93451806D01*
X131705703Y-93451806D01*
X131713980Y-93453117D01*
X131713980Y-93453117D01*
G37*
G36*
X129963980Y-93453117D02*
G01*
X129964386Y-93453117D01*
X129966637Y-93453538D01*
X130055801Y-93467660D01*
X130063691Y-93471680D01*
X130070409Y-93472936D01*
X130090176Y-93485175D01*
X130137229Y-93509150D01*
X130150776Y-93522697D01*
X130162114Y-93529717D01*
X130175432Y-93547353D01*
X130201850Y-93573771D01*
X130215267Y-93600103D01*
X130227114Y-93615791D01*
X130230418Y-93629838D01*
X130243340Y-93655199D01*
X130257686Y-93745777D01*
X130257883Y-93746614D01*
X130257883Y-93747020D01*
X130259194Y-93755297D01*
X130259194Y-94204703D01*
X130257883Y-94212980D01*
X130257883Y-94213386D01*
X130257462Y-94215637D01*
X130243340Y-94304801D01*
X130239320Y-94312691D01*
X130238064Y-94319409D01*
X130225825Y-94339176D01*
X130201850Y-94386229D01*
X130188303Y-94399776D01*
X130181283Y-94411114D01*
X130163647Y-94424432D01*
X130137229Y-94450850D01*
X130110897Y-94464267D01*
X130095209Y-94476114D01*
X130081162Y-94479418D01*
X130055801Y-94492340D01*
X129965223Y-94506686D01*
X129964386Y-94506883D01*
X129963980Y-94506883D01*
X129955703Y-94508194D01*
X129406297Y-94508194D01*
X129398020Y-94506883D01*
X129397614Y-94506883D01*
X129395363Y-94506462D01*
X129306199Y-94492340D01*
X129298309Y-94488320D01*
X129291591Y-94487064D01*
X129271824Y-94474825D01*
X129224771Y-94450850D01*
X129211224Y-94437303D01*
X129199886Y-94430283D01*
X129186568Y-94412647D01*
X129160150Y-94386229D01*
X129146733Y-94359897D01*
X129134886Y-94344209D01*
X129131582Y-94330162D01*
X129118660Y-94304801D01*
X129104314Y-94214223D01*
X129104117Y-94213386D01*
X129104117Y-94212980D01*
X129102806Y-94204703D01*
X129102806Y-93755297D01*
X129104117Y-93747020D01*
X129104117Y-93746614D01*
X129104538Y-93744363D01*
X129118660Y-93655199D01*
X129122680Y-93647309D01*
X129123936Y-93640591D01*
X129136175Y-93620824D01*
X129160150Y-93573771D01*
X129173697Y-93560224D01*
X129180717Y-93548886D01*
X129198353Y-93535568D01*
X129224771Y-93509150D01*
X129251103Y-93495733D01*
X129266791Y-93483886D01*
X129280838Y-93480582D01*
X129306199Y-93467660D01*
X129396777Y-93453314D01*
X129397614Y-93453117D01*
X129398020Y-93453117D01*
X129406297Y-93451806D01*
X129955703Y-93451806D01*
X129963980Y-93453117D01*
X129963980Y-93453117D01*
G37*
G36*
X125664360Y-91569835D02*
G01*
X125745397Y-91596166D01*
X125832663Y-91623848D01*
X125835655Y-91625493D01*
X125844488Y-91628363D01*
X125916466Y-91669919D01*
X125987499Y-91708970D01*
X125994986Y-91715253D01*
X126008511Y-91723061D01*
X126066259Y-91775057D01*
X126122857Y-91822549D01*
X126132962Y-91835118D01*
X126149261Y-91849793D01*
X126191454Y-91907867D01*
X126233579Y-91960260D01*
X126243994Y-91980182D01*
X126260586Y-92003019D01*
X126287297Y-92063012D01*
X126315439Y-92116843D01*
X126323582Y-92144510D01*
X126337621Y-92176042D01*
X126349992Y-92234241D01*
X126365328Y-92286349D01*
X126368518Y-92321401D01*
X126376999Y-92361301D01*
X126376999Y-92414592D01*
X126381343Y-92462324D01*
X126376999Y-92503653D01*
X126376999Y-92550699D01*
X126367217Y-92596721D01*
X126362873Y-92638047D01*
X126348702Y-92683827D01*
X126337621Y-92735958D01*
X126321028Y-92773226D01*
X126310622Y-92806843D01*
X126284789Y-92854620D01*
X126260586Y-92908981D01*
X126240298Y-92936905D01*
X126226580Y-92962276D01*
X126187859Y-93009082D01*
X126149261Y-93062207D01*
X126128284Y-93081095D01*
X126113952Y-93098419D01*
X126061845Y-93140917D01*
X126008511Y-93188939D01*
X125989524Y-93199901D01*
X125977025Y-93210095D01*
X125911780Y-93244786D01*
X125844488Y-93283637D01*
X125829636Y-93288463D01*
X125821003Y-93293053D01*
X125743430Y-93316473D01*
X125664360Y-93342165D01*
X125655114Y-93343137D01*
X125651851Y-93344122D01*
X125560710Y-93353059D01*
X125523211Y-93357000D01*
X125428789Y-93357000D01*
X125287640Y-93342165D01*
X125206603Y-93315834D01*
X125119337Y-93288152D01*
X125116345Y-93286507D01*
X125107512Y-93283637D01*
X125035534Y-93242081D01*
X124964501Y-93203030D01*
X124957014Y-93196747D01*
X124943489Y-93188939D01*
X124885741Y-93136943D01*
X124829143Y-93089451D01*
X124819038Y-93076882D01*
X124802739Y-93062207D01*
X124760546Y-93004133D01*
X124718421Y-92951740D01*
X124708006Y-92931818D01*
X124691414Y-92908981D01*
X124664703Y-92848988D01*
X124636561Y-92795157D01*
X124628418Y-92767490D01*
X124614379Y-92735958D01*
X124602008Y-92677759D01*
X124586672Y-92625651D01*
X124583482Y-92590599D01*
X124575001Y-92550699D01*
X124575001Y-92497408D01*
X124570657Y-92449676D01*
X124575001Y-92408347D01*
X124575001Y-92361301D01*
X124584783Y-92315279D01*
X124589127Y-92273953D01*
X124603298Y-92228173D01*
X124614379Y-92176042D01*
X124630972Y-92138774D01*
X124641378Y-92105157D01*
X124667211Y-92057380D01*
X124691414Y-92003019D01*
X124711702Y-91975095D01*
X124725420Y-91949724D01*
X124764141Y-91902918D01*
X124802739Y-91849793D01*
X124823716Y-91830905D01*
X124838048Y-91813581D01*
X124890155Y-91771083D01*
X124943489Y-91723061D01*
X124962476Y-91712099D01*
X124974975Y-91701905D01*
X125040220Y-91667214D01*
X125107512Y-91628363D01*
X125122364Y-91623537D01*
X125130997Y-91618947D01*
X125208570Y-91595527D01*
X125287640Y-91569835D01*
X125296886Y-91568863D01*
X125300149Y-91567878D01*
X125391290Y-91558941D01*
X125428789Y-91555000D01*
X125523211Y-91555000D01*
X125664360Y-91569835D01*
X125664360Y-91569835D01*
G37*
G36*
X135824360Y-91569835D02*
G01*
X135905397Y-91596166D01*
X135992663Y-91623848D01*
X135995655Y-91625493D01*
X136004488Y-91628363D01*
X136076466Y-91669919D01*
X136147499Y-91708970D01*
X136154986Y-91715253D01*
X136168511Y-91723061D01*
X136226259Y-91775057D01*
X136282857Y-91822549D01*
X136292962Y-91835118D01*
X136309261Y-91849793D01*
X136351454Y-91907867D01*
X136393579Y-91960260D01*
X136403994Y-91980182D01*
X136420586Y-92003019D01*
X136447297Y-92063012D01*
X136475439Y-92116843D01*
X136483582Y-92144510D01*
X136497621Y-92176042D01*
X136509992Y-92234241D01*
X136525328Y-92286349D01*
X136528518Y-92321401D01*
X136536999Y-92361301D01*
X136536999Y-92414592D01*
X136541343Y-92462324D01*
X136536999Y-92503653D01*
X136536999Y-92550699D01*
X136527217Y-92596721D01*
X136522873Y-92638047D01*
X136508702Y-92683827D01*
X136497621Y-92735958D01*
X136481028Y-92773226D01*
X136470622Y-92806843D01*
X136444789Y-92854620D01*
X136420586Y-92908981D01*
X136400298Y-92936905D01*
X136386580Y-92962276D01*
X136347859Y-93009082D01*
X136309261Y-93062207D01*
X136288284Y-93081095D01*
X136273952Y-93098419D01*
X136221845Y-93140917D01*
X136168511Y-93188939D01*
X136149524Y-93199901D01*
X136137025Y-93210095D01*
X136071780Y-93244786D01*
X136004488Y-93283637D01*
X135989636Y-93288463D01*
X135981003Y-93293053D01*
X135903430Y-93316473D01*
X135824360Y-93342165D01*
X135815114Y-93343137D01*
X135811851Y-93344122D01*
X135720710Y-93353059D01*
X135683211Y-93357000D01*
X135588789Y-93357000D01*
X135447640Y-93342165D01*
X135366603Y-93315834D01*
X135279337Y-93288152D01*
X135276345Y-93286507D01*
X135267512Y-93283637D01*
X135195534Y-93242081D01*
X135124501Y-93203030D01*
X135117014Y-93196747D01*
X135103489Y-93188939D01*
X135045741Y-93136943D01*
X134989143Y-93089451D01*
X134979038Y-93076882D01*
X134962739Y-93062207D01*
X134920546Y-93004133D01*
X134878421Y-92951740D01*
X134868006Y-92931818D01*
X134851414Y-92908981D01*
X134824703Y-92848988D01*
X134796561Y-92795157D01*
X134788418Y-92767490D01*
X134774379Y-92735958D01*
X134762008Y-92677759D01*
X134746672Y-92625651D01*
X134743482Y-92590599D01*
X134735001Y-92550699D01*
X134735001Y-92497408D01*
X134730657Y-92449676D01*
X134735001Y-92408347D01*
X134735001Y-92361301D01*
X134744783Y-92315279D01*
X134749127Y-92273953D01*
X134763298Y-92228173D01*
X134774379Y-92176042D01*
X134790972Y-92138774D01*
X134801378Y-92105157D01*
X134827211Y-92057380D01*
X134851414Y-92003019D01*
X134871702Y-91975095D01*
X134885420Y-91949724D01*
X134924141Y-91902918D01*
X134962739Y-91849793D01*
X134983716Y-91830905D01*
X134998048Y-91813581D01*
X135050155Y-91771083D01*
X135103489Y-91723061D01*
X135122476Y-91712099D01*
X135134975Y-91701905D01*
X135200220Y-91667214D01*
X135267512Y-91628363D01*
X135282364Y-91623537D01*
X135290997Y-91618947D01*
X135368570Y-91595527D01*
X135447640Y-91569835D01*
X135456886Y-91568863D01*
X135460149Y-91567878D01*
X135551290Y-91558941D01*
X135588789Y-91555000D01*
X135683211Y-91555000D01*
X135824360Y-91569835D01*
X135824360Y-91569835D01*
G37*
G36*
X129963980Y-91588617D02*
G01*
X129964386Y-91588617D01*
X129966637Y-91589038D01*
X130055801Y-91603160D01*
X130063691Y-91607180D01*
X130070409Y-91608436D01*
X130090176Y-91620675D01*
X130137229Y-91644650D01*
X130150776Y-91658197D01*
X130162114Y-91665217D01*
X130175432Y-91682853D01*
X130201850Y-91709271D01*
X130215267Y-91735603D01*
X130227114Y-91751291D01*
X130230418Y-91765338D01*
X130243340Y-91790699D01*
X130257686Y-91881277D01*
X130257883Y-91882114D01*
X130257883Y-91882520D01*
X130259194Y-91890797D01*
X130259194Y-92340203D01*
X130257883Y-92348480D01*
X130257883Y-92348886D01*
X130257462Y-92351137D01*
X130243340Y-92440301D01*
X130239320Y-92448191D01*
X130238064Y-92454909D01*
X130225825Y-92474676D01*
X130201850Y-92521729D01*
X130188303Y-92535276D01*
X130181283Y-92546614D01*
X130163647Y-92559932D01*
X130137229Y-92586350D01*
X130110897Y-92599767D01*
X130095209Y-92611614D01*
X130081162Y-92614918D01*
X130055801Y-92627840D01*
X129965223Y-92642186D01*
X129964386Y-92642383D01*
X129963980Y-92642383D01*
X129955703Y-92643694D01*
X129406297Y-92643694D01*
X129398020Y-92642383D01*
X129397614Y-92642383D01*
X129395363Y-92641962D01*
X129306199Y-92627840D01*
X129298309Y-92623820D01*
X129291591Y-92622564D01*
X129271824Y-92610325D01*
X129224771Y-92586350D01*
X129211224Y-92572803D01*
X129199886Y-92565783D01*
X129186568Y-92548147D01*
X129160150Y-92521729D01*
X129146733Y-92495397D01*
X129134886Y-92479709D01*
X129131582Y-92465662D01*
X129118660Y-92440301D01*
X129104314Y-92349723D01*
X129104117Y-92348886D01*
X129104117Y-92348480D01*
X129102806Y-92340203D01*
X129102806Y-91890797D01*
X129104117Y-91882520D01*
X129104117Y-91882114D01*
X129104538Y-91879863D01*
X129118660Y-91790699D01*
X129122680Y-91782809D01*
X129123936Y-91776091D01*
X129136175Y-91756324D01*
X129160150Y-91709271D01*
X129173697Y-91695724D01*
X129180717Y-91684386D01*
X129198353Y-91671068D01*
X129224771Y-91644650D01*
X129251103Y-91631233D01*
X129266791Y-91619386D01*
X129280838Y-91616082D01*
X129306199Y-91603160D01*
X129396777Y-91588814D01*
X129397614Y-91588617D01*
X129398020Y-91588617D01*
X129406297Y-91587306D01*
X129955703Y-91587306D01*
X129963980Y-91588617D01*
X129963980Y-91588617D01*
G37*
G36*
X131713980Y-91588617D02*
G01*
X131714386Y-91588617D01*
X131716637Y-91589038D01*
X131805801Y-91603160D01*
X131813691Y-91607180D01*
X131820409Y-91608436D01*
X131840176Y-91620675D01*
X131887229Y-91644650D01*
X131900776Y-91658197D01*
X131912114Y-91665217D01*
X131925432Y-91682853D01*
X131951850Y-91709271D01*
X131965267Y-91735603D01*
X131977114Y-91751291D01*
X131980418Y-91765338D01*
X131993340Y-91790699D01*
X132007686Y-91881277D01*
X132007883Y-91882114D01*
X132007883Y-91882520D01*
X132009194Y-91890797D01*
X132009194Y-92340203D01*
X132007883Y-92348480D01*
X132007883Y-92348886D01*
X132007462Y-92351137D01*
X131993340Y-92440301D01*
X131989320Y-92448191D01*
X131988064Y-92454909D01*
X131975825Y-92474676D01*
X131951850Y-92521729D01*
X131938303Y-92535276D01*
X131931283Y-92546614D01*
X131913647Y-92559932D01*
X131887229Y-92586350D01*
X131860897Y-92599767D01*
X131845209Y-92611614D01*
X131831162Y-92614918D01*
X131805801Y-92627840D01*
X131715223Y-92642186D01*
X131714386Y-92642383D01*
X131713980Y-92642383D01*
X131705703Y-92643694D01*
X131156297Y-92643694D01*
X131148020Y-92642383D01*
X131147614Y-92642383D01*
X131145363Y-92641962D01*
X131056199Y-92627840D01*
X131048309Y-92623820D01*
X131041591Y-92622564D01*
X131021824Y-92610325D01*
X130974771Y-92586350D01*
X130961224Y-92572803D01*
X130949886Y-92565783D01*
X130936568Y-92548147D01*
X130910150Y-92521729D01*
X130896733Y-92495397D01*
X130884886Y-92479709D01*
X130881582Y-92465662D01*
X130868660Y-92440301D01*
X130854314Y-92349723D01*
X130854117Y-92348886D01*
X130854117Y-92348480D01*
X130852806Y-92340203D01*
X130852806Y-91890797D01*
X130854117Y-91882520D01*
X130854117Y-91882114D01*
X130854538Y-91879863D01*
X130868660Y-91790699D01*
X130872680Y-91782809D01*
X130873936Y-91776091D01*
X130886175Y-91756324D01*
X130910150Y-91709271D01*
X130923697Y-91695724D01*
X130930717Y-91684386D01*
X130948353Y-91671068D01*
X130974771Y-91644650D01*
X131001103Y-91631233D01*
X131016791Y-91619386D01*
X131030838Y-91616082D01*
X131056199Y-91603160D01*
X131146777Y-91588814D01*
X131147614Y-91588617D01*
X131148020Y-91588617D01*
X131156297Y-91587306D01*
X131705703Y-91587306D01*
X131713980Y-91588617D01*
X131713980Y-91588617D01*
G37*
G36*
X125664360Y-89029835D02*
G01*
X125745397Y-89056166D01*
X125832663Y-89083848D01*
X125835655Y-89085493D01*
X125844488Y-89088363D01*
X125916466Y-89129919D01*
X125987499Y-89168970D01*
X125994986Y-89175253D01*
X126008511Y-89183061D01*
X126066259Y-89235057D01*
X126122857Y-89282549D01*
X126132962Y-89295118D01*
X126149261Y-89309793D01*
X126191454Y-89367867D01*
X126233579Y-89420260D01*
X126243994Y-89440182D01*
X126260586Y-89463019D01*
X126287297Y-89523012D01*
X126315439Y-89576843D01*
X126323582Y-89604510D01*
X126337621Y-89636042D01*
X126349992Y-89694241D01*
X126365328Y-89746349D01*
X126368518Y-89781401D01*
X126376999Y-89821301D01*
X126376999Y-89874592D01*
X126381343Y-89922324D01*
X126376999Y-89963653D01*
X126376999Y-90010699D01*
X126367217Y-90056721D01*
X126362873Y-90098047D01*
X126348702Y-90143827D01*
X126337621Y-90195958D01*
X126321028Y-90233226D01*
X126310622Y-90266843D01*
X126284789Y-90314620D01*
X126260586Y-90368981D01*
X126240298Y-90396905D01*
X126226580Y-90422276D01*
X126187859Y-90469082D01*
X126149261Y-90522207D01*
X126128284Y-90541095D01*
X126113952Y-90558419D01*
X126061845Y-90600917D01*
X126008511Y-90648939D01*
X125989524Y-90659901D01*
X125977025Y-90670095D01*
X125911780Y-90704786D01*
X125844488Y-90743637D01*
X125829636Y-90748463D01*
X125821003Y-90753053D01*
X125743430Y-90776473D01*
X125664360Y-90802165D01*
X125655114Y-90803137D01*
X125651851Y-90804122D01*
X125560710Y-90813059D01*
X125523211Y-90817000D01*
X125428789Y-90817000D01*
X125287640Y-90802165D01*
X125206603Y-90775834D01*
X125119337Y-90748152D01*
X125116345Y-90746507D01*
X125107512Y-90743637D01*
X125035534Y-90702081D01*
X124964501Y-90663030D01*
X124957014Y-90656747D01*
X124943489Y-90648939D01*
X124885741Y-90596943D01*
X124829143Y-90549451D01*
X124819038Y-90536882D01*
X124802739Y-90522207D01*
X124760546Y-90464133D01*
X124718421Y-90411740D01*
X124708006Y-90391818D01*
X124691414Y-90368981D01*
X124664703Y-90308988D01*
X124636561Y-90255157D01*
X124628418Y-90227490D01*
X124614379Y-90195958D01*
X124602008Y-90137759D01*
X124586672Y-90085651D01*
X124583482Y-90050599D01*
X124575001Y-90010699D01*
X124575001Y-89957408D01*
X124570657Y-89909676D01*
X124575001Y-89868347D01*
X124575001Y-89821301D01*
X124584783Y-89775279D01*
X124589127Y-89733953D01*
X124603298Y-89688173D01*
X124614379Y-89636042D01*
X124630972Y-89598774D01*
X124641378Y-89565157D01*
X124667211Y-89517380D01*
X124691414Y-89463019D01*
X124711702Y-89435095D01*
X124725420Y-89409724D01*
X124764141Y-89362918D01*
X124802739Y-89309793D01*
X124823716Y-89290905D01*
X124838048Y-89273581D01*
X124890155Y-89231083D01*
X124943489Y-89183061D01*
X124962476Y-89172099D01*
X124974975Y-89161905D01*
X125040220Y-89127214D01*
X125107512Y-89088363D01*
X125122364Y-89083537D01*
X125130997Y-89078947D01*
X125208570Y-89055527D01*
X125287640Y-89029835D01*
X125296886Y-89028863D01*
X125300149Y-89027878D01*
X125391290Y-89018941D01*
X125428789Y-89015000D01*
X125523211Y-89015000D01*
X125664360Y-89029835D01*
X125664360Y-89029835D01*
G37*
G36*
X135824360Y-89029835D02*
G01*
X135905397Y-89056166D01*
X135992663Y-89083848D01*
X135995655Y-89085493D01*
X136004488Y-89088363D01*
X136076466Y-89129919D01*
X136147499Y-89168970D01*
X136154986Y-89175253D01*
X136168511Y-89183061D01*
X136226259Y-89235057D01*
X136282857Y-89282549D01*
X136292962Y-89295118D01*
X136309261Y-89309793D01*
X136351454Y-89367867D01*
X136393579Y-89420260D01*
X136403994Y-89440182D01*
X136420586Y-89463019D01*
X136447297Y-89523012D01*
X136475439Y-89576843D01*
X136483582Y-89604510D01*
X136497621Y-89636042D01*
X136509992Y-89694241D01*
X136525328Y-89746349D01*
X136528518Y-89781401D01*
X136536999Y-89821301D01*
X136536999Y-89874592D01*
X136541343Y-89922324D01*
X136536999Y-89963653D01*
X136536999Y-90010699D01*
X136527217Y-90056721D01*
X136522873Y-90098047D01*
X136508702Y-90143827D01*
X136497621Y-90195958D01*
X136481028Y-90233226D01*
X136470622Y-90266843D01*
X136444789Y-90314620D01*
X136420586Y-90368981D01*
X136400298Y-90396905D01*
X136386580Y-90422276D01*
X136347859Y-90469082D01*
X136309261Y-90522207D01*
X136288284Y-90541095D01*
X136273952Y-90558419D01*
X136221845Y-90600917D01*
X136168511Y-90648939D01*
X136149524Y-90659901D01*
X136137025Y-90670095D01*
X136071780Y-90704786D01*
X136004488Y-90743637D01*
X135989636Y-90748463D01*
X135981003Y-90753053D01*
X135903430Y-90776473D01*
X135824360Y-90802165D01*
X135815114Y-90803137D01*
X135811851Y-90804122D01*
X135720710Y-90813059D01*
X135683211Y-90817000D01*
X135588789Y-90817000D01*
X135447640Y-90802165D01*
X135366603Y-90775834D01*
X135279337Y-90748152D01*
X135276345Y-90746507D01*
X135267512Y-90743637D01*
X135195534Y-90702081D01*
X135124501Y-90663030D01*
X135117014Y-90656747D01*
X135103489Y-90648939D01*
X135045741Y-90596943D01*
X134989143Y-90549451D01*
X134979038Y-90536882D01*
X134962739Y-90522207D01*
X134920546Y-90464133D01*
X134878421Y-90411740D01*
X134868006Y-90391818D01*
X134851414Y-90368981D01*
X134824703Y-90308988D01*
X134796561Y-90255157D01*
X134788418Y-90227490D01*
X134774379Y-90195958D01*
X134762008Y-90137759D01*
X134746672Y-90085651D01*
X134743482Y-90050599D01*
X134735001Y-90010699D01*
X134735001Y-89957408D01*
X134730657Y-89909676D01*
X134735001Y-89868347D01*
X134735001Y-89821301D01*
X134744783Y-89775279D01*
X134749127Y-89733953D01*
X134763298Y-89688173D01*
X134774379Y-89636042D01*
X134790972Y-89598774D01*
X134801378Y-89565157D01*
X134827211Y-89517380D01*
X134851414Y-89463019D01*
X134871702Y-89435095D01*
X134885420Y-89409724D01*
X134924141Y-89362918D01*
X134962739Y-89309793D01*
X134983716Y-89290905D01*
X134998048Y-89273581D01*
X135050155Y-89231083D01*
X135103489Y-89183061D01*
X135122476Y-89172099D01*
X135134975Y-89161905D01*
X135200220Y-89127214D01*
X135267512Y-89088363D01*
X135282364Y-89083537D01*
X135290997Y-89078947D01*
X135368570Y-89055527D01*
X135447640Y-89029835D01*
X135456886Y-89028863D01*
X135460149Y-89027878D01*
X135551290Y-89018941D01*
X135588789Y-89015000D01*
X135683211Y-89015000D01*
X135824360Y-89029835D01*
X135824360Y-89029835D01*
G37*
G36*
X130975899Y-89782959D02*
G01*
X130992769Y-89794231D01*
X131004041Y-89811101D01*
X131010448Y-89843312D01*
X131010448Y-90718688D01*
X131007999Y-90731000D01*
X131004041Y-90750899D01*
X130992769Y-90767769D01*
X130975899Y-90779041D01*
X130956000Y-90782999D01*
X130943688Y-90785448D01*
X130168312Y-90785448D01*
X130136101Y-90779041D01*
X130119231Y-90767769D01*
X130107959Y-90750899D01*
X130101552Y-90718688D01*
X130101552Y-89843312D01*
X130107959Y-89811101D01*
X130119231Y-89794231D01*
X130136101Y-89782959D01*
X130168312Y-89776552D01*
X130943688Y-89776552D01*
X130975899Y-89782959D01*
X130975899Y-89782959D01*
G37*
G36*
X131925899Y-87782959D02*
G01*
X131942769Y-87794231D01*
X131954041Y-87811101D01*
X131960448Y-87843312D01*
X131960448Y-88718688D01*
X131957999Y-88731000D01*
X131954041Y-88750899D01*
X131942769Y-88767769D01*
X131925899Y-88779041D01*
X131906000Y-88782999D01*
X131893688Y-88785448D01*
X131118312Y-88785448D01*
X131086101Y-88779041D01*
X131069231Y-88767769D01*
X131057959Y-88750899D01*
X131051552Y-88718688D01*
X131051552Y-87843312D01*
X131057959Y-87811101D01*
X131069231Y-87794231D01*
X131086101Y-87782959D01*
X131118312Y-87776552D01*
X131893688Y-87776552D01*
X131925899Y-87782959D01*
X131925899Y-87782959D01*
G37*
G36*
X130025899Y-87782959D02*
G01*
X130042769Y-87794231D01*
X130054041Y-87811101D01*
X130060448Y-87843312D01*
X130060448Y-88718688D01*
X130057999Y-88731000D01*
X130054041Y-88750899D01*
X130042769Y-88767769D01*
X130025899Y-88779041D01*
X130006000Y-88782999D01*
X129993688Y-88785448D01*
X129218312Y-88785448D01*
X129186101Y-88779041D01*
X129169231Y-88767769D01*
X129157959Y-88750899D01*
X129151552Y-88718688D01*
X129151552Y-87843312D01*
X129157959Y-87811101D01*
X129169231Y-87794231D01*
X129186101Y-87782959D01*
X129218312Y-87776552D01*
X129993688Y-87776552D01*
X130025899Y-87782959D01*
X130025899Y-87782959D01*
G37*
G36*
X135824360Y-86489835D02*
G01*
X135905397Y-86516166D01*
X135992663Y-86543848D01*
X135995655Y-86545493D01*
X136004488Y-86548363D01*
X136076466Y-86589919D01*
X136147499Y-86628970D01*
X136154986Y-86635253D01*
X136168511Y-86643061D01*
X136226259Y-86695057D01*
X136282857Y-86742549D01*
X136292962Y-86755118D01*
X136309261Y-86769793D01*
X136351454Y-86827867D01*
X136393579Y-86880260D01*
X136403994Y-86900182D01*
X136420586Y-86923019D01*
X136447297Y-86983012D01*
X136475439Y-87036843D01*
X136483582Y-87064510D01*
X136497621Y-87096042D01*
X136509992Y-87154241D01*
X136525328Y-87206349D01*
X136528518Y-87241401D01*
X136536999Y-87281301D01*
X136536999Y-87334592D01*
X136541343Y-87382324D01*
X136536999Y-87423653D01*
X136536999Y-87470699D01*
X136527217Y-87516721D01*
X136522873Y-87558047D01*
X136508702Y-87603827D01*
X136497621Y-87655958D01*
X136481028Y-87693226D01*
X136470622Y-87726843D01*
X136444789Y-87774620D01*
X136420586Y-87828981D01*
X136400298Y-87856905D01*
X136386580Y-87882276D01*
X136347859Y-87929082D01*
X136309261Y-87982207D01*
X136288284Y-88001095D01*
X136273952Y-88018419D01*
X136221845Y-88060917D01*
X136168511Y-88108939D01*
X136149524Y-88119901D01*
X136137025Y-88130095D01*
X136071780Y-88164786D01*
X136004488Y-88203637D01*
X135989636Y-88208463D01*
X135981003Y-88213053D01*
X135903430Y-88236473D01*
X135824360Y-88262165D01*
X135815114Y-88263137D01*
X135811851Y-88264122D01*
X135720710Y-88273059D01*
X135683211Y-88277000D01*
X135588789Y-88277000D01*
X135447640Y-88262165D01*
X135366603Y-88235834D01*
X135279337Y-88208152D01*
X135276345Y-88206507D01*
X135267512Y-88203637D01*
X135195534Y-88162081D01*
X135124501Y-88123030D01*
X135117014Y-88116747D01*
X135103489Y-88108939D01*
X135045741Y-88056943D01*
X134989143Y-88009451D01*
X134979038Y-87996882D01*
X134962739Y-87982207D01*
X134920546Y-87924133D01*
X134878421Y-87871740D01*
X134868006Y-87851818D01*
X134851414Y-87828981D01*
X134824703Y-87768988D01*
X134796561Y-87715157D01*
X134788418Y-87687490D01*
X134774379Y-87655958D01*
X134762008Y-87597759D01*
X134746672Y-87545651D01*
X134743482Y-87510599D01*
X134735001Y-87470699D01*
X134735001Y-87417408D01*
X134730657Y-87369676D01*
X134735001Y-87328347D01*
X134735001Y-87281301D01*
X134744783Y-87235279D01*
X134749127Y-87193953D01*
X134763298Y-87148173D01*
X134774379Y-87096042D01*
X134790972Y-87058774D01*
X134801378Y-87025157D01*
X134827211Y-86977380D01*
X134851414Y-86923019D01*
X134871702Y-86895095D01*
X134885420Y-86869724D01*
X134924141Y-86822918D01*
X134962739Y-86769793D01*
X134983716Y-86750905D01*
X134998048Y-86733581D01*
X135050155Y-86691083D01*
X135103489Y-86643061D01*
X135122476Y-86632099D01*
X135134975Y-86621905D01*
X135200220Y-86587214D01*
X135267512Y-86548363D01*
X135282364Y-86543537D01*
X135290997Y-86538947D01*
X135368570Y-86515527D01*
X135447640Y-86489835D01*
X135456886Y-86488863D01*
X135460149Y-86487878D01*
X135551290Y-86478941D01*
X135588789Y-86475000D01*
X135683211Y-86475000D01*
X135824360Y-86489835D01*
X135824360Y-86489835D01*
G37*
G36*
X125664360Y-86489835D02*
G01*
X125745397Y-86516166D01*
X125832663Y-86543848D01*
X125835655Y-86545493D01*
X125844488Y-86548363D01*
X125916466Y-86589919D01*
X125987499Y-86628970D01*
X125994986Y-86635253D01*
X126008511Y-86643061D01*
X126066259Y-86695057D01*
X126122857Y-86742549D01*
X126132962Y-86755118D01*
X126149261Y-86769793D01*
X126191454Y-86827867D01*
X126233579Y-86880260D01*
X126243994Y-86900182D01*
X126260586Y-86923019D01*
X126287297Y-86983012D01*
X126315439Y-87036843D01*
X126323582Y-87064510D01*
X126337621Y-87096042D01*
X126349992Y-87154241D01*
X126365328Y-87206349D01*
X126368518Y-87241401D01*
X126376999Y-87281301D01*
X126376999Y-87334592D01*
X126381343Y-87382324D01*
X126376999Y-87423653D01*
X126376999Y-87470699D01*
X126367217Y-87516721D01*
X126362873Y-87558047D01*
X126348702Y-87603827D01*
X126337621Y-87655958D01*
X126321028Y-87693226D01*
X126310622Y-87726843D01*
X126284789Y-87774620D01*
X126260586Y-87828981D01*
X126240298Y-87856905D01*
X126226580Y-87882276D01*
X126187859Y-87929082D01*
X126149261Y-87982207D01*
X126128284Y-88001095D01*
X126113952Y-88018419D01*
X126061845Y-88060917D01*
X126008511Y-88108939D01*
X125989524Y-88119901D01*
X125977025Y-88130095D01*
X125911780Y-88164786D01*
X125844488Y-88203637D01*
X125829636Y-88208463D01*
X125821003Y-88213053D01*
X125743430Y-88236473D01*
X125664360Y-88262165D01*
X125655114Y-88263137D01*
X125651851Y-88264122D01*
X125560710Y-88273059D01*
X125523211Y-88277000D01*
X125428789Y-88277000D01*
X125287640Y-88262165D01*
X125206603Y-88235834D01*
X125119337Y-88208152D01*
X125116345Y-88206507D01*
X125107512Y-88203637D01*
X125035534Y-88162081D01*
X124964501Y-88123030D01*
X124957014Y-88116747D01*
X124943489Y-88108939D01*
X124885741Y-88056943D01*
X124829143Y-88009451D01*
X124819038Y-87996882D01*
X124802739Y-87982207D01*
X124760546Y-87924133D01*
X124718421Y-87871740D01*
X124708006Y-87851818D01*
X124691414Y-87828981D01*
X124664703Y-87768988D01*
X124636561Y-87715157D01*
X124628418Y-87687490D01*
X124614379Y-87655958D01*
X124602008Y-87597759D01*
X124586672Y-87545651D01*
X124583482Y-87510599D01*
X124575001Y-87470699D01*
X124575001Y-87417408D01*
X124570657Y-87369676D01*
X124575001Y-87328347D01*
X124575001Y-87281301D01*
X124584783Y-87235279D01*
X124589127Y-87193953D01*
X124603298Y-87148173D01*
X124614379Y-87096042D01*
X124630972Y-87058774D01*
X124641378Y-87025157D01*
X124667211Y-86977380D01*
X124691414Y-86923019D01*
X124711702Y-86895095D01*
X124725420Y-86869724D01*
X124764141Y-86822918D01*
X124802739Y-86769793D01*
X124823716Y-86750905D01*
X124838048Y-86733581D01*
X124890155Y-86691083D01*
X124943489Y-86643061D01*
X124962476Y-86632099D01*
X124974975Y-86621905D01*
X125040220Y-86587214D01*
X125107512Y-86548363D01*
X125122364Y-86543537D01*
X125130997Y-86538947D01*
X125208570Y-86515527D01*
X125287640Y-86489835D01*
X125296886Y-86488863D01*
X125300149Y-86487878D01*
X125391290Y-86478941D01*
X125428789Y-86475000D01*
X125523211Y-86475000D01*
X125664360Y-86489835D01*
X125664360Y-86489835D01*
G37*
G36*
X127931980Y-85919617D02*
G01*
X127932386Y-85919617D01*
X127934637Y-85920038D01*
X128023801Y-85934160D01*
X128031691Y-85938180D01*
X128038409Y-85939436D01*
X128058176Y-85951675D01*
X128105229Y-85975650D01*
X128118776Y-85989197D01*
X128130114Y-85996217D01*
X128143432Y-86013853D01*
X128169850Y-86040271D01*
X128183267Y-86066603D01*
X128195114Y-86082291D01*
X128198418Y-86096338D01*
X128211340Y-86121699D01*
X128225686Y-86212277D01*
X128225883Y-86213114D01*
X128225883Y-86213520D01*
X128227194Y-86221797D01*
X128227194Y-86671203D01*
X128225883Y-86679480D01*
X128225883Y-86679886D01*
X128225462Y-86682137D01*
X128211340Y-86771301D01*
X128207320Y-86779191D01*
X128206064Y-86785909D01*
X128193825Y-86805676D01*
X128169850Y-86852729D01*
X128156303Y-86866276D01*
X128149283Y-86877614D01*
X128131647Y-86890932D01*
X128105229Y-86917350D01*
X128078897Y-86930767D01*
X128063209Y-86942614D01*
X128049162Y-86945918D01*
X128023801Y-86958840D01*
X127933223Y-86973186D01*
X127932386Y-86973383D01*
X127931980Y-86973383D01*
X127923703Y-86974694D01*
X127374297Y-86974694D01*
X127366020Y-86973383D01*
X127365614Y-86973383D01*
X127363363Y-86972962D01*
X127274199Y-86958840D01*
X127266309Y-86954820D01*
X127259591Y-86953564D01*
X127239824Y-86941325D01*
X127192771Y-86917350D01*
X127179224Y-86903803D01*
X127167886Y-86896783D01*
X127154568Y-86879147D01*
X127128150Y-86852729D01*
X127114733Y-86826397D01*
X127102886Y-86810709D01*
X127099582Y-86796662D01*
X127086660Y-86771301D01*
X127072314Y-86680723D01*
X127072117Y-86679886D01*
X127072117Y-86679480D01*
X127070806Y-86671203D01*
X127070806Y-86221797D01*
X127072117Y-86213520D01*
X127072117Y-86213114D01*
X127072538Y-86210863D01*
X127086660Y-86121699D01*
X127090680Y-86113809D01*
X127091936Y-86107091D01*
X127104175Y-86087324D01*
X127128150Y-86040271D01*
X127141697Y-86026724D01*
X127148717Y-86015386D01*
X127166353Y-86002068D01*
X127192771Y-85975650D01*
X127219103Y-85962233D01*
X127234791Y-85950386D01*
X127248838Y-85947082D01*
X127274199Y-85934160D01*
X127364777Y-85919814D01*
X127365614Y-85919617D01*
X127366020Y-85919617D01*
X127374297Y-85918306D01*
X127923703Y-85918306D01*
X127931980Y-85919617D01*
X127931980Y-85919617D01*
G37*
G36*
X129681980Y-85919617D02*
G01*
X129682386Y-85919617D01*
X129684637Y-85920038D01*
X129773801Y-85934160D01*
X129781691Y-85938180D01*
X129788409Y-85939436D01*
X129808176Y-85951675D01*
X129855229Y-85975650D01*
X129868776Y-85989197D01*
X129880114Y-85996217D01*
X129893432Y-86013853D01*
X129919850Y-86040271D01*
X129933267Y-86066603D01*
X129945114Y-86082291D01*
X129948418Y-86096338D01*
X129961340Y-86121699D01*
X129975686Y-86212277D01*
X129975883Y-86213114D01*
X129975883Y-86213520D01*
X129977194Y-86221797D01*
X129977194Y-86671203D01*
X129975883Y-86679480D01*
X129975883Y-86679886D01*
X129975462Y-86682137D01*
X129961340Y-86771301D01*
X129957320Y-86779191D01*
X129956064Y-86785909D01*
X129943825Y-86805676D01*
X129919850Y-86852729D01*
X129906303Y-86866276D01*
X129899283Y-86877614D01*
X129881647Y-86890932D01*
X129855229Y-86917350D01*
X129828897Y-86930767D01*
X129813209Y-86942614D01*
X129799162Y-86945918D01*
X129773801Y-86958840D01*
X129683223Y-86973186D01*
X129682386Y-86973383D01*
X129681980Y-86973383D01*
X129673703Y-86974694D01*
X129124297Y-86974694D01*
X129116020Y-86973383D01*
X129115614Y-86973383D01*
X129113363Y-86972962D01*
X129024199Y-86958840D01*
X129016309Y-86954820D01*
X129009591Y-86953564D01*
X128989824Y-86941325D01*
X128942771Y-86917350D01*
X128929224Y-86903803D01*
X128917886Y-86896783D01*
X128904568Y-86879147D01*
X128878150Y-86852729D01*
X128864733Y-86826397D01*
X128852886Y-86810709D01*
X128849582Y-86796662D01*
X128836660Y-86771301D01*
X128822314Y-86680723D01*
X128822117Y-86679886D01*
X128822117Y-86679480D01*
X128820806Y-86671203D01*
X128820806Y-86221797D01*
X128822117Y-86213520D01*
X128822117Y-86213114D01*
X128822538Y-86210863D01*
X128836660Y-86121699D01*
X128840680Y-86113809D01*
X128841936Y-86107091D01*
X128854175Y-86087324D01*
X128878150Y-86040271D01*
X128891697Y-86026724D01*
X128898717Y-86015386D01*
X128916353Y-86002068D01*
X128942771Y-85975650D01*
X128969103Y-85962233D01*
X128984791Y-85950386D01*
X128998838Y-85947082D01*
X129024199Y-85934160D01*
X129114777Y-85919814D01*
X129115614Y-85919617D01*
X129116020Y-85919617D01*
X129124297Y-85918306D01*
X129673703Y-85918306D01*
X129681980Y-85919617D01*
X129681980Y-85919617D01*
G37*
G36*
X133745980Y-85919617D02*
G01*
X133746386Y-85919617D01*
X133748637Y-85920038D01*
X133837801Y-85934160D01*
X133845691Y-85938180D01*
X133852409Y-85939436D01*
X133872176Y-85951675D01*
X133919229Y-85975650D01*
X133932776Y-85989197D01*
X133944114Y-85996217D01*
X133957432Y-86013853D01*
X133983850Y-86040271D01*
X133997267Y-86066603D01*
X134009114Y-86082291D01*
X134012418Y-86096338D01*
X134025340Y-86121699D01*
X134039686Y-86212277D01*
X134039883Y-86213114D01*
X134039883Y-86213520D01*
X134041194Y-86221797D01*
X134041194Y-86671203D01*
X134039883Y-86679480D01*
X134039883Y-86679886D01*
X134039462Y-86682137D01*
X134025340Y-86771301D01*
X134021320Y-86779191D01*
X134020064Y-86785909D01*
X134007825Y-86805676D01*
X133983850Y-86852729D01*
X133970303Y-86866276D01*
X133963283Y-86877614D01*
X133945647Y-86890932D01*
X133919229Y-86917350D01*
X133892897Y-86930767D01*
X133877209Y-86942614D01*
X133863162Y-86945918D01*
X133837801Y-86958840D01*
X133747223Y-86973186D01*
X133746386Y-86973383D01*
X133745980Y-86973383D01*
X133737703Y-86974694D01*
X133188297Y-86974694D01*
X133180020Y-86973383D01*
X133179614Y-86973383D01*
X133177363Y-86972962D01*
X133088199Y-86958840D01*
X133080309Y-86954820D01*
X133073591Y-86953564D01*
X133053824Y-86941325D01*
X133006771Y-86917350D01*
X132993224Y-86903803D01*
X132981886Y-86896783D01*
X132968568Y-86879147D01*
X132942150Y-86852729D01*
X132928733Y-86826397D01*
X132916886Y-86810709D01*
X132913582Y-86796662D01*
X132900660Y-86771301D01*
X132886314Y-86680723D01*
X132886117Y-86679886D01*
X132886117Y-86679480D01*
X132884806Y-86671203D01*
X132884806Y-86221797D01*
X132886117Y-86213520D01*
X132886117Y-86213114D01*
X132886538Y-86210863D01*
X132900660Y-86121699D01*
X132904680Y-86113809D01*
X132905936Y-86107091D01*
X132918175Y-86087324D01*
X132942150Y-86040271D01*
X132955697Y-86026724D01*
X132962717Y-86015386D01*
X132980353Y-86002068D01*
X133006771Y-85975650D01*
X133033103Y-85962233D01*
X133048791Y-85950386D01*
X133062838Y-85947082D01*
X133088199Y-85934160D01*
X133178777Y-85919814D01*
X133179614Y-85919617D01*
X133180020Y-85919617D01*
X133188297Y-85918306D01*
X133737703Y-85918306D01*
X133745980Y-85919617D01*
X133745980Y-85919617D01*
G37*
G36*
X131995980Y-85919617D02*
G01*
X131996386Y-85919617D01*
X131998637Y-85920038D01*
X132087801Y-85934160D01*
X132095691Y-85938180D01*
X132102409Y-85939436D01*
X132122176Y-85951675D01*
X132169229Y-85975650D01*
X132182776Y-85989197D01*
X132194114Y-85996217D01*
X132207432Y-86013853D01*
X132233850Y-86040271D01*
X132247267Y-86066603D01*
X132259114Y-86082291D01*
X132262418Y-86096338D01*
X132275340Y-86121699D01*
X132289686Y-86212277D01*
X132289883Y-86213114D01*
X132289883Y-86213520D01*
X132291194Y-86221797D01*
X132291194Y-86671203D01*
X132289883Y-86679480D01*
X132289883Y-86679886D01*
X132289462Y-86682137D01*
X132275340Y-86771301D01*
X132271320Y-86779191D01*
X132270064Y-86785909D01*
X132257825Y-86805676D01*
X132233850Y-86852729D01*
X132220303Y-86866276D01*
X132213283Y-86877614D01*
X132195647Y-86890932D01*
X132169229Y-86917350D01*
X132142897Y-86930767D01*
X132127209Y-86942614D01*
X132113162Y-86945918D01*
X132087801Y-86958840D01*
X131997223Y-86973186D01*
X131996386Y-86973383D01*
X131995980Y-86973383D01*
X131987703Y-86974694D01*
X131438297Y-86974694D01*
X131430020Y-86973383D01*
X131429614Y-86973383D01*
X131427363Y-86972962D01*
X131338199Y-86958840D01*
X131330309Y-86954820D01*
X131323591Y-86953564D01*
X131303824Y-86941325D01*
X131256771Y-86917350D01*
X131243224Y-86903803D01*
X131231886Y-86896783D01*
X131218568Y-86879147D01*
X131192150Y-86852729D01*
X131178733Y-86826397D01*
X131166886Y-86810709D01*
X131163582Y-86796662D01*
X131150660Y-86771301D01*
X131136314Y-86680723D01*
X131136117Y-86679886D01*
X131136117Y-86679480D01*
X131134806Y-86671203D01*
X131134806Y-86221797D01*
X131136117Y-86213520D01*
X131136117Y-86213114D01*
X131136538Y-86210863D01*
X131150660Y-86121699D01*
X131154680Y-86113809D01*
X131155936Y-86107091D01*
X131168175Y-86087324D01*
X131192150Y-86040271D01*
X131205697Y-86026724D01*
X131212717Y-86015386D01*
X131230353Y-86002068D01*
X131256771Y-85975650D01*
X131283103Y-85962233D01*
X131298791Y-85950386D01*
X131312838Y-85947082D01*
X131338199Y-85934160D01*
X131428777Y-85919814D01*
X131429614Y-85919617D01*
X131430020Y-85919617D01*
X131438297Y-85918306D01*
X131987703Y-85918306D01*
X131995980Y-85919617D01*
X131995980Y-85919617D01*
G37*
G36*
X135824360Y-83949835D02*
G01*
X135905397Y-83976166D01*
X135992663Y-84003848D01*
X135995655Y-84005493D01*
X136004488Y-84008363D01*
X136076466Y-84049919D01*
X136147499Y-84088970D01*
X136154986Y-84095253D01*
X136168511Y-84103061D01*
X136226259Y-84155057D01*
X136282857Y-84202549D01*
X136292962Y-84215118D01*
X136309261Y-84229793D01*
X136351454Y-84287867D01*
X136393579Y-84340260D01*
X136403994Y-84360182D01*
X136420586Y-84383019D01*
X136447297Y-84443012D01*
X136475439Y-84496843D01*
X136483582Y-84524510D01*
X136497621Y-84556042D01*
X136509992Y-84614241D01*
X136525328Y-84666349D01*
X136528518Y-84701401D01*
X136536999Y-84741301D01*
X136536999Y-84794592D01*
X136541343Y-84842324D01*
X136536999Y-84883653D01*
X136536999Y-84930699D01*
X136527217Y-84976721D01*
X136522873Y-85018047D01*
X136508702Y-85063827D01*
X136497621Y-85115958D01*
X136481028Y-85153226D01*
X136470622Y-85186843D01*
X136444789Y-85234620D01*
X136420586Y-85288981D01*
X136400298Y-85316905D01*
X136386580Y-85342276D01*
X136347859Y-85389082D01*
X136309261Y-85442207D01*
X136288284Y-85461095D01*
X136273952Y-85478419D01*
X136221845Y-85520917D01*
X136168511Y-85568939D01*
X136149524Y-85579901D01*
X136137025Y-85590095D01*
X136071780Y-85624786D01*
X136004488Y-85663637D01*
X135989636Y-85668463D01*
X135981003Y-85673053D01*
X135903430Y-85696473D01*
X135824360Y-85722165D01*
X135815114Y-85723137D01*
X135811851Y-85724122D01*
X135720710Y-85733059D01*
X135683211Y-85737000D01*
X135588789Y-85737000D01*
X135447640Y-85722165D01*
X135366603Y-85695834D01*
X135279337Y-85668152D01*
X135276345Y-85666507D01*
X135267512Y-85663637D01*
X135195534Y-85622081D01*
X135124501Y-85583030D01*
X135117014Y-85576747D01*
X135103489Y-85568939D01*
X135045741Y-85516943D01*
X134989143Y-85469451D01*
X134979038Y-85456882D01*
X134962739Y-85442207D01*
X134920546Y-85384133D01*
X134878421Y-85331740D01*
X134868006Y-85311818D01*
X134851414Y-85288981D01*
X134824703Y-85228988D01*
X134796561Y-85175157D01*
X134788418Y-85147490D01*
X134774379Y-85115958D01*
X134762008Y-85057759D01*
X134746672Y-85005651D01*
X134743482Y-84970599D01*
X134735001Y-84930699D01*
X134735001Y-84877408D01*
X134730657Y-84829676D01*
X134735001Y-84788347D01*
X134735001Y-84741301D01*
X134744783Y-84695279D01*
X134749127Y-84653953D01*
X134763298Y-84608173D01*
X134774379Y-84556042D01*
X134790972Y-84518774D01*
X134801378Y-84485157D01*
X134827211Y-84437380D01*
X134851414Y-84383019D01*
X134871702Y-84355095D01*
X134885420Y-84329724D01*
X134924141Y-84282918D01*
X134962739Y-84229793D01*
X134983716Y-84210905D01*
X134998048Y-84193581D01*
X135050155Y-84151083D01*
X135103489Y-84103061D01*
X135122476Y-84092099D01*
X135134975Y-84081905D01*
X135200220Y-84047214D01*
X135267512Y-84008363D01*
X135282364Y-84003537D01*
X135290997Y-83998947D01*
X135368570Y-83975527D01*
X135447640Y-83949835D01*
X135456886Y-83948863D01*
X135460149Y-83947878D01*
X135551290Y-83938941D01*
X135588789Y-83935000D01*
X135683211Y-83935000D01*
X135824360Y-83949835D01*
X135824360Y-83949835D01*
G37*
G36*
X125664360Y-83949835D02*
G01*
X125745397Y-83976166D01*
X125832663Y-84003848D01*
X125835655Y-84005493D01*
X125844488Y-84008363D01*
X125916466Y-84049919D01*
X125987499Y-84088970D01*
X125994986Y-84095253D01*
X126008511Y-84103061D01*
X126066259Y-84155057D01*
X126122857Y-84202549D01*
X126132962Y-84215118D01*
X126149261Y-84229793D01*
X126191454Y-84287867D01*
X126233579Y-84340260D01*
X126243994Y-84360182D01*
X126260586Y-84383019D01*
X126287297Y-84443012D01*
X126315439Y-84496843D01*
X126323582Y-84524510D01*
X126337621Y-84556042D01*
X126349992Y-84614241D01*
X126365328Y-84666349D01*
X126368518Y-84701401D01*
X126376999Y-84741301D01*
X126376999Y-84794592D01*
X126381343Y-84842324D01*
X126376999Y-84883653D01*
X126376999Y-84930699D01*
X126367217Y-84976721D01*
X126362873Y-85018047D01*
X126348702Y-85063827D01*
X126337621Y-85115958D01*
X126321028Y-85153226D01*
X126310622Y-85186843D01*
X126284789Y-85234620D01*
X126260586Y-85288981D01*
X126240298Y-85316905D01*
X126226580Y-85342276D01*
X126187859Y-85389082D01*
X126149261Y-85442207D01*
X126128284Y-85461095D01*
X126113952Y-85478419D01*
X126061845Y-85520917D01*
X126008511Y-85568939D01*
X125989524Y-85579901D01*
X125977025Y-85590095D01*
X125911780Y-85624786D01*
X125844488Y-85663637D01*
X125829636Y-85668463D01*
X125821003Y-85673053D01*
X125743430Y-85696473D01*
X125664360Y-85722165D01*
X125655114Y-85723137D01*
X125651851Y-85724122D01*
X125560710Y-85733059D01*
X125523211Y-85737000D01*
X125428789Y-85737000D01*
X125287640Y-85722165D01*
X125206603Y-85695834D01*
X125119337Y-85668152D01*
X125116345Y-85666507D01*
X125107512Y-85663637D01*
X125035534Y-85622081D01*
X124964501Y-85583030D01*
X124957014Y-85576747D01*
X124943489Y-85568939D01*
X124885741Y-85516943D01*
X124829143Y-85469451D01*
X124819038Y-85456882D01*
X124802739Y-85442207D01*
X124760546Y-85384133D01*
X124718421Y-85331740D01*
X124708006Y-85311818D01*
X124691414Y-85288981D01*
X124664703Y-85228988D01*
X124636561Y-85175157D01*
X124628418Y-85147490D01*
X124614379Y-85115958D01*
X124602008Y-85057759D01*
X124586672Y-85005651D01*
X124583482Y-84970599D01*
X124575001Y-84930699D01*
X124575001Y-84877408D01*
X124570657Y-84829676D01*
X124575001Y-84788347D01*
X124575001Y-84741301D01*
X124584783Y-84695279D01*
X124589127Y-84653953D01*
X124603298Y-84608173D01*
X124614379Y-84556042D01*
X124630972Y-84518774D01*
X124641378Y-84485157D01*
X124667211Y-84437380D01*
X124691414Y-84383019D01*
X124711702Y-84355095D01*
X124725420Y-84329724D01*
X124764141Y-84282918D01*
X124802739Y-84229793D01*
X124823716Y-84210905D01*
X124838048Y-84193581D01*
X124890155Y-84151083D01*
X124943489Y-84103061D01*
X124962476Y-84092099D01*
X124974975Y-84081905D01*
X125040220Y-84047214D01*
X125107512Y-84008363D01*
X125122364Y-84003537D01*
X125130997Y-83998947D01*
X125208570Y-83975527D01*
X125287640Y-83949835D01*
X125296886Y-83948863D01*
X125300149Y-83947878D01*
X125391290Y-83938941D01*
X125428789Y-83935000D01*
X125523211Y-83935000D01*
X125664360Y-83949835D01*
X125664360Y-83949835D01*
G37*
G36*
X129963980Y-84055117D02*
G01*
X129964386Y-84055117D01*
X129966637Y-84055538D01*
X130055801Y-84069660D01*
X130063691Y-84073680D01*
X130070409Y-84074936D01*
X130090176Y-84087175D01*
X130137229Y-84111150D01*
X130150776Y-84124697D01*
X130162114Y-84131717D01*
X130175432Y-84149353D01*
X130201850Y-84175771D01*
X130215267Y-84202103D01*
X130227114Y-84217791D01*
X130230418Y-84231838D01*
X130243340Y-84257199D01*
X130257686Y-84347777D01*
X130257883Y-84348614D01*
X130257883Y-84349020D01*
X130259194Y-84357297D01*
X130259194Y-84806703D01*
X130257883Y-84814980D01*
X130257883Y-84815386D01*
X130257462Y-84817637D01*
X130243340Y-84906801D01*
X130239320Y-84914691D01*
X130238064Y-84921409D01*
X130225825Y-84941176D01*
X130201850Y-84988229D01*
X130188303Y-85001776D01*
X130181283Y-85013114D01*
X130163647Y-85026432D01*
X130137229Y-85052850D01*
X130110897Y-85066267D01*
X130095209Y-85078114D01*
X130081162Y-85081418D01*
X130055801Y-85094340D01*
X129965223Y-85108686D01*
X129964386Y-85108883D01*
X129963980Y-85108883D01*
X129955703Y-85110194D01*
X129406297Y-85110194D01*
X129398020Y-85108883D01*
X129397614Y-85108883D01*
X129395363Y-85108462D01*
X129306199Y-85094340D01*
X129298309Y-85090320D01*
X129291591Y-85089064D01*
X129271824Y-85076825D01*
X129224771Y-85052850D01*
X129211224Y-85039303D01*
X129199886Y-85032283D01*
X129186568Y-85014647D01*
X129160150Y-84988229D01*
X129146733Y-84961897D01*
X129134886Y-84946209D01*
X129131582Y-84932162D01*
X129118660Y-84906801D01*
X129104314Y-84816223D01*
X129104117Y-84815386D01*
X129104117Y-84814980D01*
X129102806Y-84806703D01*
X129102806Y-84357297D01*
X129104117Y-84349020D01*
X129104117Y-84348614D01*
X129104538Y-84346363D01*
X129118660Y-84257199D01*
X129122680Y-84249309D01*
X129123936Y-84242591D01*
X129136175Y-84222824D01*
X129160150Y-84175771D01*
X129173697Y-84162224D01*
X129180717Y-84150886D01*
X129198353Y-84137568D01*
X129224771Y-84111150D01*
X129251103Y-84097733D01*
X129266791Y-84085886D01*
X129280838Y-84082582D01*
X129306199Y-84069660D01*
X129396777Y-84055314D01*
X129397614Y-84055117D01*
X129398020Y-84055117D01*
X129406297Y-84053806D01*
X129955703Y-84053806D01*
X129963980Y-84055117D01*
X129963980Y-84055117D01*
G37*
G36*
X131713980Y-84055117D02*
G01*
X131714386Y-84055117D01*
X131716637Y-84055538D01*
X131805801Y-84069660D01*
X131813691Y-84073680D01*
X131820409Y-84074936D01*
X131840176Y-84087175D01*
X131887229Y-84111150D01*
X131900776Y-84124697D01*
X131912114Y-84131717D01*
X131925432Y-84149353D01*
X131951850Y-84175771D01*
X131965267Y-84202103D01*
X131977114Y-84217791D01*
X131980418Y-84231838D01*
X131993340Y-84257199D01*
X132007686Y-84347777D01*
X132007883Y-84348614D01*
X132007883Y-84349020D01*
X132009194Y-84357297D01*
X132009194Y-84806703D01*
X132007883Y-84814980D01*
X132007883Y-84815386D01*
X132007462Y-84817637D01*
X131993340Y-84906801D01*
X131989320Y-84914691D01*
X131988064Y-84921409D01*
X131975825Y-84941176D01*
X131951850Y-84988229D01*
X131938303Y-85001776D01*
X131931283Y-85013114D01*
X131913647Y-85026432D01*
X131887229Y-85052850D01*
X131860897Y-85066267D01*
X131845209Y-85078114D01*
X131831162Y-85081418D01*
X131805801Y-85094340D01*
X131715223Y-85108686D01*
X131714386Y-85108883D01*
X131713980Y-85108883D01*
X131705703Y-85110194D01*
X131156297Y-85110194D01*
X131148020Y-85108883D01*
X131147614Y-85108883D01*
X131145363Y-85108462D01*
X131056199Y-85094340D01*
X131048309Y-85090320D01*
X131041591Y-85089064D01*
X131021824Y-85076825D01*
X130974771Y-85052850D01*
X130961224Y-85039303D01*
X130949886Y-85032283D01*
X130936568Y-85014647D01*
X130910150Y-84988229D01*
X130896733Y-84961897D01*
X130884886Y-84946209D01*
X130881582Y-84932162D01*
X130868660Y-84906801D01*
X130854314Y-84816223D01*
X130854117Y-84815386D01*
X130854117Y-84814980D01*
X130852806Y-84806703D01*
X130852806Y-84357297D01*
X130854117Y-84349020D01*
X130854117Y-84348614D01*
X130854538Y-84346363D01*
X130868660Y-84257199D01*
X130872680Y-84249309D01*
X130873936Y-84242591D01*
X130886175Y-84222824D01*
X130910150Y-84175771D01*
X130923697Y-84162224D01*
X130930717Y-84150886D01*
X130948353Y-84137568D01*
X130974771Y-84111150D01*
X131001103Y-84097733D01*
X131016791Y-84085886D01*
X131030838Y-84082582D01*
X131056199Y-84069660D01*
X131146777Y-84055314D01*
X131147614Y-84055117D01*
X131148020Y-84055117D01*
X131156297Y-84053806D01*
X131705703Y-84053806D01*
X131713980Y-84055117D01*
X131713980Y-84055117D01*
G37*
G36*
X126345899Y-81397959D02*
G01*
X126362769Y-81409231D01*
X126374041Y-81426101D01*
X126380448Y-81458312D01*
X126380448Y-83133688D01*
X126377999Y-83146000D01*
X126374041Y-83165899D01*
X126362769Y-83182769D01*
X126345899Y-83194041D01*
X126326000Y-83197999D01*
X126313688Y-83200448D01*
X124638312Y-83200448D01*
X124606101Y-83194041D01*
X124589231Y-83182769D01*
X124577959Y-83165899D01*
X124571552Y-83133688D01*
X124571552Y-81458312D01*
X124577959Y-81426101D01*
X124589231Y-81409231D01*
X124606101Y-81397959D01*
X124638312Y-81391552D01*
X126313688Y-81391552D01*
X126345899Y-81397959D01*
X126345899Y-81397959D01*
G37*
G36*
X136505899Y-81397959D02*
G01*
X136522769Y-81409231D01*
X136534041Y-81426101D01*
X136540448Y-81458312D01*
X136540448Y-83133688D01*
X136537999Y-83146000D01*
X136534041Y-83165899D01*
X136522769Y-83182769D01*
X136505899Y-83194041D01*
X136486000Y-83197999D01*
X136473688Y-83200448D01*
X134798312Y-83200448D01*
X134766101Y-83194041D01*
X134749231Y-83182769D01*
X134737959Y-83165899D01*
X134731552Y-83133688D01*
X134731552Y-81458312D01*
X134737959Y-81426101D01*
X134749231Y-81409231D01*
X134766101Y-81397959D01*
X134798312Y-81391552D01*
X136473688Y-81391552D01*
X136505899Y-81397959D01*
X136505899Y-81397959D01*
G37*
G36*
X130425899Y-81493959D02*
G01*
X130442769Y-81505231D01*
X130454041Y-81522101D01*
X130460448Y-81554312D01*
X130460448Y-81712633D01*
X130480291Y-81780213D01*
X130533521Y-81826336D01*
X130603236Y-81836360D01*
X130667304Y-81807101D01*
X130681202Y-81789626D01*
X130683111Y-81784324D01*
X130705927Y-81752219D01*
X130720221Y-81725223D01*
X130744392Y-81698094D01*
X130770562Y-81661269D01*
X130794399Y-81641966D01*
X130808937Y-81625649D01*
X130846033Y-81600154D01*
X130887884Y-81566264D01*
X130908029Y-81557547D01*
X130918849Y-81550110D01*
X130969044Y-81531142D01*
X131026432Y-81506308D01*
X131039503Y-81504518D01*
X131043598Y-81502970D01*
X131105366Y-81495496D01*
X131138185Y-81491000D01*
X131207432Y-81491000D01*
X131314343Y-81504506D01*
X131374792Y-81528074D01*
X131402219Y-81533904D01*
X131423352Y-81547007D01*
X131438292Y-81552832D01*
X131479828Y-81582024D01*
X131530522Y-81613456D01*
X131541431Y-81625320D01*
X131547402Y-81629516D01*
X131586442Y-81674269D01*
X131632707Y-81724581D01*
X131666500Y-81790903D01*
X131696240Y-81848524D01*
X131696580Y-81849939D01*
X131701243Y-81859091D01*
X131714178Y-81923240D01*
X131727374Y-81978204D01*
X131727320Y-81988417D01*
X131731083Y-82007077D01*
X131726926Y-82063682D01*
X131726675Y-82111566D01*
X131722060Y-82129940D01*
X131720026Y-82157636D01*
X131703744Y-82202861D01*
X131694187Y-82240911D01*
X131681247Y-82265350D01*
X131668889Y-82299676D01*
X131646072Y-82331782D01*
X131631779Y-82358777D01*
X131607608Y-82385906D01*
X131581438Y-82422731D01*
X131557601Y-82442034D01*
X131543063Y-82458351D01*
X131505967Y-82483846D01*
X131464116Y-82517736D01*
X131443971Y-82526453D01*
X131433151Y-82533890D01*
X131382956Y-82552858D01*
X131325568Y-82577692D01*
X131312497Y-82579482D01*
X131308402Y-82581030D01*
X131246634Y-82588504D01*
X131213815Y-82593000D01*
X131144568Y-82593000D01*
X131037657Y-82579494D01*
X130977208Y-82555926D01*
X130949781Y-82550096D01*
X130928648Y-82536993D01*
X130913708Y-82531168D01*
X130872172Y-82501976D01*
X130821478Y-82470544D01*
X130810569Y-82458680D01*
X130804598Y-82454484D01*
X130765558Y-82409731D01*
X130719293Y-82359419D01*
X130696220Y-82314136D01*
X130647895Y-82263502D01*
X130579440Y-82246929D01*
X130512892Y-82269997D01*
X130469380Y-82325382D01*
X130460448Y-82371784D01*
X130460448Y-82529688D01*
X130457999Y-82542000D01*
X130454041Y-82561899D01*
X130442769Y-82578769D01*
X130425899Y-82590041D01*
X130406000Y-82593999D01*
X130393688Y-82596448D01*
X129418312Y-82596448D01*
X129386101Y-82590041D01*
X129369231Y-82578769D01*
X129357959Y-82561899D01*
X129351552Y-82529688D01*
X129351552Y-81554312D01*
X129357959Y-81522101D01*
X129369231Y-81505231D01*
X129386101Y-81493959D01*
X129418312Y-81487552D01*
X130393688Y-81487552D01*
X130425899Y-81493959D01*
X130425899Y-81493959D01*
G37*
M02*
