M48
; DRILL file {KiCad (5.1.0-1390-gee00ff9b5)} date Wednesday, July 31, 2019 at 02:48:03 PM
; FORMAT={-:-/ absolute / inch / decimal}
; #@! TF.CreationDate,2019-07-31T14:48:03-07:00
; #@! TF.GenerationSoftware,Kicad,Pcbnew,(5.1.0-1390-gee00ff9b5)
FMAT,2
INCH
T1C0.0120
T2C0.0256
T3C0.0394
%
G90
G05
T1
X5.02Y-3.37
X5.06Y-3.33
T2
X5.09Y-3.79
X5.09Y-3.84
X5.14Y-3.79
X5.14Y-3.84
X5.19Y-3.79
X5.19Y-3.84
X5.1144Y-3.23
X5.1644Y-3.23
T3
X5.34Y-3.24
X5.34Y-3.34
X5.34Y-3.44
X5.34Y-3.54
X5.34Y-3.64
X5.34Y-3.74
X5.34Y-3.84
X4.94Y-3.24
X4.94Y-3.34
X4.94Y-3.44
X4.94Y-3.54
X4.94Y-3.64
X4.94Y-3.74
X4.94Y-3.84
T0
M30
