G04 #@! TF.GenerationSoftware,KiCad,Pcbnew,(5.1.0-1390-gee00ff9b5)*
G04 #@! TF.CreationDate,2019-07-31T14:47:23-07:00*
G04 #@! TF.ProjectId,attiny1614,61747469-6e79-4313-9631-342e6b696361,rev?*
G04 #@! TF.SameCoordinates,Original*
G04 #@! TF.FileFunction,Copper,L2,Bot*
G04 #@! TF.FilePolarity,Positive*
%FSLAX46Y46*%
G04 Gerber Fmt 4.6, Leading zero omitted, Abs format (unit mm)*
G04 Created by KiCad (PCBNEW (5.1.0-1390-gee00ff9b5)) date 2019-07-31 14:47:23*
%MOMM*%
%LPD*%
G04 APERTURE LIST*
%ADD10C,0.100000*%
%ADD11C,0.950000*%
%ADD12R,0.800000X0.900000*%
%ADD13O,1.000000X1.000000*%
%ADD14R,1.000000X1.000000*%
%ADD15O,1.700000X1.700000*%
%ADD16R,1.700000X1.700000*%
%ADD17C,0.609600*%
%ADD18C,0.304800*%
%ADD19C,0.254000*%
G04 APERTURE END LIST*
D10*
G36*
X131809387Y-84125079D02*
G01*
X131886438Y-84176562D01*
X131937921Y-84253613D01*
X131956000Y-84344500D01*
X131956000Y-84819500D01*
X131937921Y-84910387D01*
X131886438Y-84987438D01*
X131809387Y-85038921D01*
X131718500Y-85057000D01*
X131143500Y-85057000D01*
X131052613Y-85038921D01*
X130975562Y-84987438D01*
X130924079Y-84910387D01*
X130906000Y-84819500D01*
X130906000Y-84344500D01*
X130924079Y-84253613D01*
X130975562Y-84176562D01*
X131052613Y-84125079D01*
X131143500Y-84107000D01*
X131718500Y-84107000D01*
X131809387Y-84125079D01*
X131809387Y-84125079D01*
G37*
D11*
X131431000Y-84582000D03*
D10*
G36*
X130059387Y-84125079D02*
G01*
X130136438Y-84176562D01*
X130187921Y-84253613D01*
X130206000Y-84344500D01*
X130206000Y-84819500D01*
X130187921Y-84910387D01*
X130136438Y-84987438D01*
X130059387Y-85038921D01*
X129968500Y-85057000D01*
X129393500Y-85057000D01*
X129302613Y-85038921D01*
X129225562Y-84987438D01*
X129174079Y-84910387D01*
X129156000Y-84819500D01*
X129156000Y-84344500D01*
X129174079Y-84253613D01*
X129225562Y-84176562D01*
X129302613Y-84125079D01*
X129393500Y-84107000D01*
X129968500Y-84107000D01*
X130059387Y-84125079D01*
X130059387Y-84125079D01*
G37*
D11*
X129681000Y-84582000D03*
D12*
X130556000Y-90281000D03*
X131506000Y-88281000D03*
X129606000Y-88281000D03*
D10*
G36*
X131809387Y-93523079D02*
G01*
X131886438Y-93574562D01*
X131937921Y-93651613D01*
X131956000Y-93742500D01*
X131956000Y-94217500D01*
X131937921Y-94308387D01*
X131886438Y-94385438D01*
X131809387Y-94436921D01*
X131718500Y-94455000D01*
X131143500Y-94455000D01*
X131052613Y-94436921D01*
X130975562Y-94385438D01*
X130924079Y-94308387D01*
X130906000Y-94217500D01*
X130906000Y-93742500D01*
X130924079Y-93651613D01*
X130975562Y-93574562D01*
X131052613Y-93523079D01*
X131143500Y-93505000D01*
X131718500Y-93505000D01*
X131809387Y-93523079D01*
X131809387Y-93523079D01*
G37*
D11*
X131431000Y-93980000D03*
D10*
G36*
X130059387Y-93523079D02*
G01*
X130136438Y-93574562D01*
X130187921Y-93651613D01*
X130206000Y-93742500D01*
X130206000Y-94217500D01*
X130187921Y-94308387D01*
X130136438Y-94385438D01*
X130059387Y-94436921D01*
X129968500Y-94455000D01*
X129393500Y-94455000D01*
X129302613Y-94436921D01*
X129225562Y-94385438D01*
X129174079Y-94308387D01*
X129156000Y-94217500D01*
X129156000Y-93742500D01*
X129174079Y-93651613D01*
X129225562Y-93574562D01*
X129302613Y-93523079D01*
X129393500Y-93505000D01*
X129968500Y-93505000D01*
X130059387Y-93523079D01*
X130059387Y-93523079D01*
G37*
D11*
X129681000Y-93980000D03*
D13*
X131826000Y-96266000D03*
X131826000Y-97536000D03*
X130556000Y-96266000D03*
X130556000Y-97536000D03*
X129286000Y-96266000D03*
D14*
X129286000Y-97536000D03*
D13*
X131176000Y-82042000D03*
D14*
X129906000Y-82042000D03*
D15*
X135636000Y-97536000D03*
X135636000Y-94996000D03*
X135636000Y-92456000D03*
X135636000Y-89916000D03*
X135636000Y-87376000D03*
X135636000Y-84836000D03*
D16*
X135636000Y-82296000D03*
D15*
X125476000Y-97536000D03*
X125476000Y-94996000D03*
X125476000Y-92456000D03*
X125476000Y-89916000D03*
X125476000Y-87376000D03*
X125476000Y-84836000D03*
D16*
X125476000Y-82296000D03*
D10*
G36*
X129777387Y-85989579D02*
G01*
X129854438Y-86041062D01*
X129905921Y-86118113D01*
X129924000Y-86209000D01*
X129924000Y-86684000D01*
X129905921Y-86774887D01*
X129854438Y-86851938D01*
X129777387Y-86903421D01*
X129686500Y-86921500D01*
X129111500Y-86921500D01*
X129020613Y-86903421D01*
X128943562Y-86851938D01*
X128892079Y-86774887D01*
X128874000Y-86684000D01*
X128874000Y-86209000D01*
X128892079Y-86118113D01*
X128943562Y-86041062D01*
X129020613Y-85989579D01*
X129111500Y-85971500D01*
X129686500Y-85971500D01*
X129777387Y-85989579D01*
X129777387Y-85989579D01*
G37*
D11*
X129399000Y-86446500D03*
D10*
G36*
X128027387Y-85989579D02*
G01*
X128104438Y-86041062D01*
X128155921Y-86118113D01*
X128174000Y-86209000D01*
X128174000Y-86684000D01*
X128155921Y-86774887D01*
X128104438Y-86851938D01*
X128027387Y-86903421D01*
X127936500Y-86921500D01*
X127361500Y-86921500D01*
X127270613Y-86903421D01*
X127193562Y-86851938D01*
X127142079Y-86774887D01*
X127124000Y-86684000D01*
X127124000Y-86209000D01*
X127142079Y-86118113D01*
X127193562Y-86041062D01*
X127270613Y-85989579D01*
X127361500Y-85971500D01*
X127936500Y-85971500D01*
X128027387Y-85989579D01*
X128027387Y-85989579D01*
G37*
D11*
X127649000Y-86446500D03*
D10*
G36*
X131809387Y-91658579D02*
G01*
X131886438Y-91710062D01*
X131937921Y-91787113D01*
X131956000Y-91878000D01*
X131956000Y-92353000D01*
X131937921Y-92443887D01*
X131886438Y-92520938D01*
X131809387Y-92572421D01*
X131718500Y-92590500D01*
X131143500Y-92590500D01*
X131052613Y-92572421D01*
X130975562Y-92520938D01*
X130924079Y-92443887D01*
X130906000Y-92353000D01*
X130906000Y-91878000D01*
X130924079Y-91787113D01*
X130975562Y-91710062D01*
X131052613Y-91658579D01*
X131143500Y-91640500D01*
X131718500Y-91640500D01*
X131809387Y-91658579D01*
X131809387Y-91658579D01*
G37*
D11*
X131431000Y-92115500D03*
D10*
G36*
X130059387Y-91658579D02*
G01*
X130136438Y-91710062D01*
X130187921Y-91787113D01*
X130206000Y-91878000D01*
X130206000Y-92353000D01*
X130187921Y-92443887D01*
X130136438Y-92520938D01*
X130059387Y-92572421D01*
X129968500Y-92590500D01*
X129393500Y-92590500D01*
X129302613Y-92572421D01*
X129225562Y-92520938D01*
X129174079Y-92443887D01*
X129156000Y-92353000D01*
X129156000Y-91878000D01*
X129174079Y-91787113D01*
X129225562Y-91710062D01*
X129302613Y-91658579D01*
X129393500Y-91640500D01*
X129968500Y-91640500D01*
X130059387Y-91658579D01*
X130059387Y-91658579D01*
G37*
D11*
X129681000Y-92115500D03*
D10*
G36*
X133841387Y-85989579D02*
G01*
X133918438Y-86041062D01*
X133969921Y-86118113D01*
X133988000Y-86209000D01*
X133988000Y-86684000D01*
X133969921Y-86774887D01*
X133918438Y-86851938D01*
X133841387Y-86903421D01*
X133750500Y-86921500D01*
X133175500Y-86921500D01*
X133084613Y-86903421D01*
X133007562Y-86851938D01*
X132956079Y-86774887D01*
X132938000Y-86684000D01*
X132938000Y-86209000D01*
X132956079Y-86118113D01*
X133007562Y-86041062D01*
X133084613Y-85989579D01*
X133175500Y-85971500D01*
X133750500Y-85971500D01*
X133841387Y-85989579D01*
X133841387Y-85989579D01*
G37*
D11*
X133463000Y-86446500D03*
D10*
G36*
X132091387Y-85989579D02*
G01*
X132168438Y-86041062D01*
X132219921Y-86118113D01*
X132238000Y-86209000D01*
X132238000Y-86684000D01*
X132219921Y-86774887D01*
X132168438Y-86851938D01*
X132091387Y-86903421D01*
X132000500Y-86921500D01*
X131425500Y-86921500D01*
X131334613Y-86903421D01*
X131257562Y-86851938D01*
X131206079Y-86774887D01*
X131188000Y-86684000D01*
X131188000Y-86209000D01*
X131206079Y-86118113D01*
X131257562Y-86041062D01*
X131334613Y-85989579D01*
X131425500Y-85971500D01*
X132000500Y-85971500D01*
X132091387Y-85989579D01*
X132091387Y-85989579D01*
G37*
D11*
X131713000Y-86446500D03*
D17*
X127508000Y-85598000D03*
X128524000Y-84582000D03*
D18*
X129681000Y-93980000D02*
X128270000Y-95391000D01*
X128270000Y-95391000D02*
X128270000Y-96774000D01*
X128270000Y-96774000D02*
X129032000Y-97536000D01*
X129032000Y-97536000D02*
X129286000Y-97536000D01*
X130556000Y-90281000D02*
X129397000Y-90281000D01*
X129397000Y-90281000D02*
X127649000Y-88533000D01*
X127649000Y-88533000D02*
X127649000Y-87021500D01*
X127649000Y-87021500D02*
X127649000Y-86446500D01*
X127649000Y-86446500D02*
X127649000Y-85739000D01*
X127649000Y-85739000D02*
X127508000Y-85598000D01*
X129286000Y-96266000D02*
X130510810Y-95041190D01*
X130510810Y-92945310D02*
X130175812Y-92610312D01*
X130510810Y-95041190D02*
X130510810Y-92945310D01*
X130175812Y-92610312D02*
X129681000Y-92115500D01*
X131431000Y-93980000D02*
X134112000Y-93980000D01*
X134112000Y-93980000D02*
X135636000Y-92456000D01*
X129681000Y-92115500D02*
X129681000Y-91156000D01*
X129681000Y-91156000D02*
X130556000Y-90281000D01*
X131713000Y-86446500D02*
X131088000Y-86446500D01*
X130510810Y-83451610D02*
X129906000Y-82846800D01*
X131088000Y-86446500D02*
X130510810Y-85869310D01*
X130510810Y-85869310D02*
X130510810Y-83451610D01*
X129906000Y-82846800D02*
X129906000Y-82042000D01*
X131713000Y-86446500D02*
X131440500Y-86446500D01*
X131440500Y-86446500D02*
X129606000Y-88281000D01*
X128524000Y-84582000D02*
X129681000Y-84582000D01*
D19*
G36*
X123824000Y-92511407D02*
G01*
X124343137Y-92511407D01*
X124377417Y-92738068D01*
X124456572Y-92953208D01*
X124577372Y-93148037D01*
X124734879Y-93314597D01*
X124922661Y-93446083D01*
X125136114Y-93538452D01*
X125432916Y-93584400D01*
X125533272Y-93584400D01*
X125704066Y-93567052D01*
X125922816Y-93498499D01*
X126123313Y-93387361D01*
X126297368Y-93238178D01*
X126437871Y-93057043D01*
X126539081Y-92851356D01*
X126596865Y-92629519D01*
X126608863Y-92400593D01*
X126574583Y-92173932D01*
X126495428Y-91958792D01*
X126374628Y-91763963D01*
X126217121Y-91597403D01*
X126029339Y-91465917D01*
X125815886Y-91373548D01*
X125519084Y-91327600D01*
X125418728Y-91327600D01*
X125247934Y-91344948D01*
X125029184Y-91413501D01*
X124828687Y-91524639D01*
X124654632Y-91673822D01*
X124514129Y-91854957D01*
X124412919Y-92060644D01*
X124355135Y-92282481D01*
X124343137Y-92511407D01*
X123824000Y-92511407D01*
X123824000Y-89971407D01*
X124343137Y-89971407D01*
X124377417Y-90198068D01*
X124456572Y-90413208D01*
X124577372Y-90608037D01*
X124734879Y-90774597D01*
X124922661Y-90906083D01*
X125136114Y-90998452D01*
X125432916Y-91044400D01*
X125533272Y-91044400D01*
X125704066Y-91027052D01*
X125922816Y-90958499D01*
X126123313Y-90847361D01*
X126297368Y-90698178D01*
X126437871Y-90517043D01*
X126539081Y-90311356D01*
X126596865Y-90089519D01*
X126608863Y-89860593D01*
X126574583Y-89633932D01*
X126495428Y-89418792D01*
X126374628Y-89223963D01*
X126217121Y-89057403D01*
X126029339Y-88925917D01*
X125815886Y-88833548D01*
X125519084Y-88787600D01*
X125418728Y-88787600D01*
X125247934Y-88804948D01*
X125029184Y-88873501D01*
X124828687Y-88984639D01*
X124654632Y-89133822D01*
X124514129Y-89314957D01*
X124412919Y-89520644D01*
X124355135Y-89742481D01*
X124343137Y-89971407D01*
X123824000Y-89971407D01*
X123824000Y-87431407D01*
X124343137Y-87431407D01*
X124377417Y-87658068D01*
X124456572Y-87873208D01*
X124577372Y-88068037D01*
X124734879Y-88234597D01*
X124922661Y-88366083D01*
X125136114Y-88458452D01*
X125432916Y-88504400D01*
X125533272Y-88504400D01*
X125704066Y-88487052D01*
X125922816Y-88418499D01*
X126123313Y-88307361D01*
X126297368Y-88158178D01*
X126437871Y-87977043D01*
X126539081Y-87771356D01*
X126596865Y-87549519D01*
X126608863Y-87320593D01*
X126574583Y-87093932D01*
X126495428Y-86878792D01*
X126374628Y-86683963D01*
X126217121Y-86517403D01*
X126029339Y-86385917D01*
X125815886Y-86293548D01*
X125519084Y-86247600D01*
X125418728Y-86247600D01*
X125247934Y-86264948D01*
X125029184Y-86333501D01*
X124828687Y-86444639D01*
X124654632Y-86593822D01*
X124514129Y-86774957D01*
X124412919Y-86980644D01*
X124355135Y-87202481D01*
X124343137Y-87431407D01*
X123824000Y-87431407D01*
X123824000Y-86201243D01*
X126842614Y-86201243D01*
X126842614Y-86691757D01*
X126880186Y-86880642D01*
X126994209Y-87051291D01*
X127164859Y-87165315D01*
X127218201Y-87175925D01*
X127218200Y-88459532D01*
X127209966Y-88482979D01*
X127218200Y-88556970D01*
X127218200Y-88581547D01*
X127223540Y-88604960D01*
X127231710Y-88678376D01*
X127245188Y-88699861D01*
X127250836Y-88724621D01*
X127297290Y-88782917D01*
X127310107Y-88803349D01*
X127327157Y-88820399D01*
X127373323Y-88878334D01*
X127396058Y-88889300D01*
X129040429Y-90533673D01*
X129051186Y-90556074D01*
X129109330Y-90602574D01*
X129126708Y-90619952D01*
X129147043Y-90632732D01*
X129204725Y-90678863D01*
X129229452Y-90684527D01*
X129250956Y-90698041D01*
X129325009Y-90706413D01*
X129348534Y-90711800D01*
X129372663Y-90711800D01*
X129446255Y-90720120D01*
X129470080Y-90711800D01*
X129515959Y-90711800D01*
X129428332Y-90799427D01*
X129405927Y-90810186D01*
X129359423Y-90868335D01*
X129342050Y-90885708D01*
X129329270Y-90906040D01*
X129283136Y-90963729D01*
X129277474Y-90988452D01*
X129263959Y-91009953D01*
X129255585Y-91084026D01*
X129250201Y-91107531D01*
X129250201Y-91131654D01*
X129241880Y-91205255D01*
X129250201Y-91229083D01*
X129250201Y-91386075D01*
X129196859Y-91396685D01*
X129026209Y-91510709D01*
X128912186Y-91681358D01*
X128874614Y-91870243D01*
X128874614Y-92360757D01*
X128912186Y-92549642D01*
X129026209Y-92720291D01*
X129196858Y-92834314D01*
X129385743Y-92871886D01*
X129828144Y-92871886D01*
X129909945Y-92953688D01*
X129909947Y-92953689D01*
X130080011Y-93123754D01*
X130080011Y-93244252D01*
X129976257Y-93223614D01*
X129385743Y-93223614D01*
X129196858Y-93261186D01*
X129026209Y-93375209D01*
X128912186Y-93545858D01*
X128874614Y-93734743D01*
X128874614Y-94177142D01*
X128017331Y-95034427D01*
X127994926Y-95045186D01*
X127948423Y-95103336D01*
X127931050Y-95120708D01*
X127918276Y-95141032D01*
X127872136Y-95198728D01*
X127866473Y-95223454D01*
X127852960Y-95244955D01*
X127844587Y-95319010D01*
X127839200Y-95342535D01*
X127839200Y-95366663D01*
X127830880Y-95440255D01*
X127839200Y-95464080D01*
X127839201Y-96700529D01*
X127830966Y-96723978D01*
X127839201Y-96797979D01*
X127839201Y-96822548D01*
X127844539Y-96845952D01*
X127852711Y-96919376D01*
X127866190Y-96940864D01*
X127871838Y-96965623D01*
X127918289Y-97023915D01*
X127931108Y-97044349D01*
X127948161Y-97061402D01*
X127994325Y-97119334D01*
X128017057Y-97130299D01*
X128504614Y-97617857D01*
X128504614Y-98048410D01*
X128523753Y-98144628D01*
X128585285Y-98236715D01*
X128677372Y-98298247D01*
X128773590Y-98317386D01*
X129798410Y-98317386D01*
X129894628Y-98298247D01*
X129986715Y-98236715D01*
X130048247Y-98144628D01*
X130051202Y-98129773D01*
X130094831Y-98170743D01*
X130270714Y-98267436D01*
X130516908Y-98314400D01*
X130604971Y-98314400D01*
X130751119Y-98295937D01*
X130933977Y-98223538D01*
X131093086Y-98107939D01*
X131191529Y-97988942D01*
X131221466Y-98036114D01*
X131364831Y-98170743D01*
X131540714Y-98267436D01*
X131786908Y-98314400D01*
X131874971Y-98314400D01*
X132021119Y-98295937D01*
X132203977Y-98223538D01*
X132363086Y-98107939D01*
X132488448Y-97956403D01*
X132572186Y-97778451D01*
X132607866Y-97591407D01*
X134503137Y-97591407D01*
X134537417Y-97818068D01*
X134616572Y-98033208D01*
X134737372Y-98228037D01*
X134894879Y-98394597D01*
X135082661Y-98526083D01*
X135296114Y-98618452D01*
X135592916Y-98664400D01*
X135693272Y-98664400D01*
X135864066Y-98647052D01*
X136082816Y-98578499D01*
X136283313Y-98467361D01*
X136457368Y-98318178D01*
X136597871Y-98137043D01*
X136699081Y-97931356D01*
X136756865Y-97709519D01*
X136768863Y-97480593D01*
X136734583Y-97253932D01*
X136655428Y-97038792D01*
X136534628Y-96843963D01*
X136377121Y-96677403D01*
X136189339Y-96545917D01*
X135975886Y-96453548D01*
X135679084Y-96407600D01*
X135578728Y-96407600D01*
X135407934Y-96424948D01*
X135189184Y-96493501D01*
X134988687Y-96604639D01*
X134814632Y-96753822D01*
X134674129Y-96934957D01*
X134572919Y-97140644D01*
X134515135Y-97362481D01*
X134503137Y-97591407D01*
X132607866Y-97591407D01*
X132609038Y-97585265D01*
X132596689Y-97388984D01*
X132535915Y-97201939D01*
X132430534Y-97035886D01*
X132287169Y-96901257D01*
X132111286Y-96804564D01*
X131865092Y-96757600D01*
X131777029Y-96757600D01*
X131630881Y-96776063D01*
X131448023Y-96848462D01*
X131288914Y-96964061D01*
X131190471Y-97083058D01*
X131160534Y-97035886D01*
X131017169Y-96901257D01*
X131010774Y-96897742D01*
X131093086Y-96837939D01*
X131218448Y-96686403D01*
X131302186Y-96508451D01*
X131339038Y-96315265D01*
X131326689Y-96118984D01*
X131265915Y-95931939D01*
X131160534Y-95765886D01*
X131017169Y-95631257D01*
X130841286Y-95534564D01*
X130661058Y-95500184D01*
X130763479Y-95397763D01*
X130785883Y-95387005D01*
X130832385Y-95328857D01*
X130849761Y-95311482D01*
X130862539Y-95291152D01*
X130908673Y-95233464D01*
X130914337Y-95208738D01*
X130927850Y-95187236D01*
X130936223Y-95113181D01*
X130941610Y-95089656D01*
X130941610Y-95065527D01*
X130943206Y-95051407D01*
X134503137Y-95051407D01*
X134537417Y-95278068D01*
X134616572Y-95493208D01*
X134737372Y-95688037D01*
X134894879Y-95854597D01*
X135082661Y-95986083D01*
X135296114Y-96078452D01*
X135592916Y-96124400D01*
X135693272Y-96124400D01*
X135864066Y-96107052D01*
X136082816Y-96038499D01*
X136283313Y-95927361D01*
X136457368Y-95778178D01*
X136597871Y-95597043D01*
X136699081Y-95391356D01*
X136756865Y-95169519D01*
X136768863Y-94940593D01*
X136734583Y-94713932D01*
X136655428Y-94498792D01*
X136534628Y-94303963D01*
X136377121Y-94137403D01*
X136189339Y-94005917D01*
X135975886Y-93913548D01*
X135679084Y-93867600D01*
X135578728Y-93867600D01*
X135407934Y-93884948D01*
X135189184Y-93953501D01*
X134988687Y-94064639D01*
X134814632Y-94213822D01*
X134674129Y-94394957D01*
X134572919Y-94600644D01*
X134515135Y-94822481D01*
X134503137Y-95051407D01*
X130943206Y-95051407D01*
X130949930Y-94991935D01*
X130941610Y-94968110D01*
X130941610Y-94695307D01*
X130946858Y-94698814D01*
X131135743Y-94736386D01*
X131726257Y-94736386D01*
X131915142Y-94698814D01*
X132085791Y-94584791D01*
X132199814Y-94414142D01*
X132200479Y-94410800D01*
X134038532Y-94410800D01*
X134061978Y-94419034D01*
X134135970Y-94410800D01*
X134160547Y-94410800D01*
X134183961Y-94405460D01*
X134257376Y-94397289D01*
X134278860Y-94383812D01*
X134303622Y-94378164D01*
X134361918Y-94331710D01*
X134382349Y-94318893D01*
X134399398Y-94301843D01*
X134457332Y-94255677D01*
X134468299Y-94232943D01*
X135203059Y-93498183D01*
X135296114Y-93538452D01*
X135592916Y-93584400D01*
X135693272Y-93584400D01*
X135864066Y-93567052D01*
X136082816Y-93498499D01*
X136283313Y-93387361D01*
X136457368Y-93238178D01*
X136597871Y-93057043D01*
X136699081Y-92851356D01*
X136756865Y-92629519D01*
X136768863Y-92400593D01*
X136734583Y-92173932D01*
X136655428Y-91958792D01*
X136534628Y-91763963D01*
X136377121Y-91597403D01*
X136189339Y-91465917D01*
X135975886Y-91373548D01*
X135679084Y-91327600D01*
X135578728Y-91327600D01*
X135407934Y-91344948D01*
X135189184Y-91413501D01*
X134988687Y-91524639D01*
X134814632Y-91673822D01*
X134674129Y-91854957D01*
X134572919Y-92060644D01*
X134515135Y-92282481D01*
X134503137Y-92511407D01*
X134537417Y-92738068D01*
X134593166Y-92889591D01*
X133933558Y-93549200D01*
X132200479Y-93549200D01*
X132199814Y-93545858D01*
X132085791Y-93375209D01*
X131915142Y-93261186D01*
X131726257Y-93223614D01*
X131135743Y-93223614D01*
X130946858Y-93261186D01*
X130941610Y-93264693D01*
X130941610Y-93018778D01*
X130949844Y-92995331D01*
X130941610Y-92921340D01*
X130941610Y-92896763D01*
X130936270Y-92873349D01*
X130928099Y-92799934D01*
X130914622Y-92778450D01*
X130908974Y-92753689D01*
X130862521Y-92695393D01*
X130849702Y-92674959D01*
X130832649Y-92657907D01*
X130786486Y-92599976D01*
X130763754Y-92589011D01*
X130519092Y-92344350D01*
X130519091Y-92344348D01*
X130487386Y-92312643D01*
X130487386Y-91870243D01*
X130449814Y-91681358D01*
X130335791Y-91510709D01*
X130165141Y-91396685D01*
X130111800Y-91386075D01*
X130111800Y-91334442D01*
X130433857Y-91012386D01*
X130968410Y-91012386D01*
X131064628Y-90993247D01*
X131156715Y-90931715D01*
X131218247Y-90839628D01*
X131237386Y-90743410D01*
X131237386Y-89971407D01*
X134503137Y-89971407D01*
X134537417Y-90198068D01*
X134616572Y-90413208D01*
X134737372Y-90608037D01*
X134894879Y-90774597D01*
X135082661Y-90906083D01*
X135296114Y-90998452D01*
X135592916Y-91044400D01*
X135693272Y-91044400D01*
X135864066Y-91027052D01*
X136082816Y-90958499D01*
X136283313Y-90847361D01*
X136457368Y-90698178D01*
X136597871Y-90517043D01*
X136699081Y-90311356D01*
X136756865Y-90089519D01*
X136768863Y-89860593D01*
X136734583Y-89633932D01*
X136655428Y-89418792D01*
X136534628Y-89223963D01*
X136377121Y-89057403D01*
X136189339Y-88925917D01*
X135975886Y-88833548D01*
X135679084Y-88787600D01*
X135578728Y-88787600D01*
X135407934Y-88804948D01*
X135189184Y-88873501D01*
X134988687Y-88984639D01*
X134814632Y-89133822D01*
X134674129Y-89314957D01*
X134572919Y-89520644D01*
X134515135Y-89742481D01*
X134503137Y-89971407D01*
X131237386Y-89971407D01*
X131237386Y-89818590D01*
X131218247Y-89722372D01*
X131156715Y-89630285D01*
X131064628Y-89568753D01*
X130968410Y-89549614D01*
X130143590Y-89549614D01*
X130047372Y-89568753D01*
X129955285Y-89630285D01*
X129893753Y-89722372D01*
X129874614Y-89818590D01*
X129874614Y-89850200D01*
X129575444Y-89850200D01*
X128079800Y-88354558D01*
X128079800Y-87175925D01*
X128133141Y-87165315D01*
X128303791Y-87051291D01*
X128417814Y-86880642D01*
X128455386Y-86691757D01*
X128455386Y-86201243D01*
X128417814Y-86012358D01*
X128303791Y-85841709D01*
X128133141Y-85727685D01*
X128088828Y-85718871D01*
X128091617Y-85490573D01*
X128013317Y-85287126D01*
X127867525Y-85126057D01*
X127673521Y-85028271D01*
X127457323Y-85006883D01*
X127247920Y-85064759D01*
X127073392Y-85194138D01*
X126957143Y-85377673D01*
X126914759Y-85590752D01*
X126951924Y-85804802D01*
X126983588Y-85857605D01*
X126880186Y-86012358D01*
X126842614Y-86201243D01*
X123824000Y-86201243D01*
X123824000Y-84891407D01*
X124343137Y-84891407D01*
X124377417Y-85118068D01*
X124456572Y-85333208D01*
X124577372Y-85528037D01*
X124734879Y-85694597D01*
X124922661Y-85826083D01*
X125136114Y-85918452D01*
X125432916Y-85964400D01*
X125533272Y-85964400D01*
X125704066Y-85947052D01*
X125922816Y-85878499D01*
X126123313Y-85767361D01*
X126297368Y-85618178D01*
X126437871Y-85437043D01*
X126539081Y-85231356D01*
X126596865Y-85009519D01*
X126608863Y-84780593D01*
X126577732Y-84574752D01*
X127930759Y-84574752D01*
X127967924Y-84788802D01*
X128079655Y-84975123D01*
X128250970Y-85108728D01*
X128458896Y-85171703D01*
X128675553Y-85155603D01*
X128871886Y-85062586D01*
X128913776Y-85018521D01*
X129026209Y-85186791D01*
X129196858Y-85300814D01*
X129385743Y-85338386D01*
X129976257Y-85338386D01*
X130080010Y-85317748D01*
X130080010Y-85795842D01*
X130071776Y-85819289D01*
X130080010Y-85893280D01*
X130080010Y-85917857D01*
X130085350Y-85941270D01*
X130093520Y-86014686D01*
X130106998Y-86036171D01*
X130112646Y-86060931D01*
X130159100Y-86119227D01*
X130171917Y-86139659D01*
X130188968Y-86156709D01*
X130235132Y-86214642D01*
X130257867Y-86225609D01*
X130655008Y-86622750D01*
X129728145Y-87549614D01*
X129193590Y-87549614D01*
X129097372Y-87568753D01*
X129005285Y-87630285D01*
X128943753Y-87722372D01*
X128924614Y-87818590D01*
X128924614Y-88743410D01*
X128943753Y-88839628D01*
X129005285Y-88931715D01*
X129097372Y-88993247D01*
X129193590Y-89012386D01*
X130018410Y-89012386D01*
X130114628Y-88993247D01*
X130206715Y-88931715D01*
X130268247Y-88839628D01*
X130287386Y-88743410D01*
X130287386Y-88208855D01*
X131064834Y-87431407D01*
X134503137Y-87431407D01*
X134537417Y-87658068D01*
X134616572Y-87873208D01*
X134737372Y-88068037D01*
X134894879Y-88234597D01*
X135082661Y-88366083D01*
X135296114Y-88458452D01*
X135592916Y-88504400D01*
X135693272Y-88504400D01*
X135864066Y-88487052D01*
X136082816Y-88418499D01*
X136283313Y-88307361D01*
X136457368Y-88158178D01*
X136597871Y-87977043D01*
X136699081Y-87771356D01*
X136756865Y-87549519D01*
X136768863Y-87320593D01*
X136734583Y-87093932D01*
X136655428Y-86878792D01*
X136534628Y-86683963D01*
X136377121Y-86517403D01*
X136189339Y-86385917D01*
X135975886Y-86293548D01*
X135679084Y-86247600D01*
X135578728Y-86247600D01*
X135407934Y-86264948D01*
X135189184Y-86333501D01*
X134988687Y-86444639D01*
X134814632Y-86593822D01*
X134674129Y-86774957D01*
X134572919Y-86980644D01*
X134515135Y-87202481D01*
X134503137Y-87431407D01*
X131064834Y-87431407D01*
X131313993Y-87182249D01*
X131417743Y-87202886D01*
X132008257Y-87202886D01*
X132197142Y-87165314D01*
X132367791Y-87051291D01*
X132481814Y-86880642D01*
X132519386Y-86691757D01*
X132519386Y-86201243D01*
X132481814Y-86012358D01*
X132367791Y-85841709D01*
X132197142Y-85727686D01*
X132008257Y-85690114D01*
X131417743Y-85690114D01*
X131228858Y-85727686D01*
X131078736Y-85827993D01*
X130941610Y-85690868D01*
X130941610Y-84891407D01*
X134503137Y-84891407D01*
X134537417Y-85118068D01*
X134616572Y-85333208D01*
X134737372Y-85528037D01*
X134894879Y-85694597D01*
X135082661Y-85826083D01*
X135296114Y-85918452D01*
X135592916Y-85964400D01*
X135693272Y-85964400D01*
X135864066Y-85947052D01*
X136082816Y-85878499D01*
X136283313Y-85767361D01*
X136457368Y-85618178D01*
X136597871Y-85437043D01*
X136699081Y-85231356D01*
X136756865Y-85009519D01*
X136768863Y-84780593D01*
X136734583Y-84553932D01*
X136655428Y-84338792D01*
X136534628Y-84143963D01*
X136377121Y-83977403D01*
X136189339Y-83845917D01*
X135975886Y-83753548D01*
X135679084Y-83707600D01*
X135578728Y-83707600D01*
X135407934Y-83724948D01*
X135189184Y-83793501D01*
X134988687Y-83904639D01*
X134814632Y-84053822D01*
X134674129Y-84234957D01*
X134572919Y-84440644D01*
X134515135Y-84662481D01*
X134503137Y-84891407D01*
X130941610Y-84891407D01*
X130941610Y-83525078D01*
X130949844Y-83501631D01*
X130941610Y-83427640D01*
X130941610Y-83403063D01*
X130936270Y-83379649D01*
X130928099Y-83306234D01*
X130914622Y-83284750D01*
X130908974Y-83259989D01*
X130862521Y-83201693D01*
X130849702Y-83181259D01*
X130832649Y-83164207D01*
X130786486Y-83106276D01*
X130763754Y-83095311D01*
X130479647Y-82811205D01*
X130514628Y-82804247D01*
X130606715Y-82742715D01*
X130668247Y-82650628D01*
X130687386Y-82554410D01*
X130687386Y-81529590D01*
X130668247Y-81433372D01*
X130606715Y-81341285D01*
X130514628Y-81279753D01*
X130418410Y-81260614D01*
X129393590Y-81260614D01*
X129297372Y-81279753D01*
X129205285Y-81341285D01*
X129143753Y-81433372D01*
X129124614Y-81529590D01*
X129124614Y-82554410D01*
X129143753Y-82650628D01*
X129205285Y-82742715D01*
X129297372Y-82804247D01*
X129393590Y-82823386D01*
X129469927Y-82823386D01*
X129475200Y-82870770D01*
X129475200Y-82895347D01*
X129480540Y-82918760D01*
X129488710Y-82992176D01*
X129502188Y-83013661D01*
X129507836Y-83038421D01*
X129554290Y-83096717D01*
X129567107Y-83117149D01*
X129584158Y-83134199D01*
X129630322Y-83192132D01*
X129653057Y-83203099D01*
X130080011Y-83630053D01*
X130080011Y-83846252D01*
X129976257Y-83825614D01*
X129385743Y-83825614D01*
X129196858Y-83863186D01*
X129026209Y-83977209D01*
X128914545Y-84144328D01*
X128883524Y-84110057D01*
X128689521Y-84012271D01*
X128473323Y-83990883D01*
X128263920Y-84048759D01*
X128089392Y-84178138D01*
X127973143Y-84361673D01*
X127930759Y-84574752D01*
X126577732Y-84574752D01*
X126574583Y-84553932D01*
X126495428Y-84338792D01*
X126374628Y-84143963D01*
X126217121Y-83977403D01*
X126029339Y-83845917D01*
X125815886Y-83753548D01*
X125519084Y-83707600D01*
X125418728Y-83707600D01*
X125247934Y-83724948D01*
X125029184Y-83793501D01*
X124828687Y-83904639D01*
X124654632Y-84053822D01*
X124514129Y-84234957D01*
X124412919Y-84440644D01*
X124355135Y-84662481D01*
X124343137Y-84891407D01*
X123824000Y-84891407D01*
X123824000Y-81433590D01*
X124344614Y-81433590D01*
X124344614Y-83158410D01*
X124363753Y-83254628D01*
X124425285Y-83346715D01*
X124517372Y-83408247D01*
X124613590Y-83427386D01*
X126338410Y-83427386D01*
X126434628Y-83408247D01*
X126526715Y-83346715D01*
X126588247Y-83254628D01*
X126607386Y-83158410D01*
X126607386Y-81433590D01*
X126588247Y-81337372D01*
X126526715Y-81245285D01*
X126434628Y-81183753D01*
X126338410Y-81164614D01*
X124613590Y-81164614D01*
X124517372Y-81183753D01*
X124425285Y-81245285D01*
X124363753Y-81337372D01*
X124344614Y-81433590D01*
X123824000Y-81433590D01*
X123824000Y-80796400D01*
X137288000Y-80796400D01*
X137288000Y-99035600D01*
X123824000Y-99035600D01*
X123824000Y-97591407D01*
X124343137Y-97591407D01*
X124377417Y-97818068D01*
X124456572Y-98033208D01*
X124577372Y-98228037D01*
X124734879Y-98394597D01*
X124922661Y-98526083D01*
X125136114Y-98618452D01*
X125432916Y-98664400D01*
X125533272Y-98664400D01*
X125704066Y-98647052D01*
X125922816Y-98578499D01*
X126123313Y-98467361D01*
X126297368Y-98318178D01*
X126437871Y-98137043D01*
X126539081Y-97931356D01*
X126596865Y-97709519D01*
X126608863Y-97480593D01*
X126574583Y-97253932D01*
X126495428Y-97038792D01*
X126374628Y-96843963D01*
X126217121Y-96677403D01*
X126029339Y-96545917D01*
X125815886Y-96453548D01*
X125519084Y-96407600D01*
X125418728Y-96407600D01*
X125247934Y-96424948D01*
X125029184Y-96493501D01*
X124828687Y-96604639D01*
X124654632Y-96753822D01*
X124514129Y-96934957D01*
X124412919Y-97140644D01*
X124355135Y-97362481D01*
X124343137Y-97591407D01*
X123824000Y-97591407D01*
X123824000Y-95051407D01*
X124343137Y-95051407D01*
X124377417Y-95278068D01*
X124456572Y-95493208D01*
X124577372Y-95688037D01*
X124734879Y-95854597D01*
X124922661Y-95986083D01*
X125136114Y-96078452D01*
X125432916Y-96124400D01*
X125533272Y-96124400D01*
X125704066Y-96107052D01*
X125922816Y-96038499D01*
X126123313Y-95927361D01*
X126297368Y-95778178D01*
X126437871Y-95597043D01*
X126539081Y-95391356D01*
X126596865Y-95169519D01*
X126608863Y-94940593D01*
X126574583Y-94713932D01*
X126495428Y-94498792D01*
X126374628Y-94303963D01*
X126217121Y-94137403D01*
X126029339Y-94005917D01*
X125815886Y-93913548D01*
X125519084Y-93867600D01*
X125418728Y-93867600D01*
X125247934Y-93884948D01*
X125029184Y-93953501D01*
X124828687Y-94064639D01*
X124654632Y-94213822D01*
X124514129Y-94394957D01*
X124412919Y-94600644D01*
X124355135Y-94822481D01*
X124343137Y-95051407D01*
X123824000Y-95051407D01*
X123824000Y-92511407D01*
X123824000Y-92511407D01*
G37*
X123824000Y-92511407D02*
X124343137Y-92511407D01*
X124377417Y-92738068D01*
X124456572Y-92953208D01*
X124577372Y-93148037D01*
X124734879Y-93314597D01*
X124922661Y-93446083D01*
X125136114Y-93538452D01*
X125432916Y-93584400D01*
X125533272Y-93584400D01*
X125704066Y-93567052D01*
X125922816Y-93498499D01*
X126123313Y-93387361D01*
X126297368Y-93238178D01*
X126437871Y-93057043D01*
X126539081Y-92851356D01*
X126596865Y-92629519D01*
X126608863Y-92400593D01*
X126574583Y-92173932D01*
X126495428Y-91958792D01*
X126374628Y-91763963D01*
X126217121Y-91597403D01*
X126029339Y-91465917D01*
X125815886Y-91373548D01*
X125519084Y-91327600D01*
X125418728Y-91327600D01*
X125247934Y-91344948D01*
X125029184Y-91413501D01*
X124828687Y-91524639D01*
X124654632Y-91673822D01*
X124514129Y-91854957D01*
X124412919Y-92060644D01*
X124355135Y-92282481D01*
X124343137Y-92511407D01*
X123824000Y-92511407D01*
X123824000Y-89971407D01*
X124343137Y-89971407D01*
X124377417Y-90198068D01*
X124456572Y-90413208D01*
X124577372Y-90608037D01*
X124734879Y-90774597D01*
X124922661Y-90906083D01*
X125136114Y-90998452D01*
X125432916Y-91044400D01*
X125533272Y-91044400D01*
X125704066Y-91027052D01*
X125922816Y-90958499D01*
X126123313Y-90847361D01*
X126297368Y-90698178D01*
X126437871Y-90517043D01*
X126539081Y-90311356D01*
X126596865Y-90089519D01*
X126608863Y-89860593D01*
X126574583Y-89633932D01*
X126495428Y-89418792D01*
X126374628Y-89223963D01*
X126217121Y-89057403D01*
X126029339Y-88925917D01*
X125815886Y-88833548D01*
X125519084Y-88787600D01*
X125418728Y-88787600D01*
X125247934Y-88804948D01*
X125029184Y-88873501D01*
X124828687Y-88984639D01*
X124654632Y-89133822D01*
X124514129Y-89314957D01*
X124412919Y-89520644D01*
X124355135Y-89742481D01*
X124343137Y-89971407D01*
X123824000Y-89971407D01*
X123824000Y-87431407D01*
X124343137Y-87431407D01*
X124377417Y-87658068D01*
X124456572Y-87873208D01*
X124577372Y-88068037D01*
X124734879Y-88234597D01*
X124922661Y-88366083D01*
X125136114Y-88458452D01*
X125432916Y-88504400D01*
X125533272Y-88504400D01*
X125704066Y-88487052D01*
X125922816Y-88418499D01*
X126123313Y-88307361D01*
X126297368Y-88158178D01*
X126437871Y-87977043D01*
X126539081Y-87771356D01*
X126596865Y-87549519D01*
X126608863Y-87320593D01*
X126574583Y-87093932D01*
X126495428Y-86878792D01*
X126374628Y-86683963D01*
X126217121Y-86517403D01*
X126029339Y-86385917D01*
X125815886Y-86293548D01*
X125519084Y-86247600D01*
X125418728Y-86247600D01*
X125247934Y-86264948D01*
X125029184Y-86333501D01*
X124828687Y-86444639D01*
X124654632Y-86593822D01*
X124514129Y-86774957D01*
X124412919Y-86980644D01*
X124355135Y-87202481D01*
X124343137Y-87431407D01*
X123824000Y-87431407D01*
X123824000Y-86201243D01*
X126842614Y-86201243D01*
X126842614Y-86691757D01*
X126880186Y-86880642D01*
X126994209Y-87051291D01*
X127164859Y-87165315D01*
X127218201Y-87175925D01*
X127218200Y-88459532D01*
X127209966Y-88482979D01*
X127218200Y-88556970D01*
X127218200Y-88581547D01*
X127223540Y-88604960D01*
X127231710Y-88678376D01*
X127245188Y-88699861D01*
X127250836Y-88724621D01*
X127297290Y-88782917D01*
X127310107Y-88803349D01*
X127327157Y-88820399D01*
X127373323Y-88878334D01*
X127396058Y-88889300D01*
X129040429Y-90533673D01*
X129051186Y-90556074D01*
X129109330Y-90602574D01*
X129126708Y-90619952D01*
X129147043Y-90632732D01*
X129204725Y-90678863D01*
X129229452Y-90684527D01*
X129250956Y-90698041D01*
X129325009Y-90706413D01*
X129348534Y-90711800D01*
X129372663Y-90711800D01*
X129446255Y-90720120D01*
X129470080Y-90711800D01*
X129515959Y-90711800D01*
X129428332Y-90799427D01*
X129405927Y-90810186D01*
X129359423Y-90868335D01*
X129342050Y-90885708D01*
X129329270Y-90906040D01*
X129283136Y-90963729D01*
X129277474Y-90988452D01*
X129263959Y-91009953D01*
X129255585Y-91084026D01*
X129250201Y-91107531D01*
X129250201Y-91131654D01*
X129241880Y-91205255D01*
X129250201Y-91229083D01*
X129250201Y-91386075D01*
X129196859Y-91396685D01*
X129026209Y-91510709D01*
X128912186Y-91681358D01*
X128874614Y-91870243D01*
X128874614Y-92360757D01*
X128912186Y-92549642D01*
X129026209Y-92720291D01*
X129196858Y-92834314D01*
X129385743Y-92871886D01*
X129828144Y-92871886D01*
X129909945Y-92953688D01*
X129909947Y-92953689D01*
X130080011Y-93123754D01*
X130080011Y-93244252D01*
X129976257Y-93223614D01*
X129385743Y-93223614D01*
X129196858Y-93261186D01*
X129026209Y-93375209D01*
X128912186Y-93545858D01*
X128874614Y-93734743D01*
X128874614Y-94177142D01*
X128017331Y-95034427D01*
X127994926Y-95045186D01*
X127948423Y-95103336D01*
X127931050Y-95120708D01*
X127918276Y-95141032D01*
X127872136Y-95198728D01*
X127866473Y-95223454D01*
X127852960Y-95244955D01*
X127844587Y-95319010D01*
X127839200Y-95342535D01*
X127839200Y-95366663D01*
X127830880Y-95440255D01*
X127839200Y-95464080D01*
X127839201Y-96700529D01*
X127830966Y-96723978D01*
X127839201Y-96797979D01*
X127839201Y-96822548D01*
X127844539Y-96845952D01*
X127852711Y-96919376D01*
X127866190Y-96940864D01*
X127871838Y-96965623D01*
X127918289Y-97023915D01*
X127931108Y-97044349D01*
X127948161Y-97061402D01*
X127994325Y-97119334D01*
X128017057Y-97130299D01*
X128504614Y-97617857D01*
X128504614Y-98048410D01*
X128523753Y-98144628D01*
X128585285Y-98236715D01*
X128677372Y-98298247D01*
X128773590Y-98317386D01*
X129798410Y-98317386D01*
X129894628Y-98298247D01*
X129986715Y-98236715D01*
X130048247Y-98144628D01*
X130051202Y-98129773D01*
X130094831Y-98170743D01*
X130270714Y-98267436D01*
X130516908Y-98314400D01*
X130604971Y-98314400D01*
X130751119Y-98295937D01*
X130933977Y-98223538D01*
X131093086Y-98107939D01*
X131191529Y-97988942D01*
X131221466Y-98036114D01*
X131364831Y-98170743D01*
X131540714Y-98267436D01*
X131786908Y-98314400D01*
X131874971Y-98314400D01*
X132021119Y-98295937D01*
X132203977Y-98223538D01*
X132363086Y-98107939D01*
X132488448Y-97956403D01*
X132572186Y-97778451D01*
X132607866Y-97591407D01*
X134503137Y-97591407D01*
X134537417Y-97818068D01*
X134616572Y-98033208D01*
X134737372Y-98228037D01*
X134894879Y-98394597D01*
X135082661Y-98526083D01*
X135296114Y-98618452D01*
X135592916Y-98664400D01*
X135693272Y-98664400D01*
X135864066Y-98647052D01*
X136082816Y-98578499D01*
X136283313Y-98467361D01*
X136457368Y-98318178D01*
X136597871Y-98137043D01*
X136699081Y-97931356D01*
X136756865Y-97709519D01*
X136768863Y-97480593D01*
X136734583Y-97253932D01*
X136655428Y-97038792D01*
X136534628Y-96843963D01*
X136377121Y-96677403D01*
X136189339Y-96545917D01*
X135975886Y-96453548D01*
X135679084Y-96407600D01*
X135578728Y-96407600D01*
X135407934Y-96424948D01*
X135189184Y-96493501D01*
X134988687Y-96604639D01*
X134814632Y-96753822D01*
X134674129Y-96934957D01*
X134572919Y-97140644D01*
X134515135Y-97362481D01*
X134503137Y-97591407D01*
X132607866Y-97591407D01*
X132609038Y-97585265D01*
X132596689Y-97388984D01*
X132535915Y-97201939D01*
X132430534Y-97035886D01*
X132287169Y-96901257D01*
X132111286Y-96804564D01*
X131865092Y-96757600D01*
X131777029Y-96757600D01*
X131630881Y-96776063D01*
X131448023Y-96848462D01*
X131288914Y-96964061D01*
X131190471Y-97083058D01*
X131160534Y-97035886D01*
X131017169Y-96901257D01*
X131010774Y-96897742D01*
X131093086Y-96837939D01*
X131218448Y-96686403D01*
X131302186Y-96508451D01*
X131339038Y-96315265D01*
X131326689Y-96118984D01*
X131265915Y-95931939D01*
X131160534Y-95765886D01*
X131017169Y-95631257D01*
X130841286Y-95534564D01*
X130661058Y-95500184D01*
X130763479Y-95397763D01*
X130785883Y-95387005D01*
X130832385Y-95328857D01*
X130849761Y-95311482D01*
X130862539Y-95291152D01*
X130908673Y-95233464D01*
X130914337Y-95208738D01*
X130927850Y-95187236D01*
X130936223Y-95113181D01*
X130941610Y-95089656D01*
X130941610Y-95065527D01*
X130943206Y-95051407D01*
X134503137Y-95051407D01*
X134537417Y-95278068D01*
X134616572Y-95493208D01*
X134737372Y-95688037D01*
X134894879Y-95854597D01*
X135082661Y-95986083D01*
X135296114Y-96078452D01*
X135592916Y-96124400D01*
X135693272Y-96124400D01*
X135864066Y-96107052D01*
X136082816Y-96038499D01*
X136283313Y-95927361D01*
X136457368Y-95778178D01*
X136597871Y-95597043D01*
X136699081Y-95391356D01*
X136756865Y-95169519D01*
X136768863Y-94940593D01*
X136734583Y-94713932D01*
X136655428Y-94498792D01*
X136534628Y-94303963D01*
X136377121Y-94137403D01*
X136189339Y-94005917D01*
X135975886Y-93913548D01*
X135679084Y-93867600D01*
X135578728Y-93867600D01*
X135407934Y-93884948D01*
X135189184Y-93953501D01*
X134988687Y-94064639D01*
X134814632Y-94213822D01*
X134674129Y-94394957D01*
X134572919Y-94600644D01*
X134515135Y-94822481D01*
X134503137Y-95051407D01*
X130943206Y-95051407D01*
X130949930Y-94991935D01*
X130941610Y-94968110D01*
X130941610Y-94695307D01*
X130946858Y-94698814D01*
X131135743Y-94736386D01*
X131726257Y-94736386D01*
X131915142Y-94698814D01*
X132085791Y-94584791D01*
X132199814Y-94414142D01*
X132200479Y-94410800D01*
X134038532Y-94410800D01*
X134061978Y-94419034D01*
X134135970Y-94410800D01*
X134160547Y-94410800D01*
X134183961Y-94405460D01*
X134257376Y-94397289D01*
X134278860Y-94383812D01*
X134303622Y-94378164D01*
X134361918Y-94331710D01*
X134382349Y-94318893D01*
X134399398Y-94301843D01*
X134457332Y-94255677D01*
X134468299Y-94232943D01*
X135203059Y-93498183D01*
X135296114Y-93538452D01*
X135592916Y-93584400D01*
X135693272Y-93584400D01*
X135864066Y-93567052D01*
X136082816Y-93498499D01*
X136283313Y-93387361D01*
X136457368Y-93238178D01*
X136597871Y-93057043D01*
X136699081Y-92851356D01*
X136756865Y-92629519D01*
X136768863Y-92400593D01*
X136734583Y-92173932D01*
X136655428Y-91958792D01*
X136534628Y-91763963D01*
X136377121Y-91597403D01*
X136189339Y-91465917D01*
X135975886Y-91373548D01*
X135679084Y-91327600D01*
X135578728Y-91327600D01*
X135407934Y-91344948D01*
X135189184Y-91413501D01*
X134988687Y-91524639D01*
X134814632Y-91673822D01*
X134674129Y-91854957D01*
X134572919Y-92060644D01*
X134515135Y-92282481D01*
X134503137Y-92511407D01*
X134537417Y-92738068D01*
X134593166Y-92889591D01*
X133933558Y-93549200D01*
X132200479Y-93549200D01*
X132199814Y-93545858D01*
X132085791Y-93375209D01*
X131915142Y-93261186D01*
X131726257Y-93223614D01*
X131135743Y-93223614D01*
X130946858Y-93261186D01*
X130941610Y-93264693D01*
X130941610Y-93018778D01*
X130949844Y-92995331D01*
X130941610Y-92921340D01*
X130941610Y-92896763D01*
X130936270Y-92873349D01*
X130928099Y-92799934D01*
X130914622Y-92778450D01*
X130908974Y-92753689D01*
X130862521Y-92695393D01*
X130849702Y-92674959D01*
X130832649Y-92657907D01*
X130786486Y-92599976D01*
X130763754Y-92589011D01*
X130519092Y-92344350D01*
X130519091Y-92344348D01*
X130487386Y-92312643D01*
X130487386Y-91870243D01*
X130449814Y-91681358D01*
X130335791Y-91510709D01*
X130165141Y-91396685D01*
X130111800Y-91386075D01*
X130111800Y-91334442D01*
X130433857Y-91012386D01*
X130968410Y-91012386D01*
X131064628Y-90993247D01*
X131156715Y-90931715D01*
X131218247Y-90839628D01*
X131237386Y-90743410D01*
X131237386Y-89971407D01*
X134503137Y-89971407D01*
X134537417Y-90198068D01*
X134616572Y-90413208D01*
X134737372Y-90608037D01*
X134894879Y-90774597D01*
X135082661Y-90906083D01*
X135296114Y-90998452D01*
X135592916Y-91044400D01*
X135693272Y-91044400D01*
X135864066Y-91027052D01*
X136082816Y-90958499D01*
X136283313Y-90847361D01*
X136457368Y-90698178D01*
X136597871Y-90517043D01*
X136699081Y-90311356D01*
X136756865Y-90089519D01*
X136768863Y-89860593D01*
X136734583Y-89633932D01*
X136655428Y-89418792D01*
X136534628Y-89223963D01*
X136377121Y-89057403D01*
X136189339Y-88925917D01*
X135975886Y-88833548D01*
X135679084Y-88787600D01*
X135578728Y-88787600D01*
X135407934Y-88804948D01*
X135189184Y-88873501D01*
X134988687Y-88984639D01*
X134814632Y-89133822D01*
X134674129Y-89314957D01*
X134572919Y-89520644D01*
X134515135Y-89742481D01*
X134503137Y-89971407D01*
X131237386Y-89971407D01*
X131237386Y-89818590D01*
X131218247Y-89722372D01*
X131156715Y-89630285D01*
X131064628Y-89568753D01*
X130968410Y-89549614D01*
X130143590Y-89549614D01*
X130047372Y-89568753D01*
X129955285Y-89630285D01*
X129893753Y-89722372D01*
X129874614Y-89818590D01*
X129874614Y-89850200D01*
X129575444Y-89850200D01*
X128079800Y-88354558D01*
X128079800Y-87175925D01*
X128133141Y-87165315D01*
X128303791Y-87051291D01*
X128417814Y-86880642D01*
X128455386Y-86691757D01*
X128455386Y-86201243D01*
X128417814Y-86012358D01*
X128303791Y-85841709D01*
X128133141Y-85727685D01*
X128088828Y-85718871D01*
X128091617Y-85490573D01*
X128013317Y-85287126D01*
X127867525Y-85126057D01*
X127673521Y-85028271D01*
X127457323Y-85006883D01*
X127247920Y-85064759D01*
X127073392Y-85194138D01*
X126957143Y-85377673D01*
X126914759Y-85590752D01*
X126951924Y-85804802D01*
X126983588Y-85857605D01*
X126880186Y-86012358D01*
X126842614Y-86201243D01*
X123824000Y-86201243D01*
X123824000Y-84891407D01*
X124343137Y-84891407D01*
X124377417Y-85118068D01*
X124456572Y-85333208D01*
X124577372Y-85528037D01*
X124734879Y-85694597D01*
X124922661Y-85826083D01*
X125136114Y-85918452D01*
X125432916Y-85964400D01*
X125533272Y-85964400D01*
X125704066Y-85947052D01*
X125922816Y-85878499D01*
X126123313Y-85767361D01*
X126297368Y-85618178D01*
X126437871Y-85437043D01*
X126539081Y-85231356D01*
X126596865Y-85009519D01*
X126608863Y-84780593D01*
X126577732Y-84574752D01*
X127930759Y-84574752D01*
X127967924Y-84788802D01*
X128079655Y-84975123D01*
X128250970Y-85108728D01*
X128458896Y-85171703D01*
X128675553Y-85155603D01*
X128871886Y-85062586D01*
X128913776Y-85018521D01*
X129026209Y-85186791D01*
X129196858Y-85300814D01*
X129385743Y-85338386D01*
X129976257Y-85338386D01*
X130080010Y-85317748D01*
X130080010Y-85795842D01*
X130071776Y-85819289D01*
X130080010Y-85893280D01*
X130080010Y-85917857D01*
X130085350Y-85941270D01*
X130093520Y-86014686D01*
X130106998Y-86036171D01*
X130112646Y-86060931D01*
X130159100Y-86119227D01*
X130171917Y-86139659D01*
X130188968Y-86156709D01*
X130235132Y-86214642D01*
X130257867Y-86225609D01*
X130655008Y-86622750D01*
X129728145Y-87549614D01*
X129193590Y-87549614D01*
X129097372Y-87568753D01*
X129005285Y-87630285D01*
X128943753Y-87722372D01*
X128924614Y-87818590D01*
X128924614Y-88743410D01*
X128943753Y-88839628D01*
X129005285Y-88931715D01*
X129097372Y-88993247D01*
X129193590Y-89012386D01*
X130018410Y-89012386D01*
X130114628Y-88993247D01*
X130206715Y-88931715D01*
X130268247Y-88839628D01*
X130287386Y-88743410D01*
X130287386Y-88208855D01*
X131064834Y-87431407D01*
X134503137Y-87431407D01*
X134537417Y-87658068D01*
X134616572Y-87873208D01*
X134737372Y-88068037D01*
X134894879Y-88234597D01*
X135082661Y-88366083D01*
X135296114Y-88458452D01*
X135592916Y-88504400D01*
X135693272Y-88504400D01*
X135864066Y-88487052D01*
X136082816Y-88418499D01*
X136283313Y-88307361D01*
X136457368Y-88158178D01*
X136597871Y-87977043D01*
X136699081Y-87771356D01*
X136756865Y-87549519D01*
X136768863Y-87320593D01*
X136734583Y-87093932D01*
X136655428Y-86878792D01*
X136534628Y-86683963D01*
X136377121Y-86517403D01*
X136189339Y-86385917D01*
X135975886Y-86293548D01*
X135679084Y-86247600D01*
X135578728Y-86247600D01*
X135407934Y-86264948D01*
X135189184Y-86333501D01*
X134988687Y-86444639D01*
X134814632Y-86593822D01*
X134674129Y-86774957D01*
X134572919Y-86980644D01*
X134515135Y-87202481D01*
X134503137Y-87431407D01*
X131064834Y-87431407D01*
X131313993Y-87182249D01*
X131417743Y-87202886D01*
X132008257Y-87202886D01*
X132197142Y-87165314D01*
X132367791Y-87051291D01*
X132481814Y-86880642D01*
X132519386Y-86691757D01*
X132519386Y-86201243D01*
X132481814Y-86012358D01*
X132367791Y-85841709D01*
X132197142Y-85727686D01*
X132008257Y-85690114D01*
X131417743Y-85690114D01*
X131228858Y-85727686D01*
X131078736Y-85827993D01*
X130941610Y-85690868D01*
X130941610Y-84891407D01*
X134503137Y-84891407D01*
X134537417Y-85118068D01*
X134616572Y-85333208D01*
X134737372Y-85528037D01*
X134894879Y-85694597D01*
X135082661Y-85826083D01*
X135296114Y-85918452D01*
X135592916Y-85964400D01*
X135693272Y-85964400D01*
X135864066Y-85947052D01*
X136082816Y-85878499D01*
X136283313Y-85767361D01*
X136457368Y-85618178D01*
X136597871Y-85437043D01*
X136699081Y-85231356D01*
X136756865Y-85009519D01*
X136768863Y-84780593D01*
X136734583Y-84553932D01*
X136655428Y-84338792D01*
X136534628Y-84143963D01*
X136377121Y-83977403D01*
X136189339Y-83845917D01*
X135975886Y-83753548D01*
X135679084Y-83707600D01*
X135578728Y-83707600D01*
X135407934Y-83724948D01*
X135189184Y-83793501D01*
X134988687Y-83904639D01*
X134814632Y-84053822D01*
X134674129Y-84234957D01*
X134572919Y-84440644D01*
X134515135Y-84662481D01*
X134503137Y-84891407D01*
X130941610Y-84891407D01*
X130941610Y-83525078D01*
X130949844Y-83501631D01*
X130941610Y-83427640D01*
X130941610Y-83403063D01*
X130936270Y-83379649D01*
X130928099Y-83306234D01*
X130914622Y-83284750D01*
X130908974Y-83259989D01*
X130862521Y-83201693D01*
X130849702Y-83181259D01*
X130832649Y-83164207D01*
X130786486Y-83106276D01*
X130763754Y-83095311D01*
X130479647Y-82811205D01*
X130514628Y-82804247D01*
X130606715Y-82742715D01*
X130668247Y-82650628D01*
X130687386Y-82554410D01*
X130687386Y-81529590D01*
X130668247Y-81433372D01*
X130606715Y-81341285D01*
X130514628Y-81279753D01*
X130418410Y-81260614D01*
X129393590Y-81260614D01*
X129297372Y-81279753D01*
X129205285Y-81341285D01*
X129143753Y-81433372D01*
X129124614Y-81529590D01*
X129124614Y-82554410D01*
X129143753Y-82650628D01*
X129205285Y-82742715D01*
X129297372Y-82804247D01*
X129393590Y-82823386D01*
X129469927Y-82823386D01*
X129475200Y-82870770D01*
X129475200Y-82895347D01*
X129480540Y-82918760D01*
X129488710Y-82992176D01*
X129502188Y-83013661D01*
X129507836Y-83038421D01*
X129554290Y-83096717D01*
X129567107Y-83117149D01*
X129584158Y-83134199D01*
X129630322Y-83192132D01*
X129653057Y-83203099D01*
X130080011Y-83630053D01*
X130080011Y-83846252D01*
X129976257Y-83825614D01*
X129385743Y-83825614D01*
X129196858Y-83863186D01*
X129026209Y-83977209D01*
X128914545Y-84144328D01*
X128883524Y-84110057D01*
X128689521Y-84012271D01*
X128473323Y-83990883D01*
X128263920Y-84048759D01*
X128089392Y-84178138D01*
X127973143Y-84361673D01*
X127930759Y-84574752D01*
X126577732Y-84574752D01*
X126574583Y-84553932D01*
X126495428Y-84338792D01*
X126374628Y-84143963D01*
X126217121Y-83977403D01*
X126029339Y-83845917D01*
X125815886Y-83753548D01*
X125519084Y-83707600D01*
X125418728Y-83707600D01*
X125247934Y-83724948D01*
X125029184Y-83793501D01*
X124828687Y-83904639D01*
X124654632Y-84053822D01*
X124514129Y-84234957D01*
X124412919Y-84440644D01*
X124355135Y-84662481D01*
X124343137Y-84891407D01*
X123824000Y-84891407D01*
X123824000Y-81433590D01*
X124344614Y-81433590D01*
X124344614Y-83158410D01*
X124363753Y-83254628D01*
X124425285Y-83346715D01*
X124517372Y-83408247D01*
X124613590Y-83427386D01*
X126338410Y-83427386D01*
X126434628Y-83408247D01*
X126526715Y-83346715D01*
X126588247Y-83254628D01*
X126607386Y-83158410D01*
X126607386Y-81433590D01*
X126588247Y-81337372D01*
X126526715Y-81245285D01*
X126434628Y-81183753D01*
X126338410Y-81164614D01*
X124613590Y-81164614D01*
X124517372Y-81183753D01*
X124425285Y-81245285D01*
X124363753Y-81337372D01*
X124344614Y-81433590D01*
X123824000Y-81433590D01*
X123824000Y-80796400D01*
X137288000Y-80796400D01*
X137288000Y-99035600D01*
X123824000Y-99035600D01*
X123824000Y-97591407D01*
X124343137Y-97591407D01*
X124377417Y-97818068D01*
X124456572Y-98033208D01*
X124577372Y-98228037D01*
X124734879Y-98394597D01*
X124922661Y-98526083D01*
X125136114Y-98618452D01*
X125432916Y-98664400D01*
X125533272Y-98664400D01*
X125704066Y-98647052D01*
X125922816Y-98578499D01*
X126123313Y-98467361D01*
X126297368Y-98318178D01*
X126437871Y-98137043D01*
X126539081Y-97931356D01*
X126596865Y-97709519D01*
X126608863Y-97480593D01*
X126574583Y-97253932D01*
X126495428Y-97038792D01*
X126374628Y-96843963D01*
X126217121Y-96677403D01*
X126029339Y-96545917D01*
X125815886Y-96453548D01*
X125519084Y-96407600D01*
X125418728Y-96407600D01*
X125247934Y-96424948D01*
X125029184Y-96493501D01*
X124828687Y-96604639D01*
X124654632Y-96753822D01*
X124514129Y-96934957D01*
X124412919Y-97140644D01*
X124355135Y-97362481D01*
X124343137Y-97591407D01*
X123824000Y-97591407D01*
X123824000Y-95051407D01*
X124343137Y-95051407D01*
X124377417Y-95278068D01*
X124456572Y-95493208D01*
X124577372Y-95688037D01*
X124734879Y-95854597D01*
X124922661Y-95986083D01*
X125136114Y-96078452D01*
X125432916Y-96124400D01*
X125533272Y-96124400D01*
X125704066Y-96107052D01*
X125922816Y-96038499D01*
X126123313Y-95927361D01*
X126297368Y-95778178D01*
X126437871Y-95597043D01*
X126539081Y-95391356D01*
X126596865Y-95169519D01*
X126608863Y-94940593D01*
X126574583Y-94713932D01*
X126495428Y-94498792D01*
X126374628Y-94303963D01*
X126217121Y-94137403D01*
X126029339Y-94005917D01*
X125815886Y-93913548D01*
X125519084Y-93867600D01*
X125418728Y-93867600D01*
X125247934Y-93884948D01*
X125029184Y-93953501D01*
X124828687Y-94064639D01*
X124654632Y-94213822D01*
X124514129Y-94394957D01*
X124412919Y-94600644D01*
X124355135Y-94822481D01*
X124343137Y-95051407D01*
X123824000Y-95051407D01*
X123824000Y-92511407D01*
M02*
