M48
; DRILL file {KiCad (5.1.0-1419-g57928c41b)} date Saturday, August 03, 2019 at 08:03:27 PM
; FORMAT={-:-/ absolute / inch / decimal}
; #@! TF.CreationDate,2019-08-03T20:03:27-07:00
; #@! TF.GenerationSoftware,Kicad,Pcbnew,(5.1.0-1419-g57928c41b)
; #@! TF.FileFunction,Plated,1,2,PTH
FMAT,2
INCH
T1C0.0120
T2C0.0256
T3C0.0394
%
G90
G05
T1
X5.0Y-3.79
X5.15Y-3.66
X5.17Y-3.25
X5.17Y-3.57
X5.26Y-3.22
T2
X5.09Y-3.86
X5.14Y-3.86
X5.19Y-3.86
X5.03Y-3.21
X5.03Y-3.26
X5.03Y-3.31
T3
X5.39Y-3.24
X5.39Y-3.34
X5.39Y-3.44
X5.39Y-3.54
X5.39Y-3.64
X5.39Y-3.74
X5.39Y-3.84
X4.89Y-3.24
X4.89Y-3.34
X4.89Y-3.44
X4.89Y-3.54
X4.89Y-3.64
X4.89Y-3.74
X4.89Y-3.84
T0
M30
